<svg width="32" height="36" viewBox="0 0 32 36" fill="none" xmlns="http://www.w3.org/2000/svg">
  <!-- 原青色错位部分 (半透明白) -->
  <path d="M12.3854 14.1733V12.7698C11.8982 12.7019 11.4071 12.6662 10.9152 12.6631C8.59386 12.6621 6.33272 13.4015 4.46047 14.7738C2.58821 16.1461 1.20245 18.0798 0.50464 20.2938C-0.193175 22.5077 -0.166668 24.8865 0.580307 27.0844C1.32728 29.2823 2.75579 31.1846 4.65815 32.5149C3.22254 30.976 2.26287 29.0546 1.89493 26.9825C1.52698 24.9104 1.76647 22.7761 2.58451 20.837C3.40255 18.898 4.76419 17.2371 6.50516 16.0547C8.24612 14.8723 10.292 14.2189 12.3961 14.1733" fill="#FFFFFF" fill-opacity="0.5"/>
  
  <!-- 原红色错位部分 (半透明白) -->
  <path d="M10.9154 18.5946C9.80002 18.5929 8.71632 18.9655 7.83787 19.6528C6.95942 20.3401 6.33705 21.3024 6.07044 22.3854C5.80382 23.4685 5.9084 24.6097 6.3674 25.6263C6.82641 26.6428 7.6133 27.4759 8.60203 27.9922C8.0642 27.2486 7.74246 26.3707 7.67239 25.4557C7.60232 24.5407 7.78665 23.6241 8.205 22.8073C8.62334 21.9905 9.25941 21.3052 10.0429 20.8274C10.8264 20.3495 11.7267 20.0976 12.6444 20.0995C13.1433 20.1004 13.6392 20.1778 14.1146 20.329V14.2747C13.6276 14.2054 13.1364 14.1697 12.6444 14.168H12.3776V18.8241C11.9021 18.6729 11.4063 18.5955 10.9074 18.5946" fill="#FFFFFF" fill-opacity="0.5"/>
  
  <!-- 原青色错位部分 (半透明白) -->
  <path d="M12.6445 30.0685C13.9315 30.0646 15.167 29.563 16.0926 28.6688C17.0181 27.7746 17.5619 26.557 17.6101 25.271V1.50489H21.97C21.8777 1.00859 21.8312 0.504827 21.8313 0L15.8998 0V23.7661C15.8695 24.607 15.6265 25.4266 15.1934 26.1481C14.7603 26.8695 14.1513 27.4694 13.4234 27.8916C12.6955 28.3138 11.8724 28.5445 11.0311 28.5622C10.1898 28.5799 9.35778 28.3839 8.61279 27.9926C9.07368 28.6344 9.68062 29.1574 10.3835 29.5183C11.0864 29.8793 11.865 30.0679 12.6552 30.0685" fill="#FFFFFF" fill-opacity="0.5"/>
  
  <!-- 原青色错位部分 (半透明白) -->
  <path d="M30.0815 9.57092V8.25014C28.4856 8.25352 26.9236 7.78975 25.5881 6.91602C26.757 8.26913 28.334 9.2056 30.0815 9.58426" fill="#FFFFFF" fill-opacity="0.5"/>
  
  <!-- 原红色错位部分 (半透明白) -->
  <path d="M25.588 6.91342C24.2783 5.41611 23.5567 3.49419 23.5575 1.50488H21.9565C22.1642 2.60527 22.5932 3.65203 23.2174 4.58172C23.8416 5.51141 24.6481 6.30467 25.588 6.91342Z" fill="#FFFFFF" fill-opacity="0.5"/>
  
  <!-- 原红色错位部分 (半透明白) -->
  <path d="M30.0813 9.57129V14.182C27.1206 14.1858 24.2339 13.2568 21.831 11.5271V23.5796C21.8323 25.5765 21.2853 27.5355 20.2498 29.243C19.2142 30.9504 17.7298 32.3408 15.9583 33.2626C14.1868 34.1844 12.1963 34.6022 10.2037 34.4705C8.2111 34.3387 6.2929 33.6625 4.6582 32.5156C6.15038 34.1217 8.09193 35.241 10.2297 35.7274C12.3674 36.2138 14.6021 36.0447 16.6423 35.2422C18.6825 34.4397 20.4335 33.0411 21.6671 31.2287C22.9006 29.4162 23.5593 27.2742 23.5574 25.0818V13.032C25.9606 14.7611 28.847 15.6899 31.8076 15.6869V9.7554C31.2273 9.7554 30.6486 9.69368 30.0813 9.57129Z" fill="#FFFFFF" fill-opacity="0.5"/>
  
  <!-- 中间主体部分 (纯白色) -->
  <path d="M21.8311 23.5793V11.5268C24.2331 13.2562 27.1188 14.1851 30.0786 14.1817V9.571C28.3322 9.19162 26.7562 8.25522 25.588 6.90275C24.6517 6.29388 23.8485 5.50171 23.2266 4.574C22.6048 3.6463 22.1773 2.60228 21.9698 1.50488H17.6286V25.271C17.5911 26.3083 17.2302 27.308 16.5963 28.13C15.9624 28.952 15.0874 29.5552 14.0936 29.8552C13.0999 30.1552 12.0372 30.1369 11.0544 29.8029C10.0716 29.4689 9.2178 28.8359 8.61259 27.9926C7.62386 27.4764 6.83697 26.6432 6.37796 25.6267C5.91895 24.6101 5.81438 23.4689 6.08099 22.3859C6.34761 21.3028 6.96998 20.3406 7.84843 19.6532C8.72688 18.9659 9.81058 18.5933 10.926 18.595C11.4249 18.5959 11.9207 18.6733 12.3962 18.8245V14.1764C10.2927 14.2224 8.24736 14.8759 6.50692 16.0582C4.76648 17.2405 3.40521 18.901 2.58727 20.8395C1.76933 22.778 1.52964 24.9118 1.8971 26.9835C2.26456 29.0552 3.22349 30.9763 4.65825 32.5153C6.29295 33.6622 8.21115 34.3384 10.2037 34.4702C12.1963 34.6019 14.1869 34.1841 15.9583 33.2623C17.7298 32.3405 19.2142 30.9501 20.2498 29.2427C21.2854 27.5352 21.8323 25.5762 21.8311 23.5793Z" fill="#FFFFFF"/>
</svg>
