<svg width="24" height="24" viewBox="0 0 24 24" fill="none" xmlns="http://www.w3.org/2000/svg">
<path fill-rule="evenodd" clip-rule="evenodd" d="M22.0607 7.93934C22.6464 8.52513 22.6464 9.47487 22.0607 10.0607L13.0607 19.0607C12.4749 19.6464 11.5251 19.6464 10.9393 19.0607L1.93934 10.0607C1.35355 9.47487 1.35355 8.52513 1.93934 7.93934C2.52513 7.35355 3.47487 7.35355 4.06066 7.93934L10.5 14.3787L10.5 1.5C10.5 0.671572 11.1716 -4.95181e-07 12 -4.5897e-07C12.8284 -4.22758e-07 13.5 0.671572 13.5 1.5L13.5 14.3787L19.9393 7.93934C20.5251 7.35355 21.4749 7.35355 22.0607 7.93934Z" fill="#001926"/>
<rect y="21" width="24" height="3" rx="1.5" fill="#001926"/>
</svg>
