<svg xmlns="http://www.w3.org/2000/svg" width="2587" height="438" viewBox="0 0 2587 438" fill="#FFFFFF">

  <!-- 
    作者: AI Assistant
    描述: 使用可重用的 SVG 符号 (<symbol>) 创建单词 "TESTANKI"。
    - <defs> 部分定义了每个字母的形状模板。
    - <use> 标签将这些模板放置在画布上，并设置它们的位置和大小。
    - 所有字母的高度均为 438px，字母间距统一为 25px。
  -->

  <defs>
    <!-- 定义字母 T 的形状 -->
    <symbol id="letter-T" viewBox="0 0 313.67 418.04">
      <path d="M108.41 0H0V104.49h108.41V418.04h104.85V104.49h100.41V0h-100.41H108.41Z"/>
    </symbol>

    <!-- 定义字母 E 的形状 -->
    <symbol id="letter-E" viewBox="0 0 48 64">
      <path d="M9.243 0L48 0V16H16V24H44V40H16V48H48V64L9.243 64C8.447 64 7.684 63.684 7.121 63.121L0.879 56.879C0.316 56.316 0 55.553 0 54.757V40V32V24V9.243C0 8.447 0.316 7.684 0.879 7.121L7.121 0.879C7.684 0.316 8.447 0 9.243 0Z"/>
    </symbol>

    <!-- 定义字母 S 的形状 -->
    <symbol id="letter-S" viewBox="0 0 48 64">
      <path d="M10.485 0C8.894 0 7.368 0.632 6.243 1.757L1.757 6.243C0.632 7.368 0 8.894 0 10.485V26.076C0 28.46 1.411 30.617 3.595 31.573L32 44V48H16V40H0V53.515C0 55.106 0.632 56.632 1.757 57.757L6.243 62.243C7.368 63.368 8.894 64 10.485 64H37.515C39.106 64 40.632 63.368 41.757 62.243L46.243 57.757C47.368 56.632 48 55.106 48 53.515V37.924C48 35.54 46.589 33.383 44.405 32.427L16 20V16H32V24H48V11.281C48 9.812 47.461 8.393 46.484 7.295L41.79 2.014C40.651 0.733 39.02 0 37.306 0H10.485Z"/>
    </symbol>

    <!-- 定义字母 A 的形状 -->
    <symbol id="letter-A" viewBox="0 0 32.566 43.399">
      <path fill-rule="evenodd" clip-rule="evenodd" d="M21.711 21.7H10.856V10.85H21.711V21.7ZM21.711 32.55H10.856V43.399H0V32.55V21.7V6.268C0 5.728 0.215 5.211 0.596 4.829L4.832 0.596C5.213 0.215 5.731 0 6.271 0H26.295C26.835 0 27.353 0.215 27.735 0.596L31.97 4.829C32.352 5.211 32.566 5.728 32.566 6.268V21.7V32.55V43.399H21.711V32.55Z"/>
    </symbol>

    <!-- 定义字母 N 的形状 -->
    <symbol id="letter-N" viewBox="0 0 32.5013 43.343">
      <path d="M32.501 0H21.667V21.672L10.833 0H0V43.343H10.833V21.672L21.667 43.343H32.501V0Z"/>
    </symbol>

    <!-- 定义字母 K 的形状 -->
    <symbol id="letter-K" viewBox="0 0 313.67 418.04">
      <path d="M0 0H104.5V156.75V418.04H0V0ZM104.5 156.75H209.12V0H313.67V166.64C313.67 177.43 309.38 187.78 301.75 195.41L272.96 224.18L304.13 255.33C310.24 261.44 313.67 270.22 313.67 278.35V418.04H209.12V261.47H104.5V156.75Z"/>
    </symbol>

    <!-- 定义字母 I 的形状 -->
    <symbol id="letter-I" viewBox="0 0 34.285 137.143">
      <path d="M2.857 0C1.279 0 0 1.279 0 2.857V134.286C0 135.864 1.279 137.143 2.857 137.143H31.428C33.006 137.143 34.285 135.864 34.285 134.286V2.857C34.285 1.279 33.006 0 31.428 0H2.857Z"/>
    </symbol>
  </defs>

  <!-- 按顺序放置每个字母 -->
  <!-- T -->
  <use href="#letter-T" x="0" y="0" width="329" height="438"/>
  <!-- E -->
  <use href="#letter-E" x="354" y="0" width="329" height="438"/>
  <!-- S -->
  <use href="#letter-S" x="708" y="0" width="329" height="438"/>
  <!-- T -->
  <use href="#letter-T" x="1062" y="0" width="329" height="438"/>
  <!-- A -->
  <use href="#letter-A" x="1416" y="0" width="329" height="438"/>
  <!-- N -->
  <use href="#letter-N" x="1770" y="0" width="328" height="438"/>
  <!-- K -->
  <use href="#letter-K" x="2123" y="0" width="329" height="438"/>
  <!-- I -->
  <use href="#letter-I" x="2477" y="0" width="110" height="438"/>

</svg>
