<svg xmlns="http://www.w3.org/2000/svg" 
     viewBox="0 0 2750 438" 
     width="2750" 
     height="438">

  <!-- T (1st letter) -->
  <g transform="translate(0, 0)">
    <path transform="translate(62.16 10) scale(9.632) translate(-123.51 -120.703)" fill="#FFFFFF" d="M134.365 120.703H123.51V131.553H134.365V164.102H145.22V131.553H156.076V120.703H145.22H134.365 Z"/>
  </g>

  <!-- E (2nd letter) - Adjusted spacing -->
  <g transform="translate(350, 0)"> 
    <path transform="translate(62.425 10) scale(1.294) translate(-789 0)" fill="#FFFFFF" d="M836.975 0L1028.13 0C1029.05 1.08508 1029.64 2.28227 1029.82 3.70703C1031.1 14.1114 1030.03 25.8271 1030.03 36.3472C1030.03 49.4379 1030.98 63.1741 1029.93 76.1876C1029.82 77.6234 1029.71 78.747 1028.85 79.9621C975.273 79.9687 921.598 79.3582 868.029 80.0529C868.051 80.0996 868.073 80.146 868.094 80.193C870.962 86.6326 865.221 119.258 870.002 121.162C871.023 121.569 872.251 121.404 873.328 121.334L872.673 121.57C894.54 123.157 917.065 122.084 938.999 122.081C968.897 122.076 998.958 122.726 1028.84 121.921C1029.36 122.823 1029.79 123.815 1029.88 124.862C1030.61 133.447 1031.05 194.324 1029.7 199.667C1029.58 200.145 1029.4 200.598 1029.19 201.045C975.462 201.041 921.407 199.921 867.699 201.203C869.694 204.553 869.869 236.326 868.633 241.109Q868.39 242.035 867.92 242.868C921.384 244.384 975.325 243.09 1028.83 243.075C1029.47 244.132 1029.88 245.198 1029.97 246.439C1030.67 255.554 1031.12 315.08 1029.76 320.955C1029.59 321.68 1029.27 322.37 1028.88 323L836.972 323C835.457 321.093 827.207 319.719 824.492 317.787C816.391 312.02 802.706 297.713 796.08 289.887C791.552 284.539 790.345 280.172 789.57 273.321C788.205 261.259 789.06 248.349 789.065 236.194L789.116 168.194L789.124 92.1123C789.112 78.5192 788.325 64.3635 789.455 50.8244C789.708 47.7903 789.845 43.8777 791.16 41.099C795.261 32.4327 817.609 10.0633 825.879 4.49047C829.028 2.36862 834.011 2.69508 836.746 0.216902C836.824 0.146378 836.899 0.0723005 836.975 0Z"/>
  </g>

  <!-- S (3rd letter) -->
  <g transform="translate(720, 0)"> 
    <path transform="translate(62 10) scale(1) translate(-131 0)" fill="#FFFFFF" d="M192.06 0L382.821 0C387.763 1.75752 393.028 3.3382 397.305 6.46391C405.797 12.6707 437.274 47.9458 441.676 57.3704C443.744 61.7981 444.335 68.0783 444.674 72.9433C445.192 80.3976 445.488 151.539 444.402 154.249C444.243 154.648 444.041 155.015 443.84 155.393C443.782 155.501 443.727 155.612 443.67 155.721C409.633 156.02 375.334 156.572 341.315 155.774C340.63 138.24 341.563 120.664 340.989 103.136C305.709 103.014 270.361 102.666 235.086 103.142Q234.862 117.094 235.008 131.047C276.362 148.087 317.005 166.953 358.043 184.747L401.432 203.559C409.759 207.175 418.935 210.439 426.632 215.238C432.937 219.17 438.64 225.191 441.526 232.096C443.495 236.808 444.183 242.35 444.571 247.432C445.87 264.437 444.904 282.191 444.898 299.267C444.891 316.526 445.84 334.424 444.548 351.616C444.203 356.21 443.609 360.996 441.834 365.279C436.955 377.046 401.973 411.363 390.353 416.017C388.082 416.927 385.695 417.496 383.306 418L191.965 418C178.113 414.207 170.738 406.165 160.939 396.335L144.964 380.484C139.044 374.547 134.974 368.68 132.755 360.49C129.365 347.981 131.056 332.17 131.066 319.236L131.148 262.282C164.797 261.105 200.948 262.176 234.799 262.231C235.542 279.719 234.737 297.343 235.124 314.861C248.91 315.335 262.828 314.956 276.626 314.961Q308.835 315.106 341.043 314.819C341.229 305.512 341.057 296.168 341.036 286.858C323.785 280.304 306.782 272.181 289.89 264.716L221.713 234.878L180.279 216.788C170.587 212.643 160.603 208.782 151.297 203.821C142.9 199.344 135.951 191.402 133.206 182.227Q132.389 179.417 131.896 176.532Q131.402 173.648 131.237 170.726C129.964 150.113 131.096 128.781 131.128 108.101C131.15 93.989 129.888 76.7733 131.426 63.0196C131.968 58.1772 133.398 53.7182 135.723 49.4377C140.7 40.2705 168.713 12.2303 177.78 6.16511C182.313 3.13255 186.899 1.5493 192.06 0Z"/>
  </g>

  <!-- T (4th letter) -->
  <g transform="translate(1100, 0)"> 
    <path transform="translate(62.16 10) scale(9.632) translate(-123.51 -120.703)" fill="#FFFFFF" d="M134.365 120.703H123.51V131.553H134.365V164.102H145.22V131.553H156.076V120.703H145.22H134.365 Z"/>
  </g>

  <!-- A (5th letter) - Using nested SVG again for correct scaling -->
  <g transform="translate(1450, 0)"> 
    <svg viewBox="192.712 120.703 32.566 43.399" width="438" height="438">
       <path fill-rule="evenodd" clip-rule="evenodd" fill="#FFFFFF" d="M214.423 142.403 H203.568 V131.553 H214.423 V142.403 Z M214.423 153.253 H203.568 V164.102 H192.712 V153.253 V142.403 V126.971 C192.712 126.431 192.927 125.914 193.308 125.532 L197.544 121.299 C197.925 120.918 198.443 120.703 198.983 120.703 H219.007 C219.547 120.703 220.065 120.918 220.447 121.299 L224.682 125.532 C225.064 125.914 225.278 126.431 225.278 126.971 V142.403 V153.253 V164.102 H214.423 V153.253 Z"/>
    </svg>
   </g>

  <!-- N (6th letter) - Adjusted position based on corrected A -->
  <g transform="translate(1830, 0)"> 
    <path transform="translate(62.585 10) scale(2.444) translate(-330 -434)" fill="#FFFFFF" d="M333.128 604.776C331.343 603.184 331.143 600.197 331.01 597.938C330.415 587.833 331.972 577.977 331.974 567.936C331.975 562.031 330.975 556.206 330.951 550.317L330.943 472.683C330.971 468.982 331.657 465.303 331.656 461.612C331.655 456.003 329.162 439.973 332.252 436.044C333.468 435.345 334.759 435.088 336.145 434.956C341.745 434.426 347.806 434.887 353.462 434.907C359.436 434.928 365.718 434.47 371.651 435.131L371.921 435.399C377.932 441.479 380.707 451.236 384.46 458.799L405.692 500.601C408.457 505.96 410.624 511.623 413.689 516.839C414.133 517.594 414.897 519.073 415.787 519.174C416.552 517.097 416.814 514.24 416.93 512.022C417.426 502.529 416.963 492.76 416.956 483.242C416.948 470.701 417.286 458.065 416.941 445.536C416.865 442.768 416.197 440.012 416.134 437.295C416.115 436.508 416.342 436.172 416.813 435.578C420.241 434.348 451.013 434.593 455.825 435.194C456.585 436.003 457.605 436.855 457.899 437.948L457.759 438.429C457.669 438.746 457.537 439.118 457.477 439.435C457.134 441.24 458.014 444.288 458.072 446.265C458.303 454.201 458.094 462.204 458.092 470.145L458.085 560.516L458.094 588.484C458.1 592.978 458.445 597.77 458.073 602.226C457.231 603.381 456.153 604.133 454.847 604.694C452.88 605.409 421.48 605.361 419.031 604.692C418.949 604.667 418.863 604.65 418.784 604.616C417.52 604.073 416.491 603.22 415.707 602.1C414.542 600.434 413.729 598.528 412.744 596.753C408.94 589.895 405.751 582.938 402.365 575.882L383.134 536.546C381.569 533.28 375.897 520.965 373.229 520.028C372.842 520.436 372.721 520.619 372.638 521.207C372.366 523.143 372.873 525.364 372.812 527.357C372.77 528.724 372.41 530.025 372.408 531.42C372.404 535.154 372.999 538.889 373.058 542.631C373.232 553.623 373.086 564.642 373.09 575.636C373.093 584.335 373.312 593.098 372.989 601.79Q372.841 602.206 372.635 602.597Q372.429 602.988 372.17 603.346Q371.91 603.703 371.602 604.019Q371.293 604.336 370.943 604.605C369.339 605.372 366.11 605.16 364.401 604.687C363.9 604.428 363.383 604.234 362.822 604.156C359.253 603.659 338.427 603.675 334.968 604.162C334.43 604.238 334.137 604.424 333.727 604.76L333.128 604.776Z"/>
  </g>

  <!-- K (7th letter) -->
  <g transform="translate(2200, 0)"> 
    <path transform="translate(62.16 10) scale(9.632) translate(-19.7061 -120.703)" fill="#FFFFFF" d="M19.7061 120.703H30.5613V136.978V164.102H19.7061V120.703 Z M30.5613 136.978H41.4166V120.703H52.2719V138.005C52.2719 139.084 51.843 140.119 51.0796 140.882L48.2012 143.759L51.3181 146.874C51.9288 147.485 52.2719 148.313 52.2719 149.176V164.102H41.4166V147.828H30.5614L30.5613 136.978 Z"/>
  </g>

  <!-- I (8th letter) - Adjusted position (moved left) -->
  <g transform="translate(2520, 0)"> 
    <path transform="translate(167.44 10) scale(1) translate(0 0)" fill="#FFFFFF" d="M7.15607 0L94.4249 0C97.7484 1.85349 101.331 3.7255 102.424 7.68186C104.41 14.8658 103.125 30.8483 103.117 39.074L103.056 102.542C103.02 204.945 102.064 307.461 103.121 409.849C100.587 413.362 98.6238 415.823 94.7923 418L8.43127 418C3.75313 416.408 2.24815 413.443 0 409.321L0 7.75256C2.13813 4.70992 4.19206 2.27793 7.15607 0Z"/>
  </g>

</svg>