<svg xmlns="http://www.w3.org/2000/svg" width="240" height="240" viewBox="0 0 240 240" fill="none">
<rect width="240" height="240" fill="url(#paint0_radial_28023_105091)">
</rect>
<path d="M0 150L45 105V195L0 240V150Z" fill="#D90000">
</path>
<path d="M0 150L45 105V195L0 240V150Z" fill="url(#paint1_linear_28023_105091)" fill-opacity="0.25">
</path>
<path d="M0 232.5L45 187.5V195L0 240V232.5Z" fill="url(#paint2_linear_28023_105091)" fill-opacity="0.5">
</path>
<g opacity="0.1">
<path d="M0 217.5L45 172.5V180L0 225V217.5Z" fill="black">
</path>
<path d="M0 202.5L45 157.5V165L0 210V202.5Z" fill="black">
</path>
<path d="M0 187.5L45 142.5V150L0 195V187.5Z" fill="black">
</path>
<path d="M0 172.5L45 127.5V135L0 180V172.5Z" fill="black">
</path>
<path d="M0 157.5L45 112.5V120L0 165V157.5Z" fill="black">
</path>
</g>
<path d="M15 165L45 195V150L15 120V165Z" fill="url(#paint3_linear_28023_105091)">
</path>
<g opacity="0.2">
<path d="M45 180L15 150V157.5L45 187.5V180Z" fill="black">
</path>
<path d="M45 165L15 135V142.5L45 172.5V165Z" fill="black">
</path>
<path d="M15 120L45 150V157.5L15 127.5V120Z" fill="black">
</path>
<path d="M45 135L15 105V112.5L45 142.5V135Z" fill="black">
</path>
<path d="M15 90L45 120V127.5L15 97.5V90Z" fill="black">
</path>
</g>
<path d="M240 150L195 105V195L240 240V150Z" fill="#D90000">
</path>
<path d="M240 150L195 105V195L240 240V150Z" fill="url(#paint4_linear_28023_105091)" fill-opacity="0.25">
</path>
<path d="M240 232.5L195 187.5V195L240 240V232.5Z" fill="url(#paint5_linear_28023_105091)" fill-opacity="0.5">
</path>
<g opacity="0.1">
<path d="M240 217.5L195 172.5V180L240 225V217.5Z" fill="black">
</path>
<path d="M240 202.5L195 157.5V165L240 210V202.5Z" fill="black">
</path>
<path d="M240 187.5L195 142.5V150L240 195V187.5Z" fill="black">
</path>
<path d="M240 172.5L195 127.5V135L240 180V172.5Z" fill="black">
</path>
<path d="M240 157.5L195 112.5V120L240 165V157.5Z" fill="black">
</path>
</g>
<path d="M225 165L195 195V150L225 120V165Z" fill="url(#paint6_linear_28023_105091)">
</path>
<g opacity="0.2">
<path d="M195 180L225 150V157.5L195 187.5V180Z" fill="black">
</path>
<path d="M195 165L225 135V142.5L195 172.5V165Z" fill="black">
</path>
<path d="M225 120L195 150V157.5L225 127.5V120Z" fill="black">
</path>
<path d="M195 135L225 105V112.5L195 142.5V135Z" fill="black">
</path>
<path d="M225 90L195 120V127.5L225 97.5V90Z" fill="black">
</path>
</g>
<g opacity="0.05">
<path d="M240 217.5L195 172.5V180L240 225V217.5Z" fill="black">
</path>
<path d="M240 202.5L195 157.5V165L240 210V202.5Z" fill="black">
</path>
<path d="M240 187.5L195 142.5V150L240 195V187.5Z" fill="black">
</path>
<path d="M240 172.5L195 127.5V135L240 180V172.5Z" fill="black">
</path>
<path d="M240 157.5L195 112.5V120L240 165V157.5Z" fill="black">
</path>
</g>
<rect opacity="0.5" x="210" y="150" width="45" height="45" transform="rotate(180 210 150)" fill="black">
</rect>
<path d="M15 75H225V165H15V75Z" fill="url(#paint7_radial_28023_105091)">
</path>
<path d="M15 75H225V165H15V75Z" fill="url(#paint8_linear_28023_105091)" fill-opacity="0.25">
</path>
<path d="M15 157.5H225V165H15V157.5Z" fill="url(#paint9_linear_28023_105091)" fill-opacity="0.25">
</path>
<path d="M15 75H225V82.5H15V75Z" fill="url(#paint10_linear_28023_105091)" fill-opacity="0.25">
</path>
<g opacity="0.05">
<mask id="mask0_28023_105091" style="mask-type:alpha" maskUnits="userSpaceOnUse" x="15" y="75" width="210" height="90">
<path d="M15 165H225V75H15V165Z" fill="url(#paint11_radial_28023_105091)">
</path>
<path d="M15 165H225V75H15V165Z" fill="url(#paint12_linear_28023_105091)" fill-opacity="0.25">
</path>
</mask>
<g mask="url(#mask0_28023_105091)">
<path d="M120 37.5L15 142.5V135L120 30V37.5Z" fill="black">
</path>
<path d="M120 22.5L15 127.5V120L120 15V22.5Z" fill="black">
</path>
<path d="M120 7.5L15 112.5V105L120 0V7.5Z" fill="black">
</path>
<path d="M120 -7.5L15 97.5V90L120 -15V-7.5Z" fill="black">
</path>
<path d="M120 -22.5L15 82.5V75L120 -30V-22.5Z" fill="black">
</path>
<path d="M120 52.5L15 157.5V150L120 45V52.5Z" fill="black">
</path>
<path d="M120 67.5L15 172.5V165L120 60V67.5Z" fill="black">
</path>
<path d="M120 82.5L15 187.5V180L120 75V82.5Z" fill="black">
</path>
<path d="M120 97.5L15 202.5V195L120 90V97.5Z" fill="black">
</path>
<path d="M120 112.5L15 217.5V210L120 105V112.5Z" fill="black">
</path>
<path d="M120 127.5L15 232.5V225L120 120V127.5Z" fill="black">
</path>
<path d="M120 142.5L15 247.5V240L120 135V142.5Z" fill="black">
</path>
<path d="M120 157.5L15 262.5V255L120 150V157.5Z" fill="black">
</path>
<path d="M120 37.5L225 142.5V135L120 30V37.5Z" fill="black">
</path>
<path d="M120 22.5L225 127.5V120L120 15V22.5Z" fill="black">
</path>
<path d="M120 7.5L225 112.5V105L120 0V7.5Z" fill="black">
</path>
<path d="M120 -7.5L225 97.5V90L120 -15V-7.5Z" fill="black">
</path>
<path d="M120 -22.5L225 82.5V75L120 -30V-22.5Z" fill="black">
</path>
<path d="M120 52.5L225 157.5V150L120 45V52.5Z" fill="black">
</path>
<path d="M120 67.5L225 172.5V165L120 60V67.5Z" fill="black">
</path>
<path d="M120 82.5L225 187.5V180L120 75V82.5Z" fill="black">
</path>
<path d="M120 97.5L225 202.5V195L120 90V97.5Z" fill="black">
</path>
<path d="M120 112.5L225 217.5V210L120 105V112.5Z" fill="black">
</path>
<path d="M120 127.5L225 232.5V225L120 120V127.5Z" fill="black">
</path>
<path d="M120 142.5L225 247.5V240L120 135V142.5Z" fill="black">
</path>
<path d="M120 157.5L225 262.5V255L120 150V157.5Z" fill="black">
</path>
</g>
</g>
<path opacity="0.4" d="M82.5 117.188H157.5V56.25H82.5V117.188Z" fill="url(#paint17_radial_28023_105091)">
</path>
<defs>
<radialGradient id="paint0_radial_28023_105091" cx="0" cy="0" r="1" gradientUnits="userSpaceOnUse" gradientTransform="translate(120 120) scale(120)">
<stop stop-color="#FF2626" stop-opacity="0.5">
</stop>
<stop offset="1" stop-color="#FF2626" stop-opacity="0">
</stop>
</radialGradient>
<linearGradient id="paint1_linear_28023_105091" x1="0" y1="172.5" x2="45" y2="172.5" gradientUnits="userSpaceOnUse">
<stop stop-color="white">
</stop>
<stop offset="0.5" stop-color="white" stop-opacity="0">
</stop>
<stop offset="1" stop-color="white" stop-opacity="0">
</stop>
</linearGradient>
<linearGradient id="paint2_linear_28023_105091" x1="-30" y1="172.5" x2="45" y2="172.5" gradientUnits="userSpaceOnUse">
<stop stop-color="white">
</stop>
<stop offset="1" stop-color="white" stop-opacity="0">
</stop>
</linearGradient>
<linearGradient id="paint3_linear_28023_105091" x1="0" y1="150" x2="45" y2="150" gradientUnits="userSpaceOnUse">
<stop stop-color="#400000">
</stop>
<stop offset="1" stop-color="#800000">
</stop>
</linearGradient>
<linearGradient id="paint4_linear_28023_105091" x1="240" y1="172.5" x2="195" y2="172.5" gradientUnits="userSpaceOnUse">
<stop stop-color="white">
</stop>
<stop offset="0.5" stop-color="white" stop-opacity="0">
</stop>
<stop offset="1" stop-color="white" stop-opacity="0">
</stop>
</linearGradient>
<linearGradient id="paint5_linear_28023_105091" x1="270" y1="172.5" x2="195" y2="172.5" gradientUnits="userSpaceOnUse">
<stop stop-color="white">
</stop>
<stop offset="1" stop-color="white" stop-opacity="0">
</stop>
</linearGradient>
<linearGradient id="paint6_linear_28023_105091" x1="240" y1="150" x2="195" y2="150" gradientUnits="userSpaceOnUse">
<stop stop-color="#400000">
</stop>
<stop offset="1" stop-color="#800000">
</stop>
</linearGradient>
<radialGradient id="paint7_radial_28023_105091" cx="0" cy="0" r="1" gradientUnits="userSpaceOnUse" gradientTransform="translate(120 75) rotate(90) scale(96.4286 183.627)">
<stop stop-color="#FFCC00">
</stop>
<stop offset="0.5" stop-color="#FF2626">
</stop>
<stop offset="1" stop-color="#D90000">
</stop>
</radialGradient>
<linearGradient id="paint8_linear_28023_105091" x1="15" y1="81.4286" x2="225" y2="81.4286" gradientUnits="userSpaceOnUse">
<stop stop-color="white">
</stop>
<stop offset="0.25" stop-color="white" stop-opacity="0">
</stop>
<stop offset="0.5" stop-color="#FFCC00" stop-opacity="0">
</stop>
<stop offset="0.75" stop-color="white" stop-opacity="0">
</stop>
<stop offset="1" stop-color="white">
</stop>
</linearGradient>
<linearGradient id="paint9_linear_28023_105091" x1="15" y1="67.5" x2="225" y2="67.5" gradientUnits="userSpaceOnUse">
<stop stop-color="white">
</stop>
<stop offset="0.5" stop-color="white" stop-opacity="0.5">
</stop>
<stop offset="1" stop-color="white">
</stop>
</linearGradient>
<linearGradient id="paint10_linear_28023_105091" x1="15" y1="-15" x2="225" y2="-15" gradientUnits="userSpaceOnUse">
<stop stop-color="white">
</stop>
<stop offset="0.5" stop-color="white" stop-opacity="0.5">
</stop>
<stop offset="1" stop-color="white">
</stop>
</linearGradient>
<radialGradient id="paint11_radial_28023_105091" cx="0" cy="0" r="1" gradientUnits="userSpaceOnUse" gradientTransform="translate(120 165) rotate(-90) scale(112.5 183.627)">
<stop stop-color="#FFCC00">
</stop>
<stop offset="0.5" stop-color="#FF2626">
</stop>
<stop offset="1" stop-color="#D90000">
</stop>
</radialGradient>
<linearGradient id="paint12_linear_28023_105091" x1="15" y1="157.5" x2="225" y2="157.5" gradientUnits="userSpaceOnUse">
<stop stop-color="white">
</stop>
<stop offset="0.25" stop-color="white" stop-opacity="0">
</stop>
<stop offset="0.5" stop-color="#FFCC00" stop-opacity="0">
</stop>
<stop offset="0.75" stop-color="white" stop-opacity="0">
</stop>
<stop offset="1" stop-color="white">
</stop>
</linearGradient>
<radialGradient id="paint13_radial_28023_105091" cx="0" cy="0" r="1" gradientUnits="userSpaceOnUse" gradientTransform="translate(119.996 135) rotate(90) scale(30 60)">
<stop>
</stop>
<stop offset="1" stop-opacity="0">
</stop>
</radialGradient>
<radialGradient id="paint14_radial_28023_105091" cx="0" cy="0" r="1" gradientUnits="userSpaceOnUse" gradientTransform="translate(120) rotate(90) scale(140.625 140.625)">
<stop stop-color="white">
</stop>
<stop offset="0.5" stop-color="#FFCC00">
</stop>
<stop offset="1" stop-color="#FF6600">
</stop>
</radialGradient>
<radialGradient id="paint15_radial_28023_105091" cx="0" cy="0" r="1" gradientUnits="userSpaceOnUse" gradientTransform="translate(120) rotate(90) scale(140.625 140.625)">
<stop stop-color="white">
</stop>
<stop offset="0.5" stop-color="#FFCC00">
</stop>
<stop offset="1" stop-color="#FF6600">
</stop>
</radialGradient>
<radialGradient id="paint16_radial_28023_105091" cx="0" cy="0" r="1" gradientUnits="userSpaceOnUse" gradientTransform="translate(120.006 40) rotate(90) scale(34 34)">
<stop stop-color="white">
</stop>
<stop offset="1" stop-color="white" stop-opacity="0">
</stop>
</radialGradient>
<radialGradient id="paint17_radial_28023_105091" cx="0" cy="0" r="1" gradientUnits="userSpaceOnUse" gradientTransform="translate(120 117.188) rotate(-180) scale(37.5 61.1875)">
<stop stop-color="#FF264A">
</stop>
<stop offset="1" stop-color="#FF002A" stop-opacity="0">
</stop>
</radialGradient>
<linearGradient id="paint18_linear_28023_105091" x1="120" y1="131.25" x2="63.75" y2="131.25" gradientUnits="userSpaceOnUse">
<stop stop-color="#FFCC00" stop-opacity="0">
</stop>
<stop offset="0.5" stop-color="#FFCC00">
</stop>
<stop offset="1" stop-color="white" stop-opacity="0">
</stop>
</linearGradient>
<linearGradient id="paint19_linear_28023_105091" x1="176.25" y1="131.25" x2="120" y2="131.25" gradientUnits="userSpaceOnUse">
<stop stop-color="white" stop-opacity="0">
</stop>
<stop offset="0.5" stop-color="#FFCC00">
</stop>
<stop offset="1" stop-color="#FFCC00" stop-opacity="0">
</stop>
</linearGradient>
</defs>
</svg>
