<svg width="200" height="200" viewBox="0 0 200 200" fill="none" xmlns="http://www.w3.org/2000/svg">
  <g transform="translate(-1.7, 18)">
    <path fill-rule="evenodd" clip-rule="evenodd" d="M153.102 52H141.974V55.9953H134.141V67.2009H142.234V77.3631H129.99V88.7764H141.611V112L153.44 111.98V89.4063L173.366 89.614L173.781 103.31H162.778L166.513 111.98C166.513 111.98 170.871 112.025 177.305 111.98C183.739 111.934 184.983 104.763 184.983 104.763C184.983 104.763 186.02 91.6893 184.983 84.7373C183.945 77.7852 171.704 77.5775 171.704 77.5775C171.704 77.5775 171.495 81.7281 171.704 69.6917C171.913 57.6552 161.12 55.9953 161.12 55.9953H153.102V52ZM153.44 77.3631H161.326V67.2009H153.44V77.3631Z" fill="#BFD5FF"/>
    <path d="M174.581 66.5559C174.581 66.5559 173.07 53.4775 181.819 56.3617C188.901 58.692 185.086 70.2101 174.581 66.5559Z" fill="#BFD5FF"/>
    <path d="M26.0741 67.2009H15.2315L14.556 96.0459L18.5513 107.463C20.6234 104.261 22.4946 100.934 24.1541 97.4998C26.8509 91.8953 26.0741 67.2009 26.0741 67.2009Z" fill="#BFD5FF"/>
    <path d="M54.7114 67.2009H65.5523L66.2278 96.0459L62.2342 107.463C60.1621 104.261 58.2908 100.934 56.6313 97.4998C53.9329 91.8953 54.7114 67.2009 54.7114 67.2009Z" fill="#BFD5FF"/>
    <path d="M45.7364 52.6738H34.7367L34.5307 102.692H26.1771L29.9647 111.61C33.3708 112.105 36.8305 112.105 40.2365 111.61C45.7364 110.781 45.7364 104.763 45.7364 104.763V52.6738Z" fill="#BFD5FF"/>
    <path d="M81.4253 52.6738H93.0515L85.7921 68.0317L96.7918 68.4455L87.6547 87.331H95.7583L93.0565 96.4613H79.5679C73.5446 96.4613 75.4071 91.2739 75.4071 91.2739L81.4253 77.5775H75.2078C69.8043 77.5775 72.5061 71.5593 72.5061 71.5593L81.4253 52.6738Z" fill="#BFD5FF"/>
    <path d="M91.3916 100.612H72.7138L68.7708 111.98H86.8255L91.3916 100.612Z" fill="#BFD5FF"/>
    <path d="M126.878 55.9953H100.937V67.2009H108.2V102.272H97.6158L92.2207 111.98H130.819V102.272H119.613V67.2009H126.878V55.9953Z" fill="#BFD5FF"/>
  </g>
</svg>
