<svg width="96" height="96" viewBox="0 0 96 96" fill="none" xmlns="http://www.w3.org/2000/svg">
<g id="DC">
<path id="Rectangle 3150" d="M2 18C2 9.16345 9.16344 2 18 2H78C86.8366 2 94 9.16344 94 18V78C94 86.8366 86.8366 94 78 94H18C9.16345 94 2 86.8366 2 78V18Z" fill="url(#paint0_radial_26599_95354)"/>
<path id="Subtract" fill-rule="evenodd" clip-rule="evenodd" d="M8 27.2155L19.0941 8H21.4035L11.5189 25.1206L41.0905 8H45.0799L31.2626 16.0008H64.7368L50.9192 8H54.9087L84.4812 25.1208L74.5965 8H76.9059L88 27.2155V31.2155L85.9999 27.7512V68.249L88 64.7847V68.7847L76.9061 88H74.5967L84.4814 70.8791L54.9087 88H50.9193L64.7354 80H31.2639L45.0799 88H41.0905L11.5187 70.8793L21.4033 88H19.0939L8 68.7847V64.7847L9.99988 68.2486V27.7516L8 31.2155V27.2155ZM11.9999 27.1547L28.4898 17.6063L20.2 31.8857L19.9999 32V32.2303L11.9999 46.0104V27.1547ZM75.798 31.8846L67.5083 17.6056L83.9999 27.1547V46.0125L75.9999 32.2324V32L75.798 31.8846ZM75.9999 63.7684L83.9999 49.9883V68.8453L67.509 78.394L75.7987 64.115L75.9999 64V63.7684ZM20.1993 64.114L28.4892 78.3933L11.9999 68.8453V49.9904L19.9999 63.7705V64L20.1993 64.114ZM30.5766 78L23.6609 66.092L44.4998 78H30.5766ZM65.4219 78H51.4998L72.3371 66.093L65.4219 78ZM82.8446 48.0004L75.9999 59.7861V36.2144L82.8446 48.0004ZM65.4219 18L72.3368 29.9068L51.4998 18H65.4219ZM30.5766 18H44.4998L23.6612 29.9078L30.5766 18ZM19.9999 59.7882V36.2123L13.154 48.0004L19.9999 59.7882ZM21.9999 33.1547L47.9998 18.3094L73.9999 33.1547V62.8453L47.9998 77.6906L21.9999 62.8453V33.1547Z" fill="white" fill-opacity="0.25"/>
<path id="Rectangle 3150 (Stroke)" fill-rule="evenodd" clip-rule="evenodd" d="M18 0H78C87.9411 0 96 8.05888 96 18V78C96 87.9411 87.9411 96 78 96H18C8.05888 96 0 87.9411 0 78V18C0 8.05888 8.05887 0 18 0ZM18 2C9.16344 2 2 9.16345 2 18V78C2 86.8366 9.16345 94 18 94H78C86.8366 94 94 86.8366 94 78V18C94 9.16344 86.8366 2 78 2H18Z" fill="white" fill-opacity="0.25"/>
<path id="Union" fill-rule="evenodd" clip-rule="evenodd" d="M24 6L18 6C11.3726 6 6 11.3726 6 18V78C6 84.6274 11.3726 90 18 90H24H25.1716C26.9826 90 28.7194 89.2806 30 88C31.2806 86.7194 33.0174 86 34.8284 86H61.1715C62.9826 86 64.7194 86.7194 66 88C67.2805 89.2806 69.0174 90 70.8284 90H72H78C84.6274 90 90 84.6274 90 78V18C90 11.3726 84.6274 6 78 6L72 6L70.8284 6C70.8275 6 70.8267 6 70.8258 6C69.0157 6.00068 67.2799 6.72002 66 8C64.7194 9.28058 62.9826 10 61.1715 10L34.8284 10C33.0174 10 31.2806 9.28058 30 8C28.7194 6.71942 26.9826 6 25.1716 6H24ZM18 2C9.16344 2 2 9.16345 2 18V78C2 86.8366 9.16345 94 18 94H78C86.8366 94 94 86.8366 94 78V18C94 9.16344 86.8366 2 78 2H18Z" fill="#001926"/>
<path id="Rectangle 3141 (Stroke)" fill-rule="evenodd" clip-rule="evenodd" d="M36 36H28V60.9006L36 58.2339V36ZM38.5298 65.8234C41.7966 64.7345 44 61.6774 44 58.2339V36C44 31.5817 40.4183 28 36 28H20V72L38.5298 65.8234Z" fill="white"/>
<path id="Subtract_2" d="M60 36H68V44H76V28H60C55.5817 28 52 31.5817 52 36V58.2339C52 61.6774 54.2034 64.7345 57.4702 65.8234L76 72V52H68V60.9006L60 58.2339L60 36Z" fill="white"/>
<path id="Union_2" fill-rule="evenodd" clip-rule="evenodd" d="M34.8281 10C33.0176 10 31.2812 9.28027 30 8C28.7188 6.71973 26.9824 6 25.1719 6H18C11.373 6 6 11.373 6 18V78C6 84.627 11.373 90 18 90H25.1719C25.959 90 26.7305 89.8643 27.457 89.6055C28.4043 89.2686 29.2754 88.7236 30 88C31.2812 86.7197 33.0176 86 34.8281 86H61.1719C62.9824 86 64.7188 86.7197 66 88C67.2812 89.2803 69.0176 90 70.8281 90H78C84.627 90 90 84.627 90 78V18C90 11.373 84.627 6 78 6H70.8262C69.0156 6.00098 67.2793 6.71973 66 8C65.0527 8.94727 63.8555 9.58691 62.5645 9.85645C62.1094 9.95117 61.6426 10 61.1719 10H34.8281ZM8 18C8 12.4775 12.4766 8 18 8H25.1719C26.4531 8 27.6797 8.50879 28.5859 9.41406C30.2422 11.0703 32.4863 12 34.8281 12H61.1719C63.5137 12 65.7578 11.0703 67.4141 9.41406C68.0098 8.81836 68.748 8.39453 69.5469 8.17383C69.9609 8.05957 70.3926 8 70.8281 8H78C83.5234 8 88 12.4775 88 18V78C88 83.5225 83.5234 88 78 88H70.8281C69.5469 88 68.3203 87.4912 67.4141 86.5859C65.7578 84.9297 63.5137 84 61.1719 84H34.8281C32.4863 84 30.2422 84.9297 28.5859 86.5859C27.6797 87.4912 26.4531 88 25.1719 88H18C12.4766 88 8 83.5225 8 78V18Z" fill="url(#paint1_linear_26599_95354)"/>
<path id="Rectangle 3115" opacity="0.5" d="M36 11C36 10.4477 36.4477 10 37 10H59C59.5523 10 60 10.4477 60 11C60 11.5523 59.5523 12 59 12H37C36.4477 12 36 11.5523 36 11Z" fill="white"/>
<path id="Rectangle 3153" opacity="0.5" d="M36 85C36 84.4477 36.4477 84 37 84H59C59.5523 84 60 84.4477 60 85C60 85.5523 59.5523 86 59 86H37C36.4477 86 36 85.5523 36 85Z" fill="white"/>
<path id="Rectangle 3151" d="M18 7C18 6.44772 18.4477 6 19 6H23C23.5523 6 24 6.44772 24 7C24 7.55228 23.5523 8 23 8H19C18.4477 8 18 7.55228 18 7Z" fill="white"/>
<path id="Rectangle 3154" opacity="0.5" d="M18 89C18 88.4477 18.4477 88 19 88H23C23.5523 88 24 88.4477 24 89C24 89.5523 23.5523 90 23 90H19C18.4477 90 18 89.5523 18 89Z" fill="white"/>
<path id="Rectangle 3152" d="M72 7C72 6.44772 72.4477 6 73 6H77C77.5523 6 78 6.44772 78 7C78 7.55228 77.5523 8 77 8H73C72.4477 8 72 7.55228 72 7Z" fill="white"/>
<path id="Rectangle 3155" opacity="0.5" d="M72 89C72 88.4477 72.4477 88 73 88H77C77.5523 88 78 88.4477 78 89C78 89.5523 77.5523 90 77 90H73C72.4477 90 72 89.5523 72 89Z" fill="white"/>
<g id="Union_3" opacity="0.5">
<path d="M31.5012 19.4193C31.9795 19.1432 32.591 19.307 32.8672 19.7853C33.1433 20.2636 32.9806 20.8772 32.5023 21.1534C32.024 21.4295 31.4125 21.2656 31.1363 20.7874C30.8602 20.3091 31.0229 19.6954 31.5012 19.4193Z" fill="white"/>
<path d="M63.5012 74.8449C63.9795 74.5688 64.591 74.7327 64.8672 75.211C65.1433 75.6893 64.9806 76.3029 64.5023 76.579C64.024 76.8552 63.4124 76.6913 63.1363 76.213C62.8602 75.7347 63.0229 75.1211 63.5012 74.8449Z" fill="white"/>
<path d="M31.1348 75.2134C30.8586 75.6917 31.0225 76.3033 31.5008 76.5795C31.9791 76.8556 32.5918 76.6897 32.868 76.2114C33.1441 75.7331 32.9803 75.1215 32.502 74.8454C32.0237 74.5692 31.4109 74.7351 31.1348 75.2134Z" fill="white"/>
<path d="M63.1348 19.7878C62.8586 20.2661 63.0225 20.8777 63.5008 21.1538C63.9791 21.43 64.5918 21.2641 64.868 20.7858C65.1441 20.3075 64.9803 19.6959 64.502 19.4197C64.0237 19.1436 63.4109 19.3095 63.1348 19.7878Z" fill="white"/>
<path d="M16 46.9994C15.4477 46.9994 15 47.4471 15 47.9994C15 48.5517 15.4501 48.9994 16.0023 48.9994C16.5546 48.9994 17.0023 48.5517 17.0023 47.9994C17.0023 47.4471 16.5523 46.9994 16 46.9994Z" fill="white"/>
<path d="M80 46.9994C79.4477 46.9994 79 47.4471 79 47.9994C79 48.5517 79.4501 48.9994 80.0023 48.9994C80.5546 48.9994 81.0023 48.5517 81.0023 47.9994C81.0023 47.4471 80.5523 46.9994 80 46.9994Z" fill="white"/>
</g>
<path id="Union_4" opacity="0.5" fill-rule="evenodd" clip-rule="evenodd" d="M8 18V78C8 83.5224 12.4776 88 18 88H25.1719C26.4429 88 27.6863 87.4846 28.5869 86.585C30.2425 84.9299 32.4868 84 34.8281 84H61.1719C63.5134 84 65.7573 84.9295 67.4135 86.5854C68.3198 87.4907 69.5475 88 70.8281 88H78C83.5224 88 88 83.5224 88 78V18C88 12.4776 83.5224 8 78 8H70.8281C69.5475 8 68.3198 8.50929 67.4135 9.4146C65.7573 11.0705 63.5134 12 61.1719 12H34.8281C32.4868 12 30.2425 11.0701 28.5869 9.41502C27.6863 8.51535 26.4429 8 25.1719 8H18C12.4776 8 8 12.4776 8 18ZM86 18C86 13.582 82.4187 10 78 10H70.8281C70.078 10 69.3595 10.2976 68.8275 10.829C66.7964 12.8598 64.0439 14 61.1719 14H34.8281C31.9561 14 29.2036 12.8598 27.1725 10.829C26.6405 10.2976 25.9219 10 25.1719 10H18C13.5813 10 10 13.582 10 18V78C10 82.418 13.5813 86 18 86H25.1719C25.9219 86 26.6405 85.7024 27.1725 85.171C29.2036 83.1402 31.9561 82 34.8281 82H61.1719C64.0439 82 66.7964 83.1402 68.8275 85.171C69.3595 85.7024 70.078 86 70.8281 86H78C82.4187 86 86 82.418 86 78V18Z" fill="black"/>
<path id="Rectangle 3266" opacity="0.5" d="M34 7C34 6.44772 34.4477 6 35 6H61C61.5523 6 62 6.44772 62 7C62 7.55228 61.5523 8 61 8H35C34.4477 8 34 7.55228 34 7Z" fill="#FFCC00"/>
<path id="Rectangle 3268" d="M36 7C36 6.44772 36.4477 6 37 6H59C59.5523 6 60 6.44772 60 7C60 7.55228 59.5523 8 59 8H37C36.4477 8 36 7.55228 36 7Z" fill="#FFCC00"/>
<path id="Rectangle 3267" opacity="0.5" d="M34 89C34 88.4477 34.4477 88 35 88H61C61.5523 88 62 88.4477 62 89C62 89.5523 61.5523 90 61 90H35C34.4477 90 34 89.5523 34 89Z" fill="#FFCC00"/>
<path id="Rectangle 3269" d="M36 89C36 88.4477 36.4477 88 37 88H59C59.5523 88 60 88.4477 60 89C60 89.5523 59.5523 90 59 90H37C36.4477 90 36 89.5523 36 89Z" fill="#FFCC00"/>
<g id="Union_5" opacity="0.5">
<path d="M15 30C15.5523 30 16 29.5523 16 29C16 28.4477 15.5523 28 15 28C14.4477 28 14 28.4477 14 29C14 29.5523 14.4477 30 15 30Z" fill="white"/>
<path d="M15 68C15.5523 68 16 67.5523 16 67C16 66.4477 15.5523 66 15 66C14.4477 66 14 66.4477 14 67C14 67.5523 14.4477 68 15 68Z" fill="white"/>
<path d="M82 67C82 67.5523 81.5523 68 81 68C80.4477 68 80 67.5523 80 67C80 66.4477 80.4477 66 81 66C81.5523 66 82 66.4477 82 67Z" fill="white"/>
<path d="M81 30C81.5523 30 82 29.5523 82 29C82 28.4477 81.5523 28 81 28C80.4477 28 80 28.4477 80 29C80 29.5523 80.4477 30 81 30Z" fill="white"/>
</g>
</g>
<defs>
<radialGradient id="paint0_radial_26599_95354" cx="0" cy="0" r="1" gradientUnits="userSpaceOnUse" gradientTransform="translate(48 94) rotate(-90) scale(92)">
<stop stop-color="#FFCC00"/>
<stop offset="0.496286" stop-color="#FF3333"/>
<stop offset="1" stop-color="#260000"/>
</radialGradient>
<linearGradient id="paint1_linear_26599_95354" x1="48" y1="6" x2="48" y2="90" gradientUnits="userSpaceOnUse">
<stop stop-color="#607580"/>
<stop offset="1" stop-color="#336680"/>
</linearGradient>
</defs>
</svg>
