<svg width="24" height="24" viewBox="0 0 24 24" fill="none" xmlns="http://www.w3.org/2000/svg">
<path d="M0.5 4.5C0.5 2.29086 2.29086 0.5 4.5 0.5H19.5C21.7091 0.5 23.5 2.29086 23.5 4.5V19.5C23.5 21.7091 21.7091 23.5 19.5 23.5H4.5C2.29086 23.5 0.5 21.7091 0.5 19.5V4.5Z" fill="url(#paint0_radial_33509_58442)"/>
<g opacity="0.25">
<path d="M2 14.499V13.9399L19 22.5V23.059L2 14.499Z" fill="black"/>
</g>
<path d="M2 15.058V14.499L19 23V23.559L2 15.058Z" fill="url(#paint1_linear_33509_58442)"/>
<path d="M2.5 10.25V4.5C2.5 3.39549 3.39531 2.5 4.5 2.5H6.29297C6.48049 2.5 6.66011 2.57439 6.79312 2.70726C7.30091 3.21495 7.98903 3.5 8.70703 3.5H15.293C16.011 3.5 16.6991 3.21495 17.2069 2.70726C17.3399 2.57439 17.5195 2.5 17.707 2.5H19.5C20.6047 2.5 21.5 3.39549 21.5 4.5V19.7498L2.5 10.25Z" fill="url(#paint2_radial_33509_58442)"/>
<path opacity="0.25" fill-rule="evenodd" clip-rule="evenodd" d="M15.5 6.5V10.5729L16.5 10.0729L16.5 6.5H19.5L19.5 7.00001L19 7H17L16.9999 10.382L15 11.3819V7H13V15.5L15 16.5V13.618L17 12.618V17.5L19 18.5V14.118C19 13.7393 18.786 13.393 18.4472 13.2236L17.118 12.559L17.8944 12.1708C18.5719 11.832 18.9999 11.1395 18.9999 10.382L19 7L19.5 7.00001L19.4999 10.382C19.4999 11.2856 19.0128 12.1151 18.2323 12.5571L18.6708 12.7764C19.179 13.0305 19.5 13.5499 19.5 14.118V19.309L16.5 17.809V13.427L15.5 13.927V17.309L12.5 15.809V6.5H15.5Z" fill="black"/>
<path fill-rule="evenodd" clip-rule="evenodd" d="M1.55271 9.78027L22.4471 20.2275L22.2235 20.6747L1.3291 10.2275L1.55271 9.78027Z" fill="url(#paint3_linear_33509_58442)"/>
<path opacity="0.5" fill-rule="evenodd" clip-rule="evenodd" d="M8.33333 4.49976C7.57604 4.49976 6.83917 4.25413 6.23333 3.79976L3.3 1.59976L3 1.99976L5.93333 4.19976C6.62572 4.71904 7.46785 4.99976 8.33333 4.99976H15.6667C16.5321 4.99976 17.3743 4.71904 18.0667 4.19976L21 1.99976L20.7 1.59976L17.7667 3.79976C17.1608 4.25413 16.424 4.49976 15.6667 4.49976H8.33333Z" fill="url(#paint4_linear_33509_58442)"/>
<path opacity="0.5" fill-rule="evenodd" clip-rule="evenodd" d="M1.5 5.2456L22 15.5V20L1.5 9.74556V5.2456Z" fill="black"/>
<path opacity="0.5" fill-rule="evenodd" clip-rule="evenodd" d="M1.77634 9.33008L22.6708 19.7773L22.4472 20.2245L1.55273 9.77729L1.77634 9.33008Z" fill="black"/>
<path fill-rule="evenodd" clip-rule="evenodd" d="M5.63353 4.59976C6.41246 5.18396 7.35986 5.49976 8.33353 5.49976H15.6669C16.6405 5.49976 17.5879 5.18396 18.3669 4.59976L21.3002 2.39976L21.0002 1.99976L18.0669 4.19976C17.3745 4.71904 16.5323 4.99976 15.6669 4.99976H8.33353C7.46805 4.99976 6.62591 4.71904 5.93353 4.19976L3.0002 1.99976L2.7002 2.39976L5.63353 4.59976Z" fill="url(#paint5_linear_33509_58442)"/>
<rect opacity="0.25" width="6" height="0.5" rx="0.25" transform="matrix(1 0 0 -1 9 5.5)" fill="white"/>
<path fill-rule="evenodd" clip-rule="evenodd" d="M4.5 0H19.5C21.9853 0 24 2.01472 24 4.5V19.5C24 21.9853 21.9853 24 19.5 24H4.5C2.01472 24 0 21.9853 0 19.5V4.5C0 2.01472 2.01472 0 4.5 0ZM4.5 0.5C2.29086 0.5 0.5 2.29086 0.5 4.5V19.5C0.5 21.7091 2.29086 23.5 4.5 23.5H19.5C21.7091 23.5 23.5 21.7091 23.5 19.5V4.5C23.5 2.29086 21.7091 0.5 19.5 0.5H4.5Z" fill="white" fill-opacity="0.25"/>
<path fill-rule="evenodd" clip-rule="evenodd" d="M6 1.5L4.5 1.5C2.84315 1.5 1.5 2.84315 1.5 4.5V19.5C1.5 21.1569 2.84315 22.5 4.5 22.5H6H6.29289C6.74565 22.5 7.17985 22.3201 7.5 22C7.82014 21.6799 8.25435 21.5 8.7071 21.5H15.2929C15.7456 21.5 16.1798 21.6799 16.5 22C16.8201 22.3201 17.2543 22.5 17.7071 22.5H18H19.5C21.1569 22.5 22.5 21.1569 22.5 19.5V4.5C22.5 2.84315 21.1569 1.5 19.5 1.5L18 1.5L17.7071 1.5C17.7069 1.5 17.7067 1.5 17.7065 1.5C17.2539 1.50017 16.82 1.68001 16.5 2C16.1798 2.32014 15.7456 2.5 15.2929 2.5L8.7071 2.5C8.25435 2.5 7.82014 2.32014 7.5 2C7.17985 1.67986 6.74565 1.5 6.29289 1.5H6ZM4.5 0.5C2.29086 0.5 0.5 2.29086 0.5 4.5V19.5C0.5 21.7091 2.29086 23.5 4.5 23.5H19.5C21.7091 23.5 23.5 21.7091 23.5 19.5V4.5C23.5 2.29086 21.7091 0.5 19.5 0.5H4.5Z" fill="#001926"/>
<path fill-rule="evenodd" clip-rule="evenodd" d="M8.70703 2.5C8.25439 2.5 7.82031 2.32007 7.5 2C7.17969 1.67993 6.74561 1.5 6.29297 1.5H4.5C2.84326 1.5 1.5 2.84326 1.5 4.5V19.5C1.5 21.1567 2.84326 22.5 4.5 22.5H6.29297C6.48975 22.5 6.68262 22.4661 6.86426 22.4014C7.10107 22.3171 7.31885 22.1809 7.5 22C7.82031 21.6799 8.25439 21.5 8.70703 21.5H15.293C15.7456 21.5 16.1797 21.6799 16.5 22C16.8203 22.3201 17.2544 22.5 17.707 22.5H19.5C21.1567 22.5 22.5 21.1567 22.5 19.5V4.5C22.5 2.84326 21.1567 1.5 19.5 1.5H17.7065C17.2539 1.50024 16.8198 1.67993 16.5 2C16.2632 2.23682 15.9639 2.39673 15.6411 2.46411C15.5273 2.48779 15.4106 2.5 15.293 2.5H8.70703ZM2 4.5C2 3.11938 3.11914 2 4.5 2H6.29297C6.61328 2 6.91992 2.1272 7.14648 2.35352C7.56055 2.76758 8.12158 3 8.70703 3H15.293C15.8784 3 16.4395 2.76758 16.8535 2.35352C17.0024 2.20459 17.187 2.09863 17.3867 2.04346C17.4902 2.01489 17.5981 2 17.707 2H19.5C20.8809 2 22 3.11938 22 4.5V19.5C22 20.8806 20.8809 22 19.5 22H17.707C17.3867 22 17.0801 21.8728 16.8535 21.6465C16.4395 21.2324 15.8784 21 15.293 21H8.70703C8.12158 21 7.56055 21.2324 7.14648 21.6465C6.91992 21.8728 6.61328 22 6.29297 22H4.5C3.11914 22 2 20.8806 2 19.5V4.5Z" fill="url(#paint6_linear_33509_58442)"/>
<rect opacity="0.5" x="9" y="2.5" width="6" height="0.5" rx="0.25" fill="white"/>
<path d="M4.5 1.75C4.5 1.61193 4.61193 1.5 4.75 1.5H5.75C5.88807 1.5 6 1.61193 6 1.75C6 1.88807 5.88807 2 5.75 2H4.75C4.61193 2 4.5 1.88807 4.5 1.75Z" fill="white"/>
<path opacity="0.5" d="M4.5 22.25C4.5 22.1119 4.61193 22 4.75 22H5.75C5.88807 22 6 22.1119 6 22.25C6 22.3881 5.88807 22.5 5.75 22.5H4.75C4.61193 22.5 4.5 22.3881 4.5 22.25Z" fill="white"/>
<path d="M18 1.75C18 1.61193 18.1119 1.5 18.25 1.5H19.25C19.3881 1.5 19.5 1.61193 19.5 1.75C19.5 1.88807 19.3881 2 19.25 2H18.25C18.1119 2 18 1.88807 18 1.75Z" fill="white"/>
<path opacity="0.5" d="M18 22.25C18 22.1119 18.1119 22 18.25 22H19.25C19.3881 22 19.5 22.1119 19.5 22.25C19.5 22.3881 19.3881 22.5 19.25 22.5H18.25C18.1119 22.5 18 22.3881 18 22.25Z" fill="white"/>
<path opacity="0.5" d="M8.5 1.75C8.5 1.61193 8.61193 1.5 8.75 1.5H15.25C15.3881 1.5 15.5 1.61193 15.5 1.75C15.5 1.88807 15.3881 2 15.25 2H8.75C8.61193 2 8.5 1.88807 8.5 1.75Z" fill="#FF3333"/>
<path d="M9 1.75C9 1.61193 9.11193 1.5 9.25 1.5H14.75C14.8881 1.5 15 1.61193 15 1.75C15 1.88807 14.8881 2 14.75 2H9.25C9.11193 2 9 1.88807 9 1.75Z" fill="#FF3333"/>
<path opacity="0.5" d="M8.5 22.25C8.5 22.1119 8.61193 22 8.75 22H15.25C15.3881 22 15.5 22.1119 15.5 22.25C15.5 22.3881 15.3881 22.5 15.25 22.5H8.75C8.61193 22.5 8.5 22.3881 8.5 22.25Z" fill="#FF3333"/>
<path d="M9 22.25C9 22.1119 9.11193 22 9.25 22H14.75C14.8881 22 15 22.1119 15 22.25C15 22.3881 14.8881 22.5 14.75 22.5H9.25C9.11193 22.5 9 22.3881 9 22.25Z" fill="#FF3333"/>
<rect opacity="0.5" x="9" y="21" width="6" height="0.5" rx="0.25" fill="white"/>
<path d="M13 7H15V11.3819L16.9999 10.382L17 7H19C19 7 18.9999 9.25464 18.9999 10.382C18.9999 11.1395 18.5719 11.832 17.8944 12.1708L17.118 12.559L18.4472 13.2236C18.786 13.393 19 13.7393 19 14.118V18.5L17 17.5V12.618L15 13.618V16.5L13 15.5V7Z" fill="white"/>
<path opacity="0.5" fill-rule="evenodd" clip-rule="evenodd" d="M15 7H13V15.5L15 16.5V13.618L17 12.618V17.5L19 18.5V14.118C19 13.7393 18.786 13.393 18.4472 13.2236L17.118 12.559L17.8944 12.1708C18.5719 11.832 18.9999 11.1395 18.9999 10.382L19 7H17L16.9999 10.382L15 11.3819V7ZM17.5 7.5L17.4999 10.691L14.5 12.191V7.5H13.5V15.191L14.5 15.691V13.309L17.6708 11.7236C18.1789 11.4695 18.4999 10.9501 18.4999 10.382L18.5 7.5H17.5ZM17.5 13.309L18.2236 13.6708C18.393 13.7555 18.5 13.9286 18.5 14.118V17.691L17.5 17.191V13.309Z" fill="url(#paint7_linear_33509_58442)"/>
<path fill-rule="evenodd" clip-rule="evenodd" d="M2 4.5V19.5C2 20.8806 3.1194 22 4.5 22H6.29297C6.61073 22 6.92157 21.8712 7.14672 21.6462C7.56062 21.2325 8.12171 21 8.70703 21H15.293C15.8784 21 16.4393 21.2324 16.8534 21.6464C17.08 21.8727 17.3869 22 17.707 22H19.5C20.8806 22 22 20.8806 22 19.5V4.5C22 3.11941 20.8806 2 19.5 2H17.707C17.3869 2 17.08 2.12732 16.8534 2.35365C16.4393 2.76763 15.8784 3 15.293 3H8.70703C8.12171 3 7.56062 2.76752 7.14672 2.35375C6.92157 2.12884 6.61073 2 6.29297 2H4.5C3.1194 2 2 3.1194 2 4.5ZM21.5 4.5C21.5 3.39549 20.6047 2.5 19.5 2.5H17.707C17.5195 2.5 17.3399 2.57439 17.2069 2.70726C16.6991 3.21495 16.011 3.5 15.293 3.5H8.70703C7.98903 3.5 7.30091 3.21495 6.79312 2.70726C6.66011 2.57439 6.48049 2.5 6.29297 2.5H4.5C3.39531 2.5 2.5 3.39549 2.5 4.5V19.5C2.5 20.6045 3.39531 21.5 4.5 21.5H6.29297C6.48049 21.5 6.66011 21.4256 6.79312 21.2927C7.30091 20.7851 7.98903 20.5 8.70703 20.5H15.293C16.011 20.5 16.6991 20.7851 17.2069 21.2927C17.3399 21.4256 17.5195 21.5 17.707 21.5H19.5C20.6047 21.5 21.5 20.6045 21.5 19.5V4.5Z" fill="url(#paint8_linear_33509_58442)"/>
<path opacity="0.25" fill-rule="evenodd" clip-rule="evenodd" d="M17.8944 12.1709L15 13.6181L14.5 13.3091L17.6708 11.7237C17.9013 11.6084 18.0933 11.4386 18.2343 11.2344L18.5922 11.5923C18.4103 11.8318 18.1735 12.0314 17.8944 12.1709Z" fill="#001926"/>
<path opacity="0.5" d="M13 15.499L15 16.499L14.5 15.6899L13.5 15.1899L13 15.499Z" fill="#001926"/>
<path opacity="0.5" d="M17 17.5L19 18.5L18.5 17.691L17.5 17.191L17 17.5Z" fill="#001926"/>
<path d="M14.5 12.1911L17.4999 10.6911L16.9999 10.3821L15 11.3821L14.5 12.1911Z" fill="white"/>
<path fill-rule="evenodd" clip-rule="evenodd" d="M9 9H7V15.2639L9 14.2639V9ZM9.89443 16.0528C10.572 15.714 11 15.0215 11 14.2639V9C11 7.89543 10.1046 7 9 7H5V18.5L9.89443 16.0528Z" fill="white"/>
<path opacity="0.5" fill-rule="evenodd" clip-rule="evenodd" d="M6.5 8.5H9.5V14.5729L6.5 16.0729V8.5ZM7 9H9V14.2639L7 15.2639V9ZM9.67082 15.6056C10.179 15.3515 10.5 14.8321 10.5 14.2639V9C10.5 8.17157 9.82843 7.5 9 7.5H5.5V17.691L9.67082 15.6056ZM9.89443 16.0528C10.572 15.714 11 15.0215 11 14.2639V9C11 7.89543 10.1046 7 9 7H5V18.5L9.89443 16.0528Z" fill="url(#paint9_linear_33509_58442)"/>
<path opacity="0.25" fill-rule="evenodd" clip-rule="evenodd" d="M4.5 6.5H9C10.3807 6.5 11.5 7.61929 11.5 9V14.2639C11.5 15.2109 10.965 16.0765 10.118 16.5L4.5 19.309V6.5ZM8.5 9.5H7.5V14.4549L8.5 13.9549V9.5ZM9 14.2639L7 15.2639V9H9V14.2639ZM5 7H9C10.1046 7 11 7.89543 11 9V14.2639C11 15.0215 10.572 15.714 9.89443 16.0528L5 18.5V7Z" fill="black"/>
<path fill-rule="evenodd" clip-rule="evenodd" d="M9.89437 16.0528L5 18.5L5.5 17.691L9.67077 15.6055C9.90128 15.4903 10.0933 15.3204 10.2343 15.1162L10.5922 15.4742C10.4103 15.7136 10.1735 15.9132 9.89437 16.0528Z" fill="#FF6666"/>
<path opacity="0.25" d="M7 9L6.5 8.5H9.5L9 9H7Z" fill="#001926"/>
<defs>
<radialGradient id="paint0_radial_33509_58442" cx="0" cy="0" r="1" gradientUnits="userSpaceOnUse" gradientTransform="translate(12 23.5) rotate(180) scale(12)">
<stop stop-color="#FF3333"/>
<stop offset="1" stop-color="#401010"/>
</radialGradient>
<linearGradient id="paint1_linear_33509_58442" x1="15" y1="17" x2="2" y2="17" gradientUnits="userSpaceOnUse">
<stop stop-color="white" stop-opacity="0.5"/>
<stop offset="1" stop-color="white" stop-opacity="0"/>
</linearGradient>
<radialGradient id="paint2_radial_33509_58442" cx="0" cy="0" r="1" gradientUnits="userSpaceOnUse" gradientTransform="translate(12 20) rotate(-90) scale(17.5 17.5)">
<stop stop-color="#BFEAFF"/>
<stop offset="1"/>
</radialGradient>
<linearGradient id="paint3_linear_33509_58442" x1="22.9062" y1="20.6747" x2="0.870014" y2="20.6747" gradientUnits="userSpaceOnUse">
<stop stop-color="#FF8080"/>
<stop offset="1" stop-color="#401010"/>
</linearGradient>
<linearGradient id="paint4_linear_33509_58442" x1="12" y1="4.99976" x2="12" y2="1.59976" gradientUnits="userSpaceOnUse">
<stop/>
<stop offset="1" stop-opacity="0"/>
</linearGradient>
<linearGradient id="paint5_linear_33509_58442" x1="12.0002" y1="5.49976" x2="12.0002" y2="1.99976" gradientUnits="userSpaceOnUse">
<stop stop-color="white" stop-opacity="0.25"/>
<stop offset="1" stop-color="white" stop-opacity="0"/>
</linearGradient>
<linearGradient id="paint6_linear_33509_58442" x1="12" y1="1.5" x2="12" y2="22.5" gradientUnits="userSpaceOnUse">
<stop stop-color="#607580"/>
<stop offset="1" stop-color="#336680"/>
</linearGradient>
<linearGradient id="paint7_linear_33509_58442" x1="12" y1="7" x2="12" y2="18.5" gradientUnits="userSpaceOnUse">
<stop stop-color="#001926" stop-opacity="0"/>
<stop offset="1" stop-color="#001926"/>
</linearGradient>
<linearGradient id="paint8_linear_33509_58442" x1="12" y1="2" x2="12" y2="22" gradientUnits="userSpaceOnUse">
<stop offset="0.649774"/>
<stop offset="0.92274" stop-opacity="0.5"/>
</linearGradient>
<linearGradient id="paint9_linear_33509_58442" x1="4" y1="7" x2="4" y2="18.5" gradientUnits="userSpaceOnUse">
<stop stop-color="#001926" stop-opacity="0"/>
<stop offset="1" stop-color="#001926"/>
</linearGradient>
</defs>
</svg>
