<svg width="24" height="24" viewBox="0 0 24 24" fill="none" xmlns="http://www.w3.org/2000/svg">
<path d="M0.5 4.5C0.5 2.29086 2.29086 0.5 4.5 0.5H19.5C21.7091 0.5 23.5 2.29086 23.5 4.5V19.5C23.5 21.7091 21.7091 23.5 19.5 23.5H4.5C2.29086 23.5 0.5 21.7091 0.5 19.5V4.5Z" fill="url(#paint0_radial_11190_48251)"/>
<path opacity="0.15" fill-rule="evenodd" clip-rule="evenodd" d="M21 4.5C21 3.67161 20.3285 3 19.5 3H17.707C17.6523 3 17.5997 3.0216 17.5602 3.061C16.9587 3.66231 16.1435 4 15.293 4H8.70703C7.85648 4 7.04127 3.66231 6.43976 3.061C6.40031 3.0216 6.34771 3 6.29297 3H4.5C3.67149 3 3 3.67161 3 4.5V19.5C3 20.3284 3.67149 21 4.5 21H6.29297C6.34771 21 6.40031 20.9784 6.43976 20.939C7.04127 20.3377 7.85648 20 8.70703 20H15.293C16.1435 20 16.9587 20.3377 17.5602 20.939C17.5997 20.9784 17.6523 21 17.707 21H19.5C20.3285 21 21 20.3284 21 19.5V4.5ZM17.2069 21.2927C16.6991 20.7851 16.011 20.5 15.293 20.5H8.70703C7.98903 20.5 7.30091 20.7851 6.79312 21.2927C6.66011 21.4256 6.48049 21.5 6.29297 21.5H4.5C3.39531 21.5 2.5 20.6045 2.5 19.5V4.5C2.5 3.39549 3.39531 2.5 4.5 2.5H6.29297C6.48049 2.5 6.66011 2.57439 6.79312 2.70726C7.30091 3.21495 7.98903 3.5 8.70703 3.5H15.293C16.011 3.5 16.6991 3.21495 17.2069 2.70726C17.3399 2.57439 17.5195 2.5 17.707 2.5H19.5C20.6047 2.5 21.5 3.39549 21.5 4.5V19.5C21.5 20.6045 20.6047 21.5 19.5 21.5H17.707C17.5195 21.5 17.3399 21.4256 17.2069 21.2927Z" fill="white"/>
<path opacity="0.25" fill-rule="evenodd" clip-rule="evenodd" d="M10 6.5C11.1046 6.5 12 7.39543 12 8.5V15.5C12 15.7752 11.9441 16.0387 11.8426 16.2786C11.7934 16.3949 11.7336 16.5055 11.6645 16.6091C11.3067 17.1452 10.6949 17.5001 9.9999 17.5001L6.99998 17.5C5.89542 17.5 5 16.6046 5 15.5V8.5C5 7.39543 5.89543 6.5 7 6.5H10ZM11.3821 16.0839C11.3453 16.171 11.3005 16.2538 11.2486 16.3316C10.9796 16.7346 10.5208 17.0001 9.99991 17.0001L7 17C6.17157 17 5.5 16.3284 5.5 15.5V8.5C5.5 7.67157 6.17157 7 7 7H10C10.8284 7 11.5 7.67157 11.5 8.5V11.5L9.5 10.5V9H7.5V15H9.5V13.74L8.5 13.2361V11L11.5 12.5V15.5C11.5 15.7071 11.458 15.9044 11.3821 16.0839ZM8 9.5H9V10.691L8 10.191V9.5ZM9 14.0479V14.5H8V13.544L9 14.0479ZM19.5 9.5V6.5H12.5V9.5H14.5V17.5H17.5V9.5H19.5Z" fill="black"/>
<path d="M2 7.75L22 17.75V22H2V7.75Z" fill="url(#paint1_radial_11190_48251)"/>
<path fill-rule="evenodd" clip-rule="evenodd" d="M2 8L22 18.0264V23L2 13V8Z" fill="url(#paint2_linear_11190_48251)"/>
<path fill-rule="evenodd" clip-rule="evenodd" d="M1.55271 7.52637L22.4471 17.9736L22.2235 18.4208L1.3291 7.97358L1.55271 7.52637Z" fill="url(#paint3_linear_11190_48251)"/>
<path fill-rule="evenodd" clip-rule="evenodd" d="M1.77634 7.0791L22.6708 17.5263L22.4472 17.9735L1.55273 7.52632L1.77634 7.0791Z" fill="url(#paint4_linear_11190_48251)"/>
<path d="M5.5 8.5C5.5 7.67157 6.17157 7 7 7H10C10.8284 7 11.5 7.67157 11.5 8.5V11.5L9.5 10.5V9H7.5V15H9.5V13.74L8.5 13.2361V11L11.5 12.5V15.5C11.5 15.7071 11.458 15.9044 11.3821 16.0839C11.3453 16.171 11.3005 16.2538 11.2486 16.3316C10.9796 16.7346 10.5208 17.0001 9.99991 17.0001L7 17C6.17157 17 5.5 16.3284 5.5 15.5V8.5Z" fill="white"/>
<path opacity="0.5" fill-rule="evenodd" clip-rule="evenodd" d="M10 8.5V10.191L11 10.691V8.5C11 7.94772 10.5523 7.5 10 7.5H7C6.44772 7.5 6 7.94772 6 8.5V15.5C6 16.0523 6.44772 16.5 7 16.5L9.99991 16.5001C10.3467 16.5001 10.6525 16.324 10.8327 16.0541C10.8673 16.0022 10.8971 15.947 10.9216 15.8891C10.9719 15.7701 11 15.639 11 15.5V12.809L9 11.809V12.9281L10 13.4321V15.5H7V8.5H10ZM8.5 13.2361V11L11.5 12.5V15.5C11.5 15.7071 11.458 15.9044 11.3821 16.0839C11.3453 16.171 11.3005 16.2538 11.2486 16.3316C10.9796 16.7346 10.5208 17.0001 9.99991 17.0001L7 17C6.17157 17 5.5 16.3284 5.5 15.5V8.5C5.5 7.67157 6.17157 7 7 7H10C10.8284 7 11.5 7.67157 11.5 8.5V11.5L9.5 10.5V9H7.5V15H9.5V13.74L8.5 13.2361Z" fill="url(#paint5_linear_11190_48251)"/>
<path opacity="0.25" d="M9 12.9299L8.5 13.2399L9.5 13.74L10 13.43L9 12.9299Z" fill="#001926"/>
<path opacity="0.25" d="M7.5 9L7 8.5H10L9.5 9H7.5Z" fill="#001926"/>
<path fill-rule="evenodd" clip-rule="evenodd" d="M4.5 0H19.5C21.9853 0 24 2.01472 24 4.5V19.5C24 21.9853 21.9853 24 19.5 24H4.5C2.01472 24 0 21.9853 0 19.5V4.5C0 2.01472 2.01472 0 4.5 0ZM4.5 0.5C2.29086 0.5 0.5 2.29086 0.5 4.5V19.5C0.5 21.7091 2.29086 23.5 4.5 23.5H19.5C21.7091 23.5 23.5 21.7091 23.5 19.5V4.5C23.5 2.29086 21.7091 0.5 19.5 0.5H4.5Z" fill="white" fill-opacity="0.25"/>
<path fill-rule="evenodd" clip-rule="evenodd" d="M6 1.5L4.5 1.5C2.84315 1.5 1.5 2.84315 1.5 4.5V19.5C1.5 21.1569 2.84315 22.5 4.5 22.5H6H6.29289C6.74565 22.5 7.17985 22.3201 7.5 22C7.82014 21.6799 8.25435 21.5 8.7071 21.5H15.2929C15.7456 21.5 16.1798 21.6799 16.5 22C16.8201 22.3201 17.2543 22.5 17.7071 22.5H18H19.5C21.1569 22.5 22.5 21.1569 22.5 19.5V4.5C22.5 2.84315 21.1569 1.5 19.5 1.5L18 1.5L17.7071 1.5C17.7069 1.5 17.7067 1.5 17.7065 1.5C17.2539 1.50017 16.82 1.68001 16.5 2C16.1798 2.32014 15.7456 2.5 15.2929 2.5L8.7071 2.5C8.25435 2.5 7.82014 2.32014 7.5 2C7.17985 1.67986 6.74565 1.5 6.29289 1.5H6ZM4.5 0.5C2.29086 0.5 0.5 2.29086 0.5 4.5V19.5C0.5 21.7091 2.29086 23.5 4.5 23.5H19.5C21.7091 23.5 23.5 21.7091 23.5 19.5V4.5C23.5 2.29086 21.7091 0.5 19.5 0.5H4.5Z" fill="#001926"/>
<path fill-rule="evenodd" clip-rule="evenodd" d="M8.70703 2.5C8.25439 2.5 7.82031 2.32007 7.5 2C7.17969 1.67993 6.74561 1.5 6.29297 1.5H4.5C2.84326 1.5 1.5 2.84326 1.5 4.5V19.5C1.5 21.1567 2.84326 22.5 4.5 22.5H6.29297C6.48975 22.5 6.68262 22.4661 6.86426 22.4014C7.10107 22.3171 7.31885 22.1809 7.5 22C7.82031 21.6799 8.25439 21.5 8.70703 21.5H15.293C15.7456 21.5 16.1797 21.6799 16.5 22C16.8203 22.3201 17.2544 22.5 17.707 22.5H19.5C21.1567 22.5 22.5 21.1567 22.5 19.5V4.5C22.5 2.84326 21.1567 1.5 19.5 1.5H17.7065C17.2539 1.50024 16.8198 1.67993 16.5 2C16.2632 2.23682 15.9639 2.39673 15.6411 2.46411C15.5273 2.48779 15.4106 2.5 15.293 2.5H8.70703ZM2 4.5C2 3.11938 3.11914 2 4.5 2H6.29297C6.61328 2 6.91992 2.1272 7.14648 2.35352C7.56055 2.76758 8.12158 3 8.70703 3H15.293C15.8784 3 16.4395 2.76758 16.8535 2.35352C17.0024 2.20459 17.187 2.09863 17.3867 2.04346C17.4902 2.01489 17.5981 2 17.707 2H19.5C20.8809 2 22 3.11938 22 4.5V19.5C22 20.8806 20.8809 22 19.5 22H17.707C17.3867 22 17.0801 21.8728 16.8535 21.6465C16.4395 21.2324 15.8784 21 15.293 21H8.70703C8.12158 21 7.56055 21.2324 7.14648 21.6465C6.91992 21.8728 6.61328 22 6.29297 22H4.5C3.11914 22 2 20.8806 2 19.5V4.5Z" fill="url(#paint6_linear_11190_48251)"/>
<path opacity="0.5" d="M9 2.75C9 2.61193 9.11193 2.5 9.25 2.5H14.75C14.8881 2.5 15 2.61193 15 2.75C15 2.88807 14.8881 3 14.75 3H9.25C9.11193 3 9 2.88807 9 2.75Z" fill="white"/>
<path opacity="0.25" d="M9 3.75C9 3.61193 9.11193 3.5 9.25 3.5H14.75C14.8881 3.5 15 3.61193 15 3.75C15 3.88807 14.8881 4 14.75 4H9.25C9.11193 4 9 3.88807 9 3.75Z" fill="white"/>
<path d="M4.5 1.75C4.5 1.61193 4.61193 1.5 4.75 1.5H5.75C5.88807 1.5 6 1.61193 6 1.75C6 1.88807 5.88807 2 5.75 2H4.75C4.61193 2 4.5 1.88807 4.5 1.75Z" fill="white"/>
<path d="M18 1.75C18 1.61193 18.1119 1.5 18.25 1.5H19.25C19.3881 1.5 19.5 1.61193 19.5 1.75C19.5 1.88807 19.3881 2 19.25 2H18.25C18.1119 2 18 1.88807 18 1.75Z" fill="white"/>
<path opacity="0.5" d="M8.5 1.75C8.5 1.61193 8.61193 1.5 8.75 1.5H15.25C15.3881 1.5 15.5 1.61193 15.5 1.75C15.5 1.88807 15.3881 2 15.25 2H8.75C8.61193 2 8.5 1.88807 8.5 1.75Z" fill="#FF3333"/>
<path d="M9 1.75C9 1.61193 9.11193 1.5 9.25 1.5H14.75C14.8881 1.5 15 1.61193 15 1.75C15 1.88807 14.8881 2 14.75 2H9.25C9.11193 2 9 1.88807 9 1.75Z" fill="#FF3333"/>
<path d="M19 7V9H17V17H15V9H13V7H19Z" fill="white"/>
<path opacity="0.5" fill-rule="evenodd" clip-rule="evenodd" d="M15 9V17H17V9H19V7H13V9H15ZM13.5 8.5H15.5V16.5H16.5V8.5H18.5V7.5H13.5V8.5Z" fill="url(#paint7_linear_11190_48251)"/>
<path opacity="0.5" d="M6.29349 16.207C6.47446 16.388 6.72446 16.4999 7.0006 16.4999H10.0006C10.2767 16.4999 10.5267 16.388 10.7077 16.207L11.0613 16.5606C10.7898 16.832 10.4148 16.9999 10.0006 16.9999H7.0006C6.58639 16.9999 6.21139 16.832 5.93994 16.5606L6.29349 16.207Z" fill="#001926"/>
<path opacity="0.25" d="M15.5 16.5L15 17H17L16.5 16.5H15.5Z" fill="#001926"/>
<path d="M7.5 15L7 15.5H10L9.5 15H7.5Z" fill="white"/>
<path d="M13.5 7.5L13 7H19L18.5 7.5H13.5Z" fill="white"/>
<path opacity="0.5" fill-rule="evenodd" clip-rule="evenodd" d="M2 4.5V19.5C2 20.8806 3.1194 22 4.5 22H6.29297C6.61073 22 6.92157 21.8712 7.14672 21.6462C7.56062 21.2325 8.12171 21 8.70703 21H15.293C15.8784 21 16.4393 21.2324 16.8534 21.6464C17.08 21.8727 17.3869 22 17.707 22H19.5C20.8806 22 22 20.8806 22 19.5V4.5C22 3.11941 20.8806 2 19.5 2H17.707C17.3869 2 17.08 2.12732 16.8534 2.35365C16.4393 2.76763 15.8784 3 15.293 3H8.70703C8.12171 3 7.56062 2.76752 7.14672 2.35375C6.92157 2.12884 6.61073 2 6.29297 2H4.5C3.1194 2 2 3.1194 2 4.5ZM21.5 4.5C21.5 3.39549 20.6047 2.5 19.5 2.5H17.707C17.5195 2.5 17.3399 2.57439 17.2069 2.70726C16.6991 3.21495 16.011 3.5 15.293 3.5H8.70703C7.98903 3.5 7.30091 3.21495 6.79312 2.70726C6.66011 2.57439 6.48049 2.5 6.29297 2.5H4.5C3.39531 2.5 2.5 3.39549 2.5 4.5V19.5C2.5 20.6045 3.39531 21.5 4.5 21.5H6.29297C6.48049 21.5 6.66011 21.4256 6.79312 21.2927C7.30091 20.7851 7.98903 20.5 8.70703 20.5H15.293C16.011 20.5 16.6991 20.7851 17.2069 21.2927C17.3399 21.4256 17.5195 21.5 17.707 21.5H19.5C20.6047 21.5 21.5 20.6045 21.5 19.5V4.5Z" fill="url(#paint8_linear_11190_48251)"/>
<path opacity="0.25" d="M13.5 8.5L13 9H15L15.5 8.5H13.5Z" fill="#001926"/>
<path opacity="0.25" d="M18.5 8.5L19 9H17L16.5 8.5H18.5Z" fill="#001926"/>
<path opacity="0.25" d="M10 10.1899L9.5 10.4999L11.5 11.5L11 10.6899L10 10.1899Z" fill="#001926"/>
<path d="M9 11.8401L8.5 11L11.5 12.4999L11 12.81L9 11.8401Z" fill="white"/>
<path d="M4.20064 18.3025L3.97754 18.75L4.42501 18.9731L4.64811 18.5256L4.20064 18.3025Z" fill="#001926"/>
<path d="M5.09557 18.7487L4.87247 19.1962L5.31994 19.4193L5.54304 18.9718L5.09557 18.7487Z" fill="#001926"/>
<path d="M5.76741 19.6424L5.99051 19.1949L6.43797 19.418L6.21487 19.8655L5.76741 19.6424Z" fill="#001926"/>
<path opacity="0.25" fill-rule="evenodd" clip-rule="evenodd" d="M4.5 5C4.77614 5 5 4.77614 5 4.5C5 4.22386 4.77614 4 4.5 4C4.22386 4 4 4.22386 4 4.5C4 4.77614 4.22386 5 4.5 5ZM20 4.5C20 4.77614 19.7761 5 19.5 5C19.2239 5 19 4.77614 19 4.5C19 4.22386 19.2239 4 19.5 4C19.7761 4 20 4.22386 20 4.5Z" fill="white"/>
<path opacity="0.5" d="M4.5 22.25C4.5 22.1119 4.61193 22 4.75 22H5.75C5.88807 22 6 22.1119 6 22.25C6 22.3881 5.88807 22.5 5.75 22.5H4.75C4.61193 22.5 4.5 22.3881 4.5 22.25Z" fill="white"/>
<path opacity="0.5" d="M18 22.25C18 22.1119 18.1119 22 18.25 22H19.25C19.3881 22 19.5 22.1119 19.5 22.25C19.5 22.3881 19.3881 22.5 19.25 22.5H18.25C18.1119 22.5 18 22.3881 18 22.25Z" fill="white"/>
<path opacity="0.5" d="M8.5 22.25C8.5 22.1119 8.61193 22 8.75 22H15.25C15.3881 22 15.5 22.1119 15.5 22.25C15.5 22.3881 15.3881 22.5 15.25 22.5H8.75C8.61193 22.5 8.5 22.3881 8.5 22.25Z" fill="#FF3333"/>
<path d="M9 22.25C9 22.1119 9.11193 22 9.25 22H14.75C14.8881 22 15 22.1119 15 22.25C15 22.3881 14.8881 22.5 14.75 22.5H9.25C9.11193 22.5 9 22.3881 9 22.25Z" fill="#FF3333"/>
<path opacity="0.5" d="M9 21.25C9 21.1119 9.11193 21 9.25 21H14.75C14.8881 21 15 21.1119 15 21.25C15 21.3881 14.8881 21.5 14.75 21.5H9.25C9.11193 21.5 9 21.3881 9 21.25Z" fill="white"/>
<path d="M10.882 21H13L2 15.5V16.559L10.882 21Z" fill="url(#paint9_linear_11190_48251)"/>
<defs>
<radialGradient id="paint0_radial_11190_48251" cx="0" cy="0" r="1" gradientUnits="userSpaceOnUse" gradientTransform="translate(12 24.197) rotate(-90) scale(23.697 20.5789)">
<stop stop-color="#BFD5FF"/>
<stop offset="1" stop-color="#131A26"/>
</radialGradient>
<radialGradient id="paint1_radial_11190_48251" cx="0" cy="0" r="1" gradientUnits="userSpaceOnUse" gradientTransform="translate(12 22.4318) rotate(-90) scale(14.6818)">
<stop stop-color="white"/>
<stop offset="1" stop-color="#BFD5FF"/>
</radialGradient>
<linearGradient id="paint2_linear_11190_48251" x1="12" y1="8" x2="12" y2="22.5" gradientUnits="userSpaceOnUse">
<stop stop-color="#001926"/>
<stop offset="1" stop-color="#001926" stop-opacity="0.75"/>
</linearGradient>
<linearGradient id="paint3_linear_11190_48251" x1="11.8881" y1="7.52637" x2="11.8881" y2="18.4208" gradientUnits="userSpaceOnUse">
<stop stop-color="white"/>
<stop offset="1" stop-color="#BFD5FF"/>
</linearGradient>
<linearGradient id="paint4_linear_11190_48251" x1="12.1118" y1="7.0791" x2="12.1118" y2="17.9735" gradientUnits="userSpaceOnUse">
<stop stop-color="#001926"/>
<stop offset="1" stop-color="#001926" stop-opacity="0.75"/>
</linearGradient>
<linearGradient id="paint5_linear_11190_48251" x1="4.5" y1="7" x2="4.5" y2="17.0001" gradientUnits="userSpaceOnUse">
<stop stop-color="#001926" stop-opacity="0"/>
<stop offset="1" stop-color="#001926"/>
</linearGradient>
<linearGradient id="paint6_linear_11190_48251" x1="12" y1="1.5" x2="12" y2="22.5" gradientUnits="userSpaceOnUse">
<stop stop-color="#607580"/>
<stop offset="1" stop-color="#336680"/>
</linearGradient>
<linearGradient id="paint7_linear_11190_48251" x1="12" y1="7" x2="12" y2="17" gradientUnits="userSpaceOnUse">
<stop stop-color="#001926" stop-opacity="0"/>
<stop offset="1" stop-color="#001926"/>
</linearGradient>
<linearGradient id="paint8_linear_11190_48251" x1="12" y1="2" x2="12" y2="22" gradientUnits="userSpaceOnUse">
<stop offset="0.649774"/>
<stop offset="0.92274" stop-opacity="0"/>
</linearGradient>
<linearGradient id="paint9_linear_11190_48251" x1="7.50002" y1="15.5" x2="7.50002" y2="21" gradientUnits="userSpaceOnUse">
<stop stop-color="#001926"/>
<stop offset="1" stop-color="#001926" stop-opacity="0.5"/>
</linearGradient>
</defs>
</svg>
