<svg width="96" height="96" viewBox="0 0 96 96" fill="none" xmlns="http://www.w3.org/2000/svg">
<g id="ICE">
<path id="Rectangle 3174" d="M2 18C2 9.16345 9.16344 2 18 2H78C86.8366 2 94 9.16344 94 18V78C94 86.8366 86.8366 94 78 94H18C9.16345 94 2 86.8366 2 78V18Z" fill="url(#paint0_radial_26599_95644)"/>
<path id="Subtract" fill-rule="evenodd" clip-rule="evenodd" d="M8 71.9031L36.0659 53.8607L20.7032 88H22.8964L26.0049 81.0922L43.8173 73.1756L43.1727 88H45.1746L46.9497 47.1723L71.88 51.3273L46.7882 88H49.2115L64.3946 65.8093L86.5854 88H87.9999L88 86.5862L77.3684 75.9546L88 63.8042V60.767L75.951 74.5372L65.5437 64.1299L74.0553 51.6899L88 54.014V51.9864L49.0735 45.4987L88 20.4745V18.0969L63.0496 34.1364L76.1179 8H73.8818L59.7544 36.2548L47.6734 44.0212L59.0485 8H56.9511L54.1582 16.8443L24.821 29.4174L22.4124 25.0017L39.4141 8H36.5857L21.4141 23.1715L13.0964 8H10.8145L24.6877 33.3497L8 38.356V40.4441L25.6665 35.1442L34.9647 52.191L24.1968 59.1132L24.2167 59.024L8 55.4203V57.4691L21.9368 60.5661L8 69.5255V71.9031ZM45.0418 45.7129L36.6515 51.1067L25.7829 31.181L53.3635 19.3608L45.0418 45.7129ZM39.1518 51.8769L44.9041 48.179L43.9143 70.9438L27.236 78.3564L39.1518 51.8769Z" fill="white" fill-opacity="0.25"/>
<path id="Rectangle 3150 (Stroke)" fill-rule="evenodd" clip-rule="evenodd" d="M18 0H78C87.9411 0 96 8.05888 96 18V78C96 87.9411 87.9411 96 78 96H18C8.05888 96 0 87.9411 0 78V18C0 8.05888 8.05887 0 18 0ZM18 2C9.16344 2 2 9.16345 2 18V78C2 86.8366 9.16345 94 18 94H78C86.8366 94 94 86.8366 94 78V18C94 9.16344 86.8366 2 78 2H18Z" fill="white" fill-opacity="0.25"/>
<path id="Union" fill-rule="evenodd" clip-rule="evenodd" d="M24 6L18 6C11.3726 6 6 11.3726 6 18V78C6 84.6274 11.3726 90 18 90H24H25.1716C26.9826 90 28.7194 89.2806 30 88C31.2806 86.7194 33.0174 86 34.8284 86H61.1715C62.9826 86 64.7194 86.7194 66 88C67.2805 89.2806 69.0174 90 70.8284 90H72H78C84.6274 90 90 84.6274 90 78V18C90 11.3726 84.6274 6 78 6L72 6L70.8284 6C70.8275 6 70.8267 6 70.8258 6C69.0157 6.00068 67.2799 6.72002 66 8C64.7194 9.28058 62.9826 10 61.1715 10L34.8284 10C33.0174 10 31.2806 9.28058 30 8C28.7194 6.71942 26.9826 6 25.1716 6H24ZM18 2C9.16344 2 2 9.16345 2 18V78C2 86.8366 9.16345 94 18 94H78C86.8366 94 94 86.8366 94 78V18C94 9.16344 86.8366 2 78 2H18Z" fill="#001926"/>
<path id="Union_2" fill-rule="evenodd" clip-rule="evenodd" d="M34.8281 10C33.0176 10 31.2812 9.28027 30 8C28.7188 6.71973 26.9824 6 25.1719 6H18C11.373 6 6 11.373 6 18V78C6 84.627 11.373 90 18 90H25.1719C25.959 90 26.7305 89.8643 27.457 89.6055C28.4043 89.2686 29.2754 88.7236 30 88C31.2812 86.7197 33.0176 86 34.8281 86H61.1719C62.9824 86 64.7188 86.7197 66 88C67.2812 89.2803 69.0176 90 70.8281 90H78C84.627 90 90 84.627 90 78V18C90 11.373 84.627 6 78 6H70.8262C69.0156 6.00098 67.2793 6.71973 66 8C65.0527 8.94727 63.8555 9.58691 62.5645 9.85645C62.1094 9.95117 61.6426 10 61.1719 10H34.8281ZM8 18C8 12.4775 12.4766 8 18 8H25.1719C26.4531 8 27.6797 8.50879 28.5859 9.41406C30.2422 11.0703 32.4863 12 34.8281 12H61.1719C63.5137 12 65.7578 11.0703 67.4141 9.41406C68.0098 8.81836 68.748 8.39453 69.5469 8.17383C69.9609 8.05957 70.3926 8 70.8281 8H78C83.5234 8 88 12.4775 88 18V78C88 83.5225 83.5234 88 78 88H70.8281C69.5469 88 68.3203 87.4912 67.4141 86.5859C65.7578 84.9297 63.5137 84 61.1719 84H34.8281C32.4863 84 30.2422 84.9297 28.5859 86.5859C27.6797 87.4912 26.4531 88 25.1719 88H18C12.4766 88 8 83.5225 8 78V18Z" fill="url(#paint1_linear_26599_95644)"/>
<path id="Union_3" opacity="0.75" fill-rule="evenodd" clip-rule="evenodd" d="M8 18V78C8 83.5224 12.4776 88 18 88H25.1719C26.4429 88 27.6863 87.4846 28.5869 86.585C30.2425 84.9299 32.4868 84 34.8281 84H61.1719C63.5134 84 65.7573 84.9295 67.4135 86.5854C68.3198 87.4907 69.5475 88 70.8281 88H78C83.5224 88 88 83.5224 88 78V18C88 12.4776 83.5224 8 78 8H70.8281C69.5475 8 68.3198 8.50929 67.4135 9.4146C65.7573 11.0705 63.5134 12 61.1719 12H34.8281C32.4868 12 30.2425 11.0701 28.5869 9.41502C27.6863 8.51535 26.4429 8 25.1719 8H18C12.4776 8 8 12.4776 8 18ZM86 18C86 13.582 82.4187 10 78 10H70.8281C70.078 10 69.3595 10.2976 68.8275 10.829C66.7964 12.8598 64.0439 14 61.1719 14H34.8281C31.9561 14 29.2036 12.8598 27.1725 10.829C26.6405 10.2976 25.9219 10 25.1719 10H18C13.5813 10 10 13.582 10 18V78C10 82.418 13.5813 86 18 86H25.1719C25.9219 86 26.6405 85.7024 27.1725 85.171C29.2036 83.1402 31.9561 82 34.8281 82H61.1719C64.0439 82 66.7964 83.1402 68.8275 85.171C69.3595 85.7024 70.078 86 70.8281 86H78C82.4187 86 86 82.418 86 78V18Z" fill="black"/>
<path id="Rectangle 3178" opacity="0.5" d="M36 11C36 10.4477 36.4477 10 37 10H59C59.5523 10 60 10.4477 60 11C60 11.5523 59.5523 12 59 12H37C36.4477 12 36 11.5523 36 11Z" fill="white"/>
<path id="Rectangle 3179" opacity="0.5" d="M36 85C36 84.4477 36.4477 84 37 84H59C59.5523 84 60 84.4477 60 85C60 85.5523 59.5523 86 59 86H37C36.4477 86 36 85.5523 36 85Z" fill="white"/>
<path id="Rectangle 3180" d="M18 7C18 6.44772 18.4477 6 19 6H23C23.5523 6 24 6.44772 24 7C24 7.55228 23.5523 8 23 8H19C18.4477 8 18 7.55228 18 7Z" fill="white"/>
<path id="Rectangle 3181" opacity="0.5" d="M18 89C18 88.4477 18.4477 88 19 88H23C23.5523 88 24 88.4477 24 89C24 89.5523 23.5523 90 23 90H19C18.4477 90 18 89.5523 18 89Z" fill="white"/>
<path id="Rectangle 3182" d="M72 7C72 6.44772 72.4477 6 73 6H77C77.5523 6 78 6.44772 78 7C78 7.55228 77.5523 8 77 8H73C72.4477 8 72 7.55228 72 7Z" fill="white"/>
<path id="Rectangle 3183" opacity="0.5" d="M72 89C72 88.4477 72.4477 88 73 88H77C77.5523 88 78 88.4477 78 89C78 89.5523 77.5523 90 77 90H73C72.4477 90 72 89.5523 72 89Z" fill="white"/>
<path id="Rectangle 3266" opacity="0.5" d="M34 7C34 6.44772 34.4477 6 35 6H61C61.5523 6 62 6.44772 62 7C62 7.55228 61.5523 8 61 8H35C34.4477 8 34 7.55228 34 7Z" fill="#00D4FF"/>
<path id="Rectangle 3268" d="M36 7C36 6.44772 36.4477 6 37 6H59C59.5523 6 60 6.44772 60 7C60 7.55228 59.5523 8 59 8H37C36.4477 8 36 7.55228 36 7Z" fill="#00D4FF"/>
<path id="Rectangle 3267" opacity="0.5" d="M34 89C34 88.4477 34.4477 88 35 88H61C61.5523 88 62 88.4477 62 89C62 89.5523 61.5523 90 61 90H35C34.4477 90 34 89.5523 34 89Z" fill="#00D4FF"/>
<path id="Rectangle 3269" d="M36 89C36 88.4477 36.4477 88 37 88H59C59.5523 88 60 88.4477 60 89C60 89.5523 59.5523 90 59 90H37C36.4477 90 36 89.5523 36 89Z" fill="#00D4FF"/>
<path id="Union_4" fill-rule="evenodd" clip-rule="evenodd" d="M28 28H20V68H28V28ZM40 28H52.0001V36H44.0001H40.0001V60H44.0001H52.0001V68H40C35.5817 68 32 64.4183 32 60V36C32 31.5817 35.5817 28 40 28ZM56 68V28H76V36H64V44H76V52H64V60H76V68H56Z" fill="white"/>
</g>
<defs>
<radialGradient id="paint0_radial_26599_95644" cx="0" cy="0" r="1" gradientUnits="userSpaceOnUse" gradientTransform="translate(48 48) rotate(-90) scale(46)">
<stop offset="0.436083" stop-color="#007FBF"/>
<stop offset="1" stop-color="#80D4FF"/>
</radialGradient>
<linearGradient id="paint1_linear_26599_95644" x1="48" y1="6" x2="48" y2="90" gradientUnits="userSpaceOnUse">
<stop stop-color="#607580"/>
<stop offset="1" stop-color="#336680"/>
</linearGradient>
</defs>
</svg>
