<svg width="24" height="24" viewBox="0 0 24 24" fill="none" xmlns="http://www.w3.org/2000/svg">
<path d="M0.5 4.5C0.5 2.29086 2.29086 0.5 4.5 0.5H19.5C21.7091 0.5 23.5 2.29086 23.5 4.5V19.5C23.5 21.7091 21.7091 23.5 19.5 23.5H4.5C2.29086 23.5 0.5 21.7091 0.5 19.5V4.5Z" fill="url(#paint0_radial_5018_27722)"/>
<path d="M2 5L22 15V22H2V5Z" fill="url(#paint1_radial_5018_27722)"/>
<path opacity="0.25" fill-rule="evenodd" clip-rule="evenodd" d="M4.5 6.5H9.49986C10.6045 6.5 11.4999 7.39554 11.4999 8.50013L11.4999 10.382C11.4999 11.3289 10.9649 12.1946 10.118 12.618L7.5 13.927V17.25L4.5 15.7534V6.5ZM7.5 9.5V10.5729L8.49995 10.0729V9.5H7.5Z" fill="black"/>
<path opacity="0.25" fill-rule="evenodd" clip-rule="evenodd" d="M12.5 6.5H17.4999C18.6045 6.5 19.4999 7.39554 19.4999 8.50013L19.4999 10.382C19.4999 11.3289 18.9649 12.1946 18.118 12.618L15.5 13.927V16.75L12.5 15.2534V6.5ZM15.5 9.5V10.5729L16.4999 10.0729V9.5H15.5Z" fill="black"/>
<path opacity="0.25" d="M2 9.99993V9.44092L22 19.4409V19.9999L2 9.99993Z" fill="black"/>
<path d="M2 10.559V10L22 20V20.559L2 10.559Z" fill="url(#paint2_linear_5018_27722)"/>
<path opacity="0.25" d="M2 14.499V13.9399L19 22.5V23.059L2 14.499Z" fill="black"/>
<path d="M2 15.058V14.499L19 23V23.559L2 15.058Z" fill="url(#paint3_linear_5018_27722)"/>
<path d="M2 5.55999V5.00098L22 15.001V15.56L2 5.55999Z" fill="white" fill-opacity="0.25"/>
<path opacity="0.25" d="M2 4.99896V4.43994L22 14.4399V14.999L2 4.99896Z" fill="black"/>
<path d="M5 8.55902V8L7 9V9.55902L5 8.55902Z" fill="#FFCC00"/>
<path d="M13 8.55902V8L15 9V9.55902L13 8.55902Z" fill="#FFCC00"/>
<path fill-rule="evenodd" clip-rule="evenodd" d="M4.5 0H19.5C21.9853 0 24 2.01472 24 4.5V19.5C24 21.9853 21.9853 24 19.5 24H4.5C2.01472 24 0 21.9853 0 19.5V4.5C0 2.01472 2.01472 0 4.5 0ZM4.5 0.5C2.29086 0.5 0.5 2.29086 0.5 4.5V19.5C0.5 21.7091 2.29086 23.5 4.5 23.5H19.5C21.7091 23.5 23.5 21.7091 23.5 19.5V4.5C23.5 2.29086 21.7091 0.5 19.5 0.5H4.5Z" fill="white" fill-opacity="0.25"/>
<path fill-rule="evenodd" clip-rule="evenodd" d="M17.4999 7H13V15.5L15 16.5V13.618L17.8944 12.1708C18.5719 11.832 18.9999 11.1395 18.9999 10.382L18.9999 8.50014C18.9999 7.67166 18.3283 7 17.4999 7ZM16.9999 10.382L15 11.3819V9H16.9999V10.382Z" fill="white"/>
<path fill-rule="evenodd" clip-rule="evenodd" d="M6 1.5L4.5 1.5C2.84315 1.5 1.5 2.84315 1.5 4.5V19.5C1.5 21.1569 2.84315 22.5 4.5 22.5H6H6.29289C6.74565 22.5 7.17985 22.3201 7.5 22C7.82014 21.6799 8.25435 21.5 8.7071 21.5H15.2929C15.7456 21.5 16.1798 21.6799 16.5 22C16.8201 22.3201 17.2543 22.5 17.7071 22.5H18H19.5C21.1569 22.5 22.5 21.1569 22.5 19.5V4.5C22.5 2.84315 21.1569 1.5 19.5 1.5L18 1.5L17.7071 1.5C17.7069 1.5 17.7067 1.5 17.7065 1.5C17.2539 1.50017 16.82 1.68001 16.5 2C16.1798 2.32014 15.7456 2.5 15.2929 2.5L8.7071 2.5C8.25435 2.5 7.82014 2.32014 7.5 2C7.17985 1.67986 6.74565 1.5 6.29289 1.5H6ZM4.5 0.5C2.29086 0.5 0.5 2.29086 0.5 4.5V19.5C0.5 21.7091 2.29086 23.5 4.5 23.5H19.5C21.7091 23.5 23.5 21.7091 23.5 19.5V4.5C23.5 2.29086 21.7091 0.5 19.5 0.5H4.5Z" fill="#001926"/>
<path opacity="0.5" d="M8.5 1.75C8.5 1.61193 8.61193 1.5 8.75 1.5H15.25C15.3881 1.5 15.5 1.61193 15.5 1.75C15.5 1.88807 15.3881 2 15.25 2H8.75C8.61193 2 8.5 1.88807 8.5 1.75Z" fill="#FFEE00"/>
<path d="M9 1.75C9 1.61193 9.11193 1.5 9.25 1.5H14.75C14.8881 1.5 15 1.61193 15 1.75C15 1.88807 14.8881 2 14.75 2H9.25C9.11193 2 9 1.88807 9 1.75Z" fill="#FFEE00"/>
<path opacity="0.5" d="M8.5 22.25C8.5 22.1119 8.61193 22 8.75 22H15.25C15.3881 22 15.5 22.1119 15.5 22.25C15.5 22.3881 15.3881 22.5 15.25 22.5H8.75C8.61193 22.5 8.5 22.3881 8.5 22.25Z" fill="#FFEE00"/>
<path d="M9 22.25C9 22.1119 9.11193 22 9.25 22H14.75C14.8881 22 15 22.1119 15 22.25C15 22.3881 14.8881 22.5 14.75 22.5H9.25C9.11193 22.5 9 22.3881 9 22.25Z" fill="#FFEE00"/>
<path fill-rule="evenodd" clip-rule="evenodd" d="M9.49986 7H5V8L7 9H8.99995V10.382L7 11.3819V9.55902L5 8.55902V16L7 17V13.618L9.89437 12.1708C10.5719 11.832 10.9999 11.1395 10.9999 10.382L10.9999 8.50014C10.9999 7.67166 10.3283 7 9.49986 7Z" fill="white"/>
<path d="M13 8.55902V8L15 9V9.55902L13 8.55902Z" fill="#FFCC00"/>
<path fill-rule="evenodd" clip-rule="evenodd" d="M8.70703 2.5C8.25439 2.5 7.82031 2.32007 7.5 2C7.17969 1.67993 6.74561 1.5 6.29297 1.5H4.5C2.84326 1.5 1.5 2.84326 1.5 4.5V19.5C1.5 21.1567 2.84326 22.5 4.5 22.5H6.29297C6.48975 22.5 6.68262 22.4661 6.86426 22.4014C7.10107 22.3171 7.31885 22.1809 7.5 22C7.82031 21.6799 8.25439 21.5 8.70703 21.5H15.293C15.7456 21.5 16.1797 21.6799 16.5 22C16.8203 22.3201 17.2544 22.5 17.707 22.5H19.5C21.1567 22.5 22.5 21.1567 22.5 19.5V4.5C22.5 2.84326 21.1567 1.5 19.5 1.5H17.7065C17.2539 1.50024 16.8198 1.67993 16.5 2C16.2632 2.23682 15.9639 2.39673 15.6411 2.46411C15.5273 2.48779 15.4106 2.5 15.293 2.5H8.70703ZM2 4.5C2 3.11938 3.11914 2 4.5 2H6.29297C6.61328 2 6.91992 2.1272 7.14648 2.35352C7.56055 2.76758 8.12158 3 8.70703 3H15.293C15.8784 3 16.4395 2.76758 16.8535 2.35352C17.0024 2.20459 17.187 2.09863 17.3867 2.04346C17.4902 2.01489 17.5981 2 17.707 2H19.5C20.8809 2 22 3.11938 22 4.5V19.5C22 20.8806 20.8809 22 19.5 22H17.707C17.3867 22 17.0801 21.8728 16.8535 21.6465C16.4395 21.2324 15.8784 21 15.293 21H8.70703C8.12158 21 7.56055 21.2324 7.14648 21.6465C6.91992 21.8728 6.61328 22 6.29297 22H4.5C3.11914 22 2 20.8806 2 19.5V4.5Z" fill="url(#paint4_linear_5018_27722)"/>
<path opacity="0.5" d="M9 2.75C9 2.61193 9.11193 2.5 9.25 2.5H14.75C14.8881 2.5 15 2.61193 15 2.75C15 2.88807 14.8881 3 14.75 3H9.25C9.11193 3 9 2.88807 9 2.75Z" fill="white"/>
<path opacity="0.5" d="M9 21.25C9 21.1119 9.11193 21 9.25 21H14.75C14.8881 21 15 21.1119 15 21.25C15 21.3881 14.8881 21.5 14.75 21.5H9.25C9.11193 21.5 9 21.3881 9 21.25Z" fill="white"/>
<path d="M4.5 1.75C4.5 1.61193 4.61193 1.5 4.75 1.5H5.75C5.88807 1.5 6 1.61193 6 1.75C6 1.88807 5.88807 2 5.75 2H4.75C4.61193 2 4.5 1.88807 4.5 1.75Z" fill="white"/>
<path opacity="0.5" d="M4.5 22.25C4.5 22.1119 4.61193 22 4.75 22H5.75C5.88807 22 6 22.1119 6 22.25C6 22.3881 5.88807 22.5 5.75 22.5H4.75C4.61193 22.5 4.5 22.3881 4.5 22.25Z" fill="white"/>
<path d="M18 1.75C18 1.61193 18.1119 1.5 18.25 1.5H19.25C19.3881 1.5 19.5 1.61193 19.5 1.75C19.5 1.88807 19.3881 2 19.25 2H18.25C18.1119 2 18 1.88807 18 1.75Z" fill="white"/>
<path opacity="0.5" d="M18 22.25C18 22.1119 18.1119 22 18.25 22H19.25C19.3881 22 19.5 22.1119 19.5 22.25C19.5 22.3881 19.3881 22.5 19.25 22.5H18.25C18.1119 22.5 18 22.3881 18 22.25Z" fill="white"/>
<path opacity="0.5" fill-rule="evenodd" clip-rule="evenodd" d="M2 4.5V19.5C2 20.8806 3.1194 22 4.5 22H6.29297C6.61073 22 6.92157 21.8712 7.14672 21.6462C7.56062 21.2325 8.12171 21 8.70703 21H15.293C15.8784 21 16.4393 21.2324 16.8534 21.6464C17.08 21.8727 17.3869 22 17.707 22H19.5C20.8806 22 22 20.8806 22 19.5V4.5C22 3.11941 20.8806 2 19.5 2H17.707C17.3869 2 17.08 2.12732 16.8534 2.35365C16.4393 2.76763 15.8784 3 15.293 3H8.70703C8.12171 3 7.56062 2.76752 7.14672 2.35375C6.92157 2.12884 6.61073 2 6.29297 2H4.5C3.1194 2 2 3.1194 2 4.5ZM21.5 4.5C21.5 3.39549 20.6047 2.5 19.5 2.5H17.707C17.5195 2.5 17.3399 2.57439 17.2069 2.70726C16.6991 3.21495 16.011 3.5 15.293 3.5H8.70703C7.98903 3.5 7.30091 3.21495 6.79312 2.70726C6.66011 2.57439 6.48049 2.5 6.29297 2.5H4.5C3.39531 2.5 2.5 3.39549 2.5 4.5V19.5C2.5 20.6045 3.39531 21.5 4.5 21.5H6.29297C6.48049 21.5 6.66011 21.4256 6.79312 21.2927C7.30091 20.7851 7.98903 20.5 8.70703 20.5H15.293C16.011 20.5 16.6991 20.7851 17.2069 21.2927C17.3399 21.4256 17.5195 21.5 17.707 21.5H19.5C20.6047 21.5 21.5 20.6045 21.5 19.5V4.5Z" fill="black"/>
<path d="M19 14.118C19 13.7393 18.786 13.393 18.4472 13.2236L17 12.5V17.5L19 18.5V14.118Z" fill="white"/>
<path opacity="0.25" d="M7 9.55902L5 8.55902V16L5.5 16.25V9.36803L6.5 9.86803V12.191L9.49995 10.691V8.5H7.11803L5.5 7.69098V7.5H9.49986C10.0522 7.5 10.4999 7.94777 10.4999 8.50014L10.4999 10.382C10.4999 10.9501 10.1789 11.4695 9.67077 11.7236L6.5 13.309V16.75L7 17V13.618L9.89437 12.1708C10.5719 11.832 10.9999 11.1395 10.9999 10.382L10.9999 8.50014C10.9999 7.67166 10.3283 7 9.49986 7H5V8L7 9H8.99995V10.382L7 11.3819V9.55902Z" fill="url(#paint5_linear_5018_27722)"/>
<path opacity="0.25" d="M15 9.55902L13 8.55902V15.5L13.5 15.75V9.36803L14.5 9.86803V12.191L17.4999 10.691V8.5H15.118L13.5 7.69098V7.5H17.4999C18.0522 7.5 18.4999 7.94777 18.4999 8.50014L18.4999 10.382C18.4999 10.9501 18.1789 11.4695 17.6708 11.7236L14.5 13.309V16.25L15 16.5V13.618L17.8944 12.1708C18.5719 11.832 18.9999 11.1395 18.9999 10.382L18.9999 8.50014C18.9999 7.67166 18.3283 7 17.4999 7H13V8L15 9H16.9999V10.382L15 11.3819V9.55902Z" fill="url(#paint6_linear_5018_27722)"/>
<path opacity="0.5" d="M9.49995 8.49994H7.11803L5 7.43994V7.99994L7 8.99994H8.99995L9.49995 8.49994Z" fill="#001926"/>
<path opacity="0.5" d="M17.4999 8.49994H15.118L13 7.43994V7.99994L15 8.99994H16.9999L17.4999 8.49994Z" fill="#001926"/>
<path d="M6.5 12.1911L9.49995 10.6911L8.99995 10.3821L7 11.3821L6.5 12.1911Z" fill="white"/>
<path d="M14.5 12.1911L17.4999 10.6911L16.9999 10.3821L15 11.3821L14.5 12.1911Z" fill="white"/>
<path opacity="0.25" fill-rule="evenodd" clip-rule="evenodd" d="M9.89437 12.1709L7 13.6181L6.5 13.3091L9.67077 11.7237C9.90128 11.6084 10.0933 11.4386 10.2343 11.2344L10.5922 11.5923C10.4103 11.8318 10.1735 12.0314 9.89437 12.1709Z" fill="#001926"/>
<path opacity="0.25" fill-rule="evenodd" clip-rule="evenodd" d="M17.8944 12.1709L15 13.6181L14.5 13.3091L17.6708 11.7237C17.9013 11.6084 18.0933 11.4386 18.2343 11.2344L18.5922 11.5923C18.4103 11.8318 18.1735 12.0314 17.8944 12.1709Z" fill="#001926"/>
<path d="M5.5 9.37L5 8.56006L7 9.56L6.5 9.87L5.5 9.37Z" fill="white"/>
<path d="M13.5 9.37L13 8.56006L15 9.56L14.5 9.87L13.5 9.37Z" fill="white"/>
<path d="M14.5 15.5H2.5V19.5C2.5 20.6045 3.39531 21.5 4.5 21.5H6.29297C6.48049 21.5 6.66011 21.4256 6.79312 21.2927C7.30091 20.7851 7.98903 20.5 8.70703 20.5H14.5V15.5Z" fill="url(#paint7_radial_5018_27722)"/>
<path opacity="0.5" fill-rule="evenodd" clip-rule="evenodd" d="M17.5 5C17.7761 5 18 4.77614 18 4.5C18 4.22386 17.7761 4 17.5 4C17.2239 4 17 4.22386 17 4.5C17 4.77614 17.2239 5 17.5 5ZM20 4.5C20 4.77614 19.7761 5 19.5 5C19.2239 5 19 4.77614 19 4.5C19 4.22386 19.2239 4 19.5 4C19.7761 4 20 4.22386 20 4.5Z" fill="black"/>
<path opacity="0.5" d="M18.4472 13.2236L17 12.5V17.5L17.5 17.75V13.309L18.2236 13.6708C18.393 13.7555 18.5 13.9286 18.5 14.118V18.25L19 18.5V14.118C19 13.7393 18.786 13.393 18.4472 13.2236Z" fill="url(#paint8_linear_5018_27722)"/>
<defs>
<radialGradient id="paint0_radial_5018_27722" cx="0" cy="0" r="1" gradientUnits="userSpaceOnUse" gradientTransform="translate(12) rotate(90) scale(24)">
<stop stop-color="#3D993D"/>
<stop offset="0.796875" stop-color="#1A1414"/>
</radialGradient>
<radialGradient id="paint1_radial_5018_27722" cx="0" cy="0" r="1" gradientUnits="userSpaceOnUse" gradientTransform="translate(2 5) rotate(90) scale(17 20)">
<stop stop-color="#8F9FBF"/>
<stop offset="1" stop-color="#202B40"/>
</radialGradient>
<linearGradient id="paint2_linear_5018_27722" x1="2" y1="12.9148" x2="22" y2="12.9148" gradientUnits="userSpaceOnUse">
<stop stop-color="white" stop-opacity="0.5"/>
<stop offset="1" stop-color="white" stop-opacity="0.15"/>
</linearGradient>
<linearGradient id="paint3_linear_5018_27722" x1="2" y1="17" x2="15" y2="17" gradientUnits="userSpaceOnUse">
<stop stop-color="white" stop-opacity="0.5"/>
<stop offset="1" stop-color="white" stop-opacity="0"/>
</linearGradient>
<linearGradient id="paint4_linear_5018_27722" x1="12" y1="1.5" x2="12" y2="22.5" gradientUnits="userSpaceOnUse">
<stop stop-color="#607580"/>
<stop offset="1" stop-color="#336680"/>
</linearGradient>
<linearGradient id="paint5_linear_5018_27722" x1="7.88886" y1="7" x2="7.88886" y2="17" gradientUnits="userSpaceOnUse">
<stop stop-color="#001926" stop-opacity="0"/>
<stop offset="1" stop-color="#001926"/>
</linearGradient>
<linearGradient id="paint6_linear_5018_27722" x1="15.8889" y1="7" x2="15.8889" y2="17" gradientUnits="userSpaceOnUse">
<stop stop-color="#001926" stop-opacity="0"/>
<stop offset="1" stop-color="#001926"/>
</linearGradient>
<radialGradient id="paint7_radial_5018_27722" cx="0" cy="0" r="1" gradientUnits="userSpaceOnUse" gradientTransform="translate(2.5 21.5) rotate(-90) scale(6 11.9454)">
<stop stop-color="#FFEE00"/>
<stop offset="1" stop-color="#800000" stop-opacity="0"/>
</radialGradient>
<linearGradient id="paint8_linear_5018_27722" x1="18.037" y1="12.5" x2="18" y2="18.5" gradientUnits="userSpaceOnUse">
<stop stop-color="#001926" stop-opacity="0"/>
<stop offset="1" stop-color="#001926"/>
</linearGradient>
</defs>
</svg>
