<svg width="96" height="96" viewBox="0 0 96 96" fill="none" xmlns="http://www.w3.org/2000/svg">
<g id="RF">
<path id="Rectangle 3265" d="M2 18C2 9.16345 9.16344 2 18 2H78C86.8366 2 94 9.16344 94 18V78C94 86.8366 86.8366 94 78 94H18C9.16345 94 2 86.8366 2 78V18Z" fill="url(#paint0_radial_26599_95357)"/>
<path id="Union" opacity="0.25" fill-rule="evenodd" clip-rule="evenodd" d="M16 26C15.3068 26 14.6631 26.3589 14.2987 26.9485C13.9343 27.5382 13.9012 28.2745 14.2111 28.8944L18 36.4721L18 60C18 60.7575 18.428 61.4501 19.1056 61.7888L27.1056 65.7888C27.7256 66.0988 28.4618 66.0657 29.0515 65.7013C29.6411 65.3369 30 64.6931 30 64V55.7081L34 53.7081V66C34 66.7575 34.428 67.4501 35.1056 67.7888L43.1056 71.7888C43.7256 72.0988 44.4618 72.0657 45.0515 71.7013C45.6411 71.3369 46 70.6931 46 70V56.4721C46 54.1995 44.716 52.1219 42.6833 51.1056L40.9292 50.2285C44.0512 48.4605 45.9998 45.1422 45.9998 41.5279L45.9997 34.0006C45.9998 29.5822 42.418 26 37.9994 26H16ZM33.9998 40.2918L30 42.2917V38H33.9998V40.2918Z" fill="black"/>
<path id="Union (Stroke)" opacity="0.25" fill-rule="evenodd" clip-rule="evenodd" d="M81.7013 26.9485C82.0657 27.5382 82.0988 28.2745 81.7889 28.8944L77.7889 36.8944C77.4501 37.572 76.7575 38 76 38H62V42H76C77.1046 42 78 42.8954 78 44V52C78 53.1046 77.1046 54 76 54H62V66C62 66.7575 61.572 67.4501 60.8944 67.7888L52.8944 71.7888C52.2745 72.0988 51.5382 72.0657 50.9485 71.7013C50.3589 71.3369 50 70.6931 50 70V34C50 29.5817 53.5817 26 58 26H80C80.6932 26 81.3369 26.3589 81.7013 26.9485Z" fill="black"/>
<path id="Subtract" opacity="0.25" d="M48 62H10V78C10 82.418 13.5813 86 18 86H25.1719C25.9219 86 26.6405 85.7024 27.1725 85.171C29.2036 83.1402 31.9561 82 34.8281 82H48V62Z" fill="url(#paint1_radial_26599_95357)"/>
<path id="Subtract_2" opacity="0.25" d="M48 62H86V78C86 82.418 82.4187 86 78 86H70.8281C70.0781 86 69.3595 85.7024 68.8275 85.171C66.7964 83.1402 64.0439 82 61.1719 82H48V62Z" fill="url(#paint2_radial_26599_95357)"/>
<path id="Subtract_3" d="M10 48L10 18C10 13.582 13.5813 10 18 10H25.1719C25.9219 10 26.6405 10.2976 27.1725 10.829C29.2036 12.8598 31.9561 14 34.8281 14H61.1719C64.0439 14 66.7964 12.8598 68.8275 10.829C69.3595 10.2976 70.078 10 70.8281 10H78C82.4187 10 86 13.582 86 18V48H10Z" fill="url(#paint3_radial_26599_95357)"/>
<path id="Union_2" fill-rule="evenodd" clip-rule="evenodd" d="M16 28H37.9994C41.3134 28 43.9998 30.6866 43.9997 34.0006L43.9998 41.5279C43.9998 44.558 42.2878 47.3281 39.5775 48.6833L36.472 50.236L41.7889 52.8944C43.144 53.572 44 54.957 44 56.4721V70L36 66V50.472L28 54.472V64L20 60V38H28V45.5278L35.9998 41.5279V36H20L16 28Z" fill="url(#paint4_linear_26599_95357)"/>
<path id="Union (Stroke)_2" opacity="0.5" fill-rule="evenodd" clip-rule="evenodd" d="M39.5775 48.6833C42.2878 47.3281 43.9998 44.558 43.9998 41.5279L43.9997 34.0006C43.9998 30.6866 41.3134 28 37.9994 28H16L20 36H35.9998V41.5279L28 45.5278V38H20V60L28 64V54.472L36 50.472V66L44 70V56.4721C44 54.957 43.144 53.572 41.7889 52.8944L36.472 50.236L39.5775 48.6833ZM38.6831 46.8944C40.7158 45.8781 41.9998 43.8005 41.9998 41.5279L41.9997 34.0005C41.9998 31.7911 40.2087 30 37.9994 30H19.2361L21.2361 34H37.9998V42.7639L26 48.7638V40H22V58.7639L26 60.7639V53.236L38.6831 46.8944ZM38 53.2361L40.8944 54.6833C41.572 55.0221 42 55.7146 42 56.4721V66.7639L38 64.7639V53.2361Z" fill="url(#paint5_linear_26599_95357)"/>
<path id="Rectangle 3150 (Stroke)" fill-rule="evenodd" clip-rule="evenodd" d="M18 0H78C87.9411 0 96 8.05888 96 18V78C96 87.9411 87.9411 96 78 96H18C8.05888 96 0 87.9411 0 78V18C0 8.05888 8.05887 0 18 0ZM18 2C9.16344 2 2 9.16345 2 18V78C2 86.8366 9.16345 94 18 94H78C86.8366 94 94 86.8366 94 78V18C94 9.16344 86.8366 2 78 2H18Z" fill="white" fill-opacity="0.25"/>
<path id="Union_3" fill-rule="evenodd" clip-rule="evenodd" d="M24 6L18 6C11.3726 6 6 11.3726 6 18V78C6 84.6274 11.3726 90 18 90H24H25.1716C26.9826 90 28.7194 89.2806 30 88C31.2806 86.7194 33.0174 86 34.8284 86H61.1715C62.9826 86 64.7194 86.7194 66 88C67.2805 89.2806 69.0174 90 70.8284 90H72H78C84.6274 90 90 84.6274 90 78V18C90 11.3726 84.6274 6 78 6L72 6L70.8284 6C70.8275 6 70.8267 6 70.8258 6C69.0157 6.00068 67.2799 6.72002 66 8C64.7194 9.28058 62.9826 10 61.1715 10L34.8284 10C33.0174 10 31.2806 9.28058 30 8C28.7194 6.71942 26.9826 6 25.1716 6H24ZM18 2C9.16344 2 2 9.16345 2 18V78C2 86.8366 9.16345 94 18 94H78C86.8366 94 94 86.8366 94 78V18C94 9.16344 86.8366 2 78 2H18Z" fill="#001926"/>
<path id="Rectangle 3266" opacity="0.5" d="M34 7C34 6.44772 34.4477 6 35 6H61C61.5523 6 62 6.44772 62 7C62 7.55228 61.5523 8 61 8H35C34.4477 8 34 7.55228 34 7Z" fill="#FF3333"/>
<path id="Rectangle 3268" d="M36 7C36 6.44772 36.4477 6 37 6H59C59.5523 6 60 6.44772 60 7C60 7.55228 59.5523 8 59 8H37C36.4477 8 36 7.55228 36 7Z" fill="#FF3333"/>
<path id="Rectangle 3267" opacity="0.5" d="M34 89C34 88.4477 34.4477 88 35 88H61C61.5523 88 62 88.4477 62 89C62 89.5523 61.5523 90 61 90H35C34.4477 90 34 89.5523 34 89Z" fill="#FF3333"/>
<path id="Rectangle 3269" d="M36 89C36 88.4477 36.4477 88 37 88H59C59.5523 88 60 88.4477 60 89C60 89.5523 59.5523 90 59 90H37C36.4477 90 36 89.5523 36 89Z" fill="#FF3333"/>
<path id="Union_4" fill-rule="evenodd" clip-rule="evenodd" d="M34.8281 10C33.0176 10 31.2812 9.28027 30 8C28.7188 6.71973 26.9824 6 25.1719 6H18C11.373 6 6 11.373 6 18V78C6 84.627 11.373 90 18 90H25.1719C25.959 90 26.7305 89.8643 27.457 89.6055C28.4043 89.2686 29.2754 88.7236 30 88C31.2812 86.7197 33.0176 86 34.8281 86H61.1719C62.9824 86 64.7188 86.7197 66 88C67.2812 89.2803 69.0176 90 70.8281 90H78C84.627 90 90 84.627 90 78V18C90 11.373 84.627 6 78 6H70.8262C69.0156 6.00098 67.2793 6.71973 66 8C65.0527 8.94727 63.8555 9.58691 62.5645 9.85645C62.1094 9.95117 61.6426 10 61.1719 10H34.8281ZM8 18C8 12.4775 12.4766 8 18 8H25.1719C26.4531 8 27.6797 8.50879 28.5859 9.41406C30.2422 11.0703 32.4863 12 34.8281 12H61.1719C63.5137 12 65.7578 11.0703 67.4141 9.41406C68.0098 8.81836 68.748 8.39453 69.5469 8.17383C69.9609 8.05957 70.3926 8 70.8281 8H78C83.5234 8 88 12.4775 88 18V78C88 83.5225 83.5234 88 78 88H70.8281C69.5469 88 68.3203 87.4912 67.4141 86.5859C65.7578 84.9297 63.5137 84 61.1719 84H34.8281C32.4863 84 30.2422 84.9297 28.5859 86.5859C27.6797 87.4912 26.4531 88 25.1719 88H18C12.4766 88 8 83.5225 8 78V18Z" fill="url(#paint6_linear_26599_95357)"/>
<path id="Rectangle 3257" opacity="0.5" d="M36 11C36 10.4477 36.4477 10 37 10H59C59.5523 10 60 10.4477 60 11C60 11.5523 59.5523 12 59 12H37C36.4477 12 36 11.5523 36 11Z" fill="white"/>
<path id="Rectangle 3258" opacity="0.5" d="M36 85C36 84.4477 36.4477 84 37 84H59C59.5523 84 60 84.4477 60 85C60 85.5523 59.5523 86 59 86H37C36.4477 86 36 85.5523 36 85Z" fill="white"/>
<path id="Rectangle 3259" d="M18 7C18 6.44772 18.4477 6 19 6H23C23.5523 6 24 6.44772 24 7C24 7.55228 23.5523 8 23 8H19C18.4477 8 18 7.55228 18 7Z" fill="white"/>
<path id="Rectangle 3260" opacity="0.5" d="M18 89C18 88.4477 18.4477 88 19 88H23C23.5523 88 24 88.4477 24 89C24 89.5523 23.5523 90 23 90H19C18.4477 90 18 89.5523 18 89Z" fill="white"/>
<path id="Rectangle 3261" d="M72 7C72 6.44772 72.4477 6 73 6H77C77.5523 6 78 6.44772 78 7C78 7.55228 77.5523 8 77 8H73C72.4477 8 72 7.55228 72 7Z" fill="white"/>
<path id="Rectangle 3262" opacity="0.5" d="M72 89C72 88.4477 72.4477 88 73 88H77C77.5523 88 78 88.4477 78 89C78 89.5523 77.5523 90 77 90H73C72.4477 90 72 89.5523 72 89Z" fill="white"/>
<path id="Union_5" opacity="0.5" fill-rule="evenodd" clip-rule="evenodd" d="M8 18V78C8 83.5224 12.4776 88 18 88H25.1719C26.4429 88 27.6863 87.4846 28.5869 86.585C30.2425 84.9299 32.4868 84 34.8281 84H61.1719C63.5134 84 65.7573 84.9295 67.4135 86.5854C68.3198 87.4907 69.5475 88 70.8281 88H78C83.5224 88 88 83.5224 88 78V18C88 12.4776 83.5224 8 78 8H70.8281C69.5475 8 68.3198 8.50929 67.4135 9.4146C65.7573 11.0705 63.5134 12 61.1719 12H34.8281C32.4868 12 30.2425 11.0701 28.5869 9.41502C27.6863 8.51535 26.4429 8 25.1719 8H18C12.4776 8 8 12.4776 8 18ZM86 18C86 13.582 82.4187 10 78 10H70.8281C70.078 10 69.3595 10.2976 68.8275 10.829C66.7964 12.8598 64.0439 14 61.1719 14H34.8281C31.9561 14 29.2036 12.8598 27.1725 10.829C26.6405 10.2976 25.9219 10 25.1719 10H18C13.5813 10 10 13.582 10 18V78C10 82.418 13.5813 86 18 86H25.1719C25.9219 86 26.6405 85.7024 27.1725 85.171C29.2036 83.1402 31.9561 82 34.8281 82H61.1719C64.0439 82 66.7964 83.1402 68.8275 85.171C69.3595 85.7024 70.078 86 70.8281 86H78C82.4187 86 86 82.418 86 78V18Z" fill="black"/>
<path id="Subtract_4" d="M26 48.7633L37.9998 42.7634L35.9998 41.5273L28 45.5272L26 48.7633Z" fill="white"/>
<path id="Subtract_5" fill-rule="evenodd" clip-rule="evenodd" d="M39.5775 48.6837L28 54.4724L26 53.2364L38.6831 46.8948C39.6051 46.4338 40.3731 45.7544 40.9371 44.9375L42.3689 46.3693C41.6411 47.327 40.694 48.1254 39.5775 48.6837Z" fill="#001926"/>
<path id="Vector 2370" d="M20 36L21.24 34H38L36 36H20Z" fill="#001926"/>
<path id="Vector 2466" d="M22 40L20 38H28L26 40H22Z" fill="white"/>
<path id="Union_6" d="M52 34C52 30.6863 54.6863 28 58 28H80L76 36H60V44H76V52H60V66L52 70V34Z" fill="url(#paint7_linear_26599_95357)"/>
<path id="Union (Stroke)_3" opacity="0.5" fill-rule="evenodd" clip-rule="evenodd" d="M60 52H76V44H60V36H76L80 28H58C54.6863 28 52 30.6863 52 34V70L60 66V52ZM58 64.7639V50H74V46H58V34H74.7639L76.7639 30H58C55.7909 30 54 31.7909 54 34V66.7639L58 64.7639Z" fill="url(#paint8_linear_26599_95357)"/>
<path id="Vector 2383" d="M58 50L60 52H76L74 50H58Z" fill="#001926"/>
<path id="Vector 2385" d="M58 46L60 44H76L74 46H58Z" fill="white"/>
<path id="Vector 2384" d="M58 34L60 36H76L74.76 34H58Z" fill="#001926"/>
<path id="Rectangle 3278" opacity="0.5" d="M36 15C36 14.4477 36.4477 14 37 14H59C59.5523 14 60 14.4477 60 15C60 15.5523 59.5523 16 59 16H37C36.4477 16 36 15.5523 36 15Z" fill="white"/>
<path id="Rectangle 3277" d="M44 15C44 14.4477 44.4477 14 45 14H51C51.5523 14 52 14.4477 52 15C52 15.5523 51.5523 16 51 16H45C44.4477 16 44 15.5523 44 15Z" fill="white"/>
<path id="Rectangle 3279" d="M46 19C46 18.4477 46.4477 18 47 18H49C49.5523 18 50 18.4477 50 19C50 19.5523 49.5523 20 49 20H47C46.4477 20 46 19.5523 46 19Z" fill="white"/>
<path id="Union_7" opacity="0.25" fill-rule="evenodd" clip-rule="evenodd" d="M18 20C19.1046 20 20 19.1046 20 18C20 16.8954 19.1046 16 18 16C16.8954 16 16 16.8954 16 18C16 19.1046 16.8954 20 18 20ZM80 18C80 19.1046 79.1046 20 78 20C76.8954 20 76 19.1046 76 18C76 16.8954 76.8954 16 78 16C79.1046 16 80 16.8954 80 18Z" fill="black"/>
<path id="Union_8" opacity="0.25" fill-rule="evenodd" clip-rule="evenodd" d="M18 80C19.1046 80 20 79.1046 20 78C20 76.8954 19.1046 76 18 76C16.8954 76 16 76.8954 16 78C16 79.1046 16.8954 80 18 80ZM78 80C79.1046 80 80 79.1046 80 78C80 76.8954 79.1046 76 78 76C76.8954 76 76 76.8954 76 78C76 79.1046 76.8954 80 78 80Z" fill="black"/>
<g id="Union_9" opacity="0.15">
<path d="M33.9998 38H30V42.2917L33.9998 40.2918V38Z" fill="url(#paint9_linear_26599_95357)"/>
<path fill-rule="evenodd" clip-rule="evenodd" d="M16 36.9443L12.4223 29.7889C11.8023 28.5489 11.8686 27.0763 12.5974 25.8971C13.3262 24.7178 14.6137 24 16 24H37.9995C43.5227 24 48 28.4771 48 34C48 28.4772 52.4772 24 58 24H80C81.3863 24 82.6738 24.7178 83.4026 25.8971C84.1314 27.0763 84.1977 28.5489 83.5777 29.7889L79.5777 37.7889C78.9001 39.144 77.5151 40 76 40C78.2091 40 80 41.7909 80 44V52C80 54.2091 78.2091 56 76 56H64V66C64 67.5151 63.144 68.9001 61.7889 69.5777L53.7889 73.5777C52.5489 74.1977 51.0763 74.1314 49.8971 73.4026C48.7178 72.6738 48 71.3863 48 70C48 71.3863 47.2822 72.6738 46.1029 73.4026C44.9237 74.1314 43.4511 74.1977 42.2111 73.5777L34.2112 69.5777C32.856 68.9001 32 67.5151 32 66V64C32 65.3863 31.2822 66.6738 30.1029 67.4026C28.9237 68.1314 27.4511 68.1977 26.2111 67.5777L18.2111 63.5777C16.856 62.9001 16 61.5151 16 60L16 36.9443ZM14.2111 28.8944L18 36.4721L18 60C18 60.7575 18.428 61.4501 19.1056 61.7888L27.1056 65.7888C27.7256 66.0988 28.4618 66.0657 29.0515 65.7013C29.6411 65.3369 30 64.6931 30 64V55.7081L34 53.7081V66C34 66.7575 34.428 67.4501 35.1056 67.7888L43.1056 71.7888C43.7256 72.0988 44.4618 72.0657 45.0515 71.7013C45.6411 71.3369 46 70.6931 46 70V56.4721C46 54.3196 44.8481 52.342 42.9992 51.2755C42.896 51.216 42.7907 51.1593 42.6833 51.1056L40.9292 50.2285C41.5924 49.853 42.2026 49.4075 42.7524 48.9041C44.7911 47.0375 45.9998 44.3745 45.9998 41.5279L45.9997 34.0006C45.9998 29.5822 42.418 26 37.9995 26H16C15.3068 26 14.6631 26.3589 14.2987 26.9485C13.9343 27.5382 13.9012 28.2744 14.2111 28.8944ZM81.7889 28.8944L77.7889 36.8944C77.4501 37.572 76.7575 38 76 38H62V42H76C77.1046 42 78 42.8954 78 44V52C78 53.1046 77.1046 54 76 54H62V66C62 66.7575 61.572 67.4501 60.8944 67.7888L52.8944 71.7888C52.2745 72.0988 51.5382 72.0657 50.9485 71.7013C50.3589 71.3369 50 70.6931 50 70V34C50 29.5817 53.5817 26 58 26H80C80.6932 26 81.3369 26.3589 81.7013 26.9485C82.0657 27.5382 82.0988 28.2744 81.7889 28.8944Z" fill="url(#paint10_linear_26599_95357)"/>
</g>
<path id="Subtract_6" d="M20 59.9997L28 63.9997L26 60.7637L22 58.7637L20 59.9997Z" fill="#001926"/>
<path id="Subtract_7" d="M36 66L44 70L42 66.7639L38 64.7639L36 66Z" fill="#001926"/>
<path id="Subtract_8" d="M60 66L52 70L54 66.7639L58 64.7639L60 66Z" fill="#001926"/>
</g>
<defs>
<radialGradient id="paint0_radial_26599_95357" cx="0" cy="0" r="1" gradientUnits="userSpaceOnUse" gradientTransform="translate(48 -2.51972e-06) rotate(90) scale(96)">
<stop stop-color="#FF4040"/>
<stop offset="1" stop-color="#330022"/>
</radialGradient>
<radialGradient id="paint1_radial_26599_95357" cx="0" cy="0" r="1" gradientUnits="userSpaceOnUse" gradientTransform="translate(10 86) rotate(-90) scale(24 37.8271)">
<stop stop-color="#BFD5FF"/>
<stop offset="1" stop-color="#BFD5FF" stop-opacity="0"/>
</radialGradient>
<radialGradient id="paint2_radial_26599_95357" cx="0" cy="0" r="1" gradientUnits="userSpaceOnUse" gradientTransform="translate(86 86) rotate(-90) scale(24 37.8271)">
<stop stop-color="#BFD5FF"/>
<stop offset="1" stop-color="#BFD5FF" stop-opacity="0"/>
</radialGradient>
<radialGradient id="paint3_radial_26599_95357" cx="0" cy="0" r="1" gradientUnits="userSpaceOnUse" gradientTransform="translate(48 14) rotate(90) scale(34 40)">
<stop stop-color="#BFD5FF"/>
<stop offset="1" stop-color="#BFD5FF" stop-opacity="0"/>
</radialGradient>
<linearGradient id="paint4_linear_26599_95357" x1="30" y1="28" x2="30" y2="68" gradientUnits="userSpaceOnUse">
<stop stop-color="white"/>
<stop offset="0.458333" stop-color="#BFD5FF"/>
<stop offset="0.557292" stop-color="white"/>
<stop offset="1" stop-color="#BFD5FF"/>
</linearGradient>
<linearGradient id="paint5_linear_26599_95357" x1="11.3333" y1="28" x2="11.3333" y2="70" gradientUnits="userSpaceOnUse">
<stop stop-color="#001926" stop-opacity="0"/>
<stop offset="1" stop-color="#001926"/>
</linearGradient>
<linearGradient id="paint6_linear_26599_95357" x1="48" y1="6" x2="48" y2="90" gradientUnits="userSpaceOnUse">
<stop stop-color="#607580"/>
<stop offset="1" stop-color="#336680"/>
</linearGradient>
<linearGradient id="paint7_linear_26599_95357" x1="66" y1="28" x2="66" y2="68" gradientUnits="userSpaceOnUse">
<stop stop-color="white"/>
<stop offset="0.458333" stop-color="#BFD5FF"/>
<stop offset="0.557292" stop-color="white"/>
<stop offset="1" stop-color="#BFD5FF"/>
</linearGradient>
<linearGradient id="paint8_linear_26599_95357" x1="47.3333" y1="28" x2="47.3333" y2="70" gradientUnits="userSpaceOnUse">
<stop stop-color="#001926" stop-opacity="0"/>
<stop offset="1" stop-color="#001926"/>
</linearGradient>
<linearGradient id="paint9_linear_26599_95357" x1="48" y1="24" x2="48" y2="74" gradientUnits="userSpaceOnUse">
<stop stop-color="white" stop-opacity="0"/>
<stop offset="1" stop-color="white"/>
</linearGradient>
<linearGradient id="paint10_linear_26599_95357" x1="48" y1="24" x2="48" y2="74" gradientUnits="userSpaceOnUse">
<stop stop-color="white" stop-opacity="0"/>
<stop offset="1" stop-color="white"/>
</linearGradient>
</defs>
</svg>
