<svg width="24" height="24" viewBox="0 0 24 24" fill="none" xmlns="http://www.w3.org/2000/svg">
<path d="M0.5 4.5C0.5 2.29086 2.29086 0.5 4.5 0.5H19.5C21.7091 0.5 23.5 2.29086 23.5 4.5V19.5C23.5 21.7091 21.7091 23.5 19.5 23.5H4.5C2.29086 23.5 0.5 21.7091 0.5 19.5V4.5Z" fill="url(#paint0_radial_11976_51068)"/>
<path opacity="0.15" fill-rule="evenodd" clip-rule="evenodd" d="M1.55271 8.27734L1.3291 8.72456L4.5 10.31V10.382C4.5 11.3289 5.03501 12.1946 5.88197 12.618L8.5 13.9271V14.5H7.5V14C7.5 13.7239 7.27614 13.5 7 13.5H5C4.72386 13.5 4.5 13.7239 4.5 14V15.75C4.5 16.7165 5.2835 17.5 6.25 17.5H9.75C10.7165 17.5 11.5 16.7165 11.5 15.75V13.81L12.5 14.31V15.75C12.5 16.7165 13.2835 17.5 14.25 17.5H18.88L22.2235 19.1718L22.4471 18.7246L19.746 17.374L19.7454 17.3727L19 17H18.998L13 14.001L12.5 13.75L11.4708 13.2364C11.4707 13.236 11.4707 13.2357 11.4706 13.2353L10.882 12.941C10.8821 12.9414 10.8823 12.9418 10.8824 12.9422L1.55271 8.27734ZM5.00829 10.5642C5.07079 11.2491 5.48275 11.8594 6.10557 12.1708L9 13.618V15H7V14H5V15.75C5 16.4404 5.55964 17 6.25 17H9.75C10.4404 17 11 16.4404 11 15.75V13.618C11 13.5985 10.9997 13.579 10.9991 13.5596L5.00829 10.5642ZM13 14.56V15.75C13 16.4404 13.5596 17 14.25 17H17.88L13 14.56Z" fill="white"/>
<path d="M2.5 8.75V4.5C2.5 3.39549 3.39531 2.5 4.5 2.5H6.29297C6.48049 2.5 6.66011 2.57439 6.79312 2.70726C7.30091 3.21495 7.98903 3.5 8.70703 3.5H15.293C16.011 3.5 16.6991 3.21495 17.2069 2.70726C17.3399 2.57439 17.5195 2.5 17.707 2.5H19.5C20.6047 2.5 21.5 3.39549 21.5 4.5V18.25L2.5 8.75Z" fill="url(#paint1_radial_11976_51068)"/>
<path opacity="0.25" fill-rule="evenodd" clip-rule="evenodd" d="M11.2738 12.5788L12.5 13.1919V7C12.5 6.72386 12.7239 6.5 13 6.5H19C19.1733 6.5 19.3342 6.58973 19.4253 6.73713C19.5164 6.88454 19.5247 7.06861 19.4472 7.22361L18.4472 9.22361C18.3625 9.393 18.1894 9.5 18 9.5H15.5V10.5H18C18.2761 10.5 18.5 10.7239 18.5 11V13C18.5 13.2761 18.2761 13.5 18 13.5H15.5V14.5H18C18.1894 14.5 18.3625 14.607 18.4472 14.7764L19.3733 16.6286L22.6708 18.2773L22.4472 18.7245L1.55273 8.27729L1.77634 7.83008L4.5 9.19191V8.25C4.5 7.2835 5.2835 6.5 6.25 6.5H11C11.2761 6.5 11.5 6.72386 11.5 7V10C11.5 10.2761 11.2761 10.5 11 10.5H9C8.72386 10.5 8.5 10.2761 8.5 10V9.5H7.5V10.0729L10.118 11.382C10.6381 11.642 11.0406 12.0688 11.2738 12.5788ZM5 9.44191V8.25C5 7.55964 5.55964 7 6.25 7H11V10H9V9H7V10.382L9.89443 11.8292C10.0349 11.8994 10.1647 11.9849 10.2821 12.083L5 9.44191ZM18.6279 16.2559L18 15H16.1162L18.6279 16.2559ZM15 14.4419V13H18V11H15V9H18L19 7H13V13.4419L15 14.4419Z" fill="black"/>
<path fill-rule="evenodd" clip-rule="evenodd" d="M4.5 0H19.5C21.9853 0 24 2.01472 24 4.5V19.5C24 21.9853 21.9853 24 19.5 24H4.5C2.01472 24 0 21.9853 0 19.5V4.5C0 2.01472 2.01472 0 4.5 0ZM4.5 0.5C2.29086 0.5 0.5 2.29086 0.5 4.5V19.5C0.5 21.7091 2.29086 23.5 4.5 23.5H19.5C21.7091 23.5 23.5 21.7091 23.5 19.5V4.5C23.5 2.29086 21.7091 0.5 19.5 0.5H4.5Z" fill="white" fill-opacity="0.25"/>
<path fill-rule="evenodd" clip-rule="evenodd" d="M6 1.5L4.5 1.5C2.84315 1.5 1.5 2.84315 1.5 4.5V19.5C1.5 21.1569 2.84315 22.5 4.5 22.5H6H6.29289C6.74565 22.5 7.17985 22.3201 7.5 22C7.82014 21.6799 8.25435 21.5 8.7071 21.5H15.2929C15.7456 21.5 16.1798 21.6799 16.5 22C16.8201 22.3201 17.2543 22.5 17.7071 22.5H18H19.5C21.1569 22.5 22.5 21.1569 22.5 19.5V4.5C22.5 2.84315 21.1569 1.5 19.5 1.5L18 1.5L17.7071 1.5C17.7069 1.5 17.7067 1.5 17.7065 1.5C17.2539 1.50017 16.82 1.68001 16.5 2C16.1798 2.32014 15.7456 2.5 15.2929 2.5L8.7071 2.5C8.25435 2.5 7.82014 2.32014 7.5 2C7.17985 1.67986 6.74565 1.5 6.29289 1.5H6ZM4.5 0.5C2.29086 0.5 0.5 2.29086 0.5 4.5V19.5C0.5 21.7091 2.29086 23.5 4.5 23.5H19.5C21.7091 23.5 23.5 21.7091 23.5 19.5V4.5C23.5 2.29086 21.7091 0.5 19.5 0.5H4.5Z" fill="#001926"/>
<path fill-rule="evenodd" clip-rule="evenodd" d="M8.70703 2.5C8.25439 2.5 7.82031 2.32007 7.5 2C7.17969 1.67993 6.74561 1.5 6.29297 1.5H4.5C2.84326 1.5 1.5 2.84326 1.5 4.5V19.5C1.5 21.1567 2.84326 22.5 4.5 22.5H6.29297C6.48975 22.5 6.68262 22.4661 6.86426 22.4014C7.10107 22.3171 7.31885 22.1809 7.5 22C7.82031 21.6799 8.25439 21.5 8.70703 21.5H15.293C15.7456 21.5 16.1797 21.6799 16.5 22C16.8203 22.3201 17.2544 22.5 17.707 22.5H19.5C21.1567 22.5 22.5 21.1567 22.5 19.5V4.5C22.5 2.84326 21.1567 1.5 19.5 1.5H17.7065C17.2539 1.50024 16.8198 1.67993 16.5 2C16.2632 2.23682 15.9639 2.39673 15.6411 2.46411C15.5273 2.48779 15.4106 2.5 15.293 2.5H8.70703ZM2 4.5C2 3.11938 3.11914 2 4.5 2H6.29297C6.61328 2 6.91992 2.1272 7.14648 2.35352C7.56055 2.76758 8.12158 3 8.70703 3H15.293C15.8784 3 16.4395 2.76758 16.8535 2.35352C17.0024 2.20459 17.187 2.09863 17.3867 2.04346C17.4902 2.01489 17.5981 2 17.707 2H19.5C20.8809 2 22 3.11938 22 4.5V19.5C22 20.8806 20.8809 22 19.5 22H17.707C17.3867 22 17.0801 21.8728 16.8535 21.6465C16.4395 21.2324 15.8784 21 15.293 21H8.70703C8.12158 21 7.56055 21.2324 7.14648 21.6465C6.91992 21.8728 6.61328 22 6.29297 22H4.5C3.11914 22 2 20.8806 2 19.5V4.5Z" fill="url(#paint2_linear_11976_51068)"/>
<path opacity="0.5" fill-rule="evenodd" clip-rule="evenodd" d="M2 4.5V19.5C2 20.8806 3.1194 22 4.5 22H6.29297C6.61073 22 6.92157 21.8712 7.14672 21.6462C7.56062 21.2325 8.12171 21 8.70703 21H15.293C15.8784 21 16.4393 21.2324 16.8534 21.6464C17.08 21.8727 17.3869 22 17.707 22H19.5C20.8806 22 22 20.8806 22 19.5V4.5C22 3.11941 20.8806 2 19.5 2H17.707C17.3869 2 17.08 2.12732 16.8534 2.35365C16.4393 2.76763 15.8784 3 15.293 3H8.70703C8.12171 3 7.56062 2.76752 7.14672 2.35375C6.92157 2.12884 6.61073 2 6.29297 2H4.5C3.1194 2 2 3.1194 2 4.5ZM21.5 4.5C21.5 3.39549 20.6047 2.5 19.5 2.5H17.707C17.5195 2.5 17.3399 2.57439 17.2069 2.70726C16.6991 3.21495 16.011 3.5 15.293 3.5H8.70703C7.98903 3.5 7.30091 3.21495 6.79312 2.70726C6.66011 2.57439 6.48049 2.5 6.29297 2.5H4.5C3.39531 2.5 2.5 3.39549 2.5 4.5V19.5C2.5 20.6045 3.39531 21.5 4.5 21.5H6.29297C6.48049 21.5 6.66011 21.4256 6.79312 21.2927C7.30091 20.7851 7.98903 20.5 8.70703 20.5H15.293C16.011 20.5 16.6991 20.7851 17.2069 21.2927C17.3399 21.4256 17.5195 21.5 17.707 21.5H19.5C20.6047 21.5 21.5 20.6045 21.5 19.5V4.5Z" fill="black"/>
<path opacity="0.5" d="M9 2.75C9 2.61193 9.11193 2.5 9.25 2.5H14.75C14.8881 2.5 15 2.61193 15 2.75V2.75C15 2.88807 14.8881 3 14.75 3H9.25C9.11193 3 9 2.88807 9 2.75V2.75Z" fill="white"/>
<path opacity="0.5" d="M9 21.25C9 21.1119 9.11193 21 9.25 21H14.75C14.8881 21 15 21.1119 15 21.25V21.25C15 21.3881 14.8881 21.5 14.75 21.5H9.25C9.11193 21.5 9 21.3881 9 21.25V21.25Z" fill="white"/>
<path d="M4.5 1.75C4.5 1.61193 4.61193 1.5 4.75 1.5H5.75C5.88807 1.5 6 1.61193 6 1.75V1.75C6 1.88807 5.88807 2 5.75 2H4.75C4.61193 2 4.5 1.88807 4.5 1.75V1.75Z" fill="white"/>
<path opacity="0.5" d="M4.5 22.25C4.5 22.1119 4.61193 22 4.75 22H5.75C5.88807 22 6 22.1119 6 22.25V22.25C6 22.3881 5.88807 22.5 5.75 22.5H4.75C4.61193 22.5 4.5 22.3881 4.5 22.25V22.25Z" fill="white"/>
<path d="M18 1.75C18 1.61193 18.1119 1.5 18.25 1.5H19.25C19.3881 1.5 19.5 1.61193 19.5 1.75V1.75C19.5 1.88807 19.3881 2 19.25 2H18.25C18.1119 2 18 1.88807 18 1.75V1.75Z" fill="white"/>
<path opacity="0.5" d="M18 22.25C18 22.1119 18.1119 22 18.25 22H19.25C19.3881 22 19.5 22.1119 19.5 22.25V22.25C19.5 22.3881 19.3881 22.5 19.25 22.5H18.25C18.1119 22.5 18 22.3881 18 22.25V22.25Z" fill="white"/>
<path opacity="0.5" d="M8.5 1.75C8.5 1.61193 8.61193 1.5 8.75 1.5H15.25C15.3881 1.5 15.5 1.61193 15.5 1.75V1.75C15.5 1.88807 15.3881 2 15.25 2H8.75C8.61193 2 8.5 1.88807 8.5 1.75V1.75Z" fill="#FFCC00"/>
<path d="M9 1.75C9 1.61193 9.11193 1.5 9.25 1.5H14.75C14.8881 1.5 15 1.61193 15 1.75V1.75C15 1.88807 14.8881 2 14.75 2H9.25C9.11193 2 9 1.88807 9 1.75V1.75Z" fill="#FFCC00"/>
<path opacity="0.5" d="M8.5 22.25C8.5 22.1119 8.61193 22 8.75 22H15.25C15.3881 22 15.5 22.1119 15.5 22.25V22.25C15.5 22.3881 15.3881 22.5 15.25 22.5H8.75C8.61193 22.5 8.5 22.3881 8.5 22.25V22.25Z" fill="#FFCC00"/>
<path d="M9 22.25C9 22.1119 9.11193 22 9.25 22H14.75C14.8881 22 15 22.1119 15 22.25V22.25C15 22.3881 14.8881 22.5 14.75 22.5H9.25C9.11193 22.5 9 22.3881 9 22.25V22.25Z" fill="#FFCC00"/>
<path d="M11 7H6.25C5.55964 7 5 7.55964 5 8.25V10.382C5 11.1395 5.428 11.832 6.10557 12.1708L9 13.618V15H7V14H5V15.75C5 16.4404 5.55964 17 6.25 17H9.75C10.4404 17 11 16.4404 11 15.75V13.618C11 12.8605 10.572 12.168 9.89443 11.8292L7 10.382V9H9V10H11V7Z" fill="white"/>
<path d="M14.25 17C13.5596 17 13 16.4404 13 15.75V7H19L18 9H15V11H18V13H15V15H18L19 17H14.25Z" fill="white"/>
<path opacity="0.5" fill-rule="evenodd" clip-rule="evenodd" d="M15 13H18V11H15V9H18L19 7H13V15.75C13 16.4404 13.5596 17 14.25 17H19L18 15H15V13ZM17.691 15.5H14.5V12.5H17.5V11.5H14.5V8.5H17.691L18.191 7.5H13.5V15.75C13.5 16.1642 13.8358 16.5 14.25 16.5H18.191L17.691 15.5Z" fill="url(#paint3_linear_11976_51068)"/>
<path opacity="0.25" fill-rule="evenodd" clip-rule="evenodd" d="M4.5 5C4.77614 5 5 4.77614 5 4.5C5 4.22386 4.77614 4 4.5 4C4.22386 4 4 4.22386 4 4.5C4 4.77614 4.22386 5 4.5 5ZM20 4.5C20 4.77614 19.7761 5 19.5 5C19.2239 5 19 4.77614 19 4.5C19 4.22386 19.2239 4 19.5 4C19.7761 4 20 4.22386 20 4.5Z" fill="white"/>
<path opacity="0.25" fill-rule="evenodd" clip-rule="evenodd" d="M4.5 20C4.77614 20 5 19.7761 5 19.5C5 19.2239 4.77614 19 4.5 19C4.22386 19 4 19.2239 4 19.5C4 19.7761 4.22386 20 4.5 20ZM19.5 20C19.7761 20 20 19.7761 20 19.5C20 19.2239 19.7761 19 19.5 19C19.2239 19 19 19.2239 19 19.5C19 19.7761 19.2239 20 19.5 20Z" fill="black"/>
<path opacity="0.5" fill-rule="evenodd" clip-rule="evenodd" d="M9 15H7V14H5V15.75C5 16.4404 5.55964 17 6.25 17H9.75C10.4404 17 11 16.4404 11 15.75V13.618C11 12.8605 10.572 12.168 9.89443 11.8292L7 10.382V9H9V10H11V7H6.25C5.55964 7 5 7.55964 5 8.25V10.382C5 11.1395 5.428 11.832 6.10557 12.1708L9 13.618V15ZM10.5 7.5H6.25C5.83579 7.5 5.5 7.83579 5.5 8.25V10.382C5.5 10.9501 5.821 11.4695 6.32918 11.7236L9.5 13.309V15.5H6.5V14.5H5.5V15.75C5.5 16.1642 5.83579 16.5 6.25 16.5H9.75C10.1642 16.5 10.5 16.1642 10.5 15.75V13.618C10.5 13.0499 10.179 12.5305 9.67082 12.2764L6.5 10.691V8.5H9.5V9.5H10.5V7.5Z" fill="url(#paint4_linear_11976_51068)"/>
<path d="M7 10.3799V10.382L9.89443 11.8292C10.1735 11.9687 10.4103 12.1683 10.5922 12.4077L10.2343 12.7656C10.0933 12.5614 9.9013 12.3916 9.67082 12.2764L6.50688 10.6944L6.5 10.6899L7 10.3799Z" fill="white"/>
<path d="M5.36621 7.36612L5.71976 7.71967C5.85549 7.58395 6.04299 7.5 6.25009 7.5H10.5001L11.0001 7H6.25009C5.90492 7 5.59242 7.13991 5.36621 7.36612Z" fill="white"/>
<path d="M5.5 14.5L5 14H7L6.5 14.5H5.5Z" fill="white"/>
<path d="M7 15L6.5 15.5H9.5L9 15H7Z" fill="white"/>
<path opacity="0.25" d="M5.40771 11.5923C5.58966 11.8317 5.82642 12.0313 6.10554 12.1709L8.99997 13.6181V13.6201L9.49997 13.3101L9.49382 13.306L6.32915 11.7237C6.09864 11.6084 5.90665 11.4386 5.76566 11.2344L5.40771 11.5923Z" fill="#001926"/>
<g opacity="0.25">
<path d="M7 9L6.5 8.5H9.5L9 9H7Z" fill="#001926"/>
<path d="M9.5 9.5L9 10H11L10.5 9.5H9.5Z" fill="#001926"/>
</g>
<path opacity="0.5" d="M10.634 16.6338L10.2804 16.2803C10.1447 16.416 9.9572 16.4999 9.75009 16.4999H6.25009C6.04299 16.4999 5.85549 16.416 5.71976 16.2803L5.36621 16.6338C5.59242 16.86 5.90492 16.9999 6.25009 16.9999H9.75009C10.0953 16.9999 10.4078 16.86 10.634 16.6338Z" fill="#001926"/>
<path opacity="0.5" d="M13.7198 16.2803L13.3662 16.6338C13.5924 16.86 13.9049 17 14.2501 17H19L18.19 16.5L14.2501 16.5C14.043 16.5 13.8555 16.416 13.7198 16.2803Z" fill="#001926"/>
<path d="M20.5 4.5C20.5 5.05228 20.0523 5.5 19.5 5.5C18.9477 5.5 18.5 5.05228 18.5 4.5C18.5 3.94772 18.9477 3.5 19.5 3.5C20.0523 3.5 20.5 3.94772 20.5 4.5Z" fill="#FFEE00"/>
<path opacity="0.25" fill-rule="evenodd" clip-rule="evenodd" d="M21 4.5C21 5.32843 20.3284 6 19.5 6C18.6716 6 18 5.32843 18 4.5C18 3.67157 18.6716 3 19.5 3C20.3284 3 21 3.67157 21 4.5ZM19.5 5.5C20.0523 5.5 20.5 5.05228 20.5 4.5C20.5 3.94772 20.0523 3.5 19.5 3.5C18.9477 3.5 18.5 3.94772 18.5 4.5C18.5 5.05228 18.9477 5.5 19.5 5.5Z" fill="white"/>
<path d="M19.5 3.5C18.9477 3.5 18.5 3.94772 18.5 4.5H19.5V5.5C20.0523 5.5 20.5 5.05228 20.5 4.5H19.5V3.5Z" fill="#001926"/>
<path d="M5.5 19.5C5.5 20.0523 5.05228 20.5 4.5 20.5C3.94772 20.5 3.5 20.0523 3.5 19.5C3.5 18.9477 3.94772 18.5 4.5 18.5C5.05228 18.5 5.5 18.9477 5.5 19.5Z" fill="#FFEE00"/>
<path opacity="0.25" fill-rule="evenodd" clip-rule="evenodd" d="M6 19.5C6 20.3284 5.32843 21 4.5 21C3.67157 21 3 20.3284 3 19.5C3 18.6716 3.67157 18 4.5 18C5.32843 18 6 18.6716 6 19.5ZM4.5 20.5C5.05228 20.5 5.5 20.0523 5.5 19.5C5.5 18.9477 5.05228 18.5 4.5 18.5C3.94772 18.5 3.5 18.9477 3.5 19.5C3.5 20.0523 3.94772 20.5 4.5 20.5Z" fill="white"/>
<path d="M4.5 18.5C3.94772 18.5 3.5 18.9477 3.5 19.5H4.5V20.5C5.05228 20.5 5.5 20.0523 5.5 19.5H4.5V18.5Z" fill="#001926"/>
<path opacity="0.25" d="M14.5 8.5L15 9H18L17.69 8.5H14.5Z" fill="#001926"/>
<path d="M14.5 15.5L15 15H18L17.69 15.5H14.5Z" fill="white"/>
<path opacity="0.25" d="M14.5 12.5L15 13H18L17.5 12.5H14.5Z" fill="#001926"/>
<path d="M14.5 11.5L15 11H18L17.5 11.5H14.5Z" fill="white"/>
<defs>
<radialGradient id="paint0_radial_11976_51068" cx="0" cy="0" r="1" gradientUnits="userSpaceOnUse" gradientTransform="translate(12 23.5) rotate(-90) scale(23)">
<stop stop-color="#7FBF60"/>
<stop offset="1"/>
</radialGradient>
<radialGradient id="paint1_radial_11976_51068" cx="0" cy="0" r="1" gradientUnits="userSpaceOnUse" gradientTransform="translate(12 19.5) rotate(-90) scale(17)">
<stop stop-color="#BFD5FF"/>
<stop offset="1" stop-color="#202B40"/>
</radialGradient>
<linearGradient id="paint2_linear_11976_51068" x1="12" y1="1.5" x2="12" y2="22.5" gradientUnits="userSpaceOnUse">
<stop stop-color="#607580"/>
<stop offset="1" stop-color="#336680"/>
</linearGradient>
<linearGradient id="paint3_linear_11976_51068" x1="12" y1="7" x2="12" y2="17" gradientUnits="userSpaceOnUse">
<stop stop-color="#001926" stop-opacity="0"/>
<stop offset="1" stop-color="#001926"/>
</linearGradient>
<linearGradient id="paint4_linear_11976_51068" x1="4" y1="7" x2="4" y2="17" gradientUnits="userSpaceOnUse">
<stop stop-color="#001926" stop-opacity="0"/>
<stop offset="1" stop-color="#001926"/>
</linearGradient>
</defs>
</svg>
