<svg width="96" height="96" viewBox="0 0 96 96" fill="none" xmlns="http://www.w3.org/2000/svg">
<g id="SP">
<path id="Rectangle 3265" d="M2 18C2 9.16345 9.16344 2 18 2H78C86.8366 2 94 9.16344 94 18V78C94 86.8366 86.8366 94 78 94H18C9.16345 94 2 86.8366 2 78V18Z" fill="url(#paint0_radial_26599_95356)"/>
<path id="Rectangle 3150 (Stroke)" fill-rule="evenodd" clip-rule="evenodd" d="M18 0H78C87.9411 0 96 8.05888 96 18V78C96 87.9411 87.9411 96 78 96H18C8.05888 96 0 87.9411 0 78V18C0 8.05888 8.05887 0 18 0ZM18 2C9.16344 2 2 9.16345 2 18V78C2 86.8366 9.16345 94 18 94H78C86.8366 94 94 86.8366 94 78V18C94 9.16344 86.8366 2 78 2H18Z" fill="white" fill-opacity="0.25"/>
<path id="Union" fill-rule="evenodd" clip-rule="evenodd" d="M24 6L18 6C11.3726 6 6 11.3726 6 18V78C6 84.6274 11.3726 90 18 90H24H25.1716C26.9826 90 28.7194 89.2806 30 88C31.2806 86.7194 33.0174 86 34.8284 86H61.1715C62.9826 86 64.7194 86.7194 66 88C67.2805 89.2806 69.0174 90 70.8284 90H72H78C84.6274 90 90 84.6274 90 78V18C90 11.3726 84.6274 6 78 6L72 6L70.8284 6C70.8275 6 70.8267 6 70.8258 6C69.0157 6.00068 67.2799 6.72002 66 8C64.7194 9.28058 62.9826 10 61.1715 10L34.8284 10C33.0174 10 31.2806 9.28058 30 8C28.7194 6.71942 26.9826 6 25.1716 6H24ZM18 2C9.16344 2 2 9.16345 2 18V78C2 86.8366 9.16345 94 18 94H78C86.8366 94 94 86.8366 94 78V18C94 9.16344 86.8366 2 78 2H18Z" fill="#001926"/>
<path id="Rectangle 3266" opacity="0.5" d="M34 7C34 6.44772 34.4477 6 35 6H61C61.5523 6 62 6.44772 62 7C62 7.55228 61.5523 8 61 8H35C34.4477 8 34 7.55228 34 7Z" fill="#FFEE00"/>
<path id="Rectangle 3268" d="M36 7C36 6.44772 36.4477 6 37 6H59C59.5523 6 60 6.44772 60 7C60 7.55228 59.5523 8 59 8H37C36.4477 8 36 7.55228 36 7Z" fill="#FFEE00"/>
<path id="Rectangle 3267" opacity="0.5" d="M34 89C34 88.4477 34.4477 88 35 88H61C61.5523 88 62 88.4477 62 89C62 89.5523 61.5523 90 61 90H35C34.4477 90 34 89.5523 34 89Z" fill="#FFEE00"/>
<path id="Rectangle 3269" d="M36 89C36 88.4477 36.4477 88 37 88H59C59.5523 88 60 88.4477 60 89C60 89.5523 59.5523 90 59 90H37C36.4477 90 36 89.5523 36 89Z" fill="#FFEE00"/>
<g id="Vector" opacity="0.25">
<path fill-rule="evenodd" clip-rule="evenodd" d="M46 26V42H34V38H30V40.2918L40.4721 45.5279C43.86 47.2218 46 50.6844 46 54.4721V63C46 66.866 42.866 70 39 70H25C21.134 70 18 66.866 18 63V54H30V58H34V55.7082L23.5279 50.4721C20.14 48.7782 18 45.3156 18 41.5279V33C18 29.134 21.134 26 25 26H46ZM50 26H70.9998C74.8658 26 77.9998 29.134 77.9998 33V41.5279C77.9998 45.3156 75.8598 48.7782 72.4719 50.4721L62 55.7081V70H50V26ZM65.9998 40.2918L62 42.2917V38H65.9998V40.2918Z" fill="black"/>
</g>
<g id="Union_2">
<path d="M44 28H25C22.2386 28 20 30.2386 20 33V41.5279C20 44.558 21.712 47.3281 24.4223 48.6833L36 54.4721V60H28V56H20V63C20 65.7614 22.2386 68 25 68H39C41.7614 68 44 65.7614 44 63V54.4721C44 51.442 42.288 48.6719 39.5777 47.3167L28 41.5279V36H36V40H44V28Z" fill="url(#paint1_linear_26599_95356)"/>
<path fill-rule="evenodd" clip-rule="evenodd" d="M52 28H70.9998C73.7612 28 75.9998 30.2386 75.9998 33V41.5279C75.9998 44.558 74.2878 47.3281 71.5775 48.6833L60 54.472V68H52V28ZM60 45.5278L67.9998 41.5279V36H60V45.5278Z" fill="url(#paint2_linear_26599_95356)"/>
</g>
<path id="Union (Stroke)" fill-rule="evenodd" clip-rule="evenodd" d="M36 60H28V56H20V63C20 65.7614 22.2386 68 25 68H39C41.7614 68 44 65.7614 44 63V54.4721C44 51.442 42.288 48.6719 39.5777 47.3167L28 41.5279V36H36V40H44V28H25C22.2386 28 20 30.2386 20 33V41.5279C20 44.558 21.712 47.3281 24.4223 48.6833L36 54.4721V60ZM42 30H25C23.3431 30 22 31.3431 22 33V41.5279C22 43.8005 23.284 45.8781 25.3167 46.8944L38 53.2361V62H26V58H22V63C22 64.6569 23.3431 66 25 66H39C40.6569 66 42 64.6569 42 63V54.4721C42 52.1995 40.716 50.1219 38.6833 49.1056L26 42.7639V34H38V38H42V30ZM60 54.472L71.5775 48.6833C74.2878 47.3281 75.9998 44.558 75.9998 41.5279V33C75.9998 30.2386 73.7612 28 70.9998 28H52V68H60V54.472ZM58 66V53.236L70.6831 46.8944C72.7158 45.8781 73.9998 43.8005 73.9998 41.5279V33C73.9998 31.3431 72.6566 30 70.9998 30H54V66H58ZM58 48.7638V34H69.9998V42.7639L58 48.7638ZM67.9998 36V41.5279L60 45.5278V36H67.9998Z" fill="url(#paint3_linear_26599_95356)"/>
<path id="Intersect" d="M28 41.5195V41.5279L39.5777 47.3167C40.6941 47.8749 41.6411 48.6731 42.3688 49.6307L40.937 51.0625C40.3731 50.2458 39.6052 49.5665 38.6833 49.1056L26.0275 42.7777L26 42.7595L28 41.5195Z" fill="white"/>
<path id="Intersect_2" d="M67.9997 41.5273V41.5357L60 45.519L58 48.759L69.9722 42.7855L69.9997 42.7673L67.9997 41.5273Z" fill="white"/>
<path id="Intersect_3" d="M21.6309 46.3693C22.3586 47.327 23.3057 48.1253 24.4222 48.6835L35.9999 54.4724V54.4803L37.9999 53.2403L37.9753 53.224L25.3166 46.8947C24.3946 46.4337 23.6266 45.7543 23.0626 44.9375L21.6309 46.3693Z" fill="#6A8040"/>
<path id="Intersect_4" d="M74.3592 46.3693C73.6315 47.327 72.6844 48.1253 71.5679 48.6835L59.9902 54.4724V54.4803L57.9902 53.2403L58.0148 53.224L70.6735 46.8947C71.5955 46.4337 72.3635 45.7543 72.9275 44.9375L74.3592 46.3693Z" fill="#6A8040"/>
<path id="Intersect_5" d="M21.4648 29.4645L22.8791 30.8787C23.422 30.3358 24.172 30 25.0004 30H42.0004L44.0004 28H25.0004C23.6197 28 22.3697 28.5596 21.4648 29.4645Z" fill="white"/>
<path id="Intersect_6" d="M74.5355 29.4645L73.1213 30.8787C72.5784 30.3358 71.8284 30 71 30H54L52 28H71C72.3807 28 73.6307 28.5596 74.5355 29.4645Z" fill="white"/>
<path id="Intersect_7" d="M42.5359 66.5353L41.1217 65.1211C40.5788 65.664 39.8288 65.9998 39.0004 65.9998H25.0004C24.172 65.9998 23.422 65.664 22.8791 65.1211L21.4648 66.5353C22.3697 67.4401 23.6197 67.9998 25.0004 67.9998H39.0004C40.3811 67.9998 41.6311 67.4401 42.5359 66.5353Z" fill="#6A8040"/>
<g id="Vector 2368" opacity="0.5">
<path d="M22 58L20 56H28L26 58H22Z" fill="white"/>
<path d="M28 60L26 62H38L36 60H28Z" fill="white"/>
</g>
<g id="Vector 2364">
<path d="M28 36L26 34H38L36 36H28Z" fill="#697E3F"/>
<path d="M38 38L36 40H44L42 38H38Z" fill="#697E3F"/>
</g>
<path id="Vector 2370" d="M60 36L58 34H70L68 36H60Z" fill="#697E3F"/>
<path id="Vector 2369" d="M54 66L52 68H60L58 66H54Z" fill="#6A7F40"/>
<path id="Union_3" fill-rule="evenodd" clip-rule="evenodd" d="M30 8C28.7188 6.71973 26.9824 6 25.1719 6H18C11.3789 6 6.00977 11.3643 6 17.9834V78C6 84.627 11.373 90 18 90H25.1719C26.9814 90 28.7198 89.2802 30 88C31.2812 86.7197 33.0176 86 34.8281 86H61.1719C62.9821 86 64.7208 86.7208 66 88C67.2812 89.2803 69.0176 90 70.8281 90H78C84.627 90 90 84.627 90 78V18C90 11.4492 84.75 6.12402 78.2285 6.00195L78 6H70.8262C69.0156 6.00098 67.2793 6.71973 66 8C64.7177 9.28081 62.9846 10 61.1719 10H34.8281C33.0176 10 31.2812 9.28027 30 8ZM22.5195 9.87207C21.3203 8.67285 19.6953 8 18 8C12.4766 8 8 12.4775 8 18V78C8 83.5225 12.4766 88 18 88C19.6934 88 21.3164 87.3271 22.5137 86.1309L24.4961 84.1475C25.0332 83.6113 25.8242 83.4248 26.543 83.6641L30.2773 84.9082C31.3965 84.1621 32.5684 83.4844 33.7812 82.8809L34.5703 79.0303C34.7207 78.2881 35.2793 77.6953 36.0117 77.499L41.3516 76.0684C42.082 75.8721 42.8613 76.1064 43.3652 76.6729L45.9785 79.6201C46.6465 79.5781 47.3203 79.5576 47.998 79.5576C48.6754 79.5576 49.3501 79.5783 50.0195 79.6201L52.6328 76.6738C53.1348 76.1064 53.9141 75.873 54.6465 76.0684L59.9863 77.499C60.7204 77.6951 61.274 78.2888 61.4277 79.0303L62.2148 82.8809C63.4313 83.4841 64.5993 84.163 65.7207 84.9082L69.4531 83.6641C70.1719 83.4248 70.9648 83.6113 71.5 84.1475L73.4805 86.1279C74.6797 87.3262 76.3047 88 78 88C83.5234 88 88 83.5225 88 78V18C88 12.4775 83.5234 8 78 8C76.3008 8 74.6699 8.6748 73.4688 9.87695L71.498 11.8467C70.9629 12.3828 70.1699 12.5693 69.4512 12.3301L65.7168 11.085C64.5977 11.832 63.4277 12.5098 62.2129 13.1123L61.4258 16.9648C61.2734 17.707 60.7148 18.2998 59.9844 18.4951L54.6445 19.9258C53.9121 20.1221 53.1328 19.8877 52.6309 19.3213L50.0156 16.373C49.3477 16.415 48.6758 16.4355 47.9961 16.4355C47.3184 16.4355 46.6445 16.415 45.9766 16.373L43.3633 19.3223C42.8594 19.8887 42.0801 20.123 41.3477 19.9268L36.0098 18.4961C35.2773 18.3 34.7195 17.7075 34.5664 16.9648L33.7793 13.1113C32.5664 12.5088 31.3965 11.832 30.2754 11.0859L26.541 12.3311C25.8223 12.5703 25.0312 12.3828 24.4941 11.8477L22.5195 9.87207Z" fill="url(#paint4_linear_26599_95356)"/>
<g id="Intersect_8">
<path d="M65.7191 84.9074C65.7187 84.9071 65.7195 84.9076 65.7191 84.9074L69.4527 83.664C70.1714 83.4248 70.9644 83.6113 71.4996 84.1474L72.014 84.6618L67.9996 86L65.7191 84.9074Z" fill="white" fill-opacity="0.25"/>
<path d="M53.4591 76.1157C53.8337 75.9828 54.2468 75.9619 54.646 76.0683L59.9859 77.499C60.4248 77.6162 60.7992 77.8756 61.0621 78.2237L59.4674 79.4311L54.1276 78.0004L53.4591 76.1157Z" fill="white" fill-opacity="0.25"/>
<path d="M45.9771 79.619C46.6451 79.577 47.3199 79.5576 47.9976 79.5576C48.6747 79.5576 49.3491 79.5782 50.0182 79.62L49.8935 81.6164C49.2666 81.5772 48.6335 81.5578 47.9967 81.5578C47.3593 81.5578 46.7274 81.5771 46.1027 81.6164L45.9771 79.619Z" fill="white" fill-opacity="0.25"/>
<path d="M34.9341 78.2234C35.1976 77.8754 35.5734 77.6163 36.0113 77.499L41.3511 76.0683C41.7496 75.9612 42.1625 75.9823 42.5374 76.1155L41.8678 78.0004L36.528 79.4311L34.9341 78.2234Z" fill="white" fill-opacity="0.25"/>
<path d="M23.9824 84.6609L24.4957 84.1474C25.0328 83.6113 25.8238 83.4248 26.5425 83.664L30.2762 84.9079L27.9996 86L23.9824 84.6609Z" fill="white" fill-opacity="0.25"/>
</g>
<g id="Intersect_9" opacity="0.33">
<path d="M65.7191 11.0926C65.7187 11.0929 65.7195 11.0923 65.7191 11.0926L69.4527 12.3359C70.1714 12.5752 70.9644 12.3887 71.4996 11.8525L72.014 11.3381L67.9996 10L65.7191 11.0926Z" fill="black"/>
<path d="M53.4591 19.8843C53.8337 20.0172 54.2468 20.0381 54.6461 19.9316L59.9859 18.501C60.4248 18.3838 60.7992 18.1244 61.0621 17.7762L59.4674 16.5689L54.1276 17.9996L53.4591 19.8843Z" fill="black"/>
<path d="M45.9771 16.381C46.6451 16.423 47.3199 16.4424 47.9976 16.4424C48.6747 16.4424 49.3491 16.4217 50.0182 16.3799L49.8935 14.3836C49.2666 14.4227 48.6335 14.4422 47.9967 14.4422C47.3593 14.4422 46.7274 14.4229 46.1027 14.3836L45.9771 16.381Z" fill="black"/>
<path d="M34.9341 17.7765C35.1976 18.1245 35.5734 18.3836 36.0113 18.501L41.3511 19.9316C41.7496 20.0387 42.1625 20.0176 42.5374 19.8845L41.8678 17.9996L36.528 16.5689L34.9341 17.7765Z" fill="black"/>
<path d="M23.9824 11.339L24.4957 11.8525C25.0328 12.3887 25.8238 12.5752 26.5425 12.3359L30.2762 11.092L27.9996 10L23.9824 11.339Z" fill="black"/>
</g>
<path id="Union_4" opacity="0.5" fill-rule="evenodd" clip-rule="evenodd" d="M8 18V78C8 83.5225 12.4766 88 18 88C19.6934 88 21.3164 87.3271 22.5137 86.1309C22.7021 85.9424 22.8992 85.7218 23.106 85.4904C24.0325 84.4535 25.1519 83.2007 26.543 83.6641L30.2773 84.9082C31.3965 84.1621 32.5684 83.4844 33.7812 82.8809L34.5703 79.0303C34.7207 78.2881 35.2793 77.6953 36.0117 77.499L41.3516 76.0684C42.082 75.8721 42.8613 76.1064 43.3652 76.6729L45.9785 79.6201C46.6465 79.5781 47.3203 79.5576 47.998 79.5576C48.6758 79.5576 49.3496 79.5781 50.0195 79.6201L52.6328 76.6738C53.1348 76.1064 53.9141 75.873 54.6465 76.0684L59.9863 77.499C60.6796 77.6835 61.2817 78.3295 61.4277 79.0303L62.2148 82.8809C63.4314 83.4846 64.5994 84.163 65.7207 84.9082L69.4531 83.6641C70.8437 83.2011 71.9628 84.4529 72.8884 85.4881C73.0951 85.7194 73.2922 85.9398 73.4805 86.1279C74.6797 87.3262 76.3047 88 78 88C83.5234 88 88 83.5225 88 78V18C88 12.4775 83.5234 8 78 8C76.3047 8 74.6797 8.67383 73.4805 9.87207C73.2922 10.0602 73.0951 10.2806 72.8884 10.5119C71.9628 11.5471 70.8437 12.7989 69.4531 12.3359L65.7207 11.0918C64.5994 11.837 63.4314 12.5154 62.2148 13.1191L61.4277 16.9697C61.2817 17.6705 60.6796 18.3165 59.9863 18.501L54.6465 19.9316C53.9141 20.127 53.1348 19.8936 52.6328 19.3262L50.0195 16.3799C49.3496 16.4219 48.6758 16.4424 47.998 16.4424C47.3203 16.4424 46.6465 16.4219 45.9785 16.3799L43.3652 19.3271C42.8613 19.8936 42.082 20.1279 41.3516 19.9316L36.0117 18.501C35.2793 18.3047 34.7207 17.7119 34.5703 16.9697L33.7812 13.1191C32.5684 12.5156 31.3965 11.8379 30.2773 11.0918L26.543 12.3359C25.1519 12.7993 24.0325 11.5465 23.106 10.5096C22.8992 10.2782 22.7021 10.0576 22.5137 9.86914C21.3164 8.67285 19.6934 8 18 8C12.4766 8 8 12.4775 8 18ZM86 18C86 13.582 82.4187 10 78 10C76.8357 10 75.7188 10.4628 74.894 11.287C74.652 11.5288 74.423 11.7818 74.1943 12.0347C73.8162 12.4526 73.4387 12.87 73.0033 13.2351C72.1433 13.9564 70.6614 14.8462 68.8207 14.2333L65.998 13.2924C65.3423 13.7022 64.6692 14.0924 63.9824 14.4587L63.3872 17.3703L63.3857 17.3776C63.0882 18.8054 61.9378 20.0512 60.5007 20.4337L55.1618 21.8641C53.701 22.2537 52.1412 21.7889 51.1349 20.6514L49.1585 18.4232C48.7725 18.4361 48.3856 18.4424 47.998 18.4424C47.6111 18.4424 47.2249 18.4361 46.8397 18.4233L44.8595 20.6565C43.8549 21.7857 42.2975 22.2568 40.8325 21.8631L35.494 20.4328C34.032 20.041 32.9125 18.8546 32.6101 17.3669L32.014 14.458C31.3285 14.092 30.6562 13.7032 29.9992 13.2925L27.175 14.2334C25.3338 14.8468 23.8522 13.9562 22.992 13.2345C22.5558 12.8685 22.1776 12.4502 21.799 12.0314C21.5703 11.7784 21.3414 11.5253 21.0995 11.2834C20.2768 10.4617 19.1623 10 18 10C13.5813 10 10 13.582 10 18V78C10 82.418 13.5813 86 18 86C19.1623 86 20.2768 85.5383 21.0995 84.7166C21.3414 84.4747 21.5703 84.2216 21.799 83.9686C22.1776 83.5498 22.5558 83.1315 22.992 82.7655C23.8522 82.0438 25.3338 81.1532 27.175 81.7666L29.9992 82.7075C30.6562 82.2968 31.3285 81.908 32.014 81.542L32.6101 78.6331C32.9125 77.1454 34.032 75.959 35.494 75.5672L40.8325 74.1369C42.2975 73.7432 43.8549 74.2143 44.8595 75.3435L46.8397 77.5767C47.2249 77.5639 47.6111 77.5576 47.998 77.5576C48.3856 77.5576 48.7725 77.5639 49.1585 77.5768L51.1349 75.3486C52.1412 74.2111 53.701 73.7463 55.1618 74.1359L60.5007 75.5663C61.9378 75.9488 63.0882 77.1946 63.3857 78.6224L63.3872 78.6297L63.9824 81.5413C64.6692 81.9076 65.3423 82.2978 65.998 82.7076L68.8207 81.7667C70.6614 81.1538 72.1433 82.0436 73.0033 82.7649C73.4387 83.13 73.8162 83.5474 74.1943 83.9653C74.423 84.2182 74.652 84.4712 74.894 84.713C75.7188 85.5372 76.8357 86 78 86C82.4187 86 86 82.418 86 78V18Z" fill="black"/>
<path id="Union_5" opacity="0.5" fill-rule="evenodd" clip-rule="evenodd" d="M18 20C19.1046 20 20 19.1046 20 18C20 16.8954 19.1046 16 18 16C16.8954 16 16 16.8954 16 18C16 19.1046 16.8954 20 18 20ZM80 18C80 19.1046 79.1046 20 78 20C76.8954 20 76 19.1046 76 18C76 16.8954 76.8954 16 78 16C79.1046 16 80 16.8954 80 18Z" fill="white"/>
<path id="Union_6" opacity="0.25" fill-rule="evenodd" clip-rule="evenodd" d="M18 80C19.1046 80 20 79.1046 20 78C20 76.8954 19.1046 76 18 76C16.8954 76 16 76.8954 16 78C16 79.1046 16.8954 80 18 80ZM78 80C79.1046 80 80 79.1046 80 78C80 76.8954 79.1046 76 78 76C76.8954 76 76 76.8954 76 78C76 79.1046 76.8954 80 78 80Z" fill="white"/>
<path id="Rectangle 3178" opacity="0.5" d="M36 11C36 10.4477 36.4477 10 37 10H59C59.5523 10 60 10.4477 60 11C60 11.5523 59.5523 12 59 12H37C36.4477 12 36 11.5523 36 11Z" fill="white"/>
</g>
<defs>
<radialGradient id="paint0_radial_26599_95356" cx="0" cy="0" r="1" gradientUnits="userSpaceOnUse" gradientTransform="translate(48 -2.51971e-06) rotate(90) scale(96)">
<stop stop-color="#408040"/>
<stop offset="1" stop-color="#1A1414"/>
</radialGradient>
<linearGradient id="paint1_linear_26599_95356" x1="47.9982" y1="68" x2="47.9982" y2="28" gradientUnits="userSpaceOnUse">
<stop stop-color="#402D20"/>
<stop offset="1" stop-color="#FFB380"/>
</linearGradient>
<linearGradient id="paint2_linear_26599_95356" x1="47.9982" y1="68" x2="47.9982" y2="28" gradientUnits="userSpaceOnUse">
<stop stop-color="#402D20"/>
<stop offset="1" stop-color="#FFB380"/>
</linearGradient>
<linearGradient id="paint3_linear_26599_95356" x1="47.9999" y1="28" x2="47.9999" y2="68" gradientUnits="userSpaceOnUse">
<stop stop-color="white" stop-opacity="0.75"/>
<stop offset="1" stop-color="white" stop-opacity="0"/>
</linearGradient>
<linearGradient id="paint4_linear_26599_95356" x1="48" y1="6" x2="48" y2="90" gradientUnits="userSpaceOnUse">
<stop stop-color="#FFD9BF"/>
<stop offset="0.166667" stop-color="#BF8660"/>
<stop offset="0.880879" stop-color="#665252"/>
<stop offset="1" stop-color="#475266"/>
</linearGradient>
</defs>
</svg>
