<svg width="24" height="24" viewBox="0 0 24 24" fill="none" xmlns="http://www.w3.org/2000/svg">
<path d="M0.5 4.5C0.5 2.29086 2.29086 0.5 4.5 0.5H19.5C21.7091 0.5 23.5 2.29086 23.5 4.5V19.5C23.5 21.7091 21.7091 23.5 19.5 23.5H4.5C2.29086 23.5 0.5 21.7091 0.5 19.5V4.5Z" fill="url(#paint0_radial_10865_46567)"/>
<path d="M10 2.58579V1H9.5V2.58579C9.5 2.7847 9.42098 2.97546 9.28033 3.11612L3.11612 9.28033C2.97546 9.42098 2.7847 9.5 2.58579 9.5H1V10H2.58579C2.91731 10 3.23525 9.8683 3.46967 9.63388L9.63388 3.46967C9.8683 3.23525 10 2.91731 10 2.58579Z" fill="white" fill-opacity="0.25"/>
<path d="M14 2.58579V1H14.5V2.58579C14.5 2.7847 14.579 2.97546 14.7197 3.11612L20.8839 9.28033C21.0245 9.42098 21.2153 9.5 21.4142 9.5H23V10H21.4142C21.0827 10 20.7648 9.8683 20.5303 9.63388L14.3661 3.46967C14.1317 3.23525 14 2.91731 14 2.58579Z" fill="white" fill-opacity="0.25"/>
<path d="M10 23V21.4142C10 21.0827 9.8683 20.7647 9.63388 20.5303L3.46967 14.3661C3.23525 14.1317 2.91731 14 2.58579 14H1V14.5H2.58579C2.7847 14.5 2.97546 14.579 3.11612 14.7197L9.28033 20.8839C9.42098 21.0245 9.5 21.2153 9.5 21.4142V23H10Z" fill="white" fill-opacity="0.25"/>
<path d="M11.25 2.67157V1H10.75V2.67157C10.75 3.1357 10.5656 3.58082 10.2374 3.90901L3.90901 10.2374C3.58082 10.5656 3.1357 10.75 2.67157 10.75H1V11.25H2.67157C3.26831 11.25 3.84061 11.0129 4.26256 10.591L10.591 4.26256C11.0129 3.84061 11.25 3.26831 11.25 2.67157Z" fill="white" fill-opacity="0.25"/>
<path d="M12.75 1V2.67157C12.75 3.26831 12.9871 3.84061 13.409 4.26256L19.7374 10.591C20.1594 11.0129 20.7317 11.25 21.3284 11.25H23V10.75H21.3284C20.8643 10.75 20.4192 10.5656 20.091 10.2374L13.7626 3.90901C13.4344 3.58082 13.25 3.1357 13.25 2.67157V1H12.75Z" fill="white" fill-opacity="0.25"/>
<path d="M11.25 21.3284V23H10.75V21.3284C10.75 20.8643 10.5656 20.4192 10.2374 20.091L3.90901 13.7626C3.58082 13.4344 3.1357 13.25 2.67157 13.25H1V12.75H2.67157C3.26831 12.75 3.84061 12.9871 4.26256 13.409L10.591 19.7374C11.0129 20.1594 11.25 20.7317 11.25 21.3284Z" fill="white" fill-opacity="0.25"/>
<path d="M4.5 20C4.77614 20 5 19.7761 5 19.5C5 19.2239 4.77614 19 4.5 19C4.22386 19 4 19.2239 4 19.5C4 19.7761 4.22386 20 4.5 20Z" fill="white" fill-opacity="0.25"/>
<path d="M12.75 21.3284V23H13.25V21.3284C13.25 20.8643 13.4344 20.4192 13.7626 20.091L20.091 13.7626C20.4192 13.4344 20.8643 13.25 21.3284 13.25H23V12.75H21.3284C20.7317 12.75 20.1594 12.9871 19.7374 13.409L13.409 19.7374C12.9871 20.1594 12.75 20.7317 12.75 21.3284Z" fill="white" fill-opacity="0.25"/>
<path d="M14 21.4142V23H14.5V21.4142C14.5 21.2153 14.579 21.0245 14.7197 20.8839L20.8839 14.7197C21.0245 14.579 21.2153 14.5 21.4142 14.5H23V14H21.4142C21.0827 14 20.7648 14.1317 20.5303 14.3661L14.3661 20.5303C14.1317 20.7648 14 21.0827 14 21.4142Z" fill="white" fill-opacity="0.25"/>
<path d="M19 19.5C19 19.7761 19.2239 20 19.5 20C19.7761 20 20 19.7761 20 19.5C20 19.2239 19.7761 19 19.5 19C19.2239 19 19 19.2239 19 19.5Z" fill="white" fill-opacity="0.25"/>
<path d="M4.5 5C4.22386 5 4 4.77614 4 4.5C4 4.22386 4.22386 4 4.5 4C4.77614 4 5 4.22386 5 4.5C5 4.77614 4.77614 5 4.5 5Z" fill="white" fill-opacity="0.25"/>
<path d="M20 4.5C20 4.77614 19.7761 5 19.5 5C19.2239 5 19 4.77614 19 4.5C19 4.22386 19.2239 4 19.5 4C19.7761 4 20 4.22386 20 4.5Z" fill="white" fill-opacity="0.25"/>
<path fill-rule="evenodd" clip-rule="evenodd" d="M4.5 0H19.5C21.9853 0 24 2.01472 24 4.5V19.5C24 21.9853 21.9853 24 19.5 24H4.5C2.01472 24 0 21.9853 0 19.5V4.5C0 2.01472 2.01472 0 4.5 0ZM4.5 0.5C2.29086 0.5 0.5 2.29086 0.5 4.5V19.5C0.5 21.7091 2.29086 23.5 4.5 23.5H19.5C21.7091 23.5 23.5 21.7091 23.5 19.5V4.5C23.5 2.29086 21.7091 0.5 19.5 0.5H4.5Z" fill="white" fill-opacity="0.25"/>
<path fill-rule="evenodd" clip-rule="evenodd" d="M6 1.5L4.5 1.5C2.84315 1.5 1.5 2.84315 1.5 4.5V19.5C1.5 21.1569 2.84315 22.5 4.5 22.5H6H6.29289C6.74565 22.5 7.17985 22.3201 7.5 22C7.82014 21.6799 8.25435 21.5 8.7071 21.5H15.2929C15.7456 21.5 16.1798 21.6799 16.5 22C16.8201 22.3201 17.2543 22.5 17.7071 22.5H18H19.5C21.1569 22.5 22.5 21.1569 22.5 19.5V4.5C22.5 2.84315 21.1569 1.5 19.5 1.5L18 1.5L17.7071 1.5C17.7069 1.5 17.7067 1.5 17.7065 1.5C17.2539 1.50017 16.82 1.68001 16.5 2C16.1798 2.32014 15.7456 2.5 15.2929 2.5L8.7071 2.5C8.25435 2.5 7.82014 2.32014 7.5 2C7.17985 1.67986 6.74565 1.5 6.29289 1.5H6ZM4.5 0.5C2.29086 0.5 0.5 2.29086 0.5 4.5V19.5C0.5 21.7091 2.29086 23.5 4.5 23.5H19.5C21.7091 23.5 23.5 21.7091 23.5 19.5V4.5C23.5 2.29086 21.7091 0.5 19.5 0.5H4.5Z" fill="#001926"/>
<path fill-rule="evenodd" clip-rule="evenodd" d="M8.70703 2.5C8.25439 2.5 7.82031 2.32007 7.5 2C7.17969 1.67993 6.74561 1.5 6.29297 1.5H4.5C2.84326 1.5 1.5 2.84326 1.5 4.5V19.5C1.5 21.1567 2.84326 22.5 4.5 22.5H6.29297C6.48975 22.5 6.68262 22.4661 6.86426 22.4014C7.10107 22.3171 7.31885 22.1809 7.5 22C7.82031 21.6799 8.25439 21.5 8.70703 21.5H15.293C15.7456 21.5 16.1797 21.6799 16.5 22C16.8203 22.3201 17.2544 22.5 17.707 22.5H19.5C21.1567 22.5 22.5 21.1567 22.5 19.5V4.5C22.5 2.84326 21.1567 1.5 19.5 1.5H17.7065C17.2539 1.50024 16.8198 1.67993 16.5 2C16.2632 2.23682 15.9639 2.39673 15.6411 2.46411C15.5273 2.48779 15.4106 2.5 15.293 2.5H8.70703ZM2 4.5C2 3.11938 3.11914 2 4.5 2H6.29297C6.61328 2 6.91992 2.1272 7.14648 2.35352C7.56055 2.76758 8.12158 3 8.70703 3H15.293C15.8784 3 16.4395 2.76758 16.8535 2.35352C17.0024 2.20459 17.187 2.09863 17.3867 2.04346C17.4902 2.01489 17.5981 2 17.707 2H19.5C20.8809 2 22 3.11938 22 4.5V19.5C22 20.8806 20.8809 22 19.5 22H17.707C17.3867 22 17.0801 21.8728 16.8535 21.6465C16.4395 21.2324 15.8784 21 15.293 21H8.70703C8.12158 21 7.56055 21.2324 7.14648 21.6465C6.91992 21.8728 6.61328 22 6.29297 22H4.5C3.11914 22 2 20.8806 2 19.5V4.5Z" fill="url(#paint1_linear_10865_46567)"/>
<path opacity="0.5" d="M9 2.75C9 2.61193 9.11193 2.5 9.25 2.5H14.75C14.8881 2.5 15 2.61193 15 2.75C15 2.88807 14.8881 3 14.75 3H9.25C9.11193 3 9 2.88807 9 2.75Z" fill="white"/>
<path opacity="0.5" d="M9 21.25C9 21.1119 9.11193 21 9.25 21H14.75C14.8881 21 15 21.1119 15 21.25C15 21.3881 14.8881 21.5 14.75 21.5H9.25C9.11193 21.5 9 21.3881 9 21.25Z" fill="white"/>
<path d="M4.5 1.75C4.5 1.61193 4.61193 1.5 4.75 1.5H5.75C5.88807 1.5 6 1.61193 6 1.75C6 1.88807 5.88807 2 5.75 2H4.75C4.61193 2 4.5 1.88807 4.5 1.75Z" fill="white"/>
<path opacity="0.5" d="M4.5 22.25C4.5 22.1119 4.61193 22 4.75 22H5.75C5.88807 22 6 22.1119 6 22.25C6 22.3881 5.88807 22.5 5.75 22.5H4.75C4.61193 22.5 4.5 22.3881 4.5 22.25Z" fill="white"/>
<path d="M18 1.75C18 1.61193 18.1119 1.5 18.25 1.5H19.25C19.3881 1.5 19.5 1.61193 19.5 1.75C19.5 1.88807 19.3881 2 19.25 2H18.25C18.1119 2 18 1.88807 18 1.75Z" fill="white"/>
<path opacity="0.5" d="M18 22.25C18 22.1119 18.1119 22 18.25 22H19.25C19.3881 22 19.5 22.1119 19.5 22.25C19.5 22.3881 19.3881 22.5 19.25 22.5H18.25C18.1119 22.5 18 22.3881 18 22.25Z" fill="white"/>
<path opacity="0.5" fill-rule="evenodd" clip-rule="evenodd" d="M2 4.5V19.5C2 20.8806 3.1194 22 4.5 22H6.29297C6.61073 22 6.92157 21.8712 7.14672 21.6462C7.56062 21.2325 8.12171 21 8.70703 21H15.293C15.8784 21 16.4393 21.2324 16.8534 21.6464C17.08 21.8727 17.3869 22 17.707 22H19.5C20.8806 22 22 20.8806 22 19.5V4.5C22 3.11941 20.8806 2 19.5 2H17.707C17.3869 2 17.08 2.12732 16.8534 2.35365C16.4393 2.76763 15.8784 3 15.293 3H8.70703C8.12171 3 7.56062 2.76752 7.14672 2.35375C6.92157 2.12884 6.61073 2 6.29297 2H4.5C3.1194 2 2 3.1194 2 4.5ZM21.5 4.5C21.5 3.39549 20.6047 2.5 19.5 2.5H17.707C17.5195 2.5 17.3399 2.57439 17.2069 2.70726C16.6991 3.21495 16.011 3.5 15.293 3.5H8.70703C7.98903 3.5 7.30091 3.21495 6.79312 2.70726C6.66011 2.57439 6.48049 2.5 6.29297 2.5H4.5C3.39531 2.5 2.5 3.39549 2.5 4.5V19.5C2.5 20.6045 3.39531 21.5 4.5 21.5H6.29297C6.48049 21.5 6.66011 21.4256 6.79312 21.2927C7.30091 20.7851 7.98903 20.5 8.70703 20.5H15.293C16.011 20.5 16.6991 20.7851 17.2069 21.2927C17.3399 21.4256 17.5195 21.5 17.707 21.5H19.5C20.6047 21.5 21.5 20.6045 21.5 19.5V4.5Z" fill="black"/>
<path opacity="0.5" d="M8.5 1.75C8.5 1.61193 8.61193 1.5 8.75 1.5H15.25C15.3881 1.5 15.5 1.61193 15.5 1.75C15.5 1.88807 15.3881 2 15.25 2H8.75C8.61193 2 8.5 1.88807 8.5 1.75Z" fill="#76FF33"/>
<path d="M9 1.75C9 1.61193 9.11193 1.5 9.25 1.5H14.75C14.8881 1.5 15 1.61193 15 1.75C15 1.88807 14.8881 2 14.75 2H9.25C9.11193 2 9 1.88807 9 1.75Z" fill="#76FF33"/>
<path opacity="0.5" d="M8.5 22.25C8.5 22.1119 8.61193 22 8.75 22H15.25C15.3881 22 15.5 22.1119 15.5 22.25C15.5 22.3881 15.3881 22.5 15.25 22.5H8.75C8.61193 22.5 8.5 22.3881 8.5 22.25Z" fill="#76FF33"/>
<path d="M9 22.25C9 22.1119 9.11193 22 9.25 22H14.75C14.8881 22 15 22.1119 15 22.25C15 22.3881 14.8881 22.5 14.75 22.5H9.25C9.11193 22.5 9 22.3881 9 22.25Z" fill="#76FF33"/>
<path fill-rule="evenodd" clip-rule="evenodd" d="M11.4697 6.21967C11.7626 5.92678 12.2374 5.92678 12.5303 6.21967L17.7803 11.4697C18.0732 11.7626 18.0732 12.2374 17.7803 12.5303L12.5303 17.7803C12.2374 18.0732 11.7626 18.0732 11.4697 17.7803L6.21967 12.5303C5.92678 12.2374 5.92678 11.7626 6.21967 11.4697L11.4697 6.21967ZM6.75 12L12 6.75L17.25 12L12 17.25L6.75 12Z" fill="white"/>
<path fill-rule="evenodd" clip-rule="evenodd" d="M10.25 8.49996L8.50008 10.2499L10.25 11.9999L12 10.2499L10.25 8.49996ZM10.25 12.0001L8.50008 13.7501L10.25 15.5L12 13.7501L10.25 12.0001ZM12.0002 10.2499L13.7502 8.49996L15.5002 10.2499L13.7502 11.9999L12.0002 10.2499ZM13.7502 12.0001L12.0002 13.7501L13.7502 15.5L15.5002 13.7501L13.7502 12.0001Z" fill="white"/>
<defs>
<radialGradient id="paint0_radial_10865_46567" cx="0" cy="0" r="1" gradientUnits="userSpaceOnUse" gradientTransform="translate(12 24.197) rotate(-90) scale(23.697 20.5789)">
<stop stop-color="#80AAFF"/>
<stop offset="1" stop-color="#202B40"/>
</radialGradient>
<linearGradient id="paint1_linear_10865_46567" x1="12" y1="1.5" x2="12" y2="22.5" gradientUnits="userSpaceOnUse">
<stop stop-color="#607580"/>
<stop offset="1" stop-color="#336680"/>
</linearGradient>
</defs>
</svg>
