<svg width="24" height="24" viewBox="0 0 24 24" fill="none" xmlns="http://www.w3.org/2000/svg">
<path d="M0.5 4.5C0.5 2.29086 2.29086 0.5 4.5 0.5H19.5C21.7091 0.5 23.5 2.29086 23.5 4.5V19.5C23.5 21.7091 21.7091 23.5 19.5 23.5H4.5C2.29086 23.5 0.5 21.7091 0.5 19.5V4.5Z" fill="url(#paint0_radial_5017_26176)"/>
<path d="M2 18L2.41421 17.5858C2.78929 17.2107 3 16.702 3 16.1716V7.82843C3 7.29799 2.78929 6.78929 2.41421 6.41421L2 6V18Z" fill="#00D4FF"/>
<path d="M22 18L21.5858 17.5858C21.2107 17.2107 21 16.702 21 16.1716V7.82843C21 7.29799 21.2107 6.78929 21.5858 6.41421L22 6V18Z" fill="#00D4FF"/>
<path opacity="0.5" fill-rule="evenodd" clip-rule="evenodd" d="M8.33333 19.5C7.57604 19.5 6.83917 19.7456 6.23333 20.2L3.3 22.4L3 22L5.93333 19.8C6.62572 19.2807 7.46785 19 8.33333 19H15.6667C16.5321 19 17.3743 19.2807 18.0667 19.8L21 22L20.7 22.4L17.7667 20.2C17.1608 19.7456 16.424 19.5 15.6667 19.5H8.33333Z" fill="url(#paint1_linear_5017_26176)"/>
<path fill-rule="evenodd" clip-rule="evenodd" d="M5.63353 19.4C6.41246 18.8158 7.35986 18.5 8.33353 18.5H15.6669C16.6405 18.5 17.5879 18.8158 18.3669 19.4L21.3002 21.6L21.0002 22L18.0669 19.8C17.3745 19.2807 16.5323 19 15.6669 19H8.33353C7.46805 19 6.62591 19.2807 5.93353 19.8L3.0002 22L2.7002 21.6L5.63353 19.4Z" fill="url(#paint2_linear_5017_26176)"/>
<path opacity="0.5" fill-rule="evenodd" clip-rule="evenodd" d="M8.33333 4.49976C7.57604 4.49976 6.83917 4.25413 6.23333 3.79976L3.3 1.59976L3 1.99976L5.93333 4.19976C6.62572 4.71904 7.46785 4.99976 8.33333 4.99976H15.6667C16.5321 4.99976 17.3743 4.71904 18.0667 4.19976L21 1.99976L20.7 1.59976L17.7667 3.79976C17.1608 4.25413 16.424 4.49976 15.6667 4.49976H8.33333Z" fill="url(#paint3_linear_5017_26176)"/>
<path fill-rule="evenodd" clip-rule="evenodd" d="M5.63353 4.59976C6.41246 5.18396 7.35986 5.49976 8.33353 5.49976H15.6669C16.6405 5.49976 17.5879 5.18396 18.3669 4.59976L21.3002 2.39976L21.0002 1.99976L18.0669 4.19976C17.3745 4.71904 16.5323 4.99976 15.6669 4.99976H8.33353C7.46805 4.99976 6.62591 4.71904 5.93353 4.19976L3.0002 1.99976L2.7002 2.39976L5.63353 4.59976Z" fill="url(#paint4_linear_5017_26176)"/>
<rect opacity="0.25" width="6" height="0.5" rx="0.25" transform="matrix(1 0 0 -1 9 5.5)" fill="white"/>
<path opacity="0.25" fill-rule="evenodd" clip-rule="evenodd" d="M5 6.5H8V14.5H9V6.5H12V15.5C12 16.6046 11.1046 17.5 10 17.5H7C5.89543 17.5 5 16.6046 5 15.5V6.5ZM19.5 6.5V9.5H17.5V17.5H14.5V9.5H12.5V6.5H19.5Z" fill="black"/>
<path fill-rule="evenodd" clip-rule="evenodd" d="M4.5 0H19.5C21.9853 0 24 2.01472 24 4.5V19.5C24 21.9853 21.9853 24 19.5 24H4.5C2.01472 24 0 21.9853 0 19.5V4.5C0 2.01472 2.01472 0 4.5 0ZM4.5 0.5C2.29086 0.5 0.5 2.29086 0.5 4.5V19.5C0.5 21.7091 2.29086 23.5 4.5 23.5H19.5C21.7091 23.5 23.5 21.7091 23.5 19.5V4.5C23.5 2.29086 21.7091 0.5 19.5 0.5H4.5Z" fill="white" fill-opacity="0.25"/>
<path fill-rule="evenodd" clip-rule="evenodd" d="M6 1.5L4.5 1.5C2.84315 1.5 1.5 2.84315 1.5 4.5V19.5C1.5 21.1569 2.84315 22.5 4.5 22.5H6H6.29289C6.74565 22.5 7.17985 22.3201 7.5 22C7.82014 21.6799 8.25435 21.5 8.7071 21.5H15.2929C15.7456 21.5 16.1798 21.6799 16.5 22C16.8201 22.3201 17.2543 22.5 17.7071 22.5H18H19.5C21.1569 22.5 22.5 21.1569 22.5 19.5V4.5C22.5 2.84315 21.1569 1.5 19.5 1.5L18 1.5L17.7071 1.5C17.7069 1.5 17.7067 1.5 17.7065 1.5C17.2539 1.50017 16.82 1.68001 16.5 2C16.1798 2.32014 15.7456 2.5 15.2929 2.5L8.7071 2.5C8.25435 2.5 7.82014 2.32014 7.5 2C7.17985 1.67986 6.74565 1.5 6.29289 1.5H6ZM4.5 0.5C2.29086 0.5 0.5 2.29086 0.5 4.5V19.5C0.5 21.7091 2.29086 23.5 4.5 23.5H19.5C21.7091 23.5 23.5 21.7091 23.5 19.5V4.5C23.5 2.29086 21.7091 0.5 19.5 0.5H4.5Z" fill="#001926"/>
<path fill-rule="evenodd" clip-rule="evenodd" d="M8.70703 2.5C8.25439 2.5 7.82031 2.32007 7.5 2C7.17969 1.67993 6.74561 1.5 6.29297 1.5H4.5C2.84326 1.5 1.5 2.84326 1.5 4.5V19.5C1.5 21.1567 2.84326 22.5 4.5 22.5H6.29297C6.48975 22.5 6.68262 22.4661 6.86426 22.4014C7.10107 22.3171 7.31885 22.1809 7.5 22C7.82031 21.6799 8.25439 21.5 8.70703 21.5H15.293C15.7456 21.5 16.1797 21.6799 16.5 22C16.8203 22.3201 17.2544 22.5 17.707 22.5H19.5C21.1567 22.5 22.5 21.1567 22.5 19.5V4.5C22.5 2.84326 21.1567 1.5 19.5 1.5H17.7065C17.2539 1.50024 16.8198 1.67993 16.5 2C16.2632 2.23682 15.9639 2.39673 15.6411 2.46411C15.5273 2.48779 15.4106 2.5 15.293 2.5H8.70703ZM2 4.5C2 3.11938 3.11914 2 4.5 2H6.29297C6.61328 2 6.91992 2.1272 7.14648 2.35352C7.56055 2.76758 8.12158 3 8.70703 3H15.293C15.8784 3 16.4395 2.76758 16.8535 2.35352C17.0024 2.20459 17.187 2.09863 17.3867 2.04346C17.4902 2.01489 17.5981 2 17.707 2H19.5C20.8809 2 22 3.11938 22 4.5V19.5C22 20.8806 20.8809 22 19.5 22H17.707C17.3867 22 17.0801 21.8728 16.8535 21.6465C16.4395 21.2324 15.8784 21 15.293 21H8.70703C8.12158 21 7.56055 21.2324 7.14648 21.6465C6.91992 21.8728 6.61328 22 6.29297 22H4.5C3.11914 22 2 20.8806 2 19.5V4.5Z" fill="url(#paint5_linear_5017_26176)"/>
<path opacity="0.5" d="M9 2.75C9 2.61193 9.11193 2.5 9.25 2.5H14.75C14.8881 2.5 15 2.61193 15 2.75C15 2.88807 14.8881 3 14.75 3H9.25C9.11193 3 9 2.88807 9 2.75Z" fill="white"/>
<path opacity="0.5" d="M9 21.25C9 21.1119 9.11193 21 9.25 21H14.75C14.8881 21 15 21.1119 15 21.25C15 21.3881 14.8881 21.5 14.75 21.5H9.25C9.11193 21.5 9 21.3881 9 21.25Z" fill="white"/>
<path opacity="0.75" d="M9 19.25C9 19.1119 9.11193 19 9.25 19H14.75C14.8881 19 15 19.1119 15 19.25C15 19.3881 14.8881 19.5 14.75 19.5H9.25C9.11193 19.5 9 19.3881 9 19.25Z" fill="white"/>
<path d="M4.5 1.75C4.5 1.61193 4.61193 1.5 4.75 1.5H5.75C5.88807 1.5 6 1.61193 6 1.75C6 1.88807 5.88807 2 5.75 2H4.75C4.61193 2 4.5 1.88807 4.5 1.75Z" fill="white"/>
<path opacity="0.5" d="M4.5 22.25C4.5 22.1119 4.61193 22 4.75 22H5.75C5.88807 22 6 22.1119 6 22.25C6 22.3881 5.88807 22.5 5.75 22.5H4.75C4.61193 22.5 4.5 22.3881 4.5 22.25Z" fill="white"/>
<path d="M18 1.75C18 1.61193 18.1119 1.5 18.25 1.5H19.25C19.3881 1.5 19.5 1.61193 19.5 1.75C19.5 1.88807 19.3881 2 19.25 2H18.25C18.1119 2 18 1.88807 18 1.75Z" fill="white"/>
<path opacity="0.5" d="M18 22.25C18 22.1119 18.1119 22 18.25 22H19.25C19.3881 22 19.5 22.1119 19.5 22.25C19.5 22.3881 19.3881 22.5 19.25 22.5H18.25C18.1119 22.5 18 22.3881 18 22.25Z" fill="white"/>
<path opacity="0.5" fill-rule="evenodd" clip-rule="evenodd" d="M2 4.5V19.5C2 20.8806 3.1194 22 4.5 22H6.29297C6.61073 22 6.92157 21.8712 7.14672 21.6462C7.56062 21.2325 8.12171 21 8.70703 21H15.293C15.8784 21 16.4393 21.2324 16.8534 21.6464C17.08 21.8727 17.3869 22 17.707 22H19.5C20.8806 22 22 20.8806 22 19.5V4.5C22 3.11941 20.8806 2 19.5 2H17.707C17.3869 2 17.08 2.12732 16.8534 2.35365C16.4393 2.76763 15.8784 3 15.293 3H8.70703C8.12171 3 7.56062 2.76752 7.14672 2.35375C6.92157 2.12884 6.61073 2 6.29297 2H4.5C3.1194 2 2 3.1194 2 4.5ZM21.5 4.5C21.5 3.39549 20.6047 2.5 19.5 2.5H17.707C17.5195 2.5 17.3399 2.57439 17.2069 2.70726C16.6991 3.21495 16.011 3.5 15.293 3.5H8.70703C7.98903 3.5 7.30091 3.21495 6.79312 2.70726C6.66011 2.57439 6.48049 2.5 6.29297 2.5H4.5C3.39531 2.5 2.5 3.39549 2.5 4.5V19.5C2.5 20.6045 3.39531 21.5 4.5 21.5H6.29297C6.48049 21.5 6.66011 21.4256 6.79312 21.2927C7.30091 20.7851 7.98903 20.5 8.70703 20.5H15.293C16.011 20.5 16.6991 20.7851 17.2069 21.2927C17.3399 21.4256 17.5195 21.5 17.707 21.5H19.5C20.6047 21.5 21.5 20.6045 21.5 19.5V4.5Z" fill="black"/>
<path opacity="0.5" d="M8.5 1.75C8.5 1.61193 8.61193 1.5 8.75 1.5H15.25C15.3881 1.5 15.5 1.61193 15.5 1.75C15.5 1.88807 15.3881 2 15.25 2H8.75C8.61193 2 8.5 1.88807 8.5 1.75Z" fill="#00D4FF"/>
<path d="M9 1.75C9 1.61193 9.11193 1.5 9.25 1.5H14.75C14.8881 1.5 15 1.61193 15 1.75C15 1.88807 14.8881 2 14.75 2H9.25C9.11193 2 9 1.88807 9 1.75Z" fill="#00D4FF"/>
<path opacity="0.5" d="M8.5 22.25C8.5 22.1119 8.61193 22 8.75 22H15.25C15.3881 22 15.5 22.1119 15.5 22.25C15.5 22.3881 15.3881 22.5 15.25 22.5H8.75C8.61193 22.5 8.5 22.3881 8.5 22.25Z" fill="#00D4FF"/>
<path d="M9 22.25C9 22.1119 9.11193 22 9.25 22H14.75C14.8881 22 15 22.1119 15 22.25C15 22.3881 14.8881 22.5 14.75 22.5H9.25C9.11193 22.5 9 22.3881 9 22.25Z" fill="#00D4FF"/>
<path d="M5.5 15.5V7H7.5V15H9.5V7H11.5V15.5C11.5 16.3284 10.8284 17 10 17H7C6.17157 17 5.5 16.3284 5.5 15.5Z" fill="white"/>
<path d="M19 7V9H17V17H15V9H13V7H19Z" fill="white"/>
<path opacity="0.25" fill-rule="evenodd" clip-rule="evenodd" d="M7 15.5V7.5H6V15.5C6 16.0523 6.44771 16.5 7 16.5H10C10.5523 16.5 11 16.0523 11 15.5V7.5H10V15.5H7ZM9.5 7H11.5V15.5C11.5 16.3284 10.8284 17 10 17H7C6.17157 17 5.5 16.3284 5.5 15.5V7H7.5V15H9.5V7ZM15 9V17H17V9H19V7H13V9H15ZM13.5 8.5H15.5V16.5H16.5V8.5H18.5V7.5H13.5V8.5Z" fill="url(#paint6_linear_5017_26176)"/>
<path opacity="0.25" d="M6.29349 16.207C6.47446 16.388 6.72446 16.4999 7.0006 16.4999H10.0006C10.2767 16.4999 10.5267 16.388 10.7077 16.207L11.0613 16.5606C10.7898 16.832 10.4148 16.9999 10.0006 16.9999H7.0006C6.58639 16.9999 6.21139 16.832 5.93994 16.5606L6.29349 16.207Z" fill="#001926"/>
<path opacity="0.25" d="M15.5 16.5L15 17H17L16.5 16.5H15.5Z" fill="#001926"/>
<path d="M6 7.5L5.5 7H7.5L7 7.5H6Z" fill="white"/>
<path d="M7.5 15L7 15.5H10L9.5 15H7.5Z" fill="white"/>
<path d="M10 7.5L9.5 7H11.5L11 7.5H10Z" fill="white"/>
<path d="M13.5 7.5L13 7H19L18.5 7.5H13.5Z" fill="white"/>
<path opacity="0.25" d="M13.5 8.5L13 9H15L15.5 8.5H13.5Z" fill="#001926"/>
<path opacity="0.25" d="M18.5 8.5L19 9H17L16.5 8.5H18.5Z" fill="#001926"/>
<path d="M21.5 5.79297L21.2322 6.06074C20.7634 6.52958 20.5 7.16546 20.5 7.8285V16.1716C20.5 16.8347 20.7634 17.4706 21.2322 17.9394L21.5 18.2072V17.4945C21.1787 17.1303 21 16.6602 21 16.1716V7.8285C21 7.33997 21.1787 6.86987 21.5 6.50562V5.79297Z" fill="black" fill-opacity="0.25"/>
<path d="M2.5 18.2072L2.76777 17.9394C3.23661 17.4706 3.5 16.8347 3.5 16.1716V7.8285C3.5 7.16546 3.23661 6.52958 2.76777 6.06074L2.5 5.79297V6.50562C2.82126 6.86987 3 7.33997 3 7.8285V16.1716C3 16.6602 2.82126 17.1303 2.5 17.4945V18.2072Z" fill="black" fill-opacity="0.25"/>
<defs>
<radialGradient id="paint0_radial_5017_26176" cx="0" cy="0" r="1" gradientUnits="userSpaceOnUse" gradientTransform="translate(12 23.5) rotate(-90) scale(23)">
<stop stop-color="#30BF30"/>
<stop offset="1" stop-color="#3A4030"/>
</radialGradient>
<linearGradient id="paint1_linear_5017_26176" x1="12" y1="19" x2="12" y2="22.4" gradientUnits="userSpaceOnUse">
<stop stop-color="white"/>
<stop offset="1" stop-color="white" stop-opacity="0"/>
</linearGradient>
<linearGradient id="paint2_linear_5017_26176" x1="12.0002" y1="18.5" x2="12.0002" y2="22" gradientUnits="userSpaceOnUse">
<stop stop-opacity="0.5"/>
<stop offset="1" stop-opacity="0"/>
</linearGradient>
<linearGradient id="paint3_linear_5017_26176" x1="12" y1="4.99976" x2="12" y2="1.59976" gradientUnits="userSpaceOnUse">
<stop/>
<stop offset="1" stop-opacity="0"/>
</linearGradient>
<linearGradient id="paint4_linear_5017_26176" x1="12.0002" y1="5.49976" x2="12.0002" y2="1.99976" gradientUnits="userSpaceOnUse">
<stop stop-color="white" stop-opacity="0.25"/>
<stop offset="1" stop-color="white" stop-opacity="0"/>
</linearGradient>
<linearGradient id="paint5_linear_5017_26176" x1="12" y1="1.5" x2="12" y2="22.5" gradientUnits="userSpaceOnUse">
<stop stop-color="#607580"/>
<stop offset="1" stop-color="#336680"/>
</linearGradient>
<linearGradient id="paint6_linear_5017_26176" x1="12" y1="7" x2="12" y2="17" gradientUnits="userSpaceOnUse">
<stop stop-color="#001926" stop-opacity="0"/>
<stop offset="1" stop-color="#001926"/>
</linearGradient>
</defs>
</svg>
