<svg width="24" height="24" viewBox="0 0 24 24" fill="none" xmlns="http://www.w3.org/2000/svg">
<path d="M0.5 4.5C0.5 2.29086 2.29086 0.5 4.5 0.5H19.5C21.7091 0.5 23.5 2.29086 23.5 4.5V19.5C23.5 21.7091 21.7091 23.5 19.5 23.5H4.5C2.29086 23.5 0.5 21.7091 0.5 19.5V4.5Z" fill="url(#paint0_radial_33603_88732)"/>
<path d="M2.01955 16.9642V14.4139C2.04744 14.3819 2.07805 14.3629 2.12154 14.3864C2.3651 14.5044 2.64377 14.4059 2.9004 14.4672C3.23211 14.518 3.36003 14.8685 3.60184 15.0573C4.0211 15.4309 4.6814 15.4202 5.15741 15.1576C5.44251 14.9545 5.67203 14.673 6.04957 14.6619C6.19368 14.6469 6.32628 14.5951 6.45557 14.5313C6.93763 14.3348 6.78162 13.8195 6.67164 13.4298C6.50686 12.9179 5.86158 13.1619 5.5172 13.3344C4.8569 13.6972 4.77266 12.9477 5.27032 12.6353C5.57219 12.3366 5.53709 11.9572 6.06361 11.8955C6.76329 11.6424 8.34382 12.4742 8.45225 11.3387C8.28708 10.8646 7.62483 11.1037 7.29976 10.8152C6.69524 10.0948 7.56965 9.30909 8.3723 9.45238C8.71512 9.45958 9.02479 9.61591 9.27908 9.83162C10.0505 10.4081 11.0634 10.0201 11.85 9.67782C12.3912 9.46893 12.5306 10.3693 13.2947 10.1373C14.9473 9.64356 12.8266 8.8584 14.1972 8.4776C15.1361 7.95527 13.9526 6.99801 12.6515 7.74949C12.2182 7.82969 11.6944 7.90523 11.2923 7.67843C10.9546 7.45512 11.3015 6.99392 11.6344 7.0459C12.0394 7.07471 12.4355 7.03733 12.8044 6.86387C14.1695 6.19436 15.1186 7.83261 15.5589 6.87653C15.7363 6.51889 16.1897 6.54965 16.5306 6.52318C17.0723 6.49942 17.6464 6.08417 17.5936 5.49856C17.5727 5.3174 17.5927 5.13388 17.6521 4.96143C17.8114 4.48523 18.3978 4.48309 18.6866 4.12118C19.63 2.94315 14.5688 3.49508 15.5837 4.49185C15.8514 4.76129 16.9003 4.47063 16.6088 5.10238C15.8442 5.7059 14.7406 5.33347 13.8717 5.69655C13.3837 5.91185 12.8629 6.04348 12.3311 6.08592C11.7834 6.14841 11.1968 6.37794 10.6638 6.14432C10.3058 5.97865 10.2132 5.46293 10.5595 5.23379C10.6695 5.14073 10.7951 5.07181 10.9208 5.00504C11.226 4.84306 11.259 4.5487 10.9922 4.3252C10.7331 4.10696 10.3777 4.13772 10.0599 4.12488C9.60025 4.14765 9.4421 3.49546 10.0055 3.52428C10.4483 3.54375 10.9331 3.43375 11.315 3.72149C11.7598 4.00495 12.2611 4.34292 12.8151 4.22183C13.6975 4.14259 14.6156 3.09909 13.3754 2.69064C13.1371 2.59759 12.7644 2.29369 12.8218 2.03476C13.6121 2.14943 15.4101 1.7622 15.9204 2.26838C16.092 2.4578 16.3104 2.54093 16.5563 2.5277C16.9961 2.50609 17.4118 2.60752 17.8288 2.72978C18.89 3.12148 19.3641 2.47669 20.458 2.61005C20.8779 2.62153 21.0456 2.38363 21.186 2.03476C21.36 2.06805 21.9573 1.95688 21.9869 2.09316C21.9848 2.59272 21.9855 3.09247 21.9855 3.59222C21.5218 3.70261 19.5047 2.9632 19.8871 4.08769C20.3598 4.83021 21.3728 4.21969 21.911 5.10004C22.0866 5.59142 21.9401 6.16613 21.9855 6.6869C21.4452 6.45932 20.8165 6.32109 20.2038 6.4418C19.5934 6.54887 20.1687 7.16777 20.5181 7.20243C21.1004 7.29042 21.2722 7.98661 21.0132 8.45268C20.8795 8.70713 20.6164 8.85295 20.4553 9.08501C20.3383 9.39047 20.4319 9.61436 20.0825 9.8104C19.6823 10.073 19.1765 10.1044 18.7108 10.0658C18.2482 9.99185 17.8069 10.2453 17.3496 10.1589C17.0712 10.1114 16.8719 9.76815 17.0571 9.52792C17.4503 8.91194 18.328 9.40293 18.8216 9.00383C19.1187 8.69798 19.6061 8.74276 19.889 8.42796C20.4134 7.70276 19.3625 7.37063 18.7882 7.52171C18.538 7.56921 18.3453 7.70315 18.2593 7.9465C17.7718 9.08871 16.1047 8.07266 15.6833 8.83465C15.592 9.17826 15.3775 9.49521 15.0601 9.66906C14.5998 9.84739 14.5567 10.4478 15.0115 10.6619C15.4343 10.9131 17.7654 11.2931 18.2475 11.4422C18.5872 11.5647 18.9781 11.9663 18.6484 12.3049C18.5626 12.3738 18.4799 12.4536 18.5205 12.573C18.5985 12.8765 18.9565 12.9277 19.125 13.1663C19.3656 13.4346 18.8434 13.4389 18.7798 13.5989C18.8795 13.876 19.3333 13.963 19.3508 14.3193C19.3898 14.5529 19.5129 14.7328 19.7018 14.8714C19.7915 14.9718 19.6772 15.3526 19.7018 15.4955C19.8648 16.65 20.5322 16.0652 21.3061 15.7225C21.6714 15.5972 21.1609 15.1171 21.5791 15.0672C21.6384 15.056 21.6945 15.0321 21.7437 14.9972C21.7928 14.9623 21.8339 14.9173 21.864 14.8652C21.8902 14.8219 21.9179 14.77 21.9857 14.8034V16.4582C21.8436 16.5272 21.6552 16.3677 21.493 16.3782C20.9969 16.2809 21.0277 16.6629 21.3428 16.8904C21.5261 17.052 21.7882 17.0349 21.9863 17.1394V19.3199C21.9575 19.3588 21.9188 19.3629 21.8736 19.3573C20.9499 19.1163 21.7135 17.8635 20.0113 18.2626C19.4033 18.4218 18.3502 18.6868 18.009 17.9791C17.97 17.829 17.8953 17.7093 17.7539 17.6287C17.4625 17.4632 17.5602 17.046 17.7611 16.9208C17.9686 16.8126 18.2186 16.6023 18.0109 16.3681C17.6404 16.0062 17.0996 15.8586 16.6568 15.594C16.2927 15.428 16.1082 15.0731 15.8514 14.791C14.9934 14.0379 14.7759 15.6155 13.9971 15.1231C13.7137 14.8813 13.5517 14.4596 13.1135 14.5015C12.569 14.5311 12.0242 14.5102 11.4807 14.4635C11.0127 14.4258 10.0291 14.2062 10.3543 13.5581C10.729 13.1039 11.0174 13.6017 11.3635 13.7615C12.1543 13.9967 13.072 14.0381 13.8255 13.6642C14.2596 13.4239 14.1078 12.9177 13.6192 12.9265C12.8939 12.8552 11.9772 13.3488 11.3651 12.8169C10.929 11.6213 13.9538 12.5564 13.3931 11.2814C12.7432 10.5002 11.962 10.5438 11.0453 10.7054C10.6338 10.8222 10.141 10.695 9.78629 10.9658C9.61624 11.1216 9.59596 11.2546 9.74437 11.4292C10.0868 11.8242 10.1264 12.6329 9.53922 12.8025C9.08524 12.8922 8.61118 12.8745 8.1808 13.075C7.83661 13.2286 7.68334 13.6809 7.92924 14.0407C8.19659 14.3522 8.66832 14.3588 9.04702 14.4184C9.46531 14.4411 9.68625 14.8836 10.1196 14.8354C10.563 14.8694 11.0523 14.6341 11.4608 14.8632C11.7442 15.0267 11.6782 15.3633 11.4446 15.4955C10.9493 15.6959 10.3883 15.6347 9.86819 15.581C9.26367 15.5245 8.68236 15.3573 8.11898 15.1358C7.58018 14.9783 6.76953 15.0248 6.66345 15.7231C6.57862 16.1851 6.87289 16.7978 7.42027 16.642C7.54332 16.6118 7.65798 16.6148 7.75978 16.7018C8.06789 16.9401 7.91169 17.4486 7.50861 17.4585C7.01349 17.5125 6.59208 17.2142 6.14512 17.0532C5.50452 16.7285 5.04938 17.8341 5.80971 17.9441C6.2789 17.9684 6.74282 17.7661 7.21005 17.9211C7.4035 17.9746 7.60104 17.9731 7.79897 17.9727C8.23852 18.0069 8.7081 17.7071 9.11332 17.9661C9.63263 18.4722 8.96024 18.4761 8.95927 18.8199C9.21668 19.5118 10.3074 19.2985 10.8534 19.1054C11.4041 18.8933 11.9407 19.2885 12.5029 19.1305C14.0179 18.8476 13.8615 19.9511 15.0051 19.6699C15.2705 19.6008 15.5121 19.471 15.7744 19.3931C16.1513 19.2736 16.4501 19.8488 16.0211 19.9886C14.9834 20.3361 15.4403 20.7771 14.1063 20.7304C13.7894 20.7625 13.7426 21.0973 14.0037 21.2476C14.3729 21.4229 14.8138 21.3656 15.21 21.328C15.5858 21.3 15.9273 21.1445 16.2205 20.9112C17.0591 20.2723 18.2363 20.1909 19.186 20.6258C19.4517 20.7552 20 21 19.5 21C19 21 18.4883 21.0678 18.001 21.3884C17.6823 21.5502 17.9319 21.8002 17.8132 21.9664C16.2859 21.8691 14.5587 22.1611 13.1256 21.8584C12.6556 21.1491 11.6796 21.453 10.9661 21.4106C10.3772 21.4014 10.157 20.8137 9.84031 20.421C9.376 19.8284 8.60806 19.6754 7.90038 19.5948C7.29157 19.5479 6.82062 19.1133 6.2319 18.9977C4.86685 18.7553 4.60925 17.6919 3.87407 18.2293C3.41912 18.7012 2.61003 18.84 2.01955 18.5799C2.0683 18.3377 1.86998 17.8646 2.19603 17.8035C2.66113 17.6641 3.16736 17.6717 3.61042 17.4679C4.04821 17.1832 3.33351 16.8394 3.0449 16.9043C2.71105 16.9253 2.33293 17.1176 2.01955 16.9642Z" fill="#76FF33" fill-opacity="0.25"/>
<path d="M4.37914 2.03476C3.8961 2.75917 3.00356 2.9706 2.18024 2.7545C1.85068 2.6229 2.08761 3.99288 2.01955 4.23429C2.56557 4.2777 3.10204 4.38672 3.64689 4.25823C4.1149 4.15252 5.14844 4.10034 4.92594 4.84228C4.78592 5.20439 5.03261 5.66735 5.5211 5.67747C6.28163 5.78533 7.08486 5.16117 7.7393 5.7569C8.26582 6.2954 9.63711 5.62705 9.23696 4.86525C8.85377 4.32832 8.15213 5.15416 7.68626 4.71262C7.42651 4.55006 7.25003 4.15505 7.50393 3.90391C7.92534 3.62357 8.40701 3.50637 7.95245 2.93556C7.82803 2.65599 7.51524 2.62698 7.30756 2.71868C6.97332 2.86703 7.00939 3.34167 6.66169 3.47794C6.12308 3.76257 5.19212 3.75537 5.03007 3.03173C4.93842 2.64626 5.36685 2.41517 5.33467 2.03476H4.37914Z" fill="#76FF33" fill-opacity="0.25"/>
<path d="M2.01955 21.227C3.44583 22.0332 3.85262 20.8034 4.82317 21.4217C5.05035 21.5693 5.29118 21.6543 5.56751 21.6263C6.30737 21.4063 6.11255 20.7617 7.24321 20.9659C7.83447 21.0226 7.93489 21.4982 7.48638 21.8562C7.45128 21.8843 7.40838 21.9103 7.43977 21.967H9.41032C9.00899 21.6395 8.91325 21.132 8.63029 20.7263C7.64082 19.808 6.76485 20.8774 5.37133 19.9427C3.7674 19.8969 4.57356 21.2404 2.02072 20.5267L2.01955 21.227Z" fill="#76FF33" fill-opacity="0.25"/>
<path d="M2.01955 11.0276C2.27306 11.1814 2.60652 10.9178 2.88109 11.0523C3.3339 11.3784 2.47704 11.8213 2.15079 11.7779C1.86569 11.7452 2.08527 13.003 2.01955 13.266C3.27091 13.2096 2.70208 11.9782 3.73561 11.9198C4.05582 11.8951 4.41989 11.9548 4.70714 11.788C5.1734 11.2536 4.34209 11.2709 4.19057 10.9604C3.76408 9.77653 2.93979 10.2776 2.01955 10.1322V11.0276Z" fill="#76FF33" fill-opacity="0.25"/>
<path d="M4.6463 7.90971C4.71572 7.88849 4.8103 7.88051 4.81303 7.77596C4.78514 7.58946 4.43822 7.65448 4.28885 7.63852C3.65644 7.67745 3.7635 7.10703 3.36608 7.01086C3.01409 6.97406 2.40957 7.24467 2.60204 7.66791C3.11861 8.18402 4.01213 8.06468 4.6463 7.90971Z" fill="#76FF33" fill-opacity="0.25"/>
<path fill-rule="evenodd" clip-rule="evenodd" d="M16.7988 7H14.8594C14.8543 7.09033 14.805 7.15744 14.7004 7.16995C14.6059 7.18167 14.6349 7.05817 14.6334 7H13V9H13.7256C13.702 8.94503 13.6019 8.79861 13.665 8.74807C13.719 8.70458 13.7563 8.74364 13.7917 8.78081C13.8512 8.84289 13.8765 8.9189 13.9007 9H19V7H17.9217C18.0324 7.15717 17.8779 7.25127 17.7112 7.26448C17.6629 7.31272 17.6128 7.36744 17.5382 7.33776C17.4787 7.29084 17.4859 7.23324 17.4931 7.17585C17.4971 7.14362 17.5012 7.11145 17.4934 7.08128C17.5129 7.05436 17.5319 7.02713 17.5512 7H17.168C17.1505 7.05281 17.1024 7.10518 17.0727 7.1519C16.9859 7.28822 16.8992 7.42451 16.8857 7.59462C16.9548 7.67156 16.9299 7.72946 16.8495 7.77782H16.852C16.8602 7.84214 16.8258 7.88443 16.7911 7.92706C16.7734 7.94879 16.7557 7.9706 16.7435 7.99547C16.7576 8.04567 16.7956 8.09513 16.7464 8.14679C16.6928 8.21751 16.6439 8.28823 16.6378 8.38423C16.6298 8.43776 16.6155 8.49015 16.5954 8.54032C16.5842 8.57696 16.5614 8.6103 16.5205 8.60041C16.4305 8.57864 16.5127 8.30681 16.5334 8.26702C16.5533 8.22857 16.5732 8.19018 16.5835 8.14936C16.5478 8.1235 16.5405 8.07143 16.5672 8.03651C16.6273 7.93281 16.6302 7.81849 16.632 7.70344C16.6229 7.65031 16.6208 7.59828 16.6617 7.55504C16.7283 7.44983 16.7566 7.32441 16.7417 7.20036C16.7311 7.12457 16.7534 7.05631 16.7988 7ZM13.3889 8.64914C13.4196 8.54765 13.4612 8.43699 13.58 8.41171C13.7206 8.38108 13.6561 8.73929 13.4833 8.75101C13.4189 8.75614 13.3726 8.70594 13.3889 8.64914ZM18.7626 7.17361L18.763 7.16388C18.7644 7.12298 18.7663 7.07079 18.8115 7.07248C19.0837 7.08105 18.7494 7.47895 18.7626 7.17361ZM17.0797 7.49422C17.0721 7.44256 17.109 7.41654 17.1521 7.41324C17.263 7.39237 17.2446 7.54483 17.1582 7.5763C17.138 7.5734 17.1193 7.56376 17.105 7.5489C17.0908 7.53403 17.0819 7.51479 17.0797 7.49422ZM18.1151 7.38833C18.1137 7.43669 18.1173 7.49825 18.1701 7.50998C18.4274 7.5671 18.1237 7.10306 18.1151 7.38833ZM17.7872 8.2787C17.7778 8.22521 17.7543 8.1904 17.7054 8.19956V8.19809C17.6816 8.20042 17.6596 8.21219 17.6443 8.23086C17.6289 8.24953 17.6215 8.27358 17.6236 8.29776C17.6255 8.31548 17.6341 8.33179 17.6476 8.34321C17.6611 8.35464 17.6785 8.36028 17.696 8.35895C17.7072 8.35984 17.7185 8.35847 17.7292 8.35491C17.7399 8.35134 17.7498 8.34566 17.7583 8.33819C17.7667 8.33072 17.7737 8.32161 17.7787 8.3114C17.7836 8.30118 17.7865 8.29007 17.7872 8.2787Z" fill="white"/>
<path fill-rule="evenodd" clip-rule="evenodd" d="M10.1099 7.23773C10.0151 7.22564 10.0296 7.14869 10.0473 7.08054C10.0544 7.05327 10.0661 7.02851 10.0739 7H9L8.65111 8.74444C8.7083 8.76401 8.75145 8.81104 8.75199 8.87265C8.75199 8.96027 8.67028 9.02416 8.59334 9.0333L8.47496 9.62519C8.5615 9.57631 8.64793 9.56039 8.73317 9.64504L8.73643 9.64797C8.83125 9.70477 8.81714 9.76779 8.74837 9.83668C8.61483 9.96895 8.61519 9.96932 8.80556 10.0232C8.89411 10.1649 8.75649 10.3703 8.59709 10.2313C8.52109 10.1727 8.47694 10.2111 8.44798 10.2841C8.43314 10.3207 8.4165 10.3515 8.37126 10.3387C8.36078 10.3366 8.35083 10.3324 8.34201 10.3263C8.33982 10.3248 8.33772 10.3232 8.33571 10.3215L8.25 10.75L8.48758 11.9379C8.50885 11.9411 8.53161 11.9488 8.55366 11.9589L8.56417 11.9773C8.57372 11.994 8.58332 12.0108 8.59311 12.0274L8.59564 12.0307C8.74294 12.0798 8.7918 12.1993 8.72955 12.3568C8.67498 12.3698 8.62192 12.3651 8.57059 12.3529L9.25 15.75L9.80469 12.9766C9.79852 12.9731 9.79217 12.9692 9.78563 12.9651C9.70709 12.9156 9.62711 12.8841 9.55074 12.9863C9.5084 13.0428 9.44144 13.0189 9.38716 12.9823L9.38137 12.9138V12.9116C9.29812 12.7529 9.35676 12.65 9.5131 12.5965C9.56352 12.5806 9.60698 12.5476 9.63616 12.503L9.64882 12.4052C9.73677 12.3001 9.75305 12.1766 9.74473 12.0465C9.74473 11.9487 9.89284 11.9744 9.85005 12.0692C9.82833 12.1311 9.8182 12.1839 9.88769 12.2183L9.88986 12.222C9.90553 12.25 9.92419 12.2667 9.9447 12.2765L10.1561 11.2197C10.0243 11.2174 9.95886 11.2163 9.93511 11.1842C9.89173 11.1257 9.95336 10.8623 10.0748 10.893C10.1462 10.8986 10.1548 10.9118 10.209 10.955L10.4429 9.78549C10.3681 9.85087 10.1149 9.82354 10.2083 9.69414C10.2751 9.5889 10.1603 9.58254 10.0922 9.54538C10.0153 9.50523 9.94975 9.44613 9.90144 9.37354C9.82037 9.25041 9.93999 9.2439 10.0287 9.23749C10.1078 9.23178 10.1886 9.22594 10.2586 9.27973C10.3062 9.29024 10.3372 9.32327 10.3689 9.35693C10.4057 9.39613 10.4437 9.42131 10.5102 9.44912L11 7H10.2176C10.2139 7.08443 10.2417 7.25655 10.1099 7.23773ZM9.92243 8.91442C9.94197 8.96352 10.0097 8.96316 10.0505 8.93677C10.1494 8.87412 10.1128 8.79607 10.0466 8.69458C10.0294 8.72856 10.002 8.75246 9.9765 8.77469C9.93329 8.81238 9.89557 8.84528 9.92243 8.91442ZM9.82001 10.1159C9.81675 10.0617 9.79105 10.0213 9.73279 10.0213H9.73025C9.68046 10.0219 9.6404 10.065 9.64158 10.1144C9.6376 10.1741 9.6756 10.202 9.73134 10.2016C9.78707 10.2013 9.82399 10.1782 9.82001 10.1159ZM9.39439 11.1349C9.38607 11.2173 9.33287 11.2448 9.25578 11.2448C9.1834 11.2305 9.10052 11.2045 9.11101 11.1162C9.12138 11.0303 9.20069 11.0231 9.2683 11.017C9.27861 11.016 9.28865 11.0151 9.29812 11.014C9.36978 11.0052 9.40127 11.0641 9.39439 11.1349ZM8.96227 10.5889C8.96227 10.5244 8.92024 10.5223 8.88127 10.5203C8.8647 10.5195 8.84867 10.5186 8.83668 10.5131C8.75525 10.5263 8.69119 10.5479 8.70603 10.6362C8.7266 10.809 8.96227 10.7619 8.96227 10.5889ZM8.30249 10.8839C8.28765 10.8055 8.33868 10.774 8.39949 10.7553C8.43857 10.7424 8.47187 10.7553 8.47694 10.8135C8.47065 10.8415 8.45798 10.8675 8.43994 10.8896C8.4219 10.9117 8.399 10.9292 8.37307 10.9407C8.32964 10.9597 8.30973 10.9216 8.30249 10.8839ZM9.49302 9.4948C9.49378 9.53695 9.49454 9.57909 9.52975 9.61317C9.52694 9.63126 9.5208 9.64866 9.51166 9.66446C9.49284 9.69341 9.46243 9.69048 9.42009 9.65201C9.34653 9.57158 9.37006 9.62234 9.3459 9.48272C9.3459 9.38053 9.4911 9.38882 9.49302 9.4948ZM9.43203 9.18044C9.3886 9.17311 9.3734 9.20865 9.36327 9.23503H9.36146C9.36508 9.279 9.38245 9.30428 9.41756 9.30392C9.46352 9.30355 9.47474 9.26508 9.47474 9.22844C9.46977 9.20639 9.45317 9.18774 9.43203 9.18044ZM9.70202 8.53226C9.74074 8.45736 9.81696 8.50603 9.85765 8.55424C9.871 8.57186 9.8779 8.59361 9.87719 8.6158C9.8734 8.70592 9.6594 8.72148 9.67922 8.6103C9.68298 8.58329 9.69066 8.55699 9.70202 8.53226Z" fill="white"/>
<path fill-rule="evenodd" clip-rule="evenodd" d="M15 16V17H17V9.5H15V14.5C15.0046 14.4551 15.0534 14.7465 15.0684 14.7031C15.1495 14.6994 15.1247 14.6515 15.1919 14.618C15.2213 14.664 15.3419 14.7993 15.3265 14.8651L15.3255 14.8697C15.2987 15.0162 15.1807 15.0829 15.0602 15.0291C15.0411 15.02 15.0221 15.0087 15.0055 14.9954C15.0029 14.985 15.0011 14.9747 15 14.9646V15.6246C15.0583 15.6371 15.0633 15.6818 15.0684 15.7265C15.0974 15.9814 15 16 15 16ZM15.6957 13.5044C15.7062 13.5015 15.717 13.5 15.7279 13.5C15.6975 13.3914 15.7551 13.3221 15.8155 13.2496C15.8498 13.2084 15.8849 13.1661 15.9053 13.1149C15.7647 13.1683 15.6403 12.9371 15.5792 12.9772C15.5285 13.0102 15.543 13.0604 15.5647 13.1076C15.5796 13.141 15.5854 13.1779 15.5814 13.2143C15.5725 13.2952 15.489 13.3237 15.4825 13.3952C15.4747 13.4811 15.5413 13.5439 15.6139 13.5645C15.6473 13.5739 15.6816 13.5627 15.6957 13.5044ZM15.767 13.6451C15.8216 13.6411 15.8718 13.6759 15.9031 13.7214C15.903 13.7486 15.8991 13.7758 15.8915 13.802C15.8835 13.8318 15.8657 13.8581 15.8411 13.8764C15.6559 14.0139 15.5707 13.6675 15.767 13.6451ZM15.7898 11.9157C15.7334 11.9117 15.6794 11.8886 15.687 11.8212C15.6935 11.7625 15.7493 11.7541 15.7974 11.757C15.9751 11.7681 15.9473 11.9395 15.7898 11.9157ZM15.4113 10.9769C15.362 10.9835 15.3457 11.0249 15.3407 11.0645C15.3356 11.0986 15.3628 11.1169 15.3968 11.1111C15.4682 11.0991 15.5034 10.9648 15.4113 10.9769ZM15.4771 11.9377C15.6159 11.9532 15.5291 12.1823 15.4262 12.0729C15.4119 12.0576 15.4036 12.0375 15.4029 12.0164C15.3997 11.9699 15.425 11.9333 15.4771 11.9377Z" fill="white"/>
<path fill-rule="evenodd" clip-rule="evenodd" d="M7.11149 17H9L8.84834 16.2417C8.82109 16.2634 8.78786 16.2762 8.75308 16.2782C8.7111 16.2833 8.64088 16.2705 8.65536 16.2313C8.68025 16.1626 8.75072 16.1228 8.81732 16.0866L7 7H5L5.46055 9.30273C5.48644 9.28871 5.51857 9.28304 5.55061 9.27739C5.57441 9.27319 5.59815 9.269 5.61924 9.26141C5.67932 9.24163 5.74953 9.23027 5.78066 9.29512C5.80057 9.33624 5.81092 9.38142 5.81092 9.42721C5.81092 9.473 5.80057 9.51819 5.78066 9.55931C5.73506 9.64871 5.66086 9.69854 5.57075 9.58935C5.54888 9.56514 5.5265 9.54142 5.50364 9.51818L6.54752 14.7376C6.63293 14.7501 6.68762 14.807 6.73322 14.8748C6.74936 14.8792 6.76505 14.8864 6.78074 14.8935C6.81961 14.9111 6.85852 14.9288 6.90441 14.9056C7.04353 14.8347 7.07633 15.027 7.09537 15.1286C7.1128 15.2215 7.13089 15.318 7.23629 15.3893C7.02729 15.3429 6.95945 15.4604 6.89325 15.5749C6.83821 15.6702 6.80949 15.6851 6.79816 15.8013C6.79245 15.8598 6.78675 15.9183 6.84614 15.959C6.88171 15.9833 6.98615 15.9167 7.04326 15.9106C7.20034 15.8939 7.1769 16.0003 7.16173 16.1052C7.15752 16.1388 7.14508 16.1708 7.12554 16.1983C7.11113 16.2001 7.09663 16.2009 7.08211 16.2008C7.03615 16.2019 6.99163 16.2038 6.98403 16.2771C7.0386 16.3546 7.03501 16.4754 7.02276 16.5676C7.03128 16.5743 7.03824 16.5827 7.04314 16.5924C7.05811 16.622 7.05105 16.6593 7.02601 16.6812C6.9917 16.807 6.98415 16.926 7.11149 17ZM6.76739 8.4698C6.75759 8.42226 6.74725 8.37211 6.7857 8.33513L6.78606 8.33696L6.85085 8.25782C6.85439 8.20843 6.88186 8.17297 6.90935 8.13748C6.91551 8.12952 6.92168 8.12157 6.92757 8.11345C6.92554 8.10305 6.92509 8.09202 6.92463 8.08095C6.92339 8.05068 6.92214 8.02011 6.88849 8.00133C6.87148 7.91156 6.84071 7.8522 6.74372 7.92805C6.72008 7.9601 6.71113 7.99986 6.70221 8.03948C6.6835 8.12258 6.67713 8.22266 6.60112 8.25782C6.4901 8.36547 6.56779 8.38725 6.55489 8.52159C6.55251 8.54642 6.54455 8.57037 6.53164 8.59162C6.52146 8.60624 6.50928 8.61932 6.49545 8.63045C6.4829 8.65445 6.46772 8.67695 6.4502 8.69751C6.47005 8.73653 6.45532 8.77555 6.44061 8.81454C6.42258 8.86232 6.40457 8.91004 6.4502 8.95766L6.49472 8.94777C6.50868 8.94924 6.52275 8.94924 6.5367 8.94777C6.608 8.94081 6.64166 8.89574 6.63297 8.8078C6.62791 8.71839 6.63732 8.64365 6.73648 8.59418C6.78776 8.5686 6.77788 8.52069 6.76739 8.4698ZM7.61196 13.2399C7.7303 13.2058 7.73863 13.189 7.68108 13.0996L7.65466 13.0922L7.54609 12.8332C7.51789 12.7948 7.47369 12.802 7.43245 12.8075C7.3911 12.8332 7.4121 12.8302 7.38155 12.8963C7.35889 12.9453 7.33633 12.9941 7.28406 13.0222C7.26551 13.0178 7.24726 13.0122 7.22941 13.0054C7.10165 12.9563 7.12011 12.8702 7.28261 12.691L7.3188 12.6544C7.33157 12.5801 7.32851 12.5047 7.32545 12.4293C7.32104 12.3208 7.31664 12.2122 7.35934 12.107C7.37291 12.0622 7.4281 12.0441 7.4281 11.9963C7.43313 11.987 7.43644 11.9768 7.43787 11.9663C7.46136 11.967 7.48487 11.9655 7.50809 11.9619C7.52673 11.9569 7.55023 11.9585 7.57355 11.9601C7.62221 11.9635 7.67009 11.9668 7.67131 11.9098C7.67298 11.8383 7.6249 11.8431 7.57555 11.8481C7.55009 11.8506 7.52429 11.8532 7.50483 11.8453C7.48102 11.7959 7.43607 11.7812 7.3911 11.7665C7.36771 11.7589 7.34431 11.7512 7.32387 11.7387C7.2941 11.6863 7.22746 11.7042 7.17549 11.6955C7.0347 11.8168 6.92287 11.9523 6.933 12.1572L6.93349 12.1672C6.93556 12.2121 6.93751 12.2545 6.98837 12.248C7.13848 12.2281 7.12836 12.3144 7.11928 12.3918C7.11582 12.4213 7.11251 12.4495 7.1183 12.4701C7.13929 12.5444 7.13676 12.6709 6.9967 12.6932C6.86487 12.7139 6.87846 12.8067 6.89059 12.8895C6.89325 12.9077 6.89583 12.9253 6.89681 12.9416C6.91165 13.1824 7.08645 13.3367 7.28406 13.2656L7.35536 13.2373C7.40567 13.1872 7.45525 13.2061 7.5048 13.2249C7.54044 13.2385 7.57607 13.252 7.61196 13.2399ZM7.87507 15.3108C7.88158 15.2551 7.92827 15.2376 7.98364 15.2291C8.01984 15.2409 8.05277 15.261 8.05096 15.3119C8.05341 15.3615 8.01025 15.4039 7.96048 15.3984C7.90873 15.398 7.86819 15.3702 7.87507 15.3108ZM7.61268 11.6079C7.65973 11.5683 7.70859 11.5214 7.65973 11.4613C7.60906 11.399 7.53921 11.4005 7.47334 11.4511C7.47451 11.4686 7.47108 11.487 7.46764 11.5054C7.43953 11.6562 7.52715 11.6176 7.61268 11.5808C7.61123 11.5898 7.61123 11.5989 7.61268 11.6079ZM5.80563 10.1305C5.8193 10.0577 5.86307 10.0712 5.90579 10.0845C5.91849 10.0884 5.9311 10.0923 5.9428 10.0939C5.94759 10.1188 5.9472 10.1445 5.94166 10.1693C5.93611 10.1941 5.92553 10.2175 5.91059 10.2379C5.84725 10.228 5.79116 10.2071 5.80563 10.1305ZM6.74227 10.1642C6.72766 10.1184 6.73546 9.95288 6.62928 10.041C6.57584 10.0854 6.5957 10.2074 6.5957 10.2672C6.40073 10.4062 6.74227 10.5903 6.74227 10.1642ZM8.08886 14.7308C8.10196 14.6771 8.11555 14.6215 8.17763 14.6095C8.23988 14.5971 8.27716 14.6619 8.2768 14.7165C8.2768 14.8621 8.04368 14.8547 8.0734 14.7839C8.07983 14.7677 8.08432 14.7494 8.08886 14.7308ZM6.51463 10.9073C6.50432 10.9204 6.50135 10.9391 6.49839 10.9577C6.49303 10.9915 6.4877 11.025 6.43899 11.0246C6.41812 11.0222 6.39871 11.0126 6.38406 10.9973C6.36942 10.9821 6.36043 10.9622 6.35864 10.941C6.35321 10.878 6.39483 10.8425 6.45382 10.8359C6.49544 10.8315 6.51535 10.8626 6.51463 10.9073ZM6.66107 11.0759C6.624 11.0899 6.58566 11.1044 6.61307 11.1587C6.637 11.2058 6.67805 11.1806 6.71303 11.1591L6.71911 11.1554C6.7503 11.1397 6.78245 11.1262 6.81538 11.1147C6.78751 11.0561 6.7477 11.0363 6.68545 11.066C6.67798 11.0696 6.66946 11.0728 6.66107 11.0759ZM7.13051 13.736C7.15207 13.7773 7.26678 13.855 7.27067 13.7408C7.2701 13.7268 7.26638 13.7132 7.2598 13.7009C7.23973 13.6634 7.19492 13.6444 7.15413 13.6569C7.09847 13.6746 7.11426 13.7049 7.13051 13.736ZM5.88489 7.99034C5.81902 7.97532 5.80165 7.92768 5.8031 7.86723C5.80455 7.80677 5.82228 7.76683 5.88742 7.77965C5.91426 7.78615 5.93797 7.80202 5.95439 7.82448C5.9708 7.84693 5.97887 7.87452 5.97718 7.9024C5.98008 7.95846 5.94244 7.98961 5.88489 7.99034ZM7.46764 10.5585C7.47669 10.6553 7.55115 10.6633 7.64417 10.6728C7.67565 10.6761 7.68175 10.6362 7.67131 10.5889C7.62992 10.4016 7.50483 10.5203 7.46764 10.5585ZM7.33509 16.6237C7.44301 16.5967 7.41792 16.7646 7.37662 16.8049C7.35327 16.8276 7.32316 16.842 7.29094 16.8457C7.2504 16.8542 7.24353 16.8139 7.25257 16.7864C7.27176 16.7259 7.26054 16.6413 7.33509 16.6237Z" fill="white"/>
<path opacity="0.75" d="M2.5 12L2.5 19.5C2.5 20.6045 3.39531 21.5 4.5 21.5H6.29297C6.48049 21.5 6.66011 21.4256 6.79312 21.2927C7.30091 20.7851 7.98903 20.5 8.70703 20.5H15.293C16.011 20.5 16.6991 20.7851 17.2069 21.2927C17.3399 21.4256 17.5195 21.5 17.707 21.5H19.5C20.6047 21.5 21.5 20.6045 21.5 19.5V12H2.5Z" fill="url(#paint1_radial_33603_88732)"/>
<path d="M2.5 12L2.5 4.5C2.5 3.39549 3.39531 2.5 4.5 2.5H6.29297C6.48049 2.5 6.66011 2.57439 6.79312 2.70726C7.30091 3.21495 7.98903 3.5 8.70703 3.5H15.293C16.011 3.5 16.6991 3.21495 17.2069 2.70726C17.3399 2.57439 17.5195 2.5 17.707 2.5H19.5C20.6047 2.5 21.5 3.39549 21.5 4.5V12H2.5Z" fill="url(#paint2_radial_33603_88732)"/>
<path fill-rule="evenodd" clip-rule="evenodd" d="M4.5 0H19.5C21.9853 0 24 2.01472 24 4.5V19.5C24 21.9853 21.9853 24 19.5 24H4.5C2.01472 24 0 21.9853 0 19.5V4.5C0 2.01472 2.01472 0 4.5 0ZM4.5 0.5C2.29086 0.5 0.5 2.29086 0.5 4.5V19.5C0.5 21.7091 2.29086 23.5 4.5 23.5H19.5C21.7091 23.5 23.5 21.7091 23.5 19.5V4.5C23.5 2.29086 21.7091 0.5 19.5 0.5H4.5Z" fill="white" fill-opacity="0.25"/>
<path fill-rule="evenodd" clip-rule="evenodd" d="M6 1.5L4.5 1.5C2.84315 1.5 1.5 2.84315 1.5 4.5V19.5C1.5 21.1569 2.84315 22.5 4.5 22.5H6H6.29289C6.74565 22.5 7.17985 22.3201 7.5 22C7.82014 21.6799 8.25435 21.5 8.7071 21.5H15.2929C15.7456 21.5 16.1798 21.6799 16.5 22C16.8201 22.3201 17.2543 22.5 17.7071 22.5H18H19.5C21.1569 22.5 22.5 21.1569 22.5 19.5V4.5C22.5 2.84315 21.1569 1.5 19.5 1.5L18 1.5L17.7071 1.5C17.7069 1.5 17.7067 1.5 17.7065 1.5C17.2539 1.50017 16.82 1.68001 16.5 2C16.1798 2.32014 15.7456 2.5 15.2929 2.5L8.7071 2.5C8.25435 2.5 7.82014 2.32014 7.5 2C7.17985 1.67986 6.74565 1.5 6.29289 1.5H6ZM4.5 0.5C2.29086 0.5 0.5 2.29086 0.5 4.5V19.5C0.5 21.7091 2.29086 23.5 4.5 23.5H19.5C21.7091 23.5 23.5 21.7091 23.5 19.5V4.5C23.5 2.29086 21.7091 0.5 19.5 0.5H4.5Z" fill="#001926"/>
<path fill-rule="evenodd" clip-rule="evenodd" d="M8.70703 2.5C8.25439 2.5 7.82031 2.32007 7.5 2C7.17969 1.67993 6.74561 1.5 6.29297 1.5H4.5C2.84326 1.5 1.5 2.84326 1.5 4.5V19.5C1.5 21.1567 2.84326 22.5 4.5 22.5H6.29297C6.48975 22.5 6.68262 22.4661 6.86426 22.4014C7.10107 22.3171 7.31885 22.1809 7.5 22C7.82031 21.6799 8.25439 21.5 8.70703 21.5H15.293C15.7456 21.5 16.1797 21.6799 16.5 22C16.8203 22.3201 17.2544 22.5 17.707 22.5H19.5C21.1567 22.5 22.5 21.1567 22.5 19.5V4.5C22.5 2.84326 21.1567 1.5 19.5 1.5H17.7065C17.2539 1.50024 16.8198 1.67993 16.5 2C16.2632 2.23682 15.9639 2.39673 15.6411 2.46411C15.5273 2.48779 15.4106 2.5 15.293 2.5H8.70703ZM2 4.5C2 3.11938 3.11914 2 4.5 2H6.29297C6.61328 2 6.91992 2.1272 7.14648 2.35352C7.56055 2.76758 8.12158 3 8.70703 3H15.293C15.8784 3 16.4395 2.76758 16.8535 2.35352C17.0024 2.20459 17.187 2.09863 17.3867 2.04346C17.4902 2.01489 17.5981 2 17.707 2H19.5C20.8809 2 22 3.11938 22 4.5V19.5C22 20.8806 20.8809 22 19.5 22H17.707C17.3867 22 17.0801 21.8728 16.8535 21.6465C16.4395 21.2324 15.8784 21 15.293 21H8.70703C8.12158 21 7.56055 21.2324 7.14648 21.6465C6.91992 21.8728 6.61328 22 6.29297 22H4.5C3.11914 22 2 20.8806 2 19.5V4.5Z" fill="url(#paint3_linear_33603_88732)"/>
<rect opacity="0.5" x="9" y="2.5" width="6" height="0.5" rx="0.25" fill="white"/>
<rect opacity="0.5" x="9" y="21" width="6" height="0.5" rx="0.25" fill="white"/>
<path d="M4.5 1.75C4.5 1.61193 4.61193 1.5 4.75 1.5H5.75C5.88807 1.5 6 1.61193 6 1.75C6 1.88807 5.88807 2 5.75 2H4.75C4.61193 2 4.5 1.88807 4.5 1.75Z" fill="white"/>
<path opacity="0.5" d="M4.5 22.25C4.5 22.1119 4.61193 22 4.75 22H5.75C5.88807 22 6 22.1119 6 22.25C6 22.3881 5.88807 22.5 5.75 22.5H4.75C4.61193 22.5 4.5 22.3881 4.5 22.25Z" fill="white"/>
<path d="M18 1.75C18 1.61193 18.1119 1.5 18.25 1.5H19.25C19.3881 1.5 19.5 1.61193 19.5 1.75C19.5 1.88807 19.3881 2 19.25 2H18.25C18.1119 2 18 1.88807 18 1.75Z" fill="white"/>
<path opacity="0.5" d="M18 22.25C18 22.1119 18.1119 22 18.25 22H19.25C19.3881 22 19.5 22.1119 19.5 22.25C19.5 22.3881 19.3881 22.5 19.25 22.5H18.25C18.1119 22.5 18 22.3881 18 22.25Z" fill="white"/>
<path opacity="0.5" fill-rule="evenodd" clip-rule="evenodd" d="M2 4.5V19.5C2 20.8806 3.1194 22 4.5 22H6.29297C6.61073 22 6.92157 21.8712 7.14672 21.6462C7.56062 21.2325 8.12171 21 8.70703 21H15.293C15.8784 21 16.4393 21.2324 16.8534 21.6464C17.08 21.8727 17.3869 22 17.707 22H19.5C20.8806 22 22 20.8806 22 19.5V4.5C22 3.11941 20.8806 2 19.5 2H17.707C17.3869 2 17.08 2.12732 16.8534 2.35365C16.4393 2.76763 15.8784 3 15.293 3H8.70703C8.12171 3 7.56062 2.76752 7.14672 2.35375C6.92157 2.12884 6.61073 2 6.29297 2H4.5C3.1194 2 2 3.1194 2 4.5ZM21.5 4.5C21.5 3.39549 20.6047 2.5 19.5 2.5H17.707C17.5195 2.5 17.3399 2.57439 17.2069 2.70726C16.6991 3.21495 16.011 3.5 15.293 3.5H8.70703C7.98903 3.5 7.30091 3.21495 6.79312 2.70726C6.66011 2.57439 6.48049 2.5 6.29297 2.5H4.5C3.39531 2.5 2.5 3.39549 2.5 4.5V19.5C2.5 20.6045 3.39531 21.5 4.5 21.5H6.29297C6.48049 21.5 6.66011 21.4256 6.79312 21.2927C7.30091 20.7851 7.98903 20.5 8.70703 20.5H15.293C16.011 20.5 16.6991 20.7851 17.2069 21.2927C17.3399 21.4256 17.5195 21.5 17.707 21.5H19.5C20.6047 21.5 21.5 20.6045 21.5 19.5V4.5Z" fill="black"/>
<path opacity="0.5" d="M8.5 1.75C8.5 1.61193 8.61193 1.5 8.75 1.5H15.25C15.3881 1.5 15.5 1.61193 15.5 1.75C15.5 1.88807 15.3881 2 15.25 2H8.75C8.61193 2 8.5 1.88807 8.5 1.75Z" fill="#76FF33"/>
<path d="M9 1.75C9 1.61193 9.11193 1.5 9.25 1.5H14.75C14.8881 1.5 15 1.61193 15 1.75C15 1.88807 14.8881 2 14.75 2H9.25C9.11193 2 9 1.88807 9 1.75Z" fill="#76FF33"/>
<path opacity="0.5" d="M8.5 22.25C8.5 22.1119 8.61193 22 8.75 22H15.25C15.3881 22 15.5 22.1119 15.5 22.25C15.5 22.3881 15.3881 22.5 15.25 22.5H8.75C8.61193 22.5 8.5 22.3881 8.5 22.25Z" fill="#76FF33"/>
<path d="M9 22.25C9 22.1119 9.11193 22 9.25 22H14.75C14.8881 22 15 22.1119 15 22.25C15 22.3881 14.8881 22.5 14.75 22.5H9.25C9.11193 22.5 9 22.3881 9 22.25Z" fill="#76FF33"/>
<path fill-rule="evenodd" clip-rule="evenodd" d="M5 4.5C5 4.77614 4.77614 5 4.5 5C4.22386 5 4 4.77614 4 4.5C4 4.22386 4.22386 4 4.5 4C4.77614 4 5 4.22386 5 4.5ZM19.5 5C19.7761 5 20 4.77614 20 4.5C20 4.22386 19.7761 4 19.5 4C19.2239 4 19 4.22386 19 4.5C19 4.77614 19.2239 5 19.5 5ZM5 19.5C5 19.7761 4.77614 20 4.5 20C4.22386 20 4 19.7761 4 19.5C4 19.2239 4.22386 19 4.5 19C4.77614 19 5 19.2239 5 19.5ZM20 19.5C20 19.7761 19.7761 20 19.5 20C19.2239 20 19 19.7761 19 19.5C19 19.2239 19.2239 19 19.5 19C19.7761 19 20 19.2239 20 19.5Z" fill="white" fill-opacity="0.25"/>
<path opacity="0.5" fill-rule="evenodd" clip-rule="evenodd" d="M5.5 4.5C5.5 5.05228 5.05228 5.5 4.5 5.5C3.94772 5.5 3.5 5.05228 3.5 4.5C3.5 3.94772 3.94772 3.5 4.5 3.5C5.05228 3.5 5.5 3.94772 5.5 4.5ZM20.5 4.5C20.5 5.05228 20.0523 5.5 19.5 5.5C18.9477 5.5 18.5 5.05228 18.5 4.5C18.5 3.94772 18.9477 3.5 19.5 3.5C20.0523 3.5 20.5 3.94772 20.5 4.5ZM5.5 19.5C5.5 20.0523 5.05228 20.5 4.5 20.5C3.94772 20.5 3.5 20.0523 3.5 19.5C3.5 18.9477 3.94772 18.5 4.5 18.5C5.05228 18.5 5.5 18.9477 5.5 19.5ZM20.5 19.5C20.5 20.0523 20.0523 20.5 19.5 20.5C18.9477 20.5 18.5 20.0523 18.5 19.5C18.5 18.9477 18.9477 18.5 19.5 18.5C20.0523 18.5 20.5 18.9477 20.5 19.5ZM4.5 5C4.77614 5 5 4.77614 5 4.5C5 4.22386 4.77614 4 4.5 4C4.22386 4 4 4.22386 4 4.5C4 4.77614 4.22386 5 4.5 5ZM20 4.5C20 4.77614 19.7761 5 19.5 5C19.2239 5 19 4.77614 19 4.5C19 4.22386 19.2239 4 19.5 4C19.7761 4 20 4.22386 20 4.5ZM4.5 20C4.77614 20 5 19.7761 5 19.5C5 19.2239 4.77614 19 4.5 19C4.22386 19 4 19.2239 4 19.5C4 19.7761 4.22386 20 4.5 20ZM19.5 20C19.7761 20 20 19.7761 20 19.5C20 19.2239 19.7761 19 19.5 19C19.2239 19 19 19.2239 19 19.5C19 19.7761 19.2239 20 19.5 20Z" fill="#001926"/>
<defs>
<radialGradient id="paint0_radial_33603_88732" cx="0" cy="0" r="1" gradientUnits="userSpaceOnUse" gradientTransform="translate(12) rotate(90) scale(24)">
<stop stop-color="#70991F"/>
<stop offset="1" stop-color="#00111A"/>
</radialGradient>
<radialGradient id="paint1_radial_33603_88732" cx="0" cy="0" r="1" gradientUnits="userSpaceOnUse" gradientTransform="translate(12 20.5) rotate(-90) scale(8.5 10)">
<stop stop-color="#76FF33"/>
<stop offset="0.5" stop-color="#76FF33" stop-opacity="0"/>
</radialGradient>
<radialGradient id="paint2_radial_33603_88732" cx="0" cy="0" r="1" gradientUnits="userSpaceOnUse" gradientTransform="translate(12 3.5) rotate(90) scale(8.5 10)">
<stop stop-color="#76FF33"/>
<stop offset="0.5" stop-color="#76FF33" stop-opacity="0"/>
</radialGradient>
<linearGradient id="paint3_linear_33603_88732" x1="12" y1="1.5" x2="12" y2="22.5" gradientUnits="userSpaceOnUse">
<stop stop-color="#607580"/>
<stop offset="1" stop-color="#336680"/>
</linearGradient>
</defs>
</svg>
