<svg width="24" height="24" viewBox="0 0 24 24" fill="none" xmlns="http://www.w3.org/2000/svg">
<path d="M0.5 4.5C0.5 2.29086 2.29086 0.5 4.5 0.5H19.5C21.7091 0.5 23.5 2.29086 23.5 4.5V19.5C23.5 21.7091 21.7091 23.5 19.5 23.5H4.5C2.29086 23.5 0.5 21.7091 0.5 19.5V4.5Z" fill="url(#paint0_radial_5017_26029)"/>
<path d="M17.5003 19C16.8706 19 16.2777 18.7035 15.9 18.1996L6.60499 5.80037C6.2273 5.29654 5.63439 5 5.00471 5H2.5V4.5C2.5 3.39549 3.39531 2.5 4.5 2.5H6.29297C6.48049 2.5 6.66011 2.57439 6.79312 2.70726C7.30091 3.21495 7.98903 3.5 8.70703 3.5H15.293C16.011 3.5 16.6991 3.21495 17.2069 2.70726C17.3399 2.57439 17.5195 2.5 17.707 2.5H19.5C20.6047 2.5 21.5 3.39549 21.5 4.5V14.5V19H17.5003Z" fill="url(#paint1_radial_5017_26029)"/>
<path fill-rule="evenodd" clip-rule="evenodd" d="M5.00471 5.5H2.5V5H5.00471C5.63439 5 6.2273 5.29654 6.60499 5.80037L15.9 18.1996C16.2777 18.7035 16.8706 19 17.5003 19H21.5V19.5H17.5003C16.7132 19.5 15.9721 19.1293 15.4999 18.4995L6.20492 6.10027C5.92165 5.7224 5.47697 5.5 5.00471 5.5Z" fill="url(#paint2_linear_5017_26029)"/>
<path fill-rule="evenodd" clip-rule="evenodd" d="M4.5 0H19.5C21.9853 0 24 2.01472 24 4.5V19.5C24 21.9853 21.9853 24 19.5 24H4.5C2.01472 24 0 21.9853 0 19.5V4.5C0 2.01472 2.01472 0 4.5 0ZM4.5 0.5C2.29086 0.5 0.5 2.29086 0.5 4.5V19.5C0.5 21.7091 2.29086 23.5 4.5 23.5H19.5C21.7091 23.5 23.5 21.7091 23.5 19.5V4.5C23.5 2.29086 21.7091 0.5 19.5 0.5H4.5Z" fill="white" fill-opacity="0.25"/>
<path fill-rule="evenodd" clip-rule="evenodd" d="M6 1.5L4.5 1.5C2.84315 1.5 1.5 2.84315 1.5 4.5V19.5C1.5 21.1569 2.84315 22.5 4.5 22.5H6H6.29289C6.74565 22.5 7.17985 22.3201 7.5 22C7.82014 21.6799 8.25435 21.5 8.7071 21.5H15.2929C15.7456 21.5 16.1798 21.6799 16.5 22C16.8201 22.3201 17.2543 22.5 17.7071 22.5H18H19.5C21.1569 22.5 22.5 21.1569 22.5 19.5V4.5C22.5 2.84315 21.1569 1.5 19.5 1.5L18 1.5L17.7071 1.5C17.7069 1.5 17.7067 1.5 17.7065 1.5C17.2539 1.50017 16.82 1.68001 16.5 2C16.1798 2.32014 15.7456 2.5 15.2929 2.5L8.7071 2.5C8.25435 2.5 7.82014 2.32014 7.5 2C7.17985 1.67986 6.74565 1.5 6.29289 1.5H6ZM4.5 0.5C2.29086 0.5 0.5 2.29086 0.5 4.5V19.5C0.5 21.7091 2.29086 23.5 4.5 23.5H19.5C21.7091 23.5 23.5 21.7091 23.5 19.5V4.5C23.5 2.29086 21.7091 0.5 19.5 0.5H4.5Z" fill="#001926"/>
<path fill-rule="evenodd" clip-rule="evenodd" d="M8.70703 2.5C8.25439 2.5 7.82031 2.32007 7.5 2C7.17969 1.67993 6.74561 1.5 6.29297 1.5H4.5C2.84326 1.5 1.5 2.84326 1.5 4.5V19.5C1.5 21.1567 2.84326 22.5 4.5 22.5H6.29297C6.48975 22.5 6.68262 22.4661 6.86426 22.4014C7.10107 22.3171 7.31885 22.1809 7.5 22C7.82031 21.6799 8.25439 21.5 8.70703 21.5H15.293C15.7456 21.5 16.1797 21.6799 16.5 22C16.8203 22.3201 17.2544 22.5 17.707 22.5H19.5C21.1567 22.5 22.5 21.1567 22.5 19.5V4.5C22.5 2.84326 21.1567 1.5 19.5 1.5H17.7065C17.2539 1.50024 16.8198 1.67993 16.5 2C16.2632 2.23682 15.9639 2.39673 15.6411 2.46411C15.5273 2.48779 15.4106 2.5 15.293 2.5H8.70703ZM2 4.5C2 3.11938 3.11914 2 4.5 2H6.29297C6.61328 2 6.91992 2.1272 7.14648 2.35352C7.56055 2.76758 8.12158 3 8.70703 3H15.293C15.8784 3 16.4395 2.76758 16.8535 2.35352C17.0024 2.20459 17.187 2.09863 17.3867 2.04346C17.4902 2.01489 17.5981 2 17.707 2H19.5C20.8809 2 22 3.11938 22 4.5V19.5C22 20.8806 20.8809 22 19.5 22H17.707C17.3867 22 17.0801 21.8728 16.8535 21.6465C16.4395 21.2324 15.8784 21 15.293 21H8.70703C8.12158 21 7.56055 21.2324 7.14648 21.6465C6.91992 21.8728 6.61328 22 6.29297 22H4.5C3.11914 22 2 20.8806 2 19.5V4.5Z" fill="url(#paint3_linear_5017_26029)"/>
<path opacity="0.5" fill-rule="evenodd" clip-rule="evenodd" d="M2 4.5V19.5C2 20.8806 3.1194 22 4.5 22H6.29297C6.61073 22 6.92157 21.8712 7.14672 21.6462C7.56062 21.2325 8.12171 21 8.70703 21H15.293C15.8784 21 16.4393 21.2324 16.8534 21.6464C17.08 21.8727 17.3869 22 17.707 22H19.5C20.8806 22 22 20.8806 22 19.5V4.5C22 3.11941 20.8806 2 19.5 2H17.707C17.3869 2 17.08 2.12732 16.8534 2.35365C16.4393 2.76763 15.8784 3 15.293 3H8.70703C8.12171 3 7.56062 2.76752 7.14672 2.35375C6.92157 2.12884 6.61073 2 6.29297 2H4.5C3.1194 2 2 3.1194 2 4.5ZM21.5 4.5C21.5 3.39549 20.6047 2.5 19.5 2.5H17.707C17.5195 2.5 17.3399 2.57439 17.2069 2.70726C16.6991 3.21495 16.011 3.5 15.293 3.5H8.70703C7.98903 3.5 7.30091 3.21495 6.79312 2.70726C6.66011 2.57439 6.48049 2.5 6.29297 2.5H4.5C3.39531 2.5 2.5 3.39549 2.5 4.5V19.5C2.5 20.6045 3.39531 21.5 4.5 21.5H6.29297C6.48049 21.5 6.66011 21.4256 6.79312 21.2927C7.30091 20.7851 7.98903 20.5 8.70703 20.5H15.293C16.011 20.5 16.6991 20.7851 17.2069 21.2927C17.3399 21.4256 17.5195 21.5 17.707 21.5H19.5C20.6047 21.5 21.5 20.6045 21.5 19.5V4.5Z" fill="black"/>
<path opacity="0.5" d="M9 2.75C9 2.61193 9.11193 2.5 9.25 2.5H14.75C14.8881 2.5 15 2.61193 15 2.75C15 2.88807 14.8881 3 14.75 3H9.25C9.11193 3 9 2.88807 9 2.75Z" fill="white"/>
<path opacity="0.5" d="M9 21.25C9 21.1119 9.11193 21 9.25 21H14.75C14.8881 21 15 21.1119 15 21.25C15 21.3881 14.8881 21.5 14.75 21.5H9.25C9.11193 21.5 9 21.3881 9 21.25Z" fill="white"/>
<path d="M4.5 1.75C4.5 1.61193 4.61193 1.5 4.75 1.5H5.75C5.88807 1.5 6 1.61193 6 1.75C6 1.88807 5.88807 2 5.75 2H4.75C4.61193 2 4.5 1.88807 4.5 1.75Z" fill="white"/>
<path opacity="0.5" d="M4.5 22.25C4.5 22.1119 4.61193 22 4.75 22H5.75C5.88807 22 6 22.1119 6 22.25C6 22.3881 5.88807 22.5 5.75 22.5H4.75C4.61193 22.5 4.5 22.3881 4.5 22.25Z" fill="white"/>
<path d="M18 1.75C18 1.61193 18.1119 1.5 18.25 1.5H19.25C19.3881 1.5 19.5 1.61193 19.5 1.75C19.5 1.88807 19.3881 2 19.25 2H18.25C18.1119 2 18 1.88807 18 1.75Z" fill="white"/>
<path opacity="0.5" d="M18 22.25C18 22.1119 18.1119 22 18.25 22H19.25C19.3881 22 19.5 22.1119 19.5 22.25C19.5 22.3881 19.3881 22.5 19.25 22.5H18.25C18.1119 22.5 18 22.3881 18 22.25Z" fill="white"/>
<path fill-rule="evenodd" clip-rule="evenodd" d="M2.5 4.5H5.00471C5.79181 4.5 6.53294 4.87067 7.00506 5.50046L16.3001 17.8997C16.5833 18.2776 17.028 18.5 17.5003 18.5H21.5V19H17.5003C16.8706 19 16.2777 18.7035 15.9 18.1996L6.60499 5.80037C6.2273 5.29654 5.63439 5 5.00471 5H2.5V4.5Z" fill="url(#paint4_linear_5017_26029)"/>
<path d="M7 7H5L9.5 13H8L5 17H7C7.31476 17 7.61115 16.8518 7.8 16.6L10 13.6667L12.2 16.6C12.3889 16.8518 12.6852 17 13 17H15L7.8 7.4C7.61115 7.14819 7.31476 7 7 7Z" fill="white"/>
<path d="M15.6256 17H16V9L16.9999 9C17.3146 9 17.611 8.85181 17.7999 8.6L18.9999 7H12.9999C12.6851 7 12.3887 7.14819 12.1999 7.4L10.314 9.9146L10.6264 10.3314L11.4749 9.20002C11.5693 9.07411 11.7175 9.00001 11.8749 9.00001L15.2 9.00001L14 10.5V14.8315L15.6256 17Z" fill="white"/>
<path d="M2.5 17L5.69422 12.7502C6.02193 12.3057 6.02193 11.6946 5.69422 11.2501L2.5 7V7.83326L5.30107 11.5501C5.49769 11.8168 5.49769 12.1835 5.30107 12.4502L2.5 16.1667V17Z" fill="white" fill-opacity="0.25"/>
<path d="M21.4995 17L18.3053 12.7502C17.9776 12.3057 17.9776 11.6946 18.3053 11.2501L21.4995 7V7.83326L18.6984 11.5501C18.5018 11.8168 18.5018 12.1835 18.6984 12.4502L21.4995 16.1667V17Z" fill="white" fill-opacity="0.25"/>
<path opacity="0.5" d="M8.5 1.75C8.5 1.61193 8.61193 1.5 8.75 1.5H15.25C15.3881 1.5 15.5 1.61193 15.5 1.75C15.5 1.88807 15.3881 2 15.25 2H8.75C8.61193 2 8.5 1.88807 8.5 1.75Z" fill="#FFCC00"/>
<path d="M9 1.75C9 1.61193 9.11193 1.5 9.25 1.5H14.75C14.8881 1.5 15 1.61193 15 1.75C15 1.88807 14.8881 2 14.75 2H9.25C9.11193 2 9 1.88807 9 1.75Z" fill="#FFCC00"/>
<path opacity="0.5" d="M8.5 22.25C8.5 22.1119 8.61193 22 8.75 22H15.25C15.3881 22 15.5 22.1119 15.5 22.25C15.5 22.3881 15.3881 22.5 15.25 22.5H8.75C8.61193 22.5 8.5 22.3881 8.5 22.25Z" fill="#FFCC00"/>
<path d="M9 22.25C9 22.1119 9.11193 22 9.25 22H14.75C14.8881 22 15 22.1119 15 22.25C15 22.3881 14.8881 22.5 14.75 22.5H9.25C9.11193 22.5 9 22.3881 9 22.25Z" fill="#FFCC00"/>
<defs>
<radialGradient id="paint0_radial_5017_26029" cx="0" cy="0" r="1" gradientUnits="userSpaceOnUse" gradientTransform="translate(12 23.5) rotate(-90) scale(23)">
<stop stop-color="#FFEE00"/>
<stop offset="0.50094" stop-color="#804D00"/>
<stop offset="1"/>
</radialGradient>
<radialGradient id="paint1_radial_5017_26029" cx="0" cy="0" r="1" gradientUnits="userSpaceOnUse" gradientTransform="translate(12 19.5) rotate(-90) scale(17)">
<stop stop-color="#BFD5FF"/>
<stop offset="1" stop-color="#202B40"/>
</radialGradient>
<linearGradient id="paint2_linear_5017_26029" x1="12" y1="5" x2="12" y2="19.5" gradientUnits="userSpaceOnUse">
<stop stop-color="white" stop-opacity="0.25"/>
<stop offset="1" stop-color="white" stop-opacity="0.5"/>
</linearGradient>
<linearGradient id="paint3_linear_5017_26029" x1="12" y1="1.5" x2="12" y2="22.5" gradientUnits="userSpaceOnUse">
<stop stop-color="#607580"/>
<stop offset="1" stop-color="#336680"/>
</linearGradient>
<linearGradient id="paint4_linear_5017_26029" x1="12" y1="4.5" x2="12" y2="19" gradientUnits="userSpaceOnUse">
<stop stop-color="#131A26"/>
<stop offset="1" stop-color="#6B7A99"/>
</linearGradient>
</defs>
</svg>
