<svg width="24" height="24" viewBox="0 0 24 24" fill="none" xmlns="http://www.w3.org/2000/svg">
<path fill-rule="evenodd" clip-rule="evenodd" d="M24 19C24 21.7614 21.7614 24 19 24H10.2426C9.18177 24 8.16436 23.5786 7.41421 22.8284L1.17157 16.5858C0.421426 15.8356 0 14.8182 0 13.7574V10.2426C0 9.18177 0.421427 8.16436 1.17157 7.41421L7.41421 1.17157C8.16436 0.421426 9.18178 0 10.2426 0H13.7574C14.8182 0 15.8356 0.421427 16.5858 1.17157L22.8284 7.41421C23.5786 8.16436 24 9.18178 24 10.2426C24 11.2221 23.9938 12.1985 23.9877 13.1731C23.9754 15.1158 23.9631 17.0515 23.9999 18.9905L24 19ZM23.5 19C23.4631 17.0549 23.4754 15.1079 23.4877 13.1613C23.4939 12.1882 23.5 11.2152 23.5 10.2426C23.5 9.31438 23.1313 8.42414 22.4749 7.76777L16.2322 1.52513C15.5759 0.868749 14.6856 0.5 13.7574 0.5H10.2426C9.31438 0.5 8.42414 0.868748 7.76777 1.52513L1.52513 7.76777C0.868749 8.42414 0.5 9.31438 0.5 10.2426V13.7574C0.5 14.6856 0.868748 15.5759 1.52513 16.2322L7.76777 22.4749C8.42414 23.1313 9.31438 23.5 10.2426 23.5H19C21.4853 23.5 23.5 21.4853 23.5 19Z" fill="#FFEE00"/>
<path d="M8.12109 1.87866L1.87891 8.12134C1.31592 8.68396 1 9.44702 1 10.2427V13.7573C1 14.553 1.31592 15.316 1.87891 15.8787L8.12109 22.1213C8.68408 22.684 9.44678 23 10.2427 23H13.7573C14.5532 23 15.3159 22.684 15.8789 22.1213L22.1211 15.8787C22.6841 15.316 23 14.553 23 13.7573V10.2427C23 9.44702 22.6841 8.68396 22.1211 8.12134L15.8789 1.87866C15.3159 1.31604 14.5532 1 13.7573 1H10.2427C9.44678 1 8.68408 1.31604 8.12109 1.87866Z" fill="url(#paint0_radial_35564_63964)"/>
<path fill-rule="evenodd" clip-rule="evenodd" d="M10 1V2.58579C10 2.91731 9.8683 3.23525 9.63388 3.46967L3.46967 9.63388C3.23525 9.8683 2.91731 10 2.58579 10H1V9.5H2.58579C2.7847 9.5 2.97546 9.42098 3.11612 9.28033L9.28033 3.11612C9.42098 2.97546 9.5 2.7847 9.5 2.58579V1H10ZM14 1V2.58579C14 2.91731 14.1317 3.23525 14.3661 3.46967L20.5303 9.63388C20.7648 9.8683 21.0827 10 21.4142 10H23V9.5H21.4142C21.2153 9.5 21.0245 9.42098 20.8839 9.28033L14.7197 3.11612C14.579 2.97546 14.5 2.7847 14.5 2.58579V1H14ZM10 21.4142V23H9.5V21.4142C9.5 21.2153 9.42098 21.0245 9.28033 20.8839L3.11612 14.7197C2.97546 14.579 2.7847 14.5 2.58579 14.5H1V14H2.58579C2.91731 14 3.23525 14.1317 3.46967 14.3661L9.63388 20.5303C9.8683 20.7647 10 21.0827 10 21.4142ZM11.25 1V2.67157C11.25 3.26831 11.0129 3.84061 10.591 4.26256L4.26256 10.591C3.84061 11.0129 3.26831 11.25 2.67157 11.25H1V10.75H2.67157C3.1357 10.75 3.58082 10.5656 3.90901 10.2374L10.2374 3.90901C10.5656 3.58082 10.75 3.1357 10.75 2.67157V1H11.25ZM12.75 2.67157V1H13.25V2.67157C13.25 3.1357 13.4344 3.58082 13.7626 3.90901L20.091 10.2374C20.4192 10.5656 20.8643 10.75 21.3284 10.75H23V11.25H21.3284C20.7317 11.25 20.1594 11.0129 19.7374 10.591L13.409 4.26256C12.9871 3.84061 12.75 3.26831 12.75 2.67157ZM11.25 23V21.3284C11.25 20.7317 11.0129 20.1594 10.591 19.7374L4.26256 13.409C3.84061 12.9871 3.26831 12.75 2.67157 12.75H1V13.25H2.67157C3.1357 13.25 3.58082 13.4344 3.90901 13.7626L10.2374 20.091C10.5656 20.4192 10.75 20.8643 10.75 21.3284V23H11.25ZM12.75 20V23H13.25V20C13.25 19.5858 13.5858 19.25 14 19.25H15V18.75H14C13.3096 18.75 12.75 19.3096 12.75 20ZM20 12.75C19.3096 12.75 18.75 13.3096 18.75 14V15H19.25V14C19.25 13.5858 19.5858 13.25 20 13.25H23V12.75H20Z" fill="white" fill-opacity="0.25"/>
<path fill-rule="evenodd" clip-rule="evenodd" d="M10.2426 2C9.71221 2 9.2035 2.21071 8.82843 2.58579L2.58579 8.82843C2.21071 9.2035 2 9.71221 2 10.2426V13.7574C2 14.2878 2.21071 14.7965 2.58579 15.1716L8.82843 21.4142C9.2035 21.7893 9.71221 22 10.2426 22H14V19C14 16.2386 16.2386 14 19 14H22V10.2426C22 9.71221 21.7893 9.2035 21.4142 8.82843L15.1716 2.58579C14.7965 2.21071 14.2878 2 13.7574 2H10.2426ZM10.2426 1.5C9.5796 1.5 8.94372 1.76339 8.47487 2.23223L2.23223 8.47487C1.76339 8.94371 1.5 9.5796 1.5 10.2426V13.7574C1.5 14.4204 1.76339 15.0563 2.23223 15.5251L8.47487 21.7678C8.94371 22.2366 9.5796 22.5 10.2426 22.5H14C14.2761 22.5 14.5 22.2761 14.5 22V19C14.5 16.5147 16.5147 14.5 19 14.5H22C22.2761 14.5 22.5 14.2761 22.5 14V10.2426C22.5 9.5796 22.2366 8.94372 21.7678 8.47487L15.5251 2.23223C15.0563 1.76339 14.4204 1.5 13.7574 1.5H10.2426Z" fill="url(#paint1_linear_35564_63964)"/>
<path fill-rule="evenodd" clip-rule="evenodd" d="M12 6C12.7275 6 13.3937 6.51838 13.9131 7.37988C14.8899 7.13768 15.7283 7.24251 16.2429 7.75708C16.7574 8.27156 16.8614 9.10958 16.6194 10.0862C17.4814 10.6056 18 11.2723 18 12L17.9919 12.1545C17.9242 12.8218 17.4195 13.43 16.6194 13.9124C16.8619 14.8895 16.7576 15.7282 16.2429 16.2429L16.1279 16.3462C15.6081 16.7702 14.8208 16.8434 13.9138 16.6187C13.3943 17.481 12.7279 18 12 18C11.2723 18 10.6056 17.4814 10.0862 16.6194C9.10958 16.8614 8.27156 16.7574 7.75708 16.2429C7.24251 15.7283 7.13768 14.8899 7.37988 13.9131C6.51841 13.3936 6 12.7275 6 12L6.00806 11.8455C6.0758 11.178 6.58011 10.5686 7.38062 10.0862C7.13863 9.10956 7.24261 8.27156 7.75708 7.75708L7.87207 7.65381C8.39169 7.22995 9.17879 7.1561 10.0854 7.38062C10.6049 6.5184 11.2722 6 12 6ZM12 15.7939C11.6005 16.0334 11.2047 16.2302 10.8215 16.3813C11.2451 17.022 11.6782 17.25 12 17.25C12.3216 17.25 12.7537 17.0218 13.177 16.3821C12.7942 16.231 12.3991 16.0332 12 15.7939ZM8.06763 14.2654C7.91437 15.0175 8.05985 15.4851 8.28735 15.7126C8.51489 15.9402 8.98238 16.0843 9.73462 15.9309C9.57069 15.5532 9.42947 15.1344 9.31641 14.6829C8.86466 14.5697 8.4454 14.4295 8.06763 14.2654ZM15.9309 14.2654C15.5533 14.4293 15.1344 14.5698 14.6829 14.6829C14.5698 15.1345 14.4286 15.5532 14.2646 15.9309C15.0173 16.0845 15.485 15.9402 15.7126 15.7126C15.9402 15.4851 16.0843 15.0176 15.9309 14.2654ZM13.8596 14.8521C13.6503 14.8861 13.436 14.9152 13.2173 14.9377C13.0466 15.0766 12.8746 15.2078 12.7024 15.3318C12.9894 15.487 13.2698 15.6162 13.5396 15.7178C13.6586 15.455 13.7663 15.1651 13.8596 14.8521ZM10.1396 14.8521C10.2329 15.1651 10.3407 15.455 10.4597 15.7178C10.7297 15.6162 11.0103 15.4865 11.2976 15.3311C11.1257 15.2073 10.9539 15.0763 10.7834 14.9377C10.5642 14.9152 10.3494 14.8862 10.1396 14.8521ZM12 9.75C11.6863 9.75 11.38 9.76299 11.083 9.78735C10.856 9.97997 10.6308 10.1876 10.4092 10.4092C10.1876 10.6308 9.97997 10.856 9.78735 11.083C9.76299 11.38 9.75 11.6863 9.75 12C9.75 12.3135 9.76303 12.6195 9.78735 12.9163C9.98007 13.1434 10.1874 13.3691 10.4092 13.5908C10.6307 13.8123 10.8561 14.0194 11.083 14.2119C11.38 14.2363 11.6863 14.25 12 14.25C12.3135 14.25 12.6195 14.2362 12.9163 14.2119C13.1433 14.0193 13.3692 13.8125 13.5908 13.5908C13.8125 13.3692 14.0193 13.1433 14.2119 12.9163C14.2362 12.6195 14.25 12.3135 14.25 12C14.25 11.6863 14.2363 11.38 14.2119 11.083C14.0194 10.8561 13.8123 10.6307 13.5908 10.4092C13.3691 10.1874 13.1434 9.98007 12.9163 9.78735C12.6195 9.76303 12.3135 9.75 12 9.75ZM8.66748 12.7024C8.51231 12.9893 8.38302 13.2699 8.28149 13.5396C8.54428 13.6586 8.83415 13.7663 9.14722 13.8596C9.11309 13.6501 9.08407 13.4355 9.06152 13.2166C8.92285 13.046 8.79134 12.8745 8.66748 12.7024ZM15.3318 12.7024C15.2079 12.8744 15.0764 13.046 14.9377 13.2166C14.9152 13.4355 14.8862 13.6501 14.8521 13.8596C15.1651 13.7663 15.455 13.6586 15.7178 13.5396C15.6162 13.2698 15.487 12.9894 15.3318 12.7024ZM16.3813 10.8215C16.2302 11.2047 16.0334 11.6005 15.7939 12C16.0333 12.3992 16.2302 12.7948 16.3813 13.1777C17.0218 12.7542 17.25 12.3218 17.25 12C17.25 11.6782 17.022 11.2451 16.3813 10.8215ZM7.61719 10.8223C6.97755 11.2455 6.75 11.6784 6.75 12C6.75 12.3217 6.9779 12.7543 7.61792 13.1777C7.76904 12.7948 7.96601 12.3992 8.20532 12C7.96597 11.6007 7.7683 11.2053 7.61719 10.8223ZM9.14722 10.1396C8.83418 10.2329 8.54426 10.3406 8.28149 10.4597C8.38299 10.7294 8.51232 11.0099 8.66748 11.2969C8.79135 11.1248 8.92285 10.9532 9.06152 10.7827C9.08408 10.5637 9.11308 10.3492 9.14722 10.1396ZM14.8521 10.1396C14.8862 10.3492 14.9152 10.5637 14.9377 10.7827C15.0764 10.9532 15.2079 11.1248 15.3318 11.2969C15.487 11.0099 15.6163 10.7294 15.7178 10.4597C15.455 10.3407 15.1651 10.2329 14.8521 10.1396ZM15.7126 8.28735C15.4851 8.05977 15.0172 7.91482 14.2646 8.06836C14.4286 8.44604 14.5697 8.8648 14.6829 9.31641C15.1344 9.42947 15.5532 9.57069 15.9309 9.73462C16.0843 8.98237 15.9402 8.51489 15.7126 8.28735ZM9.73462 8.06836C8.98246 7.91505 8.51487 8.05984 8.28735 8.28735C8.05991 8.5148 7.91529 8.98214 8.06836 9.73389C8.44594 9.56996 8.86495 9.42949 9.31641 9.31641C9.42951 8.86484 9.57066 8.44602 9.73462 8.06836ZM10.4597 8.28149C10.3406 8.54426 10.2329 8.83418 10.1396 9.14722C10.349 9.11312 10.5633 9.08407 10.782 9.06152C10.9526 8.92272 11.1247 8.79145 11.2969 8.66748C11.0099 8.51232 10.7294 8.38299 10.4597 8.28149ZM13.5396 8.28149C13.2696 8.38312 12.9889 8.51283 12.7017 8.66821C12.8736 8.792 13.0454 8.92295 13.2158 9.06152C13.435 9.08408 13.6498 9.11306 13.8596 9.14722C13.7663 8.83415 13.6586 8.54428 13.5396 8.28149ZM12 6.75C11.6784 6.75 11.2455 6.97755 10.8223 7.61719C11.2051 7.76823 11.6001 7.96611 11.9993 8.20532C12.3987 7.96587 12.7946 7.7691 13.1777 7.61792C12.7543 6.9779 12.3217 6.75 12 6.75Z" fill="white"/>
<path fill-rule="evenodd" clip-rule="evenodd" d="M10.2426 23.5C9.31438 23.5 8.42414 23.1313 7.76777 22.4749L1.52513 16.2322C0.868748 15.5759 0.5 14.6856 0.5 13.7574V10.2426C0.5 9.31438 0.868749 8.42414 1.52513 7.76777L7.76777 1.52513C8.42415 0.868748 9.31438 0.5 10.2426 0.5H13.7574C14.6856 0.5 15.5759 0.868749 16.2322 1.52513L22.4749 7.76777C23.1313 8.42415 23.5 9.31438 23.5 10.2426C23.5 13.1607 23.4447 16.0826 23.5 19C23.5 21.4853 21.4853 23.5 19 23.5C15.9795 23.5 13.2795 23.5 10.2426 23.5ZM8.47487 2.23223C8.94372 1.76339 9.5796 1.5 10.2426 1.5H13.7574C14.4204 1.5 15.0563 1.76339 15.5251 2.23223L21.7678 8.47487C22.2366 8.94372 22.5 9.5796 22.5 10.2426V14C22.5 14.2761 22.2761 14.5 22 14.5H19C16.5147 14.5 14.5 16.5147 14.5 19V22C14.5 22.2761 14.2761 22.5 14 22.5H10.2426C9.5796 22.5 8.94371 22.2366 8.47487 21.7678L2.23223 15.5251C1.76339 15.0563 1.5 14.4204 1.5 13.7574V10.2426C1.5 9.5796 1.76339 8.94371 2.23223 8.47487L8.47487 2.23223Z" fill="#001926"/>
<rect x="10" y="1.5" width="4" height="0.5" rx="0.25" fill="white"/>
<defs>
<radialGradient id="paint0_radial_35564_63964" cx="0" cy="0" r="1" gradientUnits="userSpaceOnUse" gradientTransform="translate(12 23) rotate(-90) scale(22)">
<stop stop-color="#FF8080"/>
<stop offset="0.496286" stop-color="#FF3333"/>
<stop offset="1" stop-color="#800000"/>
</radialGradient>
<linearGradient id="paint1_linear_35564_63964" x1="12" y1="1.5" x2="12" y2="22.5" gradientUnits="userSpaceOnUse">
<stop stop-color="white" stop-opacity="0.75"/>
<stop offset="1" stop-color="white" stop-opacity="0.15"/>
</linearGradient>
</defs>
</svg>
