<svg width="24" height="24" viewBox="0 0 24 24" fill="none" xmlns="http://www.w3.org/2000/svg">
<path fill-rule="evenodd" clip-rule="evenodd" d="M24 19C24 21.7614 21.7614 24 19 24H10.2426C9.18177 24 8.16436 23.5786 7.41421 22.8284L1.17157 16.5858C0.421426 15.8356 0 14.8182 0 13.7574V10.2426C0 9.18177 0.421427 8.16436 1.17157 7.41421L7.41421 1.17157C8.16436 0.421426 9.18178 0 10.2426 0H13.7574C14.8182 0 15.8356 0.421427 16.5858 1.17157L22.8284 7.41421C23.5786 8.16436 24 9.18178 24 10.2426C24 11.2221 23.9938 12.1985 23.9877 13.1731C23.9754 15.1158 23.9631 17.0515 23.9999 18.9905L24 19ZM23.5 19C23.4631 17.0549 23.4754 15.1079 23.4877 13.1613C23.4939 12.1882 23.5 11.2152 23.5 10.2426C23.5 9.31438 23.1313 8.42414 22.4749 7.76777L16.2322 1.52513C15.5759 0.868749 14.6856 0.5 13.7574 0.5H10.2426C9.31438 0.5 8.42414 0.868748 7.76777 1.52513L1.52513 7.76777C0.868749 8.42414 0.5 9.31438 0.5 10.2426V13.7574C0.5 14.6856 0.868748 15.5759 1.52513 16.2322L7.76777 22.4749C8.42414 23.1313 9.31438 23.5 10.2426 23.5H19C21.4853 23.5 23.5 21.4853 23.5 19Z" fill="#FF6666"/>
<path d="M8.12109 1.87866L1.87891 8.12134C1.31592 8.68396 1 9.44702 1 10.2427V13.7573C1 14.553 1.31592 15.316 1.87891 15.8787L8.12109 22.1213C8.68408 22.684 9.44678 23 10.2427 23H13.7573C14.5532 23 15.3159 22.684 15.8789 22.1213L22.1211 15.8787C22.6841 15.316 23 14.553 23 13.7573V10.2427C23 9.44702 22.6841 8.68396 22.1211 8.12134L15.8789 1.87866C15.3159 1.31604 14.5532 1 13.7573 1H10.2427C9.44678 1 8.68408 1.31604 8.12109 1.87866Z" fill="url(#paint0_radial_14537_52306)"/>
<path opacity="0.25" fill-rule="evenodd" clip-rule="evenodd" d="M10 1V2.58579C10 2.91731 9.8683 3.23525 9.63388 3.46967L3.46967 9.63388C3.23525 9.8683 2.91731 10 2.58579 10H1V9.5H2.58579C2.7847 9.5 2.97546 9.42098 3.11612 9.28033L9.28033 3.11612C9.42098 2.97546 9.5 2.7847 9.5 2.58579V1H10ZM14 1V2.58579C14 2.91731 14.1317 3.23525 14.3661 3.46967L20.5303 9.63388C20.7648 9.8683 21.0827 10 21.4142 10H23V9.5H21.4142C21.2153 9.5 21.0245 9.42098 20.8839 9.28033L14.7197 3.11612C14.579 2.97546 14.5 2.7847 14.5 2.58579V1H14ZM10 21.4142V23H9.5V21.4142C9.5 21.2153 9.42098 21.0245 9.28033 20.8839L3.11612 14.7197C2.97546 14.579 2.7847 14.5 2.58579 14.5H1V14H2.58579C2.91731 14 3.23525 14.1317 3.46967 14.3661L9.63388 20.5303C9.8683 20.7647 10 21.0827 10 21.4142ZM11.25 1V2.67157C11.25 3.26831 11.0129 3.84061 10.591 4.26256L4.26256 10.591C3.84061 11.0129 3.26831 11.25 2.67157 11.25H1V10.75H2.67157C3.1357 10.75 3.58082 10.5656 3.90901 10.2374L10.2374 3.90901C10.5656 3.58082 10.75 3.1357 10.75 2.67157V1H11.25ZM12.75 2.67157V1H13.25V2.67157C13.25 3.1357 13.4344 3.58082 13.7626 3.90901L20.091 10.2374C20.4192 10.5656 20.8643 10.75 21.3284 10.75H23V11.25H21.3284C20.7317 11.25 20.1594 11.0129 19.7374 10.591L13.409 4.26256C12.9871 3.84061 12.75 3.26831 12.75 2.67157ZM11.25 23V21.3284C11.25 20.7317 11.0129 20.1594 10.591 19.7374L4.26256 13.409C3.84061 12.9871 3.26831 12.75 2.67157 12.75H1V13.25H2.67157C3.1357 13.25 3.58082 13.4344 3.90901 13.7626L10.2374 20.091C10.5656 20.4192 10.75 20.8643 10.75 21.3284V23H11.25ZM12.75 20V23H13.25V20C13.25 19.5858 13.5858 19.25 14 19.25H15V18.75H14C13.3096 18.75 12.75 19.3096 12.75 20ZM20 12.75C19.3096 12.75 18.75 13.3096 18.75 14V15H19.25V14C19.25 13.5858 19.5858 13.25 20 13.25H23V12.75H20Z" fill="#FFCC00"/>
<path fill-rule="evenodd" clip-rule="evenodd" d="M10.2426 2C9.71221 2 9.2035 2.21071 8.82843 2.58579L2.58579 8.82843C2.21071 9.2035 2 9.71221 2 10.2426V13.7574C2 14.2878 2.21071 14.7965 2.58579 15.1716L8.82843 21.4142C9.2035 21.7893 9.71221 22 10.2426 22H14V19C14 16.2386 16.2386 14 19 14H22V10.2426C22 9.71221 21.7893 9.2035 21.4142 8.82843L15.1716 2.58579C14.7965 2.21071 14.2878 2 13.7574 2H10.2426ZM10.2426 1.5C9.5796 1.5 8.94372 1.76339 8.47487 2.23223L2.23223 8.47487C1.76339 8.94371 1.5 9.5796 1.5 10.2426V13.7574C1.5 14.4204 1.76339 15.0563 2.23223 15.5251L8.47487 21.7678C8.94371 22.2366 9.5796 22.5 10.2426 22.5H14C14.2761 22.5 14.5 22.2761 14.5 22V19C14.5 16.5147 16.5147 14.5 19 14.5H22C22.2761 14.5 22.5 14.2761 22.5 14V10.2426C22.5 9.5796 22.2366 8.94372 21.7678 8.47487L15.5251 2.23223C15.0563 1.76339 14.4204 1.5 13.7574 1.5H10.2426Z" fill="url(#paint1_linear_14537_52306)"/>
<path d="M6.5 6.5L11.3125 11.3125V9.59375C11.1226 9.59375 10.9688 9.43985 10.9688 9.25H13.0312C13.2211 9.25 13.375 9.4039 13.375 9.59375C12.9953 9.59375 12.6875 9.90155 12.6875 10.2812V11.3125L17.5 6.5V7.99296C17.5 8.35763 17.3551 8.70737 17.0973 8.96523L14.0625 12H14.4652C14.6476 12 14.8224 11.9276 14.9514 11.7986L17.5 9.25V9.48591C17.5 10.2153 17.2103 10.9147 16.6945 11.4305L16.125 12H17.5L16.4098 13.0902C15.7872 13.7128 14.9429 14.0625 14.0625 14.0625L15.0938 15.7812C14.454 15.7812 13.8611 15.4456 13.5319 14.897L13.0415 14.0795C13.0351 14.069 13.0237 14.0625 13.0114 14.0625H12.881C12.6748 14.0625 12.5475 14.2875 12.6536 14.4643L14.0625 16.8125C13.5123 16.8125 12.9845 16.5939 12.5955 16.2048L12.5156 16.125C12.5156 16.5713 12.3709 17.0055 12.1031 17.3625L12 17.5L11.8969 17.3625C11.6291 17.0055 11.4844 16.5713 11.4844 16.125L11.4045 16.2048C11.0155 16.5939 10.4877 16.8125 9.9375 16.8125L11.3464 14.4643C11.4525 14.2875 11.3252 14.0625 11.119 14.0625H10.9886C10.9763 14.0625 10.9649 14.069 10.9585 14.0795L10.4681 14.897C10.1389 15.4456 9.54603 15.7812 8.90625 15.7812L9.9375 14.0625C9.0571 14.0625 8.21277 13.7128 7.59023 13.0902L6.5 12H7.875L7.30545 11.4305C6.78973 10.9147 6.5 10.2153 6.5 9.48591V9.25L9.04864 11.7986C9.17757 11.9276 9.35243 12 9.53477 12H9.9375L6.90273 8.96523C6.64487 8.70737 6.5 8.35763 6.5 7.99296V6.5Z" fill="#FFCC00"/>
<path d="M10.9688 8.5625L10.625 7.01562L11.3125 7.53125L12 6.5L12.6875 7.53125L13.375 7.01562L13.0312 8.5625H10.9688Z" fill="#FFCC00"/>
<path fill-rule="evenodd" clip-rule="evenodd" d="M10.2426 23.5C9.31438 23.5 8.42414 23.1313 7.76777 22.4749L1.52513 16.2322C0.868748 15.5759 0.5 14.6856 0.5 13.7574V10.2426C0.5 9.31438 0.868749 8.42414 1.52513 7.76777L7.76777 1.52513C8.42415 0.868748 9.31438 0.5 10.2426 0.5H13.7574C14.6856 0.5 15.5759 0.868749 16.2322 1.52513L22.4749 7.76777C23.1313 8.42415 23.5 9.31438 23.5 10.2426C23.5 13.1607 23.4447 16.0826 23.5 19C23.5 21.4853 21.4853 23.5 19 23.5C15.9795 23.5 13.2795 23.5 10.2426 23.5ZM8.47487 2.23223C8.94372 1.76339 9.5796 1.5 10.2426 1.5H13.7574C14.4204 1.5 15.0563 1.76339 15.5251 2.23223L21.7678 8.47487C22.2366 8.94372 22.5 9.5796 22.5 10.2426V14C22.5 14.2761 22.2761 14.5 22 14.5H19C16.5147 14.5 14.5 16.5147 14.5 19V22C14.5 22.2761 14.2761 22.5 14 22.5H10.2426C9.5796 22.5 8.94371 22.2366 8.47487 21.7678L2.23223 15.5251C1.76339 15.0563 1.5 14.4204 1.5 13.7574V10.2426C1.5 9.5796 1.76339 8.94371 2.23223 8.47487L8.47487 2.23223Z" fill="#001926"/>
<rect x="10" y="1.5" width="4" height="0.5" rx="0.25" fill="white"/>
<defs>
<radialGradient id="paint0_radial_14537_52306" cx="0" cy="0" r="1" gradientUnits="userSpaceOnUse" gradientTransform="translate(12 23) rotate(-90) scale(22)">
<stop stop-color="#002A40"/>
<stop offset="1"/>
</radialGradient>
<linearGradient id="paint1_linear_14537_52306" x1="12" y1="1.5" x2="12" y2="22.5" gradientUnits="userSpaceOnUse">
<stop stop-color="#FFCC00"/>
<stop offset="1" stop-color="#FFCC00" stop-opacity="0.15"/>
</linearGradient>
</defs>
</svg>