<svg width="24" height="24" viewBox="0 0 24 24" fill="none" xmlns="http://www.w3.org/2000/svg">
<path fill-rule="evenodd" clip-rule="evenodd" d="M24 19C24 21.7614 21.7614 24 19 24H10.2426C9.18177 24 8.16436 23.5786 7.41421 22.8284L1.17157 16.5858C0.421426 15.8356 0 14.8182 0 13.7574V10.2426C0 9.18177 0.421427 8.16436 1.17157 7.41421L7.41421 1.17157C8.16436 0.421426 9.18178 0 10.2426 0H13.7574C14.8182 0 15.8356 0.421427 16.5858 1.17157L22.8284 7.41421C23.5786 8.16436 24 9.18178 24 10.2426C24 11.2221 23.9938 12.1985 23.9877 13.1731C23.9754 15.1158 23.9631 17.0515 23.9999 18.9905L24 19ZM23.5 19C23.4631 17.0549 23.4754 15.1079 23.4877 13.1613C23.4939 12.1882 23.5 11.2152 23.5 10.2426C23.5 9.31438 23.1313 8.42414 22.4749 7.76777L16.2322 1.52513C15.5759 0.868749 14.6856 0.5 13.7574 0.5H10.2426C9.31438 0.5 8.42414 0.868748 7.76777 1.52513L1.52513 7.76777C0.868749 8.42414 0.5 9.31438 0.5 10.2426V13.7574C0.5 14.6856 0.868748 15.5759 1.52513 16.2322L7.76777 22.4749C8.42414 23.1313 9.31438 23.5 10.2426 23.5H19C21.4853 23.5 23.5 21.4853 23.5 19Z" fill="#FFEE00"/>
<path d="M8.12109 1.87866L1.87891 8.12134C1.31592 8.68396 1 9.44702 1 10.2427V13.7573C1 14.553 1.31592 15.316 1.87891 15.8787L8.12109 22.1213C8.68408 22.684 9.44678 23 10.2427 23H13.7573C14.5532 23 15.3159 22.684 15.8789 22.1213L22.1211 15.8787C22.6841 15.316 23 14.553 23 13.7573V10.2427C23 9.44702 22.6841 8.68396 22.1211 8.12134L15.8789 1.87866C15.3159 1.31604 14.5532 1 13.7573 1H10.2427C9.44678 1 8.68408 1.31604 8.12109 1.87866Z" fill="url(#paint0_radial_28940_87745)"/>
<path fill-rule="evenodd" clip-rule="evenodd" d="M10 1V2.58579C10 2.91731 9.8683 3.23525 9.63388 3.46967L3.46967 9.63388C3.23525 9.8683 2.91731 10 2.58579 10H1V9.5H2.58579C2.7847 9.5 2.97546 9.42098 3.11612 9.28033L9.28033 3.11612C9.42098 2.97546 9.5 2.7847 9.5 2.58579V1H10ZM14 1V2.58579C14 2.91731 14.1317 3.23525 14.3661 3.46967L20.5303 9.63388C20.7648 9.8683 21.0827 10 21.4142 10H23V9.5H21.4142C21.2153 9.5 21.0245 9.42098 20.8839 9.28033L14.7197 3.11612C14.579 2.97546 14.5 2.7847 14.5 2.58579V1H14ZM10 21.4142V23H9.5V21.4142C9.5 21.2153 9.42098 21.0245 9.28033 20.8839L3.11612 14.7197C2.97546 14.579 2.7847 14.5 2.58579 14.5H1V14H2.58579C2.91731 14 3.23525 14.1317 3.46967 14.3661L9.63388 20.5303C9.8683 20.7647 10 21.0827 10 21.4142ZM11.25 1V2.67157C11.25 3.26831 11.0129 3.84061 10.591 4.26256L4.26256 10.591C3.84061 11.0129 3.26831 11.25 2.67157 11.25H1V10.75H2.67157C3.1357 10.75 3.58082 10.5656 3.90901 10.2374L10.2374 3.90901C10.5656 3.58082 10.75 3.1357 10.75 2.67157V1H11.25ZM12.75 2.67157V1H13.25V2.67157C13.25 3.1357 13.4344 3.58082 13.7626 3.90901L20.091 10.2374C20.4192 10.5656 20.8643 10.75 21.3284 10.75H23V11.25H21.3284C20.7317 11.25 20.1594 11.0129 19.7374 10.591L13.409 4.26256C12.9871 3.84061 12.75 3.26831 12.75 2.67157ZM11.25 23V21.3284C11.25 20.7317 11.0129 20.1594 10.591 19.7374L4.26256 13.409C3.84061 12.9871 3.26831 12.75 2.67157 12.75H1V13.25H2.67157C3.1357 13.25 3.58082 13.4344 3.90901 13.7626L10.2374 20.091C10.5656 20.4192 10.75 20.8643 10.75 21.3284V23H11.25ZM12.75 20V23H13.25V20C13.25 19.5858 13.5858 19.25 14 19.25H15V18.75H14C13.3096 18.75 12.75 19.3096 12.75 20ZM20 12.75C19.3096 12.75 18.75 13.3096 18.75 14V15H19.25V14C19.25 13.5858 19.5858 13.25 20 13.25H23V12.75H20Z" fill="white" fill-opacity="0.25"/>
<path fill-rule="evenodd" clip-rule="evenodd" d="M10.2426 2C9.71221 2 9.2035 2.21071 8.82843 2.58579L2.58579 8.82843C2.21071 9.2035 2 9.71221 2 10.2426V13.7574C2 14.2878 2.21071 14.7965 2.58579 15.1716L8.82843 21.4142C9.2035 21.7893 9.71221 22 10.2426 22H14V19C14 16.2386 16.2386 14 19 14H22V10.2426C22 9.71221 21.7893 9.2035 21.4142 8.82843L15.1716 2.58579C14.7965 2.21071 14.2878 2 13.7574 2H10.2426ZM10.2426 1.5C9.5796 1.5 8.94372 1.76339 8.47487 2.23223L2.23223 8.47487C1.76339 8.94371 1.5 9.5796 1.5 10.2426V13.7574C1.5 14.4204 1.76339 15.0563 2.23223 15.5251L8.47487 21.7678C8.94371 22.2366 9.5796 22.5 10.2426 22.5H14C14.2761 22.5 14.5 22.2761 14.5 22V19C14.5 16.5147 16.5147 14.5 19 14.5H22C22.2761 14.5 22.5 14.2761 22.5 14V10.2426C22.5 9.5796 22.2366 8.94372 21.7678 8.47487L15.5251 2.23223C15.0563 1.76339 14.4204 1.5 13.7574 1.5H10.2426Z" fill="url(#paint1_linear_28940_87745)"/>
<path fill-rule="evenodd" clip-rule="evenodd" d="M11.2175 6.69002C11.2757 6.57356 11.3947 6.5 11.5249 6.5H12.4751C12.6053 6.5 12.7243 6.57356 12.7825 6.69002L13.2328 7.59069C13.2751 7.67514 13.3504 7.73786 13.4398 7.76826C13.6235 7.83074 13.8018 7.90484 13.9738 7.98968C14.0586 8.03147 14.1562 8.04041 14.2459 8.01053L15.2015 7.692C15.325 7.65083 15.4612 7.68298 15.5532 7.77504L16.225 8.44687C16.3171 8.53893 16.3493 8.67512 16.3081 8.79864L15.9895 9.75429C15.9597 9.84391 15.9686 9.94157 16.0104 10.0263C16.0952 10.1983 16.1693 10.3766 16.2317 10.5602C16.2621 10.6496 16.3249 10.7249 16.4093 10.7672L17.31 11.2175C17.4264 11.2757 17.5 11.3947 17.5 11.5249V12.4751C17.5 12.6053 17.4264 12.7243 17.31 12.7825L16.4093 13.2328C16.3249 13.2751 16.2621 13.3504 16.2317 13.4398C16.1693 13.6234 16.0952 13.8016 16.0104 13.9736C15.9686 14.0584 15.9597 14.156 15.9896 14.2457L16.3082 15.2015C16.3493 15.325 16.3172 15.4612 16.2251 15.5532L15.5533 16.225C15.4612 16.3171 15.3251 16.3493 15.2015 16.3081L14.2458 15.9895C14.1562 15.9596 14.0585 15.9686 13.9738 16.0104C13.8017 16.0952 13.6234 16.1693 13.4398 16.2317C13.3504 16.2621 13.2751 16.3249 13.2328 16.4093L12.7825 17.31C12.7243 17.4264 12.6053 17.5 12.4751 17.5H11.5249C11.3947 17.5 11.2757 17.4264 11.2175 17.31L10.7672 16.4093C10.7249 16.3249 10.6496 16.2621 10.5602 16.2317C10.3766 16.1693 10.1983 16.0952 10.0263 16.0104C9.94157 15.9686 9.8439 15.9597 9.75428 15.9895L8.79865 16.3081C8.67512 16.3493 8.53894 16.3171 8.44687 16.225L7.77505 15.5532C7.68298 15.4612 7.65084 15.325 7.69201 15.2014L8.01054 14.2459C8.04041 14.1562 8.03147 14.0586 7.98969 13.9738C7.90484 13.8018 7.83074 13.6235 7.76826 13.4398C7.73786 13.3504 7.67514 13.2751 7.59069 13.2328L6.69002 12.7825C6.57356 12.7243 6.5 12.6053 6.5 12.475V11.5249C6.5 11.3947 6.57356 11.2757 6.69002 11.2175L7.59069 10.7672C7.67514 10.7249 7.73786 10.6496 7.76826 10.5602C7.83075 10.3765 7.90485 10.1982 7.98971 10.0261C8.0315 9.94138 8.04044 9.8437 8.01056 9.75408L7.69209 8.79865C7.65091 8.67512 7.68306 8.53894 7.77513 8.44687L8.44695 7.77505C8.53902 7.68298 8.6752 7.65083 8.79872 7.69201L9.7542 8.0105C9.84382 8.04038 9.94149 8.03144 10.0262 7.98966C10.1983 7.90482 10.3766 7.83073 10.5602 7.76826C10.6496 7.73786 10.7249 7.67514 10.7672 7.59069L11.2175 6.69002ZM11.9998 10.6251L13.0311 9.59377V9.25H12.4582C11.1925 9.25 10.1664 10.2761 10.1664 11.5418C10.1664 11.8781 10.2388 12.1975 10.3689 12.4852L9.4789 13.3753C9.16247 13.6917 9.18514 14.2273 9.47891 14.5212C9.77272 14.8151 10.3084 14.8376 10.6248 14.5212L11.5148 13.6311C11.8025 13.7612 12.1219 13.8336 12.4582 13.8336C13.7239 13.8336 14.75 12.8075 14.75 11.5418V10.9689H14.4062L13.3749 12.0002H12.9165L11.9998 11.0835V10.6251Z" fill="white"/>
<path fill-rule="evenodd" clip-rule="evenodd" d="M10.2426 23.5C9.31438 23.5 8.42414 23.1313 7.76777 22.4749L1.52513 16.2322C0.868748 15.5759 0.5 14.6856 0.5 13.7574V10.2426C0.5 9.31438 0.868749 8.42414 1.52513 7.76777L7.76777 1.52513C8.42415 0.868748 9.31438 0.5 10.2426 0.5H13.7574C14.6856 0.5 15.5759 0.868749 16.2322 1.52513L22.4749 7.76777C23.1313 8.42415 23.5 9.31438 23.5 10.2426C23.5 13.1607 23.4447 16.0826 23.5 19C23.5 21.4853 21.4853 23.5 19 23.5C15.9795 23.5 13.2795 23.5 10.2426 23.5ZM8.47487 2.23223C8.94372 1.76339 9.5796 1.5 10.2426 1.5H13.7574C14.4204 1.5 15.0563 1.76339 15.5251 2.23223L21.7678 8.47487C22.2366 8.94372 22.5 9.5796 22.5 10.2426V14C22.5 14.2761 22.2761 14.5 22 14.5H19C16.5147 14.5 14.5 16.5147 14.5 19V22C14.5 22.2761 14.2761 22.5 14 22.5H10.2426C9.5796 22.5 8.94371 22.2366 8.47487 21.7678L2.23223 15.5251C1.76339 15.0563 1.5 14.4204 1.5 13.7574V10.2426C1.5 9.5796 1.76339 8.94371 2.23223 8.47487L8.47487 2.23223Z" fill="#001926"/>
<rect x="10" y="1.5" width="4" height="0.5" rx="0.25" fill="white"/>
<defs>
<radialGradient id="paint0_radial_28940_87745" cx="0" cy="0" r="1" gradientUnits="userSpaceOnUse" gradientTransform="translate(12 23) rotate(-90) scale(22)">
<stop stop-color="#FF8080"/>
<stop offset="0.496286" stop-color="#FF3333"/>
<stop offset="1" stop-color="#800000"/>
</radialGradient>
<linearGradient id="paint1_linear_28940_87745" x1="12" y1="1.5" x2="12" y2="22.5" gradientUnits="userSpaceOnUse">
<stop stop-color="white" stop-opacity="0.75"/>
<stop offset="1" stop-color="white" stop-opacity="0.15"/>
</linearGradient>
</defs>
</svg>