<svg xmlns="http://www.w3.org/2000/svg" width="24" height="24" viewBox="0 0 24 24" fill="none">
<path d="M23 12C23 5.92487 18.0751 1 12 1C5.92487 1 1 5.92487 1 12C1 18.0751 5.92487 23 12 23H18.6957C21.0729 23 23 21.0729 23 18.6957V12Z" fill="url(#paint0_radial_10758_45536)"/>
<path opacity="0.5" d="M18.7163 5.28361L11.9999 12L5.28125 5.28136C7.00032 3.56286 9.37486 2.5 11.9976 2.5C14.6216 2.5 16.997 3.56379 18.7163 5.28361Z" fill="url(#paint1_radial_10758_45536)"/>
<path d="M20.7869 9.17152C21.5956 9.95252 22 10.9763 22 12V19C22 20.6569 20.6569 22 19 22H12C6.47715 22 2 17.5228 2 12C2 13.0237 2.40438 14.0475 3.21313 14.8285C4.83063 16.3905 7.45354 16.3905 9.07104 14.8285L14.929 9.17152C16.5465 7.60949 19.1694 7.60949 20.7869 9.17152Z" fill="url(#paint2_radial_10758_45536)"/>
<path opacity="0.75" fill-rule="evenodd" clip-rule="evenodd" d="M20.6132 9.35135C19.0926 7.88288 16.6232 7.88288 15.1026 9.35135L9.24471 15.0083C7.53033 16.6639 4.75385 16.6639 3.03946 15.0083C2.18092 14.1792 1.75 13.0901 1.75 12H2C2 13.0237 2.40438 14.0475 3.21313 14.8285C4.83063 16.3905 7.45354 16.3905 9.07104 14.8285L14.929 9.17152C16.5465 7.60949 19.1694 7.60949 20.7869 9.17152C21.5956 9.95252 22 10.9763 22 12H21.75C21.75 11.0427 21.3722 10.0843 20.6132 9.35135Z" fill="url(#paint3_radial_10758_45536)"/>
<path fill-rule="evenodd" clip-rule="evenodd" d="M12 0C18.6274 2.68221e-07 24 5.37258 24 12V19C24 21.7614 21.7614 24 19 24H12C5.37258 24 -2.98023e-07 18.6274 0 12C2.68221e-07 5.37258 5.37258 -2.98023e-07 12 0ZM12 0.5C18.3513 0.5 23.5 5.64873 23.5 12V19C23.5 21.4853 21.4853 23.5 19 23.5H12C5.64873 23.5 0.5 18.3513 0.5 12C0.5 5.64873 5.64873 0.5 12 0.5Z" fill="#D580FF"/>
<path fill-rule="evenodd" clip-rule="evenodd" d="M12 22.5C6.20101 22.5 1.5 17.799 1.5 12C1.5 6.20101 6.20101 1.5 12 1.5C17.799 1.5 22.5 6.20101 22.5 12V14C22.5 14.2761 22.2761 14.5 22 14.5H19C16.5147 14.5 14.5 16.5147 14.5 19V22C14.5 22.2761 14.2761 22.5 14 22.5H12ZM2 12C2 17.5228 6.47715 22 12 22H14V19C14 16.2386 16.2386 14 19 14H22V12C22 6.47715 17.5228 2 12 2C6.47715 2 2 6.47715 2 12Z" fill="url(#paint4_linear_10758_45536)"/>
<path fill-rule="evenodd" clip-rule="evenodd" d="M23.4774 17H23.5V12C23.5 5.64873 18.3513 0.5 12 0.5C5.64873 0.5 0.5 5.64872 0.5 12C0.5 18.3513 5.64872 23.5 12 23.5H19C21.4853 23.5 23.5 21.4853 23.5 19C23.4874 18.3335 23.4805 17.6668 23.4774 17ZM14 22.5C14.2761 22.5 14.5 22.2761 14.5 22V19C14.5 16.5147 16.5147 14.5 19 14.5H22C22.2761 14.5 22.5 14.2761 22.5 14V12C22.5 6.20101 17.799 1.5 12 1.5C6.20101 1.5 1.5 6.20101 1.5 12C1.5 17.799 6.20101 22.5 12 22.5H14Z" fill="#001926"/>
<path d="M11.75 3C11.6119 3 11.5 3.11193 11.5 3.25C11.5 3.38807 11.6119 3.5 11.75 3.5H12.25C12.3881 3.5 12.5 3.38807 12.5 3.25C12.5 3.11193 12.3881 3 12.25 3H11.75Z" fill="white"/>
<path opacity="0.5" d="M11.75 20.5C11.6119 20.5 11.5 20.6119 11.5 20.75C11.5 20.8881 11.6119 21 11.75 21H12.25C12.3881 21 12.5 20.8881 12.5 20.75C12.5 20.6119 12.3881 20.5 12.25 20.5H11.75Z" fill="white"/>
<path opacity="0.25" d="M9.07104 14.8285C7.45354 16.3905 4.83063 16.3905 3.21313 14.8285C1.59562 13.2665 1.59562 10.7335 3.21313 9.17152C4.83063 7.60949 7.45354 7.60949 9.07104 9.17152L12 12L9.07104 14.8285Z" fill="url(#paint5_radial_10758_45536)"/>
<defs>
<radialGradient id="paint0_radial_10758_45536" cx="0" cy="0" r="1" gradientUnits="userSpaceOnUse" gradientTransform="translate(12 12) rotate(90) scale(11)">
<stop stop-color="#40FFFF"/>
<stop offset="0.911458" stop-color="#008080"/>
</radialGradient>
<radialGradient id="paint1_radial_10758_45536" cx="0" cy="0" r="1" gradientUnits="userSpaceOnUse" gradientTransform="translate(11.9978 2.5) rotate(90) scale(6.5)">
<stop stop-color="white"/>
<stop offset="1" stop-color="white" stop-opacity="0"/>
</radialGradient>
<radialGradient id="paint2_radial_10758_45536" cx="0" cy="0" r="1" gradientUnits="userSpaceOnUse" gradientTransform="translate(12 12) rotate(90) scale(9)">
<stop stop-color="white" stop-opacity="0.75"/>
<stop offset="1" stop-color="white" stop-opacity="0.15"/>
</radialGradient>
<radialGradient id="paint3_radial_10758_45536" cx="0" cy="0" r="1" gradientUnits="userSpaceOnUse" gradientTransform="translate(12 12) scale(9 22.0909)">
<stop stop-color="white"/>
<stop offset="1" stop-color="white" stop-opacity="0"/>
</radialGradient>
<linearGradient id="paint4_linear_10758_45536" x1="12" y1="1.5" x2="12" y2="22.5" gradientUnits="userSpaceOnUse">
<stop stop-color="white" stop-opacity="0.75"/>
<stop offset="1" stop-color="white" stop-opacity="0.15"/>
</linearGradient>
<radialGradient id="paint5_radial_10758_45536" cx="0" cy="0" r="1" gradientUnits="userSpaceOnUse" gradientTransform="translate(6 16) rotate(-90) scale(8)">
<stop stop-color="white" stop-opacity="0"/>
<stop offset="1" stop-color="white"/>
</radialGradient>
</defs>
</svg>
