<svg width="24" height="24" viewBox="0 0 24 24" fill="none" xmlns="http://www.w3.org/2000/svg">
<path fill-rule="evenodd" clip-rule="evenodd" d="M24 19C24 21.7614 21.7614 24 19 24H10.2426C9.18177 24 8.16436 23.5786 7.41421 22.8284L1.17157 16.5858C0.421426 15.8356 0 14.8182 0 13.7574V10.2426C0 9.18177 0.421427 8.16436 1.17157 7.41421L7.41421 1.17157C8.16436 0.421426 9.18178 0 10.2426 0H13.7574C14.8182 0 15.8356 0.421427 16.5858 1.17157L22.8284 7.41421C23.5786 8.16436 24 9.18178 24 10.2426C24 11.2221 23.9938 12.1985 23.9877 13.1731C23.9754 15.1158 23.9631 17.0515 23.9999 18.9905L24 19ZM23.5 19C23.4631 17.0549 23.4754 15.1079 23.4877 13.1613C23.4939 12.1882 23.5 11.2152 23.5 10.2426C23.5 9.31438 23.1313 8.42414 22.4749 7.76777L16.2322 1.52513C15.5759 0.868749 14.6856 0.5 13.7574 0.5H10.2426C9.31438 0.5 8.42414 0.868748 7.76777 1.52513L1.52513 7.76777C0.868749 8.42414 0.5 9.31438 0.5 10.2426V13.7574C0.5 14.6856 0.868748 15.5759 1.52513 16.2322L7.76777 22.4749C8.42414 23.1313 9.31438 23.5 10.2426 23.5H19C21.4853 23.5 23.5 21.4853 23.5 19Z" fill="#FFEE00"/>
<path d="M8.12109 1.87866L1.87891 8.12134C1.31592 8.68396 1 9.44702 1 10.2427V13.7573C1 14.553 1.31592 15.316 1.87891 15.8787L8.12109 22.1213C8.68408 22.684 9.44678 23 10.2427 23H13.7573C14.5532 23 15.3159 22.684 15.8789 22.1213L22.1211 15.8787C22.6841 15.316 23 14.553 23 13.7573V10.2427C23 9.44702 22.6841 8.68396 22.1211 8.12134L15.8789 1.87866C15.3159 1.31604 14.5532 1 13.7573 1H10.2427C9.44678 1 8.68408 1.31604 8.12109 1.87866Z" fill="url(#paint0_radial_32453_88362)"/>
<path fill-rule="evenodd" clip-rule="evenodd" d="M10 1V2.58579C10 2.91731 9.8683 3.23525 9.63388 3.46967L3.46967 9.63388C3.23525 9.8683 2.91731 10 2.58579 10H1V9.5H2.58579C2.7847 9.5 2.97546 9.42098 3.11612 9.28033L9.28033 3.11612C9.42098 2.97546 9.5 2.7847 9.5 2.58579V1H10ZM14 1V2.58579C14 2.91731 14.1317 3.23525 14.3661 3.46967L20.5303 9.63388C20.7648 9.8683 21.0827 10 21.4142 10H23V9.5H21.4142C21.2153 9.5 21.0245 9.42098 20.8839 9.28033L14.7197 3.11612C14.579 2.97546 14.5 2.7847 14.5 2.58579V1H14ZM10 21.4142V23H9.5V21.4142C9.5 21.2153 9.42098 21.0245 9.28033 20.8839L3.11612 14.7197C2.97546 14.579 2.7847 14.5 2.58579 14.5H1V14H2.58579C2.91731 14 3.23525 14.1317 3.46967 14.3661L9.63388 20.5303C9.8683 20.7647 10 21.0827 10 21.4142ZM11.25 1V2.67157C11.25 3.26831 11.0129 3.84061 10.591 4.26256L4.26256 10.591C3.84061 11.0129 3.26831 11.25 2.67157 11.25H1V10.75H2.67157C3.1357 10.75 3.58082 10.5656 3.90901 10.2374L10.2374 3.90901C10.5656 3.58082 10.75 3.1357 10.75 2.67157V1H11.25ZM12.75 2.67157V1H13.25V2.67157C13.25 3.1357 13.4344 3.58082 13.7626 3.90901L20.091 10.2374C20.4192 10.5656 20.8643 10.75 21.3284 10.75H23V11.25H21.3284C20.7317 11.25 20.1594 11.0129 19.7374 10.591L13.409 4.26256C12.9871 3.84061 12.75 3.26831 12.75 2.67157ZM11.25 23V21.3284C11.25 20.7317 11.0129 20.1594 10.591 19.7374L4.26256 13.409C3.84061 12.9871 3.26831 12.75 2.67157 12.75H1V13.25H2.67157C3.1357 13.25 3.58082 13.4344 3.90901 13.7626L10.2374 20.091C10.5656 20.4192 10.75 20.8643 10.75 21.3284V23H11.25ZM12.75 20V23H13.25V20C13.25 19.5858 13.5858 19.25 14 19.25H15V18.75H14C13.3096 18.75 12.75 19.3096 12.75 20ZM20 12.75C19.3096 12.75 18.75 13.3096 18.75 14V15H19.25V14C19.25 13.5858 19.5858 13.25 20 13.25H23V12.75H20Z" fill="white" fill-opacity="0.25"/>
<path fill-rule="evenodd" clip-rule="evenodd" d="M10.2426 2C9.71221 2 9.2035 2.21071 8.82843 2.58579L2.58579 8.82843C2.21071 9.2035 2 9.71221 2 10.2426V13.7574C2 14.2878 2.21071 14.7965 2.58579 15.1716L8.82843 21.4142C9.2035 21.7893 9.71221 22 10.2426 22H14V19C14 16.2386 16.2386 14 19 14H22V10.2426C22 9.71221 21.7893 9.2035 21.4142 8.82843L15.1716 2.58579C14.7965 2.21071 14.2878 2 13.7574 2H10.2426ZM10.2426 1.5C9.5796 1.5 8.94372 1.76339 8.47487 2.23223L2.23223 8.47487C1.76339 8.94371 1.5 9.5796 1.5 10.2426V13.7574C1.5 14.4204 1.76339 15.0563 2.23223 15.5251L8.47487 21.7678C8.94371 22.2366 9.5796 22.5 10.2426 22.5H14C14.2761 22.5 14.5 22.2761 14.5 22V19C14.5 16.5147 16.5147 14.5 19 14.5H22C22.2761 14.5 22.5 14.2761 22.5 14V10.2426C22.5 9.5796 22.2366 8.94372 21.7678 8.47487L15.5251 2.23223C15.0563 1.76339 14.4204 1.5 13.7574 1.5H10.2426Z" fill="url(#paint1_linear_32453_88362)"/>
<path d="M10.7747 8.37733C10.9818 8.73605 10.8589 9.19474 10.5002 9.40185C10.1415 9.60895 9.68277 9.48605 9.47566 9.12733C9.26855 8.76861 9.39146 8.30991 9.75018 8.10281C10.1089 7.8957 10.5676 8.01861 10.7747 8.37733Z" fill="white"/>
<path d="M14.5245 14.8727C14.7316 15.2314 14.6087 15.6901 14.2499 15.8972C13.8912 16.1043 13.4325 15.9814 13.2254 15.6227C13.0183 15.2639 13.1412 14.8052 13.4999 14.5981C13.8587 14.391 14.3174 14.5139 14.5245 14.8727Z" fill="white"/>
<path fill-rule="evenodd" clip-rule="evenodd" d="M13.4566 6.17814C13.3129 6.14231 13.1665 6.2047 13.0619 6.30952C12.7904 6.5817 12.4149 6.75011 12 6.75011C11.5851 6.75011 11.2096 6.5817 10.9381 6.30952C10.8335 6.2047 10.6871 6.14231 10.5434 6.17814C9.43819 6.45376 8.45424 7.03586 7.68707 7.82894C7.58409 7.9354 7.56471 8.09344 7.60307 8.2365C7.70253 8.60738 7.66046 9.01621 7.4533 9.37502C7.24588 9.73429 6.91228 9.97529 6.5408 10.0744C6.39754 10.1126 6.27015 10.2084 6.22948 10.351C6.08002 10.8749 6 11.4282 6 12.0001C6 12.572 6.08002 13.1253 6.22947 13.6492C6.27014 13.7918 6.39755 13.8876 6.54082 13.9258C6.91235 14.0249 7.24599 14.2659 7.45343 14.6252C7.66061 14.984 7.70267 15.3929 7.60318 15.7638C7.56481 15.9069 7.58419 16.0649 7.68718 16.1714C8.45434 16.9644 9.43824 17.5465 10.5434 17.8221C10.6871 17.8579 10.8335 17.7955 10.9381 17.6907C11.2096 17.4185 11.5851 17.2501 12 17.2501C12.4149 17.2501 12.7904 17.4185 13.0619 17.6907C13.1665 17.7955 13.3129 17.8579 13.4566 17.8221C14.5618 17.5465 15.5457 16.9644 16.3129 16.1714C16.4159 16.0649 16.4352 15.9068 16.3968 15.7637C16.2973 15.3928 16.3394 14.9839 16.5466 14.625C16.754 14.2657 17.0877 14.0247 17.4592 13.9256C17.6025 13.8874 17.7299 13.7916 17.7706 13.649C17.92 13.1251 18 12.572 18 12.0001C18 11.4283 17.92 10.8751 17.7706 10.3512C17.7299 10.2086 17.6025 10.1128 17.4592 10.0746C17.0877 9.97548 16.7541 9.73448 16.5467 9.3752C16.3395 9.01635 16.2975 8.60748 16.397 8.23657C16.4353 8.0935 16.416 7.93545 16.313 7.82898C15.5458 7.03588 14.5618 6.45377 13.4566 6.17814ZM11.4242 8.00233C11.8384 8.71976 11.5926 9.63715 10.8752 10.0514C10.1577 10.4656 9.24035 10.2198 8.82614 9.50233C8.41193 8.78489 8.65774 7.8675 9.37518 7.45329C10.0926 7.03907 11.01 7.28489 11.4242 8.00233ZM15.174 14.4977C15.5882 15.2151 15.3424 16.1325 14.6249 16.5467C13.9075 16.9609 12.9901 16.7151 12.5759 15.9977C12.1617 15.2802 12.4075 14.3628 13.1249 13.9486C13.8424 13.5344 14.7598 13.7802 15.174 14.4977ZM13.1251 10.0515C13.8425 10.4657 14.7599 10.2199 15.1741 9.50248C15.5884 8.78504 15.3425 7.86766 14.6251 7.45344C13.9077 7.03923 12.9903 7.28504 12.5761 8.00248C12.1618 8.71992 12.4077 9.63731 13.1251 10.0515ZM9.37486 16.5466C10.0923 16.9608 11.0097 16.715 11.4239 15.9975C11.8381 15.2801 11.5923 14.3627 10.8749 13.9485C10.1574 13.5343 9.24003 13.7801 8.82582 14.4975C8.41161 15.215 8.65742 16.1324 9.37486 16.5466ZM8.25006 10.4999C9.07849 10.4999 9.75006 11.1714 9.75006 11.9999C9.75006 12.8283 9.07849 13.4999 8.25006 13.4999C7.42163 13.4999 6.75006 12.8283 6.75006 11.9999C6.75006 11.1714 7.42163 10.4999 8.25006 10.4999ZM15.7501 10.5001C16.5785 10.5001 17.2501 11.1717 17.2501 12.0001C17.2501 12.8286 16.5785 13.5001 15.7501 13.5001C14.9216 13.5001 14.2501 12.8286 14.2501 12.0001C14.2501 11.1717 14.9216 10.5001 15.7501 10.5001ZM12 12.7501C12.4142 12.7501 12.75 12.4143 12.75 12.0001C12.75 11.5859 12.4142 11.2501 12 11.2501C11.5858 11.2501 11.25 11.5859 11.25 12.0001C11.25 12.4143 11.5858 12.7501 12 12.7501Z" fill="white"/>
<path fill-rule="evenodd" clip-rule="evenodd" d="M10.2426 23.5C9.31438 23.5 8.42414 23.1313 7.76777 22.4749L1.52513 16.2322C0.868748 15.5759 0.5 14.6856 0.5 13.7574V10.2426C0.5 9.31438 0.868749 8.42414 1.52513 7.76777L7.76777 1.52513C8.42415 0.868748 9.31438 0.5 10.2426 0.5H13.7574C14.6856 0.5 15.5759 0.868749 16.2322 1.52513L22.4749 7.76777C23.1313 8.42415 23.5 9.31438 23.5 10.2426C23.5 13.1607 23.4447 16.0826 23.5 19C23.5 21.4853 21.4853 23.5 19 23.5C15.9795 23.5 13.2795 23.5 10.2426 23.5ZM8.47487 2.23223C8.94372 1.76339 9.5796 1.5 10.2426 1.5H13.7574C14.4204 1.5 15.0563 1.76339 15.5251 2.23223L21.7678 8.47487C22.2366 8.94372 22.5 9.5796 22.5 10.2426V14C22.5 14.2761 22.2761 14.5 22 14.5H19C16.5147 14.5 14.5 16.5147 14.5 19V22C14.5 22.2761 14.2761 22.5 14 22.5H10.2426C9.5796 22.5 8.94371 22.2366 8.47487 21.7678L2.23223 15.5251C1.76339 15.0563 1.5 14.4204 1.5 13.7574V10.2426C1.5 9.5796 1.76339 8.94371 2.23223 8.47487L8.47487 2.23223Z" fill="#001926"/>
<rect x="10" y="1.5" width="4" height="0.5" rx="0.25" fill="white"/>
<defs>
<radialGradient id="paint0_radial_32453_88362" cx="0" cy="0" r="1" gradientUnits="userSpaceOnUse" gradientTransform="translate(12 23) rotate(-90) scale(22)">
<stop stop-color="#FF8080"/>
<stop offset="0.496286" stop-color="#FF3333"/>
<stop offset="1" stop-color="#800000"/>
</radialGradient>
<linearGradient id="paint1_linear_32453_88362" x1="12" y1="1.5" x2="12" y2="22.5" gradientUnits="userSpaceOnUse">
<stop stop-color="white" stop-opacity="0.75"/>
<stop offset="1" stop-color="white" stop-opacity="0.15"/>
</linearGradient>
</defs>
</svg>