<svg width="24" height="24" viewBox="0 0 24 24" fill="none" xmlns="http://www.w3.org/2000/svg">
<path fill-rule="evenodd" clip-rule="evenodd" d="M24 19C24 21.7614 21.7614 24 19 24H10.2426C9.18177 24 8.16436 23.5786 7.41421 22.8284L1.17157 16.5858C0.421426 15.8356 0 14.8182 0 13.7574V10.2426C0 9.18177 0.421427 8.16436 1.17157 7.41421L7.41421 1.17157C8.16436 0.421426 9.18178 0 10.2426 0H13.7574C14.8182 0 15.8356 0.421427 16.5858 1.17157L22.8284 7.41421C23.5786 8.16436 24 9.18178 24 10.2426C24 11.2221 23.9938 12.1985 23.9877 13.1731C23.9754 15.1158 23.9631 17.0515 23.9999 18.9905L24 19ZM23.5 19C23.4631 17.0549 23.4754 15.1079 23.4877 13.1613C23.4939 12.1882 23.5 11.2152 23.5 10.2426C23.5 9.31438 23.1313 8.42414 22.4749 7.76777L16.2322 1.52513C15.5759 0.868749 14.6856 0.5 13.7574 0.5H10.2426C9.31438 0.5 8.42414 0.868748 7.76777 1.52513L1.52513 7.76777C0.868749 8.42414 0.5 9.31438 0.5 10.2426V13.7574C0.5 14.6856 0.868748 15.5759 1.52513 16.2322L7.76777 22.4749C8.42414 23.1313 9.31438 23.5 10.2426 23.5H19C21.4853 23.5 23.5 21.4853 23.5 19Z" fill="#FFEE00"/>
<path d="M8.12109 1.87866L1.87891 8.12134C1.31592 8.68396 1 9.44702 1 10.2427V13.7573C1 14.553 1.31592 15.316 1.87891 15.8787L8.12109 22.1213C8.68408 22.684 9.44678 23 10.2427 23H13.7573C14.5532 23 15.3159 22.684 15.8789 22.1213L22.1211 15.8787C22.6841 15.316 23 14.553 23 13.7573V10.2427C23 9.44702 22.6841 8.68396 22.1211 8.12134L15.8789 1.87866C15.3159 1.31604 14.5532 1 13.7573 1H10.2427C9.44678 1 8.68408 1.31604 8.12109 1.87866Z" fill="url(#paint0_radial_35527_63478)"/>
<path d="M2.58594 14C2.9174 14 3.23534 14.1318 3.46973 14.3662L9.63379 20.5303C9.86817 20.7647 9.99996 21.0826 10 21.4141V23H9.5V21.4141C9.49996 21.2152 9.42089 21.0244 9.28027 20.8838L3.11621 14.7197C2.97559 14.5791 2.7848 14.5 2.58594 14.5H1V14H2.58594ZM2.67188 12.75C3.2685 12.7501 3.84081 12.9873 4.2627 13.4092L10.5908 19.7373C11.0127 20.1592 11.2499 20.7315 11.25 21.3281V23H10.75V21.3281C10.7499 20.8641 10.5654 20.4189 10.2373 20.0908L3.90918 13.7627C3.58106 13.4346 3.13589 13.2501 2.67188 13.25H1V12.75H2.67188ZM15 19.25H14C13.5858 19.25 13.25 19.5858 13.25 20V23H12.75V20C12.75 19.3096 13.3096 18.75 14 18.75H15V19.25ZM23 13.25H20C19.5858 13.25 19.25 13.5858 19.25 14V15H18.75V14C18.75 13.3096 19.3096 12.75 20 12.75H23V13.25ZM11.25 2.67188C11.2499 3.2685 11.0127 3.84081 10.5908 4.2627L4.2627 10.5908C3.84081 11.0127 3.2685 11.2499 2.67188 11.25H1V10.75H2.67188C3.13589 10.7499 3.58106 10.5654 3.90918 10.2373L10.2373 3.90918C10.5654 3.58106 10.7499 3.13589 10.75 2.67188V1H11.25V2.67188ZM13.25 2.67188C13.2501 3.13589 13.4346 3.58106 13.7627 3.90918L20.0908 10.2373C20.4189 10.5654 20.8641 10.7499 21.3281 10.75H23V11.25H21.3281C20.7315 11.2499 20.1592 11.0127 19.7373 10.5908L13.4092 4.2627C12.9873 3.84081 12.7501 3.2685 12.75 2.67188V1H13.25V2.67188ZM10 2.58594C9.99996 2.9174 9.86817 3.23534 9.63379 3.46973L3.46973 9.63379C3.23534 9.86817 2.9174 9.99996 2.58594 10H1V9.5H2.58594C2.7848 9.49996 2.97559 9.42089 3.11621 9.28027L9.28027 3.11621C9.42089 2.97559 9.49996 2.7848 9.5 2.58594V1H10V2.58594ZM14.5 2.58594C14.5 2.7848 14.5791 2.97559 14.7197 3.11621L20.8838 9.28027C21.0244 9.42089 21.2152 9.49996 21.4141 9.5H23V10H21.4141C21.0826 9.99996 20.7647 9.86817 20.5303 9.63379L14.3662 3.46973C14.1318 3.23534 14 2.9174 14 2.58594V1H14.5V2.58594Z" fill="white" fill-opacity="0.25"/>
<path fill-rule="evenodd" clip-rule="evenodd" d="M10.2426 2C9.71221 2 9.2035 2.21071 8.82843 2.58579L2.58579 8.82843C2.21071 9.2035 2 9.71221 2 10.2426V13.7574C2 14.2878 2.21071 14.7965 2.58579 15.1716L8.82843 21.4142C9.2035 21.7893 9.71221 22 10.2426 22H14V19C14 16.2386 16.2386 14 19 14H22V10.2426C22 9.71221 21.7893 9.2035 21.4142 8.82843L15.1716 2.58579C14.7965 2.21071 14.2878 2 13.7574 2H10.2426ZM10.2426 1.5C9.5796 1.5 8.94372 1.76339 8.47487 2.23223L2.23223 8.47487C1.76339 8.94371 1.5 9.5796 1.5 10.2426V13.7574C1.5 14.4204 1.76339 15.0563 2.23223 15.5251L8.47487 21.7678C8.94371 22.2366 9.5796 22.5 10.2426 22.5H14C14.2761 22.5 14.5 22.2761 14.5 22V19C14.5 16.5147 16.5147 14.5 19 14.5H22C22.2761 14.5 22.5 14.2761 22.5 14V10.2426C22.5 9.5796 22.2366 8.94372 21.7678 8.47487L15.5251 2.23223C15.0563 1.76339 14.4204 1.5 13.7574 1.5H10.2426Z" fill="url(#paint1_linear_35527_63478)"/>
<path d="M7.80404 13.4463C7.93828 13.3121 8.15589 13.312 8.29012 13.4463L10.554 15.7102C10.6882 15.8444 10.6882 16.0621 10.554 16.1963L9.49325 17.2571C9.35903 17.3913 9.1414 17.3912 9.00716 17.2571L6.74325 14.9932C6.60901 14.8589 6.60903 14.6413 6.74325 14.5071L7.80404 13.4463Z" fill="white"/>
<path fill-rule="evenodd" clip-rule="evenodd" d="M10.7682 8.2766C11.7127 6.38817 14.2299 5.97933 15.723 7.47228L16.5274 8.27727C18.0205 9.77037 17.6122 12.2876 15.7237 13.2321L11.5343 15.3268C11.402 15.3929 11.2421 15.3669 11.1375 15.2624L8.66341 12.7883C8.59897 12.7239 8.56273 12.6364 8.56271 12.5453V8.32293C8.56271 8.0756 8.76319 7.87511 9.01052 7.87511C9.16024 7.87512 9.30009 7.94994 9.38314 8.07451L10.2318 9.34813L10.7682 8.2766ZM15.9889 8.71636C15.7189 8.49621 15.3208 8.51182 15.0691 8.76336C14.8175 9.01504 14.802 9.41315 15.0221 9.68316L15.0691 9.73552L15.1524 9.82952C15.5092 10.2834 15.4175 10.9452 14.963 11.2871L14.8603 11.3556C14.5319 11.5459 14.4198 11.9664 14.6099 12.2948C14.8002 12.6232 15.2207 12.7354 15.5492 12.5453L15.6734 12.4687C16.8783 11.6711 17.1166 9.96782 16.1427 8.87078L16.0413 8.76336L15.9889 8.71636Z" fill="white"/>
<path fill-rule="evenodd" clip-rule="evenodd" d="M10.2426 23.5C9.31438 23.5 8.42414 23.1313 7.76777 22.4749L1.52513 16.2322C0.868748 15.5759 0.5 14.6856 0.5 13.7574V10.2426C0.5 9.31438 0.868749 8.42414 1.52513 7.76777L7.76777 1.52513C8.42415 0.868748 9.31438 0.5 10.2426 0.5H13.7574C14.6856 0.5 15.5759 0.868749 16.2322 1.52513L22.4749 7.76777C23.1313 8.42415 23.5 9.31438 23.5 10.2426C23.5 13.1607 23.4447 16.0826 23.5 19C23.5 21.4853 21.4853 23.5 19 23.5C15.9795 23.5 13.2795 23.5 10.2426 23.5ZM8.47487 2.23223C8.94372 1.76339 9.5796 1.5 10.2426 1.5H13.7574C14.4204 1.5 15.0563 1.76339 15.5251 2.23223L21.7678 8.47487C22.2366 8.94372 22.5 9.5796 22.5 10.2426V14C22.5 14.2761 22.2761 14.5 22 14.5H19C16.5147 14.5 14.5 16.5147 14.5 19V22C14.5 22.2761 14.2761 22.5 14 22.5H10.2426C9.5796 22.5 8.94371 22.2366 8.47487 21.7678L2.23223 15.5251C1.76339 15.0563 1.5 14.4204 1.5 13.7574V10.2426C1.5 9.5796 1.76339 8.94371 2.23223 8.47487L8.47487 2.23223Z" fill="#001926"/>
<rect x="10" y="1.5" width="4" height="0.5" rx="0.25" fill="white"/>
<defs>
<radialGradient id="paint0_radial_35527_63478" cx="0" cy="0" r="1" gradientUnits="userSpaceOnUse" gradientTransform="translate(12 23) rotate(-90) scale(22)">
<stop stop-color="#FF8080"/>
<stop offset="0.496286" stop-color="#FF3333"/>
<stop offset="1" stop-color="#800000"/>
</radialGradient>
<linearGradient id="paint1_linear_35527_63478" x1="12" y1="1.5" x2="12" y2="22.5" gradientUnits="userSpaceOnUse">
<stop stop-color="white" stop-opacity="0.75"/>
<stop offset="1" stop-color="white" stop-opacity="0.15"/>
</linearGradient>
</defs>
</svg>
