<svg width="24" height="24" viewBox="0 0 24 24" fill="none" xmlns="http://www.w3.org/2000/svg">
<path fill-rule="evenodd" clip-rule="evenodd" d="M24 19C24 21.7614 21.7614 24 19 24H10.2426C9.18177 24 8.16436 23.5786 7.41421 22.8284L1.17157 16.5858C0.421426 15.8356 0 14.8182 0 13.7574V10.2426C0 9.18177 0.421427 8.16436 1.17157 7.41421L7.41421 1.17157C8.16436 0.421426 9.18178 0 10.2426 0H13.7574C14.8182 0 15.8356 0.421427 16.5858 1.17157L22.8284 7.41421C23.5786 8.16436 24 9.18178 24 10.2426C24 11.2221 23.9938 12.1985 23.9877 13.1731C23.9754 15.1158 23.9631 17.0515 23.9999 18.9905L24 19ZM23.5 19C23.4631 17.0549 23.4754 15.1079 23.4877 13.1613C23.4939 12.1882 23.5 11.2152 23.5 10.2426C23.5 9.31438 23.1313 8.42414 22.4749 7.76777L16.2322 1.52513C15.5759 0.868749 14.6856 0.5 13.7574 0.5H10.2426C9.31438 0.5 8.42414 0.868748 7.76777 1.52513L1.52513 7.76777C0.868749 8.42414 0.5 9.31438 0.5 10.2426V13.7574C0.5 14.6856 0.868748 15.5759 1.52513 16.2322L7.76777 22.4749C8.42414 23.1313 9.31438 23.5 10.2426 23.5H19C21.4853 23.5 23.5 21.4853 23.5 19Z" fill="#D580FF"/>
<path d="M8.12109 1.87866L1.87891 8.12134C1.31592 8.68396 1 9.44702 1 10.2427V13.7573C1 14.553 1.31592 15.316 1.87891 15.8787L8.12109 22.1213C8.68408 22.684 9.44678 23 10.2427 23H13.7573C14.5532 23 15.3159 22.684 15.8789 22.1213L22.1211 15.8787C22.6841 15.316 23 14.553 23 13.7573V10.2427C23 9.44702 22.6841 8.68396 22.1211 8.12134L15.8789 1.87866C15.3159 1.31604 14.5532 1 13.7573 1H10.2427C9.44678 1 8.68408 1.31604 8.12109 1.87866Z" fill="url(#paint0_radial_5308_27008)"/>
<path fill-rule="evenodd" clip-rule="evenodd" d="M10 1V2.58579C10 2.91731 9.8683 3.23525 9.63388 3.46967L3.46967 9.63388C3.23525 9.8683 2.91731 10 2.58579 10H1V9.5H2.58579C2.7847 9.5 2.97546 9.42098 3.11612 9.28033L9.28033 3.11612C9.42098 2.97546 9.5 2.7847 9.5 2.58579V1H10ZM14 1V2.58579C14 2.91731 14.1317 3.23525 14.3661 3.46967L20.5303 9.63388C20.7648 9.8683 21.0827 10 21.4142 10H23V9.5H21.4142C21.2153 9.5 21.0245 9.42098 20.8839 9.28033L14.7197 3.11612C14.579 2.97546 14.5 2.7847 14.5 2.58579V1H14ZM10 21.4142V23H9.5V21.4142C9.5 21.2153 9.42098 21.0245 9.28033 20.8839L3.11612 14.7197C2.97546 14.579 2.7847 14.5 2.58579 14.5H1V14H2.58579C2.91731 14 3.23525 14.1317 3.46967 14.3661L9.63388 20.5303C9.8683 20.7647 10 21.0827 10 21.4142ZM11.25 1V2.67157C11.25 3.26831 11.0129 3.84061 10.591 4.26256L4.26256 10.591C3.84061 11.0129 3.26831 11.25 2.67157 11.25H1V10.75H2.67157C3.1357 10.75 3.58082 10.5656 3.90901 10.2374L10.2374 3.90901C10.5656 3.58082 10.75 3.1357 10.75 2.67157V1H11.25ZM12.75 2.67157V1H13.25V2.67157C13.25 3.1357 13.4344 3.58082 13.7626 3.90901L20.091 10.2374C20.4192 10.5656 20.8643 10.75 21.3284 10.75H23V11.25H21.3284C20.7317 11.25 20.1594 11.0129 19.7374 10.591L13.409 4.26256C12.9871 3.84061 12.75 3.26831 12.75 2.67157ZM11.25 23V21.3284C11.25 20.7317 11.0129 20.1594 10.591 19.7374L4.26256 13.409C3.84061 12.9871 3.26831 12.75 2.67157 12.75H1V13.25H2.67157C3.1357 13.25 3.58082 13.4344 3.90901 13.7626L10.2374 20.091C10.5656 20.4192 10.75 20.8643 10.75 21.3284V23H11.25ZM12.75 20V23H13.25V20C13.25 19.5858 13.5858 19.25 14 19.25H15V18.75H14C13.3096 18.75 12.75 19.3096 12.75 20ZM20 12.75C19.3096 12.75 18.75 13.3096 18.75 14V15H19.25V14C19.25 13.5858 19.5858 13.25 20 13.25H23V12.75H20Z" fill="white" fill-opacity="0.25"/>
<path fill-rule="evenodd" clip-rule="evenodd" d="M10.2426 2C9.71221 2 9.2035 2.21071 8.82843 2.58579L2.58579 8.82843C2.21071 9.2035 2 9.71221 2 10.2426V13.7574C2 14.2878 2.21071 14.7965 2.58579 15.1716L8.82843 21.4142C9.2035 21.7893 9.71221 22 10.2426 22H14V19C14 16.2386 16.2386 14 19 14H22V10.2426C22 9.71221 21.7893 9.2035 21.4142 8.82843L15.1716 2.58579C14.7965 2.21071 14.2878 2 13.7574 2H10.2426ZM10.2426 1.5C9.5796 1.5 8.94372 1.76339 8.47487 2.23223L2.23223 8.47487C1.76339 8.94371 1.5 9.5796 1.5 10.2426V13.7574C1.5 14.4204 1.76339 15.0563 2.23223 15.5251L8.47487 21.7678C8.94371 22.2366 9.5796 22.5 10.2426 22.5H14C14.2761 22.5 14.5 22.2761 14.5 22V19C14.5 16.5147 16.5147 14.5 19 14.5H22C22.2761 14.5 22.5 14.2761 22.5 14V10.2426C22.5 9.5796 22.2366 8.94372 21.7678 8.47487L15.5251 2.23223C15.0563 1.76339 14.4204 1.5 13.7574 1.5H10.2426Z" fill="url(#paint1_linear_5308_27008)"/>
<path d="M15.6585 7.53347L14.5647 8.62721L14.1228 8.18527L15.2165 7.09153C15.3386 6.96949 15.5364 6.96949 15.6585 7.09153C15.7805 7.21357 15.7805 7.41143 15.6585 7.53347Z" fill="white"/>
<path fill-rule="evenodd" clip-rule="evenodd" d="M8.34155 7.09155C8.46358 6.96951 8.66145 6.96951 8.78349 7.09155L10.346 8.65404L10.3839 8.61613C10.6183 8.38171 10.9363 8.25002 11.2678 8.25002H12.7322C13.0637 8.25002 13.3817 8.38171 13.6161 8.61613L15.3839 10.3839C15.6183 10.6183 15.75 10.9363 15.75 11.2678V12.7322C15.75 13.0637 15.6183 13.3817 15.3839 13.6161L15.346 13.654L16.9084 15.2165C17.0305 15.3386 17.0305 15.5364 16.9084 15.6585C16.7864 15.7805 16.5885 15.7805 16.4665 15.6585L14.904 14.096L14.096 14.904L15.6585 16.4665C15.7805 16.5885 15.7805 16.7864 15.6585 16.9084C15.5364 17.0305 15.3386 17.0305 15.2165 16.9084L13.654 15.346L13.6161 15.3839C13.3817 15.6183 13.0637 15.75 12.7322 15.75H11.2678C10.9363 15.75 10.6183 15.6183 10.3839 15.3839L8.61613 13.6161C8.38171 13.3817 8.25002 13.0637 8.25002 12.7322V11.2678C8.25002 10.9363 8.38171 10.6183 8.61613 10.3839L8.65404 10.346L7.09155 8.78349C6.96951 8.66145 6.96951 8.46358 7.09155 8.34155C7.21359 8.21951 7.41145 8.21951 7.53349 8.34155L9.09598 9.90404L9.90404 9.09598L8.34155 7.53349C8.21951 7.41145 8.21951 7.21359 8.34155 7.09155ZM10.125 12C10.4702 12 10.75 11.7202 10.75 11.375C10.75 11.0298 10.4702 10.75 10.125 10.75C9.77983 10.75 9.50001 11.0298 9.50001 11.375C9.50001 11.7202 9.77983 12 10.125 12ZM14.5 11.375C14.5 11.7202 14.2202 12 13.875 12C13.5298 12 13.25 11.7202 13.25 11.375C13.25 11.0298 13.5298 10.75 13.875 10.75C14.2202 10.75 14.5 11.0298 14.5 11.375ZM10.9034 12.3423C11.0245 12.2192 11.2209 12.2192 11.3421 12.3423C11.7055 12.7117 12.2947 12.7117 12.658 12.3423C12.7792 12.2192 12.9756 12.2192 13.0967 12.3423C13.2178 12.4654 13.2178 12.6651 13.0967 12.7882C12.491 13.4038 11.5091 13.4038 10.9034 12.7882C10.7823 12.6651 10.7823 12.4654 10.9034 12.3423Z" fill="white"/>
<path d="M9.43527 15.3728L8.34152 16.4665C8.21948 16.5886 8.21948 16.7864 8.34152 16.9085C8.46356 17.0305 8.66142 17.0305 8.78346 16.9085L9.87721 15.8147L9.43527 15.3728Z" fill="white"/>
<path d="M8.18527 14.1228L7.09153 15.2165C6.96949 15.3386 6.96949 15.5364 7.09153 15.6585C7.21357 15.7805 7.41143 15.7805 7.53347 15.6585L8.62721 14.5647L8.18527 14.1228Z" fill="white"/>
<path d="M16.9085 8.78346L15.8147 9.87721L15.3728 9.43527L16.4665 8.34152C16.5886 8.21948 16.7864 8.21948 16.9085 8.34152C17.0305 8.46356 17.0305 8.66142 16.9085 8.78346Z" fill="white"/>
<path fill-rule="evenodd" clip-rule="evenodd" d="M10.2426 23.5C9.31438 23.5 8.42414 23.1313 7.76777 22.4749L1.52513 16.2322C0.868748 15.5759 0.5 14.6856 0.5 13.7574V10.2426C0.5 9.31438 0.868749 8.42414 1.52513 7.76777L7.76777 1.52513C8.42415 0.868748 9.31438 0.5 10.2426 0.5H13.7574C14.6856 0.5 15.5759 0.868749 16.2322 1.52513L22.4749 7.76777C23.1313 8.42415 23.5 9.31438 23.5 10.2426C23.5 13.1607 23.4447 16.0826 23.5 19C23.5 21.4853 21.4853 23.5 19 23.5C15.9795 23.5 13.2795 23.5 10.2426 23.5ZM8.47487 2.23223C8.94372 1.76339 9.5796 1.5 10.2426 1.5H13.7574C14.4204 1.5 15.0563 1.76339 15.5251 2.23223L21.7678 8.47487C22.2366 8.94372 22.5 9.5796 22.5 10.2426V14C22.5 14.2761 22.2761 14.5 22 14.5H19C16.5147 14.5 14.5 16.5147 14.5 19V22C14.5 22.2761 14.2761 22.5 14 22.5H10.2426C9.5796 22.5 8.94371 22.2366 8.47487 21.7678L2.23223 15.5251C1.76339 15.0563 1.5 14.4204 1.5 13.7574V10.2426C1.5 9.5796 1.76339 8.94371 2.23223 8.47487L8.47487 2.23223Z" fill="#001926"/>
<rect x="10" y="1.5" width="4" height="0.5" rx="0.25" fill="white"/>
<defs>
<radialGradient id="paint0_radial_5308_27008" cx="0" cy="0" r="1" gradientUnits="userSpaceOnUse" gradientTransform="translate(12 23) rotate(-90) scale(22)">
<stop stop-color="#FF8080"/>
<stop offset="0.496286" stop-color="#FF3333"/>
<stop offset="1" stop-color="#800000"/>
</radialGradient>
<linearGradient id="paint1_linear_5308_27008" x1="12" y1="1.5" x2="12" y2="22.5" gradientUnits="userSpaceOnUse">
<stop stop-color="white" stop-opacity="0.75"/>
<stop offset="1" stop-color="white" stop-opacity="0.15"/>
</linearGradient>
</defs>
</svg>