
<svg width="24" height="24" viewBox="0 0 24 24" fill="none" xmlns="http://www.w3.org/2000/svg">
<path d="M5.12109 1.87866L1.87891 5.12134C1.31592 5.68396 1 6.44702 1 7.24268V16.7573C1 17.553 1.31592 18.316 1.87891 18.8787L5.12109 22.1213C5.68408 22.684 6.44678 23 7.24268 23H16.7573C17.5532 23 18.3159 22.684 18.8789 22.1213L22.1211 18.8787C22.6841 18.316 23 17.553 23 16.7573V7.24268C23 6.44702 22.6841 5.68396 22.1211 5.12134L18.8789 1.87866C18.3159 1.31604 17.5532 1 16.7573 1H7.24268C6.44678 1 5.68408 1.31604 5.12109 1.87866Z" fill="url(#paint0_radial_10807_46210)"/>
<path d="M7 1.75C7 1.61193 7.11193 1.5 7.25 1.5H16.75C16.8881 1.5 17 1.61193 17 1.75C17 1.88807 16.8881 2 16.75 2H7.25C7.11193 2 7 1.88807 7 1.75Z" fill="white"/>
<path d="M10 2.58579V1H9.5V2.58579C9.5 2.7847 9.42098 2.97546 9.28033 3.11612L3.11612 9.28033C2.97546 9.42098 2.7847 9.5 2.58579 9.5H1V10H2.58579C2.91731 10 3.23525 9.8683 3.46967 9.63388L9.63388 3.46967C9.8683 3.23525 10 2.91731 10 2.58579Z" fill="white" fill-opacity="0.25"/>
<path d="M14 2.58579V1H14.5V2.58579C14.5 2.7847 14.579 2.97546 14.7197 3.11612L20.8839 9.28033C21.0245 9.42098 21.2153 9.5 21.4142 9.5H23V10H21.4142C21.0827 10 20.7648 9.8683 20.5303 9.63388L14.3661 3.46967C14.1317 3.23525 14 2.91731 14 2.58579Z" fill="white" fill-opacity="0.25"/>
<path d="M10 23V21.4142C10 21.0827 9.8683 20.7647 9.63388 20.5303L3.46967 14.3661C3.23525 14.1317 2.91731 14 2.58579 14H1V14.5H2.58579C2.7847 14.5 2.97546 14.579 3.11612 14.7197L9.28033 20.8839C9.42098 21.0245 9.5 21.2153 9.5 21.4142V23H10Z" fill="white" fill-opacity="0.25"/>
<path d="M11.25 2.67157V1H10.75V2.67157C10.75 3.1357 10.5656 3.58082 10.2374 3.90901L3.90901 10.2374C3.58082 10.5656 3.1357 10.75 2.67157 10.75H1V11.25H2.67157C3.26831 11.25 3.84061 11.0129 4.26256 10.591L10.591 4.26256C11.0129 3.84061 11.25 3.26831 11.25 2.67157Z" fill="white" fill-opacity="0.25"/>
<path d="M12.75 1V2.67157C12.75 3.26831 12.9871 3.84061 13.409 4.26256L19.7374 10.591C20.1594 11.0129 20.7317 11.25 21.3284 11.25H23V10.75H21.3284C20.8643 10.75 20.4192 10.5656 20.091 10.2374L13.7626 3.90901C13.4344 3.58082 13.25 3.1357 13.25 2.67157V1H12.75Z" fill="white" fill-opacity="0.25"/>
<path d="M11.25 21.3284V23H10.75V21.3284C10.75 20.8643 10.5656 20.4192 10.2374 20.091L3.90901 13.7626C3.58082 13.4344 3.1357 13.25 2.67157 13.25H1V12.75H2.67157C3.26831 12.75 3.84061 12.9871 4.26256 13.409L10.591 19.7374C11.0129 20.1594 11.25 20.7317 11.25 21.3284Z" fill="white" fill-opacity="0.25"/>
<path d="M3 17.5C3.27614 17.5 3.5 17.2761 3.5 17C3.5 16.7239 3.27614 16.5 3 16.5C2.72386 16.5 2.5 16.7239 2.5 17C2.5 17.2761 2.72386 17.5 3 17.5Z" fill="white" fill-opacity="0.25"/>
<path d="M7 21.5C7.27614 21.5 7.5 21.2761 7.5 21C7.5 20.7239 7.27614 20.5 7 20.5C6.72386 20.5 6.5 20.7239 6.5 21C6.5 21.2761 6.72386 21.5 7 21.5Z" fill="white" fill-opacity="0.25"/>
<path d="M12.75 21.3284V23H13.25V21.3284C13.25 20.8643 13.4344 20.4192 13.7626 20.091L20.091 13.7626C20.4192 13.4344 20.8643 13.25 21.3284 13.25H23V12.75H21.3284C20.7317 12.75 20.1594 12.9871 19.7374 13.409L13.409 19.7374C12.9871 20.1594 12.75 20.7317 12.75 21.3284Z" fill="white" fill-opacity="0.25"/>
<path d="M14 21.4142V23H14.5V21.4142C14.5 21.2153 14.579 21.0245 14.7197 20.8839L20.8839 14.7197C21.0245 14.579 21.2153 14.5 21.4142 14.5H23V14H21.4142C21.0827 14 20.7648 14.1317 20.5303 14.3661L14.3661 20.5303C14.1317 20.7648 14 21.0827 14 21.4142Z" fill="white" fill-opacity="0.25"/>
<path d="M20.5 17C20.5 17.2761 20.7239 17.5 21 17.5C21.2761 17.5 21.5 17.2761 21.5 17C21.5 16.7239 21.2761 16.5 21 16.5C20.7239 16.5 20.5 16.7239 20.5 17Z" fill="white" fill-opacity="0.25"/>
<path d="M17 21.5C16.7239 21.5 16.5 21.2761 16.5 21C16.5 20.7239 16.7239 20.5 17 20.5C17.2761 20.5 17.5 20.7239 17.5 21C17.5 21.2761 17.2761 21.5 17 21.5Z" fill="white" fill-opacity="0.25"/>
<path d="M7 3.5C6.72386 3.5 6.5 3.27614 6.5 3C6.5 2.72386 6.72386 2.5 7 2.5C7.27614 2.5 7.5 2.72386 7.5 3C7.5 3.27614 7.27614 3.5 7 3.5Z" fill="white" fill-opacity="0.25"/>
<path d="M3 7.5C2.72386 7.5 2.5 7.27614 2.5 7C2.5 6.72386 2.72386 6.5 3 6.5C3.27614 6.5 3.5 6.72386 3.5 7C3.5 7.27614 3.27614 7.5 3 7.5Z" fill="white" fill-opacity="0.25"/>
<path d="M17.5 3C17.5 3.27614 17.2761 3.5 17 3.5C16.7239 3.5 16.5 3.27614 16.5 3C16.5 2.72386 16.7239 2.5 17 2.5C17.2761 2.5 17.5 2.72386 17.5 3Z" fill="white" fill-opacity="0.25"/>
<path d="M21.5 7C21.5 7.27614 21.2761 7.5 21 7.5C20.7239 7.5 20.5 7.27614 20.5 7C20.5 6.72386 20.7239 6.5 21 6.5C21.2761 6.5 21.5 6.72386 21.5 7Z" fill="white" fill-opacity="0.25"/>
<path d="M13.25 14.375V13.125H14.6072C14.9388 13.125 15.2567 12.9933 15.4911 12.7589L16.6339 11.6161C16.8683 11.3817 17 11.0638 17 10.7322V9.89277C17 9.56125 16.8683 9.2433 16.6339 9.00888L15.4911 7.86612C15.2567 7.6317 14.9388 7.5 14.6072 7.5H9.39277C9.06125 7.5 8.7433 7.6317 8.50888 7.86612L7.36612 9.00888C7.1317 9.2433 7 9.56125 7 9.89277V11.25H9.5V9.375H14.5V11.25H12.5178C12.1862 11.25 11.8683 11.3817 11.6339 11.6161L11.1161 12.1339C10.8817 12.3683 10.75 12.6862 10.75 13.0178V14.375H13.25Z" fill="white"/>
<path d="M10.75 17.5V15.625H13.25V16.875C13.25 17.2202 12.9702 17.5 12.625 17.5H10.75Z" fill="white"/>
<path fill-rule="evenodd" clip-rule="evenodd" d="M7.24264 0.5H16.7574C17.6856 0.5 18.5759 0.868748 19.2322 1.52513L22.4749 4.76777C23.1313 5.42414 23.5 6.31438 23.5 7.24264V16.7574C23.5 17.6856 23.1313 18.5759 22.4749 19.2322L19.2322 22.4749C18.5759 23.1313 17.6856 23.5 16.7574 23.5H7.24264C6.31438 23.5 5.42414 23.1313 4.76777 22.4749L1.52513 19.2322C0.868748 18.5759 0.5 17.6856 0.5 16.7574V7.24264C0.5 6.31438 0.868749 5.42414 1.52513 4.76777L4.76777 1.52513C5.42415 0.868748 6.31438 0.5 7.24264 0.5ZM16.7574 22.5C17.4204 22.5 18.0563 22.2366 18.5251 21.7678L21.7678 18.5251C22.2366 18.0563 22.5 17.4204 22.5 16.7574V7.24264C22.5 6.5796 22.2366 5.94371 21.7678 5.47487L18.5251 2.23223C18.0563 1.76339 17.4204 1.5 16.7574 1.5H7.24264C6.5796 1.5 5.94372 1.76339 5.47487 2.23223L2.23223 5.47487C1.76339 5.94371 1.5 6.5796 1.5 7.24264V16.7574C1.5 17.4204 1.76339 18.0563 2.23223 18.5251L5.47487 21.7678C5.94371 22.2366 6.5796 22.5 7.24264 22.5H16.7574Z" fill="#001926"/>
<path fill-rule="evenodd" clip-rule="evenodd" d="M7.24264 0H16.7574C17.8182 0 18.8356 0.421426 19.5858 1.17157L22.8284 4.41421C23.5786 5.16436 24 6.18177 24 7.24264V16.7574C24 17.8182 23.5786 18.8356 22.8284 19.5858L19.5858 22.8284C18.8356 23.5786 17.8182 24 16.7574 24H7.24264C6.18177 24 5.16436 23.5786 4.41421 22.8284L1.17157 19.5858C0.421426 18.8356 0 17.8182 0 16.7574V7.24264C0 6.18177 0.421427 5.16436 1.17157 4.41421L4.41421 1.17157C5.16436 0.421426 6.18178 0 7.24264 0ZM16.7574 23.5C17.6856 23.5 18.5759 23.1313 19.2322 22.4749L22.4749 19.2322C23.1313 18.5759 23.5 17.6856 23.5 16.7574V7.24264C23.5 6.31438 23.1313 5.42414 22.4749 4.76777L19.2322 1.52513C18.5759 0.868748 17.6856 0.5 16.7574 0.5H7.24264C6.31438 0.5 5.42415 0.868748 4.76777 1.52513L1.52513 4.76777C0.868749 5.42414 0.5 6.31438 0.5 7.24264V16.7574C0.5 17.6856 0.868748 18.5759 1.52513 19.2322L4.76777 22.4749C5.42414 23.1313 6.31438 23.5 7.24264 23.5H16.7574Z" fill="white" fill-opacity="0.25"/>
<path fill-rule="evenodd" clip-rule="evenodd" d="M7.24264 1.5H16.7574C17.4204 1.5 18.0563 1.76339 18.5251 2.23223L21.7678 5.47487C22.2366 5.94371 22.5 6.5796 22.5 7.24264V16.7574C22.5 17.4204 22.2366 18.0563 21.7678 18.5251L18.5251 21.7678C18.0563 22.2366 17.4204 22.5 16.7574 22.5H7.24264C6.5796 22.5 5.94371 22.2366 5.47487 21.7678L2.23223 18.5251C1.76339 18.0563 1.5 17.4204 1.5 16.7574V7.24264C1.5 6.5796 1.76339 5.94371 2.23223 5.47487L5.47487 2.23223C5.94372 1.76339 6.5796 1.5 7.24264 1.5ZM16.7574 22C17.2878 22 17.7965 21.7893 18.1716 21.4142L21.4142 18.1716C21.7893 17.7965 22 17.2878 22 16.7574V7.24264C22 6.71221 21.7893 6.2035 21.4142 5.82843L18.1716 2.58579C17.7965 2.21071 17.2878 2 16.7574 2H7.24264C6.71221 2 6.2035 2.21071 5.82843 2.58579L2.58579 5.82843C2.21071 6.2035 2 6.71221 2 7.24264V16.7574C2 17.2878 2.21071 17.7965 2.58579 18.1716L5.82843 21.4142C6.2035 21.7893 6.71221 22 7.24264 22H16.7574Z" fill="url(#paint1_linear_10807_46210)"/>
<defs>
<radialGradient id="paint0_radial_10807_46210" cx="0" cy="0" r="1" gradientUnits="userSpaceOnUse" gradientTransform="translate(12 23) rotate(-90) scale(22)">
<stop stop-color="#30BF30"/>
<stop offset="1" stop-color="#3A4030"/>
</radialGradient>
<linearGradient id="paint1_linear_10807_46210" x1="12" y1="1.5" x2="12" y2="22.5" gradientUnits="userSpaceOnUse">
<stop stop-color="white" stop-opacity="0.75"/>
<stop offset="1" stop-color="white" stop-opacity="0.15"/>
</linearGradient>
</defs>
</svg>
