<svg width="24" height="24" viewBox="0 0 24 24" fill="none" xmlns="http://www.w3.org/2000/svg">
<path fill-rule="evenodd" clip-rule="evenodd" d="M24 19C24 21.7614 21.7614 24 19 24H10.2426C9.18177 24 8.16436 23.5786 7.41421 22.8284L1.17157 16.5858C0.421426 15.8356 0 14.8182 0 13.7574V10.2426C0 9.18177 0.421427 8.16436 1.17157 7.41421L7.41421 1.17157C8.16436 0.421426 9.18178 0 10.2426 0H13.7574C14.8182 0 15.8356 0.421427 16.5858 1.17157L22.8284 7.41421C23.5786 8.16436 24 9.18178 24 10.2426C24 11.2221 23.9938 12.1985 23.9877 13.1731C23.9754 15.1158 23.9631 17.0515 23.9999 18.9905L24 19ZM23.5 19C23.4631 17.0549 23.4754 15.1079 23.4877 13.1613C23.4939 12.1882 23.5 11.2152 23.5 10.2426C23.5 9.31438 23.1313 8.42414 22.4749 7.76777L16.2322 1.52513C15.5759 0.868749 14.6856 0.5 13.7574 0.5H10.2426C9.31438 0.5 8.42414 0.868748 7.76777 1.52513L1.52513 7.76777C0.868749 8.42414 0.5 9.31438 0.5 10.2426V13.7574C0.5 14.6856 0.868748 15.5759 1.52513 16.2322L7.76777 22.4749C8.42414 23.1313 9.31438 23.5 10.2426 23.5H19C21.4853 23.5 23.5 21.4853 23.5 19Z" fill="#D580FF"/>
<path d="M8.12109 1.87866L1.87891 8.12134C1.31592 8.68396 1 9.44702 1 10.2427V13.7573C1 14.553 1.31592 15.316 1.87891 15.8787L8.12109 22.1213C8.68408 22.684 9.44678 23 10.2427 23H13.7573C14.5532 23 15.3159 22.684 15.8789 22.1213L22.1211 15.8787C22.6841 15.316 23 14.553 23 13.7573V10.2427C23 9.44702 22.6841 8.68396 22.1211 8.12134L15.8789 1.87866C15.3159 1.31604 14.5532 1 13.7573 1H10.2427C9.44678 1 8.68408 1.31604 8.12109 1.87866Z" fill="url(#paint0_radial_5931_36815)"/>
<path fill-rule="evenodd" clip-rule="evenodd" d="M10 1V2.58579C10 2.91731 9.8683 3.23525 9.63388 3.46967L3.46967 9.63388C3.23525 9.8683 2.91731 10 2.58579 10H1V9.5H2.58579C2.7847 9.5 2.97546 9.42098 3.11612 9.28033L9.28033 3.11612C9.42098 2.97546 9.5 2.7847 9.5 2.58579V1H10ZM14 1V2.58579C14 2.91731 14.1317 3.23525 14.3661 3.46967L20.5303 9.63388C20.7648 9.8683 21.0827 10 21.4142 10H23V9.5H21.4142C21.2153 9.5 21.0245 9.42098 20.8839 9.28033L14.7197 3.11612C14.579 2.97546 14.5 2.7847 14.5 2.58579V1H14ZM10 21.4142V23H9.5V21.4142C9.5 21.2153 9.42098 21.0245 9.28033 20.8839L3.11612 14.7197C2.97546 14.579 2.7847 14.5 2.58579 14.5H1V14H2.58579C2.91731 14 3.23525 14.1317 3.46967 14.3661L9.63388 20.5303C9.8683 20.7647 10 21.0827 10 21.4142ZM11.25 1V2.67157C11.25 3.26831 11.0129 3.84061 10.591 4.26256L4.26256 10.591C3.84061 11.0129 3.26831 11.25 2.67157 11.25H1V10.75H2.67157C3.1357 10.75 3.58082 10.5656 3.90901 10.2374L10.2374 3.90901C10.5656 3.58082 10.75 3.1357 10.75 2.67157V1H11.25ZM12.75 2.67157V1H13.25V2.67157C13.25 3.1357 13.4344 3.58082 13.7626 3.90901L20.091 10.2374C20.4192 10.5656 20.8643 10.75 21.3284 10.75H23V11.25H21.3284C20.7317 11.25 20.1594 11.0129 19.7374 10.591L13.409 4.26256C12.9871 3.84061 12.75 3.26831 12.75 2.67157ZM11.25 23V21.3284C11.25 20.7317 11.0129 20.1594 10.591 19.7374L4.26256 13.409C3.84061 12.9871 3.26831 12.75 2.67157 12.75H1V13.25H2.67157C3.1357 13.25 3.58082 13.4344 3.90901 13.7626L10.2374 20.091C10.5656 20.4192 10.75 20.8643 10.75 21.3284V23H11.25ZM12.75 20V23H13.25V20C13.25 19.5858 13.5858 19.25 14 19.25H15V18.75H14C13.3096 18.75 12.75 19.3096 12.75 20ZM20 12.75C19.3096 12.75 18.75 13.3096 18.75 14V15H19.25V14C19.25 13.5858 19.5858 13.25 20 13.25H23V12.75H20Z" fill="white" fill-opacity="0.25"/>
<path fill-rule="evenodd" clip-rule="evenodd" d="M10.2426 2C9.71221 2 9.2035 2.21071 8.82843 2.58579L2.58579 8.82843C2.21071 9.2035 2 9.71221 2 10.2426V13.7574C2 14.2878 2.21071 14.7965 2.58579 15.1716L8.82843 21.4142C9.2035 21.7893 9.71221 22 10.2426 22H14V19C14 16.2386 16.2386 14 19 14H22V10.2426C22 9.71221 21.7893 9.2035 21.4142 8.82843L15.1716 2.58579C14.7965 2.21071 14.2878 2 13.7574 2H10.2426ZM10.2426 1.5C9.5796 1.5 8.94372 1.76339 8.47487 2.23223L2.23223 8.47487C1.76339 8.94371 1.5 9.5796 1.5 10.2426V13.7574C1.5 14.4204 1.76339 15.0563 2.23223 15.5251L8.47487 21.7678C8.94371 22.2366 9.5796 22.5 10.2426 22.5H14C14.2761 22.5 14.5 22.2761 14.5 22V19C14.5 16.5147 16.5147 14.5 19 14.5H22C22.2761 14.5 22.5 14.2761 22.5 14V10.2426C22.5 9.5796 22.2366 8.94372 21.7678 8.47487L15.5251 2.23223C15.0563 1.76339 14.4204 1.5 13.7574 1.5H10.2426Z" fill="url(#paint1_linear_5931_36815)"/>
<path fill-rule="evenodd" clip-rule="evenodd" d="M16.2916 7.00145C16.0455 6.61419 15.734 6.27693 15.3755 6C16.3268 6.2009 17.1317 6.89644 17.4011 7.8692C17.5147 8.27982 17.5202 8.6938 17.4346 9.08285C17.6581 8.68303 17.8041 8.25341 17.8728 7.81464C18.1686 8.71225 17.9485 9.73447 17.2126 10.4466C16.9018 10.7472 16.5339 10.9589 16.1427 11.0816C16.6125 11.069 17.0702 10.9766 17.4974 10.8147C16.8419 11.5113 15.817 11.838 14.8116 11.5774C14.3872 11.4673 14.0138 11.2649 13.7084 10.9984C13.9545 11.3857 14.2661 11.723 14.6244 12C13.6733 11.799 12.8685 11.1035 12.599 10.1308C12.4853 9.72002 12.4798 9.30585 12.5655 8.91667C12.3419 9.31662 12.1959 9.74637 12.1272 10.1853C11.8314 9.28773 12.0515 8.26551 12.7874 7.55343C13.0982 7.25276 13.466 7.04109 13.8572 6.91838C13.3875 6.931 12.9298 7.02344 12.5028 7.18533C13.1582 6.48868 14.1832 6.16198 15.1885 6.42263C15.6129 6.53266 15.9862 6.73505 16.2916 7.00145ZM15 7.125C15.1096 8.11157 15.8884 8.89038 16.875 9C15.8884 9.10962 15.1096 9.88843 15 10.875C14.8904 9.88843 14.1116 9.10962 13.125 9C14.1116 8.89038 14.8904 8.11157 15 7.125Z" fill="white"/>
<path d="M9.28166 6.75C9.55053 6.9577 9.78411 7.21065 9.96871 7.50109C9.73964 7.30129 9.4597 7.1495 9.14136 7.06697C8.38737 6.87148 7.61868 7.11651 7.12707 7.639C7.44737 7.51758 7.79065 7.44825 8.14287 7.43879C7.84948 7.53082 7.57364 7.68957 7.34055 7.91507C6.78863 8.44913 6.62355 9.21579 6.8454 9.88896C6.89693 9.55978 7.00646 9.23747 7.17416 8.9375C7.10984 9.22939 7.11394 9.54001 7.19927 9.84808C7.40134 10.5776 8.00495 11.0993 8.71834 11.25C8.44956 11.0423 8.21589 10.7893 8.03129 10.4988C8.26036 10.6987 8.54038 10.8505 8.85872 10.933C9.61272 11.1285 10.3814 10.8835 10.873 10.361C10.5526 10.4824 10.2094 10.5518 9.85705 10.5612C10.1504 10.4692 10.4264 10.3104 10.6595 10.0849C11.2114 9.55085 11.3764 8.78419 11.1546 8.11098C11.1031 8.44006 10.9935 8.76227 10.8259 9.06214C10.8902 8.77035 10.8861 8.45987 10.8008 8.1519C10.5987 7.42233 9.99513 6.90068 9.28166 6.75Z" fill="white"/>
<path d="M15.2817 12.75C15.5505 12.9577 15.7841 13.2106 15.9687 13.5011C15.7396 13.3013 15.4597 13.1495 15.1414 13.067C14.3874 12.8715 13.6187 13.1165 13.1271 13.639C13.4474 13.5176 13.7906 13.4483 14.1429 13.4388C13.8495 13.5308 13.5736 13.6896 13.3405 13.9151C12.7886 14.4491 12.6236 15.2158 12.8454 15.889C12.8969 15.5598 13.0065 15.2375 13.1742 14.9375C13.1098 15.2294 13.1139 15.54 13.1993 15.8481C13.4013 16.5776 14.005 17.0993 14.7183 17.25C14.4496 17.0423 14.2159 16.7893 14.0313 16.4988C14.2604 16.6987 14.5404 16.8505 14.8587 16.933C15.6127 17.1285 16.3814 16.8835 16.873 16.361C16.5526 16.4824 16.2094 16.5518 15.857 16.5612C16.1504 16.4692 16.4264 16.3104 16.6595 16.0849C17.2114 15.5508 17.3764 14.7842 17.1546 14.111C17.1031 14.4401 16.9935 14.7623 16.8259 15.0621C16.8902 14.7704 16.8861 14.4599 16.8008 14.1519C16.5987 13.4223 15.9951 12.9007 15.2817 12.75Z" fill="white"/>
<path fill-rule="evenodd" clip-rule="evenodd" d="M9.37555 12C9.73403 12.2769 10.0455 12.6142 10.2916 13.0014C9.98619 12.735 9.61293 12.5327 9.18849 12.4226C8.18316 12.162 7.15824 12.4887 6.50275 13.1853C6.92983 13.0234 7.38753 12.931 7.85716 12.9184C7.46597 13.0411 7.09819 13.2528 6.7874 13.5534C6.0515 14.2655 5.8314 15.2877 6.1272 16.1853C6.1959 15.7464 6.34195 15.3166 6.56555 14.9167C6.47978 15.3059 6.48525 15.72 6.59902 16.1308C6.86846 17.1035 7.67327 17.799 8.62445 18C8.26608 17.723 7.95452 17.3857 7.70839 16.9984C8.01381 17.2649 8.38718 17.4673 8.81162 17.5774C9.81695 17.838 10.8419 17.5113 11.4974 16.8147C11.0702 16.9766 10.6125 17.069 10.1427 17.0816C10.5339 16.9589 10.9018 16.7472 11.2126 16.4466C11.9485 15.7345 12.1686 14.7122 11.8728 13.8146C11.8041 14.2534 11.6581 14.683 11.4346 15.0829C11.5202 14.6938 11.5147 14.2798 11.4011 13.8692C11.1317 12.8964 10.3268 12.2009 9.37555 12ZM10.875 15C9.88843 14.8904 9.10962 14.1116 9 13.125C8.89038 14.1116 8.11157 14.8904 7.125 15C8.11157 15.1096 8.89038 15.8884 9 16.875C9.10962 15.8884 9.88843 15.1096 10.875 15Z" fill="white"/>
<path fill-rule="evenodd" clip-rule="evenodd" d="M10.2426 23.5C9.31438 23.5 8.42414 23.1313 7.76777 22.4749L1.52513 16.2322C0.868748 15.5759 0.5 14.6856 0.5 13.7574V10.2426C0.5 9.31438 0.868749 8.42414 1.52513 7.76777L7.76777 1.52513C8.42415 0.868748 9.31438 0.5 10.2426 0.5H13.7574C14.6856 0.5 15.5759 0.868749 16.2322 1.52513L22.4749 7.76777C23.1313 8.42415 23.5 9.31438 23.5 10.2426C23.5 13.1607 23.4447 16.0826 23.5 19C23.5 21.4853 21.4853 23.5 19 23.5C15.9795 23.5 13.2795 23.5 10.2426 23.5ZM8.47487 2.23223C8.94372 1.76339 9.5796 1.5 10.2426 1.5H13.7574C14.4204 1.5 15.0563 1.76339 15.5251 2.23223L21.7678 8.47487C22.2366 8.94372 22.5 9.5796 22.5 10.2426V14C22.5 14.2761 22.2761 14.5 22 14.5H19C16.5147 14.5 14.5 16.5147 14.5 19V22C14.5 22.2761 14.2761 22.5 14 22.5H10.2426C9.5796 22.5 8.94371 22.2366 8.47487 21.7678L2.23223 15.5251C1.76339 15.0563 1.5 14.4204 1.5 13.7574V10.2426C1.5 9.5796 1.76339 8.94371 2.23223 8.47487L8.47487 2.23223Z" fill="#001926"/>
<rect x="10" y="1.5" width="4" height="0.5" rx="0.25" fill="white"/>
<defs>
<radialGradient id="paint0_radial_5931_36815" cx="0" cy="0" r="1" gradientUnits="userSpaceOnUse" gradientTransform="translate(12 23) rotate(-90) scale(22)">
<stop stop-color="#FF8080"/>
<stop offset="0.496286" stop-color="#FF3333"/>
<stop offset="1" stop-color="#800000"/>
</radialGradient>
<linearGradient id="paint1_linear_5931_36815" x1="12" y1="1.5" x2="12" y2="22.5" gradientUnits="userSpaceOnUse">
<stop stop-color="white" stop-opacity="0.75"/>
<stop offset="1" stop-color="white" stop-opacity="0.15"/>
</linearGradient>
</defs>
</svg>