<svg width="24" height="24" viewBox="0 0 24 24" fill="none" xmlns="http://www.w3.org/2000/svg">
<path fill-rule="evenodd" clip-rule="evenodd" d="M24 19C24 21.7614 21.7614 24 19 24H10.2426C9.18177 24 8.16436 23.5786 7.41421 22.8284L1.17157 16.5858C0.421426 15.8356 0 14.8182 0 13.7574V10.2426C0 9.18177 0.421427 8.16436 1.17157 7.41421L7.41421 1.17157C8.16436 0.421426 9.18178 0 10.2426 0H13.7574C14.8182 0 15.8356 0.421427 16.5858 1.17157L22.8284 7.41421C23.5786 8.16436 24 9.18178 24 10.2426C24 11.2221 23.9938 12.1985 23.9877 13.1731C23.9754 15.1158 23.9631 17.0515 23.9999 18.9905L24 19ZM23.5 19C23.4631 17.0549 23.4754 15.1079 23.4877 13.1613C23.4939 12.1882 23.5 11.2152 23.5 10.2426C23.5 9.31438 23.1313 8.42414 22.4749 7.76777L16.2322 1.52513C15.5759 0.868749 14.6856 0.5 13.7574 0.5H10.2426C9.31438 0.5 8.42414 0.868748 7.76777 1.52513L1.52513 7.76777C0.868749 8.42414 0.5 9.31438 0.5 10.2426V13.7574C0.5 14.6856 0.868748 15.5759 1.52513 16.2322L7.76777 22.4749C8.42414 23.1313 9.31438 23.5 10.2426 23.5H19C21.4853 23.5 23.5 21.4853 23.5 19Z" fill="#FFEE00"/>
<path d="M8.12109 1.87866L1.87891 8.12134C1.31592 8.68396 1 9.44702 1 10.2427V13.7573C1 14.553 1.31592 15.316 1.87891 15.8787L8.12109 22.1213C8.68408 22.684 9.44678 23 10.2427 23H13.7573C14.5532 23 15.3159 22.684 15.8789 22.1213L22.1211 15.8787C22.6841 15.316 23 14.553 23 13.7573V10.2427C23 9.44702 22.6841 8.68396 22.1211 8.12134L15.8789 1.87866C15.3159 1.31604 14.5532 1 13.7573 1H10.2427C9.44678 1 8.68408 1.31604 8.12109 1.87866Z" fill="url(#paint0_radial_10830_46548)"/>
<path fill-rule="evenodd" clip-rule="evenodd" d="M10 1V2.58579C10 2.91731 9.8683 3.23525 9.63388 3.46967L3.46967 9.63388C3.23525 9.8683 2.91731 10 2.58579 10H1V9.5H2.58579C2.7847 9.5 2.97546 9.42098 3.11612 9.28033L9.28033 3.11612C9.42098 2.97546 9.5 2.7847 9.5 2.58579V1H10ZM14 1V2.58579C14 2.91731 14.1317 3.23525 14.3661 3.46967L20.5303 9.63388C20.7648 9.8683 21.0827 10 21.4142 10H23V9.5H21.4142C21.2153 9.5 21.0245 9.42098 20.8839 9.28033L14.7197 3.11612C14.579 2.97546 14.5 2.7847 14.5 2.58579V1H14ZM10 21.4142V23H9.5V21.4142C9.5 21.2153 9.42098 21.0245 9.28033 20.8839L3.11612 14.7197C2.97546 14.579 2.7847 14.5 2.58579 14.5H1V14H2.58579C2.91731 14 3.23525 14.1317 3.46967 14.3661L9.63388 20.5303C9.8683 20.7647 10 21.0827 10 21.4142ZM11.25 1V2.67157C11.25 3.26831 11.0129 3.84061 10.591 4.26256L4.26256 10.591C3.84061 11.0129 3.26831 11.25 2.67157 11.25H1V10.75H2.67157C3.1357 10.75 3.58082 10.5656 3.90901 10.2374L10.2374 3.90901C10.5656 3.58082 10.75 3.1357 10.75 2.67157V1H11.25ZM12.75 2.67157V1H13.25V2.67157C13.25 3.1357 13.4344 3.58082 13.7626 3.90901L20.091 10.2374C20.4192 10.5656 20.8643 10.75 21.3284 10.75H23V11.25H21.3284C20.7317 11.25 20.1594 11.0129 19.7374 10.591L13.409 4.26256C12.9871 3.84061 12.75 3.26831 12.75 2.67157ZM11.25 23V21.3284C11.25 20.7317 11.0129 20.1594 10.591 19.7374L4.26256 13.409C3.84061 12.9871 3.26831 12.75 2.67157 12.75H1V13.25H2.67157C3.1357 13.25 3.58082 13.4344 3.90901 13.7626L10.2374 20.091C10.5656 20.4192 10.75 20.8643 10.75 21.3284V23H11.25ZM12.75 20V23H13.25V20C13.25 19.5858 13.5858 19.25 14 19.25H15V18.75H14C13.3096 18.75 12.75 19.3096 12.75 20ZM20 12.75C19.3096 12.75 18.75 13.3096 18.75 14V15H19.25V14C19.25 13.5858 19.5858 13.25 20 13.25H23V12.75H20Z" fill="white" fill-opacity="0.25"/>
<path fill-rule="evenodd" clip-rule="evenodd" d="M10.2426 2C9.71221 2 9.2035 2.21071 8.82843 2.58579L2.58579 8.82843C2.21071 9.2035 2 9.71221 2 10.2426V13.7574C2 14.2878 2.21071 14.7965 2.58579 15.1716L8.82843 21.4142C9.2035 21.7893 9.71221 22 10.2426 22H14V19C14 16.2386 16.2386 14 19 14H22V10.2426C22 9.71221 21.7893 9.2035 21.4142 8.82843L15.1716 2.58579C14.7965 2.21071 14.2878 2 13.7574 2H10.2426ZM10.2426 1.5C9.5796 1.5 8.94372 1.76339 8.47487 2.23223L2.23223 8.47487C1.76339 8.94371 1.5 9.5796 1.5 10.2426V13.7574C1.5 14.4204 1.76339 15.0563 2.23223 15.5251L8.47487 21.7678C8.94371 22.2366 9.5796 22.5 10.2426 22.5H14C14.2761 22.5 14.5 22.2761 14.5 22V19C14.5 16.5147 16.5147 14.5 19 14.5H22C22.2761 14.5 22.5 14.2761 22.5 14V10.2426C22.5 9.5796 22.2366 8.94372 21.7678 8.47487L15.5251 2.23223C15.0563 1.76339 14.4204 1.5 13.7574 1.5H10.2426Z" fill="url(#paint1_linear_10830_46548)"/>
<path fill-rule="evenodd" clip-rule="evenodd" d="M11.1362 6.10016C11.1948 6.08634 11.2502 6.13149 11.2502 6.19172C11.2502 6.23356 11.2227 6.27034 11.1831 6.28374C10.1755 6.6243 9.45007 7.57747 9.45007 8.70006C9.45007 10.1084 10.5917 11.2501 12.0001 11.2501C13.4084 11.2501 14.5502 10.1084 14.5502 8.70011C14.5502 7.61432 13.8321 6.628 12.8172 6.28383C12.7776 6.27039 12.7502 6.2336 12.7502 6.19175C12.7502 6.13151 12.8055 6.08634 12.8641 6.10017C14.5187 6.49033 15.7502 7.97643 15.7502 9.75016C15.7502 9.95191 15.7342 10.1499 15.7035 10.3431C15.8467 10.4034 15.9877 10.4734 16.1258 10.5531C17.6619 11.4399 18.3331 13.2494 17.8438 14.8774C17.8264 14.9351 17.7596 14.9605 17.7074 14.9303C17.6712 14.9094 17.653 14.8673 17.6612 14.8262C17.8701 13.7833 17.4073 12.6786 16.4351 12.1173C14.8029 11.175 12.5999 12.3579 12.5999 14.3251C12.5999 15.6472 13.606 16.7343 14.8944 16.8624C15.5977 16.9357 16.3085 16.7124 16.8442 16.2414C16.8756 16.2137 16.9212 16.2084 16.9574 16.2294C17.0096 16.2595 17.0211 16.33 16.9798 16.3739C15.8146 17.6117 13.9119 17.9351 12.3758 17.0482C12.2444 16.9724 12.1193 16.8897 12.0007 16.8011C11.8821 16.8897 11.757 16.9724 11.6256 17.0482C10.0895 17.9351 8.18683 17.6117 7.02165 16.3739C6.98035 16.33 6.99179 16.2595 7.04398 16.2294C7.08022 16.2084 7.12576 16.2137 7.1572 16.2414C7.70278 16.7211 8.43002 16.9439 9.14603 16.8581C10.4149 16.7113 11.3999 15.6332 11.3999 14.3251C11.3999 12.3587 9.19809 11.1752 7.56626 12.1173C6.5941 12.6786 6.13134 13.7833 6.34016 14.8262C6.34838 14.8673 6.33022 14.9094 6.29397 14.9303C6.24179 14.9605 6.175 14.9351 6.15765 14.8774C5.66826 13.2494 6.33954 11.4399 7.87563 10.5531C8.01335 10.4735 8.15401 10.4038 8.29683 10.3435C8.26611 10.1502 8.25015 9.95206 8.25015 9.75016C8.25015 7.97642 9.48162 6.49031 11.1362 6.10016Z" fill="white"/>
<path d="M13.832 9.10235C13.9966 9.19469 14.0713 9.39236 13.9961 9.56543C13.8975 9.79222 13.6132 9.83329 13.3943 9.71819C12.9777 9.49909 12.5033 9.3751 11.9999 9.3751C11.4965 9.3751 11.0221 9.49907 10.6055 9.71815C10.3867 9.83324 10.1035 9.79436 10.0048 9.56764C9.92947 9.39461 10.0034 9.19453 10.168 9.1022C10.7097 8.79835 11.3346 8.6251 11.9999 8.6251C12.6653 8.6251 13.2902 8.79841 13.832 9.10235Z" fill="white"/>
<path d="M13.3471 15.5426C13.2101 15.3401 13.3232 15.0793 13.5328 14.9535C14.3649 14.4539 14.9144 13.5633 14.9905 12.5968C15.0096 12.3538 15.1908 12.137 15.4326 12.1674C15.6226 12.1913 15.7548 12.3609 15.7452 12.5521C15.6811 13.8331 14.9491 15.0184 13.8309 15.6481C13.6641 15.742 13.4543 15.701 13.3471 15.5426Z" fill="white"/>
<path d="M8.56707 12.1676C8.37711 12.1916 8.24501 12.3612 8.2546 12.5524C8.31878 13.8332 9.05067 15.0183 10.1687 15.648C10.3354 15.7419 10.5453 15.7009 10.6525 15.5424C10.7894 15.34 10.6763 15.0792 10.4668 14.9534C9.63482 14.4538 9.08538 13.5633 9.00927 12.597C8.99013 12.3539 8.80895 12.137 8.56707 12.1676Z" fill="white"/>
<path fill-rule="evenodd" clip-rule="evenodd" d="M10.2426 23.5C9.31438 23.5 8.42414 23.1313 7.76777 22.4749L1.52513 16.2322C0.868748 15.5759 0.5 14.6856 0.5 13.7574V10.2426C0.5 9.31438 0.868749 8.42414 1.52513 7.76777L7.76777 1.52513C8.42415 0.868748 9.31438 0.5 10.2426 0.5H13.7574C14.6856 0.5 15.5759 0.868749 16.2322 1.52513L22.4749 7.76777C23.1313 8.42415 23.5 9.31438 23.5 10.2426C23.5 13.1607 23.4447 16.0826 23.5 19C23.5 21.4853 21.4853 23.5 19 23.5C15.9795 23.5 13.2795 23.5 10.2426 23.5ZM8.47487 2.23223C8.94372 1.76339 9.5796 1.5 10.2426 1.5H13.7574C14.4204 1.5 15.0563 1.76339 15.5251 2.23223L21.7678 8.47487C22.2366 8.94372 22.5 9.5796 22.5 10.2426V14C22.5 14.2761 22.2761 14.5 22 14.5H19C16.5147 14.5 14.5 16.5147 14.5 19V22C14.5 22.2761 14.2761 22.5 14 22.5H10.2426C9.5796 22.5 8.94371 22.2366 8.47487 21.7678L2.23223 15.5251C1.76339 15.0563 1.5 14.4204 1.5 13.7574V10.2426C1.5 9.5796 1.76339 8.94371 2.23223 8.47487L8.47487 2.23223Z" fill="#001926"/>
<rect x="10" y="1.5" width="4" height="0.5" rx="0.25" fill="white"/>
<defs>
<radialGradient id="paint0_radial_10830_46548" cx="0" cy="0" r="1" gradientUnits="userSpaceOnUse" gradientTransform="translate(12 23) rotate(-90) scale(22)">
<stop stop-color="#76FF33"/>
<stop offset="1" stop-color="#002600"/>
</radialGradient>
<linearGradient id="paint1_linear_10830_46548" x1="12" y1="1.5" x2="12" y2="22.5" gradientUnits="userSpaceOnUse">
<stop stop-color="white" stop-opacity="0.75"/>
<stop offset="1" stop-color="white" stop-opacity="0.15"/>
</linearGradient>
</defs>
</svg>