<svg width="24" height="24" viewBox="0 0 24 24" fill="none" xmlns="http://www.w3.org/2000/svg">
<path fill-rule="evenodd" clip-rule="evenodd" d="M24 19C24 21.7614 21.7614 24 19 24H10.2426C9.18177 24 8.16436 23.5786 7.41421 22.8284L1.17157 16.5858C0.421426 15.8356 0 14.8182 0 13.7574V10.2426C0 9.18177 0.421427 8.16436 1.17157 7.41421L7.41421 1.17157C8.16436 0.421426 9.18178 0 10.2426 0H13.7574C14.8182 0 15.8356 0.421427 16.5858 1.17157L22.8284 7.41421C23.5786 8.16436 24 9.18178 24 10.2426C24 11.2221 23.9938 12.1985 23.9877 13.1731C23.9754 15.1158 23.9631 17.0515 23.9999 18.9905L24 19ZM23.5 19C23.4631 17.0549 23.4754 15.1079 23.4877 13.1613C23.4939 12.1882 23.5 11.2152 23.5 10.2426C23.5 9.31438 23.1313 8.42414 22.4749 7.76777L16.2322 1.52513C15.5759 0.868749 14.6856 0.5 13.7574 0.5H10.2426C9.31438 0.5 8.42414 0.868748 7.76777 1.52513L1.52513 7.76777C0.868749 8.42414 0.5 9.31438 0.5 10.2426V13.7574C0.5 14.6856 0.868748 15.5759 1.52513 16.2322L7.76777 22.4749C8.42414 23.1313 9.31438 23.5 10.2426 23.5H19C21.4853 23.5 23.5 21.4853 23.5 19Z" fill="#FFEE00"/>
<path d="M8.12109 1.87866L1.87891 8.12134C1.31592 8.68396 1 9.44702 1 10.2427V13.7573C1 14.553 1.31592 15.316 1.87891 15.8787L8.12109 22.1213C8.68408 22.684 9.44678 23 10.2427 23H13.7573C14.5532 23 15.3159 22.684 15.8789 22.1213L22.1211 15.8787C22.6841 15.316 23 14.553 23 13.7573V10.2427C23 9.44702 22.6841 8.68396 22.1211 8.12134L15.8789 1.87866C15.3159 1.31604 14.5532 1 13.7573 1H10.2427C9.44678 1 8.68408 1.31604 8.12109 1.87866Z" fill="url(#paint0_radial_10758_45449)"/>
<path fill-rule="evenodd" clip-rule="evenodd" d="M10 1V2.58579C10 2.91731 9.8683 3.23525 9.63388 3.46967L3.46967 9.63388C3.23525 9.8683 2.91731 10 2.58579 10H1V9.5H2.58579C2.7847 9.5 2.97546 9.42098 3.11612 9.28033L9.28033 3.11612C9.42098 2.97546 9.5 2.7847 9.5 2.58579V1H10ZM14 1V2.58579C14 2.91731 14.1317 3.23525 14.3661 3.46967L20.5303 9.63388C20.7648 9.8683 21.0827 10 21.4142 10H23V9.5H21.4142C21.2153 9.5 21.0245 9.42098 20.8839 9.28033L14.7197 3.11612C14.579 2.97546 14.5 2.7847 14.5 2.58579V1H14ZM10 21.4142V23H9.5V21.4142C9.5 21.2153 9.42098 21.0245 9.28033 20.8839L3.11612 14.7197C2.97546 14.579 2.7847 14.5 2.58579 14.5H1V14H2.58579C2.91731 14 3.23525 14.1317 3.46967 14.3661L9.63388 20.5303C9.8683 20.7647 10 21.0827 10 21.4142ZM11.25 1V2.67157C11.25 3.26831 11.0129 3.84061 10.591 4.26256L4.26256 10.591C3.84061 11.0129 3.26831 11.25 2.67157 11.25H1V10.75H2.67157C3.1357 10.75 3.58082 10.5656 3.90901 10.2374L10.2374 3.90901C10.5656 3.58082 10.75 3.1357 10.75 2.67157V1H11.25ZM12.75 2.67157V1H13.25V2.67157C13.25 3.1357 13.4344 3.58082 13.7626 3.90901L20.091 10.2374C20.4192 10.5656 20.8643 10.75 21.3284 10.75H23V11.25H21.3284C20.7317 11.25 20.1594 11.0129 19.7374 10.591L13.409 4.26256C12.9871 3.84061 12.75 3.26831 12.75 2.67157ZM11.25 23V21.3284C11.25 20.7317 11.0129 20.1594 10.591 19.7374L4.26256 13.409C3.84061 12.9871 3.26831 12.75 2.67157 12.75H1V13.25H2.67157C3.1357 13.25 3.58082 13.4344 3.90901 13.7626L10.2374 20.091C10.5656 20.4192 10.75 20.8643 10.75 21.3284V23H11.25ZM12.75 20V23H13.25V20C13.25 19.5858 13.5858 19.25 14 19.25H15V18.75H14C13.3096 18.75 12.75 19.3096 12.75 20ZM20 12.75C19.3096 12.75 18.75 13.3096 18.75 14V15H19.25V14C19.25 13.5858 19.5858 13.25 20 13.25H23V12.75H20Z" fill="white" fill-opacity="0.25"/>
<path fill-rule="evenodd" clip-rule="evenodd" d="M10.2426 2C9.71221 2 9.2035 2.21071 8.82843 2.58579L2.58579 8.82843C2.21071 9.2035 2 9.71221 2 10.2426V13.7574C2 14.2878 2.21071 14.7965 2.58579 15.1716L8.82843 21.4142C9.2035 21.7893 9.71221 22 10.2426 22H14V19C14 16.2386 16.2386 14 19 14H22V10.2426C22 9.71221 21.7893 9.2035 21.4142 8.82843L15.1716 2.58579C14.7965 2.21071 14.2878 2 13.7574 2H10.2426ZM10.2426 1.5C9.5796 1.5 8.94372 1.76339 8.47487 2.23223L2.23223 8.47487C1.76339 8.94371 1.5 9.5796 1.5 10.2426V13.7574C1.5 14.4204 1.76339 15.0563 2.23223 15.5251L8.47487 21.7678C8.94371 22.2366 9.5796 22.5 10.2426 22.5H14C14.2761 22.5 14.5 22.2761 14.5 22V19C14.5 16.5147 16.5147 14.5 19 14.5H22C22.2761 14.5 22.5 14.2761 22.5 14V10.2426C22.5 9.5796 22.2366 8.94372 21.7678 8.47487L15.5251 2.23223C15.0563 1.76339 14.4204 1.5 13.7574 1.5H10.2426Z" fill="url(#paint1_linear_10758_45449)"/>
<path d="M10.2244 7.99437L10.1641 8.05469L11.5703 9.46094L11.6306 9.40062C12.2673 8.76393 12.625 7.90041 12.625 7C11.7246 7 10.8611 7.35768 10.2244 7.99437Z" fill="white"/>
<path d="M8.75781 12.625L7 10.8672L7.13686 10.7303C7.19705 10.6701 7.28513 10.6473 7.36698 10.6707L7.78125 10.7891L8.05469 10.5156L7.78599 10.2469C7.74022 10.2012 7.74022 10.127 7.78599 10.0812L9.21235 8.65484C9.37152 8.49567 9.5874 8.40625 9.8125 8.40625L11.2188 9.8125C11.2188 10.0376 11.1293 10.2535 10.9702 10.4127L9.5438 11.839C9.49804 11.8848 9.42384 11.8848 9.37807 11.839L9.10938 11.5703L8.83594 11.8438L8.9543 12.258C8.97769 12.3399 8.95486 12.428 8.89467 12.4881L8.75781 12.625Z" fill="white"/>
<path d="M9.86612 12.8839L9.8125 12.9375L11.0625 14.1875L11.1161 14.1339C11.6821 13.5679 12 12.8004 12 12C11.1996 12 10.4321 12.3179 9.86612 12.8839Z" fill="white"/>
<path d="M8.68415 16.8783L8.5625 17L7 15.4375L7.12165 15.3158C7.17515 15.2623 7.25345 15.2421 7.3262 15.2628L7.69444 15.3681L7.9375 15.125L7.69866 14.8862C7.65798 14.8455 7.65798 14.7795 7.69866 14.7388L8.96653 13.471C9.10801 13.3295 9.29991 13.25 9.5 13.25L10.75 14.5C10.75 14.7001 10.6705 14.892 10.529 15.0335L9.26116 16.3013C9.22048 16.342 9.15452 16.342 9.11384 16.3013L8.875 16.0625L8.63194 16.3056L8.73716 16.6738C8.75794 16.7465 8.73765 16.8248 8.68415 16.8783Z" fill="white"/>
<path d="M14.1875 8.5625L14.2411 8.50888C14.8071 7.94294 15.5746 7.625 16.375 7.625C16.375 8.42536 16.0571 9.19294 15.4911 9.75888L15.4375 9.8125L14.1875 8.5625Z" fill="white"/>
<path d="M11.375 11.0625L12.9375 12.625L13.0592 12.5033C13.1127 12.4498 13.1329 12.3715 13.1122 12.2988L13.0069 11.9306L13.25 11.6875L13.4888 11.9263C13.5295 11.967 13.5955 11.967 13.6362 11.9263L14.904 10.6585C15.0455 10.517 15.125 10.3251 15.125 10.125L13.875 8.875C13.6749 8.875 13.483 8.95449 13.3415 9.09597L12.0737 10.3638C12.033 10.4045 12.033 10.4705 12.0737 10.5112L12.3125 10.75L12.0694 10.9931L11.7012 10.8878C11.6285 10.8671 11.5502 10.8873 11.4967 10.9408L11.375 11.0625Z" fill="white"/>
<path d="M14.5994 12.3694L14.5391 12.4297L15.9453 13.8359L16.0056 13.7756C16.6423 13.1389 17 12.2754 17 11.375C16.0996 11.375 15.2361 11.7327 14.5994 12.3694Z" fill="white"/>
<path d="M13.1328 17L11.375 15.2422L11.5119 15.1053C11.572 15.0451 11.6601 15.0223 11.742 15.0457L12.1562 15.1641L12.4297 14.8906L12.161 14.6219C12.1152 14.5762 12.1152 14.502 12.161 14.4562L13.5873 13.0298C13.7465 12.8707 13.9624 12.7812 14.1875 12.7812L15.5938 14.1875C15.5938 14.4126 15.5043 14.6285 15.3452 14.7877L13.9188 16.214C13.873 16.2598 13.7988 16.2598 13.7531 16.214L13.4844 15.9453L13.2109 16.2188L13.3293 16.633C13.3527 16.7149 13.3299 16.803 13.2697 16.8631L13.1328 17Z" fill="white"/>
<path fill-rule="evenodd" clip-rule="evenodd" d="M10.2426 23.5C9.31438 23.5 8.42414 23.1313 7.76777 22.4749L1.52513 16.2322C0.868748 15.5759 0.5 14.6856 0.5 13.7574V10.2426C0.5 9.31438 0.868749 8.42414 1.52513 7.76777L7.76777 1.52513C8.42415 0.868748 9.31438 0.5 10.2426 0.5H13.7574C14.6856 0.5 15.5759 0.868749 16.2322 1.52513L22.4749 7.76777C23.1313 8.42415 23.5 9.31438 23.5 10.2426C23.5 13.1607 23.4447 16.0826 23.5 19C23.5 21.4853 21.4853 23.5 19 23.5C15.9795 23.5 13.2795 23.5 10.2426 23.5ZM8.47487 2.23223C8.94372 1.76339 9.5796 1.5 10.2426 1.5H13.7574C14.4204 1.5 15.0563 1.76339 15.5251 2.23223L21.7678 8.47487C22.2366 8.94372 22.5 9.5796 22.5 10.2426V14C22.5 14.2761 22.2761 14.5 22 14.5H19C16.5147 14.5 14.5 16.5147 14.5 19V22C14.5 22.2761 14.2761 22.5 14 22.5H10.2426C9.5796 22.5 8.94371 22.2366 8.47487 21.7678L2.23223 15.5251C1.76339 15.0563 1.5 14.4204 1.5 13.7574V10.2426C1.5 9.5796 1.76339 8.94371 2.23223 8.47487L8.47487 2.23223Z" fill="#001926"/>
<rect x="10" y="1.5" width="4" height="0.5" rx="0.25" fill="white"/>
<defs>
<radialGradient id="paint0_radial_10758_45449" cx="0" cy="0" r="1" gradientUnits="userSpaceOnUse" gradientTransform="translate(12 23) rotate(-90) scale(22)">
<stop stop-color="#FF8080"/>
<stop offset="0.496286" stop-color="#FF3333"/>
<stop offset="1" stop-color="#800000"/>
</radialGradient>
<linearGradient id="paint1_linear_10758_45449" x1="12" y1="1.5" x2="12" y2="22.5" gradientUnits="userSpaceOnUse">
<stop stop-color="white" stop-opacity="0.75"/>
<stop offset="1" stop-color="white" stop-opacity="0.15"/>
</linearGradient>
</defs>
</svg>