<svg width="24" height="24" viewBox="0 0 24 24" fill="none" xmlns="http://www.w3.org/2000/svg">
<path fill-rule="evenodd" clip-rule="evenodd" d="M24 19C24 21.7614 21.7614 24 19 24H10.2426C9.18177 24 8.16436 23.5786 7.41421 22.8284L1.17157 16.5858C0.421426 15.8356 0 14.8182 0 13.7574V10.2426C0 9.18177 0.421427 8.16436 1.17157 7.41421L7.41421 1.17157C8.16436 0.421426 9.18178 0 10.2426 0H13.7574C14.8182 0 15.8356 0.421427 16.5858 1.17157L22.8284 7.41421C23.5786 8.16436 24 9.18178 24 10.2426C24 11.2221 23.9938 12.1985 23.9877 13.1731C23.9754 15.1158 23.9631 17.0515 23.9999 18.9905L24 19ZM23.5 19C23.4631 17.0549 23.4754 15.1079 23.4877 13.1613C23.4939 12.1882 23.5 11.2152 23.5 10.2426C23.5 9.31438 23.1313 8.42414 22.4749 7.76777L16.2322 1.52513C15.5759 0.868749 14.6856 0.5 13.7574 0.5H10.2426C9.31438 0.5 8.42414 0.868748 7.76777 1.52513L1.52513 7.76777C0.868749 8.42414 0.5 9.31438 0.5 10.2426V13.7574C0.5 14.6856 0.868748 15.5759 1.52513 16.2322L7.76777 22.4749C8.42414 23.1313 9.31438 23.5 10.2426 23.5H19C21.4853 23.5 23.5 21.4853 23.5 19Z" fill="#FFEE00"/>
<path d="M8.12109 1.87866L1.87891 8.12134C1.31592 8.68396 1 9.44702 1 10.2427V13.7573C1 14.553 1.31592 15.316 1.87891 15.8787L8.12109 22.1213C8.68408 22.684 9.44678 23 10.2427 23H13.7573C14.5532 23 15.3159 22.684 15.8789 22.1213L22.1211 15.8787C22.6841 15.316 23 14.553 23 13.7573V10.2427C23 9.44702 22.6841 8.68396 22.1211 8.12134L15.8789 1.87866C15.3159 1.31604 14.5532 1 13.7573 1H10.2427C9.44678 1 8.68408 1.31604 8.12109 1.87866Z" fill="url(#paint0_radial_37157_55317)"/>
<path fill-rule="evenodd" clip-rule="evenodd" d="M10 1V2.58579C10 2.91731 9.8683 3.23525 9.63388 3.46967L3.46967 9.63388C3.23525 9.8683 2.91731 10 2.58579 10H1V9.5H2.58579C2.7847 9.5 2.97546 9.42098 3.11612 9.28033L9.28033 3.11612C9.42098 2.97546 9.5 2.7847 9.5 2.58579V1H10ZM14 1V2.58579C14 2.91731 14.1317 3.23525 14.3661 3.46967L20.5303 9.63388C20.7648 9.8683 21.0827 10 21.4142 10H23V9.5H21.4142C21.2153 9.5 21.0245 9.42098 20.8839 9.28033L14.7197 3.11612C14.579 2.97546 14.5 2.7847 14.5 2.58579V1H14ZM10 21.4142V23H9.5V21.4142C9.5 21.2153 9.42098 21.0245 9.28033 20.8839L3.11612 14.7197C2.97546 14.579 2.7847 14.5 2.58579 14.5H1V14H2.58579C2.91731 14 3.23525 14.1317 3.46967 14.3661L9.63388 20.5303C9.8683 20.7647 10 21.0827 10 21.4142ZM11.25 1V2.67157C11.25 3.26831 11.0129 3.84061 10.591 4.26256L4.26256 10.591C3.84061 11.0129 3.26831 11.25 2.67157 11.25H1V10.75H2.67157C3.1357 10.75 3.58082 10.5656 3.90901 10.2374L10.2374 3.90901C10.5656 3.58082 10.75 3.1357 10.75 2.67157V1H11.25ZM12.75 2.67157V1H13.25V2.67157C13.25 3.1357 13.4344 3.58082 13.7626 3.90901L20.091 10.2374C20.4192 10.5656 20.8643 10.75 21.3284 10.75H23V11.25H21.3284C20.7317 11.25 20.1594 11.0129 19.7374 10.591L13.409 4.26256C12.9871 3.84061 12.75 3.26831 12.75 2.67157ZM11.25 23V21.3284C11.25 20.7317 11.0129 20.1594 10.591 19.7374L4.26256 13.409C3.84061 12.9871 3.26831 12.75 2.67157 12.75H1V13.25H2.67157C3.1357 13.25 3.58082 13.4344 3.90901 13.7626L10.2374 20.091C10.5656 20.4192 10.75 20.8643 10.75 21.3284V23H11.25ZM12.75 20V23H13.25V20C13.25 19.5858 13.5858 19.25 14 19.25H15V18.75H14C13.3096 18.75 12.75 19.3096 12.75 20ZM20 12.75C19.3096 12.75 18.75 13.3096 18.75 14V15H19.25V14C19.25 13.5858 19.5858 13.25 20 13.25H23V12.75H20Z" fill="white" fill-opacity="0.25"/>
<path fill-rule="evenodd" clip-rule="evenodd" d="M10.2426 2C9.71221 2 9.2035 2.21071 8.82843 2.58579L2.58579 8.82843C2.21071 9.2035 2 9.71221 2 10.2426V13.7574C2 14.2878 2.21071 14.7965 2.58579 15.1716L8.82843 21.4142C9.2035 21.7893 9.71221 22 10.2426 22H14V19C14 16.2386 16.2386 14 19 14H22V10.2426C22 9.71221 21.7893 9.2035 21.4142 8.82843L15.1716 2.58579C14.7965 2.21071 14.2878 2 13.7574 2H10.2426ZM10.2426 1.5C9.5796 1.5 8.94372 1.76339 8.47487 2.23223L2.23223 8.47487C1.76339 8.94371 1.5 9.5796 1.5 10.2426V13.7574C1.5 14.4204 1.76339 15.0563 2.23223 15.5251L8.47487 21.7678C8.94371 22.2366 9.5796 22.5 10.2426 22.5H14C14.2761 22.5 14.5 22.2761 14.5 22V19C14.5 16.5147 16.5147 14.5 19 14.5H22C22.2761 14.5 22.5 14.2761 22.5 14V10.2426C22.5 9.5796 22.2366 8.94372 21.7678 8.47487L15.5251 2.23223C15.0563 1.76339 14.4204 1.5 13.7574 1.5H10.2426Z" fill="url(#paint1_linear_37157_55317)"/>
<path d="M15.393 13.5984C15.5796 13.2028 15.6992 12.7692 15.7368 12.3125H16.9901C16.9479 12.9963 16.7683 13.643 16.4785 14.2251L15.393 13.5984Z" fill="white"/>
<path d="M15.08 14.1394C14.8248 14.5061 14.5058 14.8251 14.139 15.0803L14.7658 16.1659C15.3201 15.797 15.7967 15.3205 16.1655 14.7661L15.08 14.1394Z" fill="white"/>
<path d="M12.3122 15.7372C12.7689 15.6995 13.2024 15.58 13.598 15.3933L14.2248 16.4789C13.6426 16.7687 12.996 16.9483 12.3122 16.9904V15.7372Z" fill="white"/>
<path d="M11.6872 15.7372C11.2304 15.6995 10.7969 15.58 10.4013 15.3933L9.77457 16.4789C10.3567 16.7687 11.0034 16.9483 11.6872 16.9904V15.7372Z" fill="white"/>
<path d="M8.91936 14.1394C9.17455 14.5061 9.49357 14.8251 9.86033 15.0803L9.23359 16.1659C8.67921 15.797 8.20265 15.3205 7.83381 14.7661L8.91936 14.1394Z" fill="white"/>
<path d="M8.60637 13.5984C8.4197 13.2028 8.30018 12.7692 8.2625 12.3125H7.00928C7.05144 12.9963 7.23105 13.643 7.52082 14.2251L8.60637 13.5984Z" fill="white"/>
<path d="M8.60653 13.5984C8.41986 13.2028 8.30034 12.7692 8.26267 12.3125H7.00944C7.0516 12.9963 7.23121 13.643 7.52098 14.2251L8.60653 13.5984Z" fill="white"/>
<path d="M8.91952 14.1394C9.17472 14.5061 9.49374 14.8251 9.8605 15.0803L9.23376 16.1659C8.67937 15.797 8.20282 15.3205 7.83398 14.7661L8.91952 14.1394Z" fill="white"/>
<path d="M11.6873 15.7372C11.2306 15.6995 10.7971 15.58 10.4015 15.3933L9.77474 16.4789C10.3569 16.7687 11.0035 16.9483 11.6873 16.9904V15.7372Z" fill="white"/>
<path d="M12.3123 15.7372C12.7691 15.6995 13.2026 15.58 13.5982 15.3933L14.2249 16.4789C13.6428 16.7687 12.9962 16.9483 12.3123 16.9904V15.7372Z" fill="white"/>
<path d="M15.0802 14.1394C14.825 14.5061 14.5059 14.8251 14.1392 15.0803L14.7659 16.1659C15.3203 15.797 15.7969 15.3205 16.1657 14.7661L15.0802 14.1394Z" fill="white"/>
<path d="M15.3931 13.5984C15.5798 13.2028 15.6993 12.7692 15.737 12.3125H16.9902C16.9481 12.9963 16.7685 13.643 16.4787 14.2251L15.3931 13.5984Z" fill="white"/>
<path d="M11.3371 7.66291L11.2969 7.70312L12.2344 8.64062L12.2746 8.60041C12.699 8.17596 12.9375 7.60027 12.9375 7C12.3372 7 11.7615 7.23846 11.3371 7.66291Z" fill="white"/>
<path d="M9.42188 11.6875L8.25 10.5156L8.34124 10.4244C8.38136 10.3843 8.44009 10.369 8.49465 10.3846L8.77083 10.4635L8.95312 10.2812L8.77399 10.1021C8.74348 10.0716 8.74348 10.0221 8.77399 9.99163L10.6624 8.10323C10.7685 7.99711 10.9124 7.9375 11.0625 7.9375L12 8.875C12 9.02507 11.9404 9.16899 11.8343 9.2751L9.94587 11.1635C9.91536 11.194 9.86589 11.194 9.83538 11.1635L9.65625 10.9844L9.47396 11.1667L9.55287 11.4428C9.56846 11.4974 9.55324 11.5561 9.51312 11.5963L9.42188 11.6875Z" fill="white"/>
<path d="M12.7031 9.10938L12.7433 9.06916C13.1678 8.64471 13.7435 8.40625 14.3438 8.40625C14.3438 9.00652 14.1053 9.58221 13.6808 10.0067L13.6406 10.0469L12.7031 9.10938Z" fill="white"/>
<path d="M9.65625 11.9219L10.8281 13.0938L10.9194 13.0025C10.9595 12.9624 10.9747 12.9037 10.9591 12.8491L10.8802 12.5729L11.0625 12.3906L11.2416 12.5698C11.2721 12.6003 11.3216 12.6003 11.3521 12.5698L13.2405 10.6814C13.3466 10.5752 13.4062 10.4313 13.4062 10.2812L12.4688 9.34375C12.3187 9.34375 12.1748 9.40336 12.0686 9.50948L10.1802 11.3979C10.1497 11.4284 10.1497 11.4779 10.1802 11.5084L10.3594 11.6875L10.1771 11.8698L9.9009 11.7909C9.84634 11.7753 9.78761 11.7905 9.74749 11.8306L9.65625 11.9219Z" fill="white"/>
<path d="M14.1094 10.5156L14.1496 10.4754C14.574 10.051 15.1497 9.8125 15.75 9.8125C15.75 10.4128 15.5115 10.9885 15.0871 11.4129L15.0469 11.4531L14.1094 10.5156Z" fill="white"/>
<path d="M11.0625 13.3281L12.2344 14.5L12.3256 14.4088C12.3657 14.3686 12.381 14.3099 12.3654 14.2553L12.2865 13.9792L12.4688 13.7969L12.6479 13.976C12.6784 14.0065 12.7279 14.0065 12.7584 13.976L14.6468 12.0876C14.7529 11.9815 14.8125 11.8376 14.8125 11.6875L13.875 10.75C13.7249 10.75 13.581 10.8096 13.4749 10.9157L11.5865 12.8041C11.556 12.8346 11.556 12.8841 11.5865 12.9146L11.7656 13.0938L11.5833 13.276L11.3072 13.1971C11.2526 13.1815 11.1939 13.1968 11.1537 13.2369L11.0625 13.3281Z" fill="white"/>
<path fill-rule="evenodd" clip-rule="evenodd" d="M10.2426 23.5C9.31438 23.5 8.42414 23.1313 7.76777 22.4749L1.52513 16.2322C0.868748 15.5759 0.5 14.6856 0.5 13.7574V10.2426C0.5 9.31438 0.868749 8.42414 1.52513 7.76777L7.76777 1.52513C8.42415 0.868748 9.31438 0.5 10.2426 0.5H13.7574C14.6856 0.5 15.5759 0.868749 16.2322 1.52513L22.4749 7.76777C23.1313 8.42415 23.5 9.31438 23.5 10.2426C23.5 13.1607 23.4447 16.0826 23.5 19C23.5 21.4853 21.4853 23.5 19 23.5C15.9795 23.5 13.2795 23.5 10.2426 23.5ZM8.47487 2.23223C8.94372 1.76339 9.5796 1.5 10.2426 1.5H13.7574C14.4204 1.5 15.0563 1.76339 15.5251 2.23223L21.7678 8.47487C22.2366 8.94372 22.5 9.5796 22.5 10.2426V14C22.5 14.2761 22.2761 14.5 22 14.5H19C16.5147 14.5 14.5 16.5147 14.5 19V22C14.5 22.2761 14.2761 22.5 14 22.5H10.2426C9.5796 22.5 8.94371 22.2366 8.47487 21.7678L2.23223 15.5251C1.76339 15.0563 1.5 14.4204 1.5 13.7574V10.2426C1.5 9.5796 1.76339 8.94371 2.23223 8.47487L8.47487 2.23223Z" fill="#001926"/>
<rect x="10" y="1.5" width="4" height="0.5" rx="0.25" fill="white"/>
<defs>
<radialGradient id="paint0_radial_37157_55317" cx="0" cy="0" r="1" gradientUnits="userSpaceOnUse" gradientTransform="translate(12 23) rotate(-90) scale(22)">
<stop stop-color="#FF8080"/>
<stop offset="0.496286" stop-color="#FF3333"/>
<stop offset="1" stop-color="#800000"/>
</radialGradient>
<linearGradient id="paint1_linear_37157_55317" x1="12" y1="1.5" x2="12" y2="22.5" gradientUnits="userSpaceOnUse">
<stop stop-color="white" stop-opacity="0.75"/>
<stop offset="1" stop-color="white" stop-opacity="0.15"/>
</linearGradient>
</defs>
</svg>
