<svg width="24" height="24" viewBox="0 0 24 24" fill="none" xmlns="http://www.w3.org/2000/svg">
<path fill-rule="evenodd" clip-rule="evenodd" d="M24 19C24 21.7614 21.7614 24 19 24H10.2426C9.18177 24 8.16436 23.5786 7.41421 22.8284L1.17157 16.5858C0.421426 15.8356 0 14.8182 0 13.7574V10.2426C0 9.18177 0.421427 8.16436 1.17157 7.41421L7.41421 1.17157C8.16436 0.421426 9.18178 0 10.2426 0H13.7574C14.8182 0 15.8356 0.421427 16.5858 1.17157L22.8284 7.41421C23.5786 8.16436 24 9.18178 24 10.2426C24 11.2221 23.9938 12.1985 23.9877 13.1731C23.9754 15.1158 23.9631 17.0515 23.9999 18.9905L24 19ZM23.5 19C23.4631 17.0549 23.4754 15.1079 23.4877 13.1613C23.4939 12.1882 23.5 11.2152 23.5 10.2426C23.5 9.31438 23.1313 8.42414 22.4749 7.76777L16.2322 1.52513C15.5759 0.868749 14.6856 0.5 13.7574 0.5H10.2426C9.31438 0.5 8.42414 0.868748 7.76777 1.52513L1.52513 7.76777C0.868749 8.42414 0.5 9.31438 0.5 10.2426V13.7574C0.5 14.6856 0.868748 15.5759 1.52513 16.2322L7.76777 22.4749C8.42414 23.1313 9.31438 23.5 10.2426 23.5H19C21.4853 23.5 23.5 21.4853 23.5 19Z" fill="#D580FF"/>
<path d="M8.12109 1.87866L1.87891 8.12134C1.31592 8.68396 1 9.44702 1 10.2427V13.7573C1 14.553 1.31592 15.316 1.87891 15.8787L8.12109 22.1213C8.68408 22.684 9.44678 23 10.2427 23H13.7573C14.5532 23 15.3159 22.684 15.8789 22.1213L22.1211 15.8787C22.6841 15.316 23 14.553 23 13.7573V10.2427C23 9.44702 22.6841 8.68396 22.1211 8.12134L15.8789 1.87866C15.3159 1.31604 14.5532 1 13.7573 1H10.2427C9.44678 1 8.68408 1.31604 8.12109 1.87866Z" fill="url(#paint0_radial_5308_26935)"/>
<path fill-rule="evenodd" clip-rule="evenodd" d="M10 1V2.58579C10 2.91731 9.8683 3.23525 9.63388 3.46967L3.46967 9.63388C3.23525 9.8683 2.91731 10 2.58579 10H1V9.5H2.58579C2.7847 9.5 2.97546 9.42098 3.11612 9.28033L9.28033 3.11612C9.42098 2.97546 9.5 2.7847 9.5 2.58579V1H10ZM14 1V2.58579C14 2.91731 14.1317 3.23525 14.3661 3.46967L20.5303 9.63388C20.7648 9.8683 21.0827 10 21.4142 10H23V9.5H21.4142C21.2153 9.5 21.0245 9.42098 20.8839 9.28033L14.7197 3.11612C14.579 2.97546 14.5 2.7847 14.5 2.58579V1H14ZM10 21.4142V23H9.5V21.4142C9.5 21.2153 9.42098 21.0245 9.28033 20.8839L3.11612 14.7197C2.97546 14.579 2.7847 14.5 2.58579 14.5H1V14H2.58579C2.91731 14 3.23525 14.1317 3.46967 14.3661L9.63388 20.5303C9.8683 20.7647 10 21.0827 10 21.4142ZM11.25 1V2.67157C11.25 3.26831 11.0129 3.84061 10.591 4.26256L4.26256 10.591C3.84061 11.0129 3.26831 11.25 2.67157 11.25H1V10.75H2.67157C3.1357 10.75 3.58082 10.5656 3.90901 10.2374L10.2374 3.90901C10.5656 3.58082 10.75 3.1357 10.75 2.67157V1H11.25ZM12.75 2.67157V1H13.25V2.67157C13.25 3.1357 13.4344 3.58082 13.7626 3.90901L20.091 10.2374C20.4192 10.5656 20.8643 10.75 21.3284 10.75H23V11.25H21.3284C20.7317 11.25 20.1594 11.0129 19.7374 10.591L13.409 4.26256C12.9871 3.84061 12.75 3.26831 12.75 2.67157ZM11.25 23V21.3284C11.25 20.7317 11.0129 20.1594 10.591 19.7374L4.26256 13.409C3.84061 12.9871 3.26831 12.75 2.67157 12.75H1V13.25H2.67157C3.1357 13.25 3.58082 13.4344 3.90901 13.7626L10.2374 20.091C10.5656 20.4192 10.75 20.8643 10.75 21.3284V23H11.25ZM12.75 20V23H13.25V20C13.25 19.5858 13.5858 19.25 14 19.25H15V18.75H14C13.3096 18.75 12.75 19.3096 12.75 20ZM20 12.75C19.3096 12.75 18.75 13.3096 18.75 14V15H19.25V14C19.25 13.5858 19.5858 13.25 20 13.25H23V12.75H20Z" fill="white" fill-opacity="0.25"/>
<path fill-rule="evenodd" clip-rule="evenodd" d="M10.2426 2C9.71221 2 9.2035 2.21071 8.82843 2.58579L2.58579 8.82843C2.21071 9.2035 2 9.71221 2 10.2426V13.7574C2 14.2878 2.21071 14.7965 2.58579 15.1716L8.82843 21.4142C9.2035 21.7893 9.71221 22 10.2426 22H14V19C14 16.2386 16.2386 14 19 14H22V10.2426C22 9.71221 21.7893 9.2035 21.4142 8.82843L15.1716 2.58579C14.7965 2.21071 14.2878 2 13.7574 2H10.2426ZM10.2426 1.5C9.5796 1.5 8.94372 1.76339 8.47487 2.23223L2.23223 8.47487C1.76339 8.94371 1.5 9.5796 1.5 10.2426V13.7574C1.5 14.4204 1.76339 15.0563 2.23223 15.5251L8.47487 21.7678C8.94371 22.2366 9.5796 22.5 10.2426 22.5H14C14.2761 22.5 14.5 22.2761 14.5 22V19C14.5 16.5147 16.5147 14.5 19 14.5H22C22.2761 14.5 22.5 14.2761 22.5 14V10.2426C22.5 9.5796 22.2366 8.94372 21.7678 8.47487L15.5251 2.23223C15.0563 1.76339 14.4204 1.5 13.7574 1.5H10.2426Z" fill="url(#paint1_linear_5308_26935)"/>
<path d="M11.25 6.92779C11.25 7.29412 10.9825 7.60034 10.6334 7.71147C9.24724 8.15277 8.15249 9.24754 7.71119 10.6338C7.60007 10.9828 7.29385 11.2503 6.92753 11.2503H6.04639C6.38482 8.53621 8.53592 6.38507 11.25 6.04663V6.92779Z" fill="white"/>
<path d="M12.7499 6.92779V6.04663C15.464 6.38507 17.6151 8.53621 17.9535 11.2503H17.0724C16.706 11.2503 16.3998 10.9828 16.2887 10.6338C15.8474 9.24754 14.7527 8.15277 13.3665 7.71147C13.0174 7.60034 12.7499 7.29412 12.7499 6.92779Z" fill="white"/>
<path d="M13.3664 16.2892C13.0173 16.4003 12.7499 16.7065 12.7499 17.0728V17.954C15.4639 17.6156 17.6151 15.4644 17.9535 12.7503H17.0724C16.706 12.7503 16.3998 13.0178 16.2887 13.3668C15.8474 14.7531 14.7526 15.8479 13.3664 16.2892Z" fill="white"/>
<path d="M11.2499 17.0728V17.954C8.53587 17.6155 6.38482 15.4644 6.04639 12.7503H6.92753C7.29385 12.7503 7.60007 13.0178 7.71119 13.3668C8.15248 14.753 9.2472 15.8478 10.6334 16.2891C10.9824 16.4002 11.2499 16.7065 11.2499 17.0728Z" fill="white"/>
<path d="M11.9999 9.93767L12.4359 9.21108C12.5061 9.09404 12.6572 9.05495 12.7754 9.12327L12.9445 9.22103C13.0646 9.29048 13.1052 9.44446 13.0349 9.5641L12.3749 10.6876V11.3507L12.9491 11.0191L13.5922 9.88581C13.6606 9.76513 13.8143 9.72329 13.9345 9.7926L14.1037 9.89017C14.2219 9.95835 14.2636 10.1088 14.1974 10.2281L13.7861 10.9689L14.6333 10.9832C14.7698 10.9855 14.8792 11.0968 14.8791 11.2333L14.879 11.4286C14.8789 11.5674 14.7659 11.6795 14.6271 11.6785L13.3241 11.6687L12.7499 12.0002L13.3241 12.3317L14.6272 12.3219C14.7659 12.3209 14.879 12.433 14.8791 12.5718L14.8792 12.7671C14.8793 12.9036 14.7699 13.0149 14.6334 13.0172L13.7862 13.0315L14.1975 13.7723C14.2637 13.8917 14.222 14.0421 14.1038 14.1103L13.9345 14.2078C13.8143 14.2771 13.6607 14.2353 13.5922 14.1146L12.9492 12.9813L12.3749 12.6497V13.3128L13.0349 14.4364C13.1052 14.556 13.0646 14.71 12.9445 14.7794L12.7754 14.8772C12.6572 14.9455 12.5061 14.9064 12.4359 14.7894L11.9999 14.0628L11.564 14.7894C11.4937 14.9064 11.3426 14.9455 11.2245 14.8772L11.0554 14.7794C10.9352 14.71 10.8947 14.556 10.9649 14.4364L11.6249 13.3128V12.6497L11.0507 12.9813L10.4077 14.1146C10.3392 14.2353 10.1856 14.2771 10.0654 14.2078L9.89615 14.1103C9.77791 14.0421 9.7362 13.8917 9.80244 13.7723L10.2137 13.0315L9.36651 13.0172C9.23004 13.0149 9.12064 12.9036 9.12072 12.7671L9.12083 12.5718C9.12091 12.433 9.23397 12.3209 9.37271 12.3219L10.6757 12.3317L11.2499 12.0002L10.6758 11.6687L9.37277 11.6785C9.23402 11.6795 9.12097 11.5674 9.12089 11.4286L9.12078 11.2333C9.1207 11.0968 9.2301 10.9855 9.36657 10.9832L10.2138 10.9689L9.8025 10.2281C9.73626 10.1088 9.77796 9.95834 9.89621 9.89017L10.0654 9.79259C10.1856 9.72329 10.3393 9.76512 10.4077 9.8858L11.0508 11.0192L11.6249 11.3507V10.6877L10.9649 9.5641C10.8947 9.44446 10.9352 9.29048 11.0554 9.22103L11.2245 9.12327C11.3426 9.05495 11.4937 9.09404 11.564 9.21108L11.9999 9.93767Z" fill="white"/>
<path fill-rule="evenodd" clip-rule="evenodd" d="M10.2426 23.5C9.31438 23.5 8.42414 23.1313 7.76777 22.4749L1.52513 16.2322C0.868748 15.5759 0.5 14.6856 0.5 13.7574V10.2426C0.5 9.31438 0.868749 8.42414 1.52513 7.76777L7.76777 1.52513C8.42415 0.868748 9.31438 0.5 10.2426 0.5H13.7574C14.6856 0.5 15.5759 0.868749 16.2322 1.52513L22.4749 7.76777C23.1313 8.42415 23.5 9.31438 23.5 10.2426C23.5 13.1607 23.4447 16.0826 23.5 19C23.5 21.4853 21.4853 23.5 19 23.5C15.9795 23.5 13.2795 23.5 10.2426 23.5ZM8.47487 2.23223C8.94372 1.76339 9.5796 1.5 10.2426 1.5H13.7574C14.4204 1.5 15.0563 1.76339 15.5251 2.23223L21.7678 8.47487C22.2366 8.94372 22.5 9.5796 22.5 10.2426V14C22.5 14.2761 22.2761 14.5 22 14.5H19C16.5147 14.5 14.5 16.5147 14.5 19V22C14.5 22.2761 14.2761 22.5 14 22.5H10.2426C9.5796 22.5 8.94371 22.2366 8.47487 21.7678L2.23223 15.5251C1.76339 15.0563 1.5 14.4204 1.5 13.7574V10.2426C1.5 9.5796 1.76339 8.94371 2.23223 8.47487L8.47487 2.23223Z" fill="#001926"/>
<rect x="10" y="1.5" width="4" height="0.5" rx="0.25" fill="white"/>
<defs>
<radialGradient id="paint0_radial_5308_26935" cx="0" cy="0" r="1" gradientUnits="userSpaceOnUse" gradientTransform="translate(12 23) rotate(-90) scale(22)">
<stop stop-color="#FF8080"/>
<stop offset="0.496286" stop-color="#FF3333"/>
<stop offset="1" stop-color="#800000"/>
</radialGradient>
<linearGradient id="paint1_linear_5308_26935" x1="12" y1="1.5" x2="12" y2="22.5" gradientUnits="userSpaceOnUse">
<stop stop-color="white" stop-opacity="0.75"/>
<stop offset="1" stop-color="white" stop-opacity="0.15"/>
</linearGradient>
</defs>
</svg>