<svg width="24" height="24" viewBox="0 0 24 24" fill="none" xmlns="http://www.w3.org/2000/svg">
	<path fill-rule="evenodd" clip-rule="evenodd"
		  d="M24.0005 12.0002C24.0005 18.6278 18.6278 24.0005 12.0002 24.0005C5.37269 24.0005 0 18.6278 0 12.0002C0 5.37269 5.37269 0 12.0002 0C18.6278 0 24.0005 5.37269 24.0005 12.0002ZM15.3525 16.0404C14.4431 16.7958 13.2746 17.25 12 17.25C9.1005 17.25 6.75 14.8995 6.75 12C6.75 9.1005 9.1005 6.75 12 6.75C14.8995 6.75 17.25 9.1005 17.25 12C17.25 13.2746 16.7958 14.4431 16.0404 15.3525C16.3897 15.1293 16.8048 15 17.25 15C18.4926 15 19.5 16.0074 19.5 17.25C19.5 18.4926 18.4926 19.5 17.25 19.5C16.0074 19.5 15 18.4926 15 17.25C15 16.8048 15.1293 16.3897 15.3525 16.0404ZM7.5 6C7.5 6.82843 6.82843 7.5 6 7.5C5.17157 7.5 4.5 6.82843 4.5 6C4.5 5.17157 5.17157 4.5 6 4.5C6.82843 4.5 7.5 5.17157 7.5 6ZM20.25 13.5C21.0784 13.5 21.75 12.8284 21.75 12C21.75 11.1716 21.0784 10.5 20.25 10.5C19.4216 10.5 18.75 11.1716 18.75 12C18.75 12.8284 19.4216 13.5 20.25 13.5Z"
		  fill="white"/>
</svg>
