<svg width="24" height="24" viewBox="0 0 24 24" fill="none" xmlns="http://www.w3.org/2000/svg">
	<path fill-rule="evenodd" clip-rule="evenodd"
		  d="M1.81066 1.18934C2.09197 0.908035 2.4735 0.75 2.87132 0.75H9.12868C9.5265 0.75 9.90804 0.908035 10.1893 1.18934L10.8107 1.81066C11.092 2.09197 11.25 2.4735 11.25 2.87132V11.25H2.87132C2.4735 11.25 2.09196 11.092 1.81066 10.8107L1.18934 10.1893C0.908035 9.90804 0.75 9.5265 0.75 9.12868V2.87132C0.75 2.4735 0.908035 2.09196 1.18934 1.81066L1.81066 1.18934ZM3.75 6L6 3.75L8.25 6L6 8.25L3.75 6Z"
		  fill="white"/>
	<path fill-rule="evenodd" clip-rule="evenodd"
		  d="M1.81066 22.8107C2.09197 23.092 2.4735 23.25 2.87132 23.25H9.12868C9.5265 23.25 9.90804 23.092 10.1893 22.8107L10.8107 22.1893C11.092 21.908 11.25 21.5265 11.25 21.1287V12.75H2.87132C2.4735 12.75 2.09196 12.908 1.81066 13.1893L1.18934 13.8107C0.908035 14.092 0.75 14.4735 0.75 14.8713V21.1287C0.75 21.5265 0.908035 21.908 1.18934 22.1893L1.81066 22.8107ZM3.75 18L6 20.25L8.25 18L6 15.75L3.75 18Z"
		  fill="white"/>
	<path fill-rule="evenodd" clip-rule="evenodd"
		  d="M21.1287 0.75C21.5265 0.75 21.908 0.908035 22.1893 1.18934L22.8107 1.81066C23.092 2.09196 23.25 2.4735 23.25 2.87132V9.12868C23.25 9.5265 23.092 9.90804 22.8107 10.1893L22.1893 10.8107C21.908 11.092 21.5265 11.25 21.1287 11.25H12.75V2.87132C12.75 2.4735 12.908 2.09197 13.1893 1.81066L13.8107 1.18934C14.092 0.908035 14.4735 0.75 14.8713 0.75H21.1287ZM18 3.75L15.75 6L18 8.25L20.25 6L18 3.75Z"
		  fill="white"/>
	<path fill-rule="evenodd" clip-rule="evenodd"
		  d="M22.1893 22.8107C21.908 23.092 21.5265 23.25 21.1287 23.25H14.8713C14.4735 23.25 14.092 23.092 13.8107 22.8107L13.1893 22.1893C12.908 21.908 12.75 21.5265 12.75 21.1287V12.75H21.1287C21.5265 12.75 21.908 12.908 22.1893 13.1893L22.8107 13.8107C23.092 14.092 23.25 14.4735 23.25 14.8713V21.1287C23.25 21.5265 23.092 21.908 22.8107 22.1893L22.1893 22.8107ZM15.75 18L18 20.25L20.25 18L18 15.75L15.75 18Z"
		  fill="white"/>
</svg>
