<svg width="24" height="24" viewBox="0 0 24 24" fill="none" xmlns="http://www.w3.org/2000/svg">
<g opacity="0.5">
<path d="M20.4833 3.51296C20.4839 3.51354 20.4845 3.51413 20.485 3.51472C20.485 3.51466 20.4851 3.51478 20.485 3.51472L18.3639 5.63621C18.3639 5.63627 18.3638 5.63615 18.3639 5.63621C14.8492 2.12149 9.15051 2.12132 5.6358 5.63604L3.51465 3.51489L3.56951 3.46003C8.25947 -1.17092 15.8151 -1.15328 20.4833 3.51296Z" fill="white"/>
<path d="M6.69646 6.6967C9.62539 3.76777 14.3741 3.76777 17.3031 6.6967C17.303 6.69664 17.3031 6.69676 17.3031 6.6967L15.1819 8.81819C15.182 8.81825 15.1819 8.81813 15.1819 8.81819C13.4246 7.06083 10.5751 7.06066 8.81778 8.81802L6.69646 6.6967Z" fill="white"/>
<path d="M9.87844 9.87868C11.05 8.70711 12.9495 8.70711 14.1211 9.87868C14.121 9.87862 14.1211 9.87874 14.1211 9.87868L11.9999 12.0002L9.87844 9.87868Z" fill="white"/>
</g>
<path d="M3.51503 3.51479C-1.17108 8.2011 -1.17103 15.799 3.51521 20.4852C8.2015 25.1715 15.7995 25.1715 20.4858 20.4852C25.1721 15.7989 25.1721 8.20091 20.4858 3.51462C20.4675 3.49633 20.4491 3.47811 20.4308 3.45996L20.4858 3.51462L18.3644 5.63594C21.8792 9.15066 21.8792 14.8491 18.3644 18.3639C14.8497 21.8786 9.15125 21.8786 5.63653 18.3639C2.12187 14.8492 2.12181 9.15085 5.63635 5.63611L3.51503 3.51479Z" fill="white"/>
<path d="M6.69701 6.69677C3.76825 9.62572 3.76831 14.3743 6.69719 17.3032C9.62612 20.2321 14.3749 20.2321 17.3038 17.3032C20.2327 14.3743 20.2327 9.62553 17.3038 6.6966L15.1825 8.81792C16.9398 10.5753 16.9398 13.4245 15.1825 15.1819C13.4251 16.9392 10.5759 16.9392 8.81851 15.1819C7.06121 13.4246 7.06115 10.5755 8.81833 8.81809L6.69701 6.69677Z" fill="white"/>
<path d="M9.87899 9.87875C8.70759 11.0503 8.70765 12.9497 9.87917 14.1212C11.0507 15.2928 12.9502 15.2928 14.1218 14.1212C15.2934 12.9496 15.2934 11.0502 14.1218 9.87858L12.0003 12.0001L9.87899 9.87875Z" fill="white"/>
</svg>
