<svg width="24" height="24" viewBox="0 0 24 24" fill="none" xmlns="http://www.w3.org/2000/svg">
	<path
		d="M17.1189 1.14331C15.5663 0.410042 13.8312 0 12.0002 0C5.37269 0 0 5.37269 0 12.0002C0 16.2541 2.21336 19.991 5.55125 22.1221L6.54018 19.1553C4.38823 17.5108 3 14.9175 3 12C3 7.02944 7.02944 3 12 3C13.2867 3 14.5104 3.27003 15.6174 3.75651L6 12L10.5 12.0001L6.88128 22.857C8.43393 23.5904 10.1692 24.0005 12.0002 24.0005C18.6278 24.0005 24.0005 18.6278 24.0005 12.0002C24.0005 7.74626 21.787 4.00926 18.4489 1.87818L17.4601 4.84484C19.6119 6.48937 21 9.08258 21 12C21 16.9706 16.9706 21 12 21C10.7133 21 9.48961 20.73 8.3826 20.2435L18 12.0001L13.5 12L17.1189 1.14331Z"
		fill="white"/>
</svg>
