<svg width="24" height="24" viewBox="0 0 24 24" fill="none" xmlns="http://www.w3.org/2000/svg">
	<path
		d="M14 11.5L16.5 12L18 16.5L15 18V16.5H9V18L6.00009 16.5L7.5 12L10 11.5V10.5L5.28172 7.92639C4.79983 7.66354 4.5 7.15847 4.5 6.60955V1.50004C6.5 0.5 9 -2.10459e-05 12 6.64386e-10C15 2.10486e-05 18 0.5 19.5 1.50002V6.60955C19.5 7.15847 19.2002 7.66354 18.7183 7.92639L14 10.5V11.5Z"
		fill="white"/>
	<path
		d="M19.2963 15.4567L18 12L21 10.5V3.00002C22.5 4 24 6 24 9V12.6174C24 13.1621 23.7047 13.6641 23.2285 13.9286L20.0072 15.7182C19.7401 15.8666 19.4035 15.7428 19.2963 15.4567Z"
		fill="white"/>
	<path
		d="M3 10.5L6 12L4.70374 15.4567C4.59645 15.7428 4.25987 15.8666 3.99276 15.7182L0.771536 13.9286C0.295338 13.6641 0 13.1621 0 12.6174V9C0 6 1.5 4 3 3.00002V10.5Z"
		fill="white"/>
	<path
		d="M6 19.5L6.00009 21C6.00009 22.5 7.5 24 9 24H15C16.5 24 18 22.5 18 21V19.5L15 21L13.5 19.5L12 21L10.5 19.5L9 21L6 19.5Z"
		fill="white"/>
</svg>
