<svg width="24" height="24" viewBox="0 0 24 24" fill="none" xmlns="http://www.w3.org/2000/svg">
<g opacity="0.6" clip-path="url(#clip0_225_752)">
<g filter="url(#filter0_d_225_752)">
<path d="M19 17.5C19 17.7417 18.8286 17.9437 18.6006 17.9902L17.8994 18.0098C17.6714 18.0563 17.5 18.2583 17.5 18.5V19.5C17.5 20.3284 16.8284 21 16 21V18.5C16 18.2239 15.7761 18 15.5 18H14.5C14.2239 18 14 18.2239 14 18.5V21H10V18.5C10 18.2239 9.77614 18 9.5 18H8.5C8.22386 18 8 18.2239 8 18.5V21C7.17157 21 6.5 20.3284 6.5 19.5V18.4775C6.49993 18.3233 6.5 18 6 18C6 18 5.63187 18 5.52246 18C5.25867 18 5.04504 17.7862 5.04492 17.5225V13H19V17.5ZM18 3C19.1046 3 20 3.89543 20 5V10.5C20 10.7761 19.7761 11 19.5 11H4.52246L4.41699 10.9893C4.17903 10.9406 4 10.7299 4 10.4775V5C4 3.89543 4.89543 3 6 3H18ZM10 7L12 9L14 7L12 5L10 7Z" fill="white"/>
</g>
</g>
<defs>
<filter id="filter0_d_225_752" x="-116" y="-117" width="256" height="258" filterUnits="userSpaceOnUse" color-interpolation-filters="sRGB">
<feFlood flood-opacity="0" result="BackgroundImageFix"/>
<feColorMatrix in="SourceAlpha" type="matrix" values="0 0 0 0 0 0 0 0 0 0 0 0 0 0 0 0 0 0 127 0" result="hardAlpha"/>
<feOffset/>
<feGaussianBlur stdDeviation="60"/>
<feComposite in2="hardAlpha" operator="out"/>
<feColorMatrix type="matrix" values="0 0 0 0 0.462745 0 0 0 0 1 0 0 0 0 0.2 0 0 0 1 0"/>
<feBlend mode="normal" in2="BackgroundImageFix" result="effect1_dropShadow_225_752"/>
<feBlend mode="normal" in="SourceGraphic" in2="effect1_dropShadow_225_752" result="shape"/>
</filter>
<clipPath id="clip0_225_752">
<rect width="24" height="24" fill="white"/>
</clipPath>
</defs>
</svg>
