<svg width="24" height="24" viewBox="0 0 24 24" fill="none" xmlns="http://www.w3.org/2000/svg">
	<path fill-rule="evenodd" clip-rule="evenodd"
		  d="M10.5478 0C9.16036 1.10772 7.95494 2.45678 7.00229 4.00579C8.18443 2.94019 9.62907 2.13065 11.2719 1.69053C15.1629 0.647908 19.1297 1.95473 21.6667 4.74134C20.0138 4.09375 18.2423 3.72401 16.4246 3.67352C17.9387 4.16435 19.3622 5.01104 20.5651 6.21371C23.4133 9.06203 24.2652 13.1509 23.1203 16.7411C22.8544 14.9855 22.2891 13.2665 21.4237 11.6667C21.7557 13.2234 21.7345 14.8801 21.2942 16.5231C20.2513 20.414 17.1364 23.1962 13.4549 24C14.842 22.8921 16.0478 21.5429 17.0005 19.9938C15.8183 21.0596 14.3733 21.8692 12.7305 22.3095C8.83943 23.352 4.87259 22.0453 2.33558 19.2588C3.98896 19.9064 5.76046 20.2761 7.57854 20.3265C6.06446 19.8357 4.64057 18.989 3.43769 17.7863C0.589479 14.9379 -0.262402 10.849 0.882471 7.25856C1.14837 9.01365 1.71361 10.7321 2.57861 12.3314C2.24709 10.7752 2.26826 9.11929 2.70817 7.47682C3.75101 3.58577 6.86596 0.803613 10.5478 0ZM7.08706 8.14725C6.98486 9.05877 7.03733 9.99194 7.25518 10.9058C7.29776 10.0847 7.52976 9.26123 7.9691 8.50033C9.00965 6.69803 10.9362 5.72631 12.8809 5.81748C12.0405 6.18475 11.2583 6.69683 10.5759 7.34239C11.3083 6.96858 12.1376 6.75788 13.0163 6.75781C15.0973 6.75785 16.9022 7.94034 17.7955 9.67011C17.057 9.1259 16.2226 8.70442 15.322 8.43614C16.012 8.88357 16.6094 9.49649 17.0488 10.2575C18.0892 12.0599 17.9676 14.2141 16.9164 15.8527C17.0184 14.9412 16.966 14.0079 16.7481 13.0939C16.7056 13.9151 16.4735 14.7388 16.0342 15.4997C14.9936 17.302 13.0671 18.2738 11.1224 18.1826C11.963 17.8152 12.7452 17.3031 13.4278 16.6574C12.6953 17.0312 11.8659 17.242 10.9871 17.2421C8.9061 17.242 7.10121 16.0595 6.20783 14.3297C6.94611 14.8737 7.78037 15.295 8.68059 15.5632C7.99099 15.1158 7.39381 14.5032 6.9545 13.7425C5.91403 11.9401 6.0356 9.78584 7.08706 8.14725Z"
		  fill="white"/>
</svg>
