<svg width="24" height="24" viewBox="0 0 24 24" fill="none" xmlns="http://www.w3.org/2000/svg">
	<path fill-rule="evenodd" clip-rule="evenodd"
		  d="M22.5 12C22.5 21 12 24 12 24C12 24 1.5 21 1.5 12V4.5086C1.5 3.61564 2.09195 2.83087 2.95056 2.58555L12 0L21.0494 2.58555C21.908 2.83087 22.5 3.61564 22.5 4.5086V12ZM9 5.25C9 4.42157 9.67157 3.75 10.5 3.75H13.5C14.3284 3.75 15 4.42157 15 5.25V8.25H18C18.8284 8.25 19.5 8.92157 19.5 9.75V12.75C19.5 13.5784 18.8284 14.25 18 14.25H15V17.25C15 18.0784 14.3284 18.75 13.5 18.75H10.5C9.67157 18.75 9 18.0784 9 17.25V14.25H6C5.17157 14.25 4.5 13.5784 4.5 12.75V9.75C4.5 8.92157 5.17157 8.25 6 8.25L9 8.25V5.25Z"
		  fill="white"/>
</svg>
