<svg width="24" height="24" viewBox="0 0 24 24" fill="none" xmlns="http://www.w3.org/2000/svg">
	<path fill-rule="evenodd" clip-rule="evenodd"
		  d="M10.4942 18.0035C10.9616 18.2705 11.25 18.7675 11.25 19.3058V23.1045C11.25 23.5674 10.8284 23.9526 10.3671 23.8899C7.09859 23.4452 4.2486 21.6844 2.36843 19.159C2.15717 18.8752 2.25648 18.4316 2.56364 18.2561L6.00579 16.2892C6.46694 16.0257 7.03306 16.0257 7.49421 16.2892L10.4942 18.0035ZM0.948784 16.6846C1.08278 17.0003 1.50228 17.135 1.80007 16.9648L5.24421 14.9967C5.71157 14.7297 6 14.2327 6 13.6944V10.3058C6 9.76754 5.71157 9.27053 5.24421 9.00347L1.80012 7.03542C1.50228 6.86522 1.0827 6.99995 0.948678 7.31573C0.337873 8.75495 0 10.338 0 12C0 13.6621 0.337912 15.2453 0.948784 16.6846ZM2.36846 4.84103C2.15714 5.12487 2.25649 5.56857 2.56373 5.74414L6.00579 7.71103C6.46694 7.97454 7.03306 7.97454 7.49421 7.71103L10.4942 5.99674C10.9616 5.72968 11.25 5.23267 11.25 4.69438V0.895845C11.25 0.432778 10.8282 0.0474405 10.3667 0.110245C7.09842 0.555014 4.24857 2.3157 2.36846 4.84103ZM13.6333 0.110245C13.1718 0.0474406 12.75 0.432778 12.75 0.895846V4.69438C12.75 5.23266 13.0384 5.72968 13.5058 5.99674L16.5058 7.71103C16.9669 7.97454 17.5331 7.97454 17.9942 7.71103L21.4363 5.74414C21.7435 5.56857 21.8429 5.12487 21.6315 4.84103C19.7514 2.3157 16.9016 0.555014 13.6333 0.110245ZM23.0513 7.31573C22.9173 6.99995 22.4977 6.86522 22.1999 7.03542L18.7558 9.00347C18.2884 9.27053 18 9.76755 18 10.3058V13.6944C18 14.2327 18.2884 14.7297 18.7558 14.9967L22.1999 16.9648C22.4977 17.135 22.9172 17.0003 23.0512 16.6846C23.6621 15.2453 24 13.6621 24 12C24 10.338 23.6621 8.75496 23.0513 7.31573ZM21.6316 19.159C21.8428 18.8752 21.7435 18.4316 21.4364 18.2561L17.9942 16.2892C17.5331 16.0257 16.9669 16.0257 16.5058 16.2892L13.5058 18.0035C13.0384 18.2705 12.75 18.7675 12.75 19.3058V23.1045C12.75 23.5674 13.1716 23.9526 13.6329 23.8899C16.9014 23.4452 19.7514 21.6844 21.6316 19.159ZM16.5 13.6944C16.5 14.2327 16.2116 14.7297 15.7442 14.9967L12.7442 16.711C12.2831 16.9745 11.7169 16.9745 11.2558 16.711L8.25579 14.9967C7.78843 14.7297 7.5 14.2327 7.5 13.6944V10.3058C7.5 9.76755 7.78843 9.27053 8.25579 9.00347L11.2558 7.28918C11.7169 7.02567 12.2831 7.02567 12.7442 7.28918L15.7442 9.00347C16.2116 9.27053 16.5 9.76754 16.5 10.3058V13.6944Z"
		  fill="white"/>
</svg>
