<svg width="24" height="24" viewBox="0 0 24 24" fill="none" xmlns="http://www.w3.org/2000/svg">
<path d="M10.5 10.5C11.25 11.25 11.25 12 11.25 12.75L11.251 19.8252C11.251 20.0544 11.0605 20.2499 10.8271 20.25H9.45117V21.7998L10.8145 22.5576C11.0817 22.7077 11.251 22.9907 11.251 23.2998V24H2.25098V23.2998C2.25098 22.9917 2.41703 22.7074 2.68652 22.5576L4.05078 21.7998V20.25H2.6748C2.44114 20.25 2.25098 20.0595 2.25098 19.8252L2.25 12.75C2.25 12 2.25 11.25 3 10.5H10.5ZM21 10.5C21.75 11.25 21.75 12 21.75 12.75L21.751 19.8252C21.751 20.0544 21.5605 20.2499 21.3271 20.25H19.9512V21.7998L21.3145 22.5576C21.5817 22.7077 21.751 22.9907 21.751 23.2998V24H12.751V23.2998C12.751 22.9917 12.917 22.7074 13.1865 22.5576L14.5508 21.7998V20.25H13.1748C12.9411 20.25 12.751 20.0595 12.751 19.8252L12.75 12.75C12.75 12 12.75 11.25 13.5 10.5H21ZM6.75 0C8.99982 1.49995 10.4999 5.24976 10.5 8.99902H3C3.00009 5.24981 4.5 1.49999 6.75 0ZM17.25 0C19.4998 1.49995 20.9999 5.24976 21 8.99902H13.5C13.5001 5.24981 15 1.49999 17.25 0Z" fill="white"/>
</svg>
