<svg width="24" height="24" viewBox="0 0 24 24" fill="none" xmlns="http://www.w3.org/2000/svg">
	<path
		d="M6.69221 8.80033C6.4393 9.98586 5.38599 10.875 4.125 10.875C2.67525 10.875 1.5 9.69975 1.5 8.25C1.5 5.3505 3.8505 3 6.75 3L6.80254 3.00026C7.83994 1.20671 9.77905 0 12 0C14.221 0 16.1601 1.20671 17.1975 3.00026L17.25 3C20.1495 3 22.5 5.3505 22.5 8.25C22.5 9.69975 21.3247 10.875 19.875 10.875C18.614 10.875 17.5607 9.98586 17.3078 8.80033C17.7497 7.96437 18 7.01141 18 6C18 7.65685 15.3137 9 12 9C8.68629 9 6 7.65685 6 6C6 7.01141 6.25025 7.96437 6.69221 8.80033Z"
		fill="white"/>
	<path
		d="M10.5875 11.8328C9.79039 12.6862 8.71196 13.2735 7.5 13.4468V21L9.75 16.5L12 24L14.25 16.5L16.5 21V13.4468C15.288 13.2735 14.2096 12.6862 13.4125 11.8328C12.9595 11.9421 12.4865 12 12 12C11.5135 12 11.0405 11.9421 10.5875 11.8328Z"
		fill="white"/>
	<path
		d="M5.66087 13.3869C3.63541 12.9596 2.04043 11.3646 1.61312 9.33911C0.654404 9.83983 0 10.8435 0 12C0 13.6568 1.34315 15 3 15C4.1565 15 5.16016 14.3456 5.66087 13.3869Z"
		fill="white"/>
	<path
		d="M21 15C19.8435 15 18.8398 14.3456 18.3391 13.3869C20.3646 12.9596 21.9596 11.3646 22.3869 9.33911C23.3456 9.83983 24 10.8435 24 12C24 13.6568 22.6568 15 21 15Z"
		fill="white"/>
</svg>
