<svg width="24" height="24" viewBox="0 0 24 24" fill="none" xmlns="http://www.w3.org/2000/svg">
<path fill-rule="evenodd" clip-rule="evenodd" d="M24 19C24 21.7614 21.7614 24 19 24H7.24264C6.18177 24 5.16436 23.5786 4.41421 22.8284L1.17157 19.5858C0.421426 18.8356 0 17.8182 0 16.7574V7.24264C0 6.18177 0.421427 5.16436 1.17157 4.41421L4.41421 1.17157C5.16436 0.421426 6.18178 0 7.24264 0H16.7574C17.8182 0 18.8356 0.421427 19.5858 1.17157L22.8284 4.41421C23.5786 5.16436 24 6.18178 24 7.24264C24 8.22206 23.9938 12.1985 23.9877 13.1731C23.9754 15.1158 23.9631 17.0515 23.9999 18.9905L24 19ZM23.5 19C23.4631 17.0549 23.4754 15.1079 23.4877 13.1613C23.4939 12.1882 23.5 8.2152 23.5 7.24264C23.5 6.31438 23.1313 5.42415 22.4749 4.76777L19.2322 1.52513C18.5759 0.868749 17.6856 0.5 16.7574 0.5H7.24264C6.31438 0.5 5.42415 0.868748 4.76777 1.52513L1.52513 4.76777C0.868749 5.42414 0.5 6.31438 0.5 7.24264V16.7574C0.5 17.6856 0.868748 18.5759 1.52513 19.2322L4.76777 22.4749C5.42414 23.1313 6.31438 23.5 7.24264 23.5H19C21.4853 23.5 23.5 21.4853 23.5 19Z" fill="#00D4FF"/>
<path d="M5.12109 1.87866L1.87891 5.12134C1.31592 5.68396 1 6.44702 1 7.24268V16.7573C1 17.553 1.31592 18.316 1.87891 18.8787L5.12109 22.1213C5.68408 22.684 6.44678 23 7.24268 23H16.7573C17.5532 23 18.3159 22.684 18.8789 22.1213L22.1211 18.8787C22.6841 18.316 23 17.553 23 16.7573V7.24268C23 6.44702 22.6841 5.68396 22.1211 5.12134L18.8789 1.87866C18.3159 1.31604 17.5532 1 16.7573 1H7.24268C6.44678 1 5.68408 1.31604 5.12109 1.87866Z" fill="url(#paint0_radial_5931_37751)"/>
<path opacity="0.5" d="M12 1H6.5L1 6.5V17.5L6.5 23H12V1Z" fill="#001926"/>
<path fill-rule="evenodd" clip-rule="evenodd" d="M10 1V2.58579C10 2.91731 9.8683 3.23525 9.63388 3.46967L3.46967 9.63388C3.23525 9.8683 2.91731 10 2.58579 10H1V9.5H2.58579C2.7847 9.5 2.97546 9.42098 3.11612 9.28033L9.28033 3.11612C9.42098 2.97546 9.5 2.7847 9.5 2.58579V1H10ZM14 1V2.58579C14 2.91731 14.1317 3.23525 14.3661 3.46967L20.5303 9.63388C20.7648 9.8683 21.0827 10 21.4142 10H23V9.5H21.4142C21.2153 9.5 21.0245 9.42098 20.8839 9.28033L14.7197 3.11612C14.579 2.97546 14.5 2.7847 14.5 2.58579V1H14ZM10 21.4142V23H9.5V21.4142C9.5 21.2153 9.42098 21.0245 9.28033 20.8839L3.11612 14.7197C2.97546 14.579 2.7847 14.5 2.58579 14.5H1V14H2.58579C2.91731 14 3.23525 14.1317 3.46967 14.3661L9.63388 20.5303C9.8683 20.7647 10 21.0827 10 21.4142ZM11.25 1V2.67157C11.25 3.26831 11.0129 3.84061 10.591 4.26256L4.26256 10.591C3.84061 11.0129 3.26831 11.25 2.67157 11.25H1V10.75H2.67157C3.1357 10.75 3.58082 10.5656 3.90901 10.2374L10.2374 3.90901C10.5656 3.58082 10.75 3.1357 10.75 2.67157V1H11.25ZM12.75 2.67157V1H13.25V2.67157C13.25 3.1357 13.4344 3.58082 13.7626 3.90901L20.091 10.2374C20.4192 10.5656 20.8643 10.75 21.3284 10.75H23V11.25H21.3284C20.7317 11.25 20.1594 11.0129 19.7374 10.591L13.409 4.26256C12.9871 3.84061 12.75 3.26831 12.75 2.67157ZM11.25 23V21.3284C11.25 20.7317 11.0129 20.1594 10.591 19.7374L4.26256 13.409C3.84061 12.9871 3.26831 12.75 2.67157 12.75H1V13.25H2.67157C3.1357 13.25 3.58082 13.4344 3.90901 13.7626L10.2374 20.091C10.5656 20.4192 10.75 20.8643 10.75 21.3284V23H11.25ZM12.75 20V23H13.25V20C13.25 19.5858 13.5858 19.25 14 19.25H15V18.75H14C13.3096 18.75 12.75 19.3096 12.75 20ZM20 12.75C19.3096 12.75 18.75 13.3096 18.75 14V15H19.25V14C19.25 13.5858 19.5858 13.25 20 13.25H23V12.75H20Z" fill="white" fill-opacity="0.25"/>
<path fill-rule="evenodd" clip-rule="evenodd" d="M7.24264 2C6.71221 2 6.2035 2.21071 5.82843 2.58579L2.58579 5.82843C2.21071 6.2035 2 6.71221 2 7.24264V16.7574C2 17.2878 2.21071 17.7965 2.58579 18.1716L5.82843 21.4142C6.2035 21.7893 6.71221 22 7.24264 22H14V19C14 16.2386 16.2386 14 19 14H22V7.24264C22 6.71221 21.7893 6.2035 21.4142 5.82843L18.1716 2.58579C17.7965 2.21071 17.2878 2 16.7574 2H7.24264ZM7.24264 1.5C6.5796 1.5 5.94372 1.76339 5.47487 2.23223L2.23223 5.47487C1.76339 5.94371 1.5 6.5796 1.5 7.24264V16.7574C1.5 17.4204 1.76339 18.0563 2.23223 18.5251L5.47487 21.7678C5.94371 22.2366 6.5796 22.5 7.24264 22.5H14C14.2761 22.5 14.5 22.2761 14.5 22V19C14.5 16.5147 16.5147 14.5 19 14.5H22C22.2761 14.5 22.5 14.2761 22.5 14V7.24264C22.5 6.5796 22.2366 5.94372 21.7678 5.47487L18.5251 2.23223C18.0563 1.76339 17.4204 1.5 16.7574 1.5H7.24264Z" fill="url(#paint1_linear_5931_37751)"/>
<path opacity="0.5" d="M12 15.4378V8.56233L12.7267 7.35153C12.8437 7.15646 13.0956 7.09132 13.2925 7.20518L13.5744 7.36812C13.7746 7.48386 13.8422 7.74049 13.7251 7.93989L12.6251 9.81244V10.9175L13.5822 10.3649L14.6538 8.47606C14.768 8.27493 15.024 8.2052 15.2244 8.32071L15.5064 8.48333C15.7035 8.59696 15.773 8.84764 15.6626 9.04653L14.9771 10.2813L16.3891 10.305C16.6166 10.3088 16.7989 10.4944 16.7988 10.7219L16.7986 11.0474C16.7985 11.2787 16.61 11.4656 16.3788 11.4638L14.207 11.4475L13.2501 12L14.2071 12.5525L16.3789 12.5362C16.6101 12.5345 16.7986 12.7214 16.7987 12.9526L16.7989 13.2782C16.799 13.5057 16.6167 13.6912 16.3892 13.695L14.9772 13.7188L15.6627 14.9535C15.7731 15.1524 15.7036 15.4031 15.5065 15.5167L15.2245 15.6793C15.0241 15.7948 14.768 15.7251 14.6539 15.524L13.5823 13.6351L12.6251 13.0825V14.1877L13.7251 16.0602C13.8422 16.2596 13.7746 16.5162 13.5744 16.632L13.2925 16.7949C13.0956 16.9088 12.8437 16.8436 12.7267 16.6486L12 15.4378Z" fill="white"/>
<path d="M11.9998 8.56233L11.2733 7.35153C11.1562 7.15646 10.9044 7.09132 10.7074 7.20518L10.4256 7.36812C10.2254 7.48386 10.1577 7.74049 10.2749 7.93989L11.3749 9.81251V10.9175L10.4179 10.365L9.34622 8.47606C9.23211 8.27493 8.97603 8.2052 8.7757 8.32071L8.49366 8.48333C8.29659 8.59695 8.22707 8.84764 8.33748 9.04653L9.02292 10.2812L7.61093 10.305C7.38348 10.3088 7.20114 10.4944 7.20127 10.7219L7.20146 11.0474C7.20159 11.2787 7.39002 11.4656 7.62126 11.4638L9.79292 11.4475L10.7499 12L9.79284 12.5525L7.62116 12.5362C7.38992 12.5345 7.2015 12.7214 7.20136 12.9526L7.20117 13.2782C7.20104 13.5057 7.38338 13.6912 7.61083 13.695L9.02282 13.7188L8.33739 14.9535C8.22697 15.1524 8.29649 15.4031 8.49356 15.5167L8.7756 15.6793C8.97594 15.7948 9.23201 15.7251 9.34613 15.524L10.4178 13.6351L11.3749 13.0825V14.1876L10.2749 16.0602C10.1577 16.2596 10.2254 16.5162 10.4256 16.632L10.7074 16.7949C10.9044 16.9088 11.1562 16.8436 11.2733 16.6486L11.9998 15.4378V8.56233Z" fill="white"/>
<path fill-rule="evenodd" clip-rule="evenodd" d="M7.24264 23.5C6.31438 23.5 5.42414 23.1313 4.76777 22.4749L1.52513 19.2322C0.868748 18.5759 0.5 17.6856 0.5 16.7574V7.24264C0.5 6.31438 0.868749 5.42414 1.52513 4.76777L4.76777 1.52513C5.42415 0.868748 6.31438 0.5 7.24264 0.5H16.7574C17.6856 0.5 18.5759 0.868749 19.2322 1.52513L22.4749 4.76777C23.1313 5.42415 23.5 6.31438 23.5 7.24264C23.5 10.1607 23.4447 16.0826 23.5 19C23.5 21.4853 21.4853 23.5 19 23.5C15.9795 23.5 10.2795 23.5 7.24264 23.5ZM5.47487 2.23223C5.94372 1.76339 6.5796 1.5 7.24264 1.5H16.7574C17.4204 1.5 18.0563 1.76339 18.5251 2.23223L21.7678 5.47487C22.2366 5.94372 22.5 6.5796 22.5 7.24264V14C22.5 14.2761 22.2761 14.5 22 14.5H19C16.5147 14.5 14.5 16.5147 14.5 19V22C14.5 22.2761 14.2761 22.5 14 22.5H7.24264C6.5796 22.5 5.94371 22.2366 5.47487 21.7678L2.23223 18.5251C1.76339 18.0563 1.5 17.4204 1.5 16.7574V7.24264C1.5 6.5796 1.76339 5.94371 2.23223 5.47487L5.47487 2.23223Z" fill="#001926"/>
<path d="M7 1.75C7 1.61193 7.11193 1.5 7.25 1.5H16.75C16.8881 1.5 17 1.61193 17 1.75C17 1.88807 16.8881 2 16.75 2H7.25C7.11193 2 7 1.88807 7 1.75Z" fill="white"/>
<path fill-rule="evenodd" clip-rule="evenodd" d="M3 17.5C3.27614 17.5 3.5 17.2761 3.5 17C3.5 16.7239 3.27614 16.5 3 16.5C2.72386 16.5 2.5 16.7239 2.5 17C2.5 17.2761 2.72386 17.5 3 17.5ZM7 21.5C7.27614 21.5 7.5 21.2761 7.5 21C7.5 20.7239 7.27614 20.5 7 20.5C6.72386 20.5 6.5 20.7239 6.5 21C6.5 21.2761 6.72386 21.5 7 21.5Z" fill="white" fill-opacity="0.25"/>
<path fill-rule="evenodd" clip-rule="evenodd" d="M7 3.5C6.72386 3.5 6.5 3.27614 6.5 3C6.5 2.72386 6.72386 2.5 7 2.5C7.27614 2.5 7.5 2.72386 7.5 3C7.5 3.27614 7.27614 3.5 7 3.5ZM3 7.5C2.72386 7.5 2.5 7.27614 2.5 7C2.5 6.72386 2.72386 6.5 3 6.5C3.27614 6.5 3.5 6.72386 3.5 7C3.5 7.27614 3.27614 7.5 3 7.5Z" fill="white" fill-opacity="0.25"/>
<path fill-rule="evenodd" clip-rule="evenodd" d="M17 3.5C17.2761 3.5 17.5 3.27614 17.5 3C17.5 2.72386 17.2761 2.5 17 2.5C16.7239 2.5 16.5 2.72386 16.5 3C16.5 3.27614 16.7239 3.5 17 3.5ZM21 7.5C21.2761 7.5 21.5 7.27614 21.5 7C21.5 6.72386 21.2761 6.5 21 6.5C20.7239 6.5 20.5 6.72386 20.5 7C20.5 7.27614 20.7239 7.5 21 7.5Z" fill="white" fill-opacity="0.25"/>
<defs>
<radialGradient id="paint0_radial_5931_37751" cx="0" cy="0" r="1" gradientUnits="userSpaceOnUse" gradientTransform="translate(12 23) rotate(-90) scale(22)">
<stop stop-color="#00D4FF"/>
<stop offset="1" stop-color="#002AFF"/>
</radialGradient>
<linearGradient id="paint1_linear_5931_37751" x1="12" y1="1.5" x2="12" y2="22.5" gradientUnits="userSpaceOnUse">
<stop stop-color="white" stop-opacity="0.75"/>
<stop offset="1" stop-color="white" stop-opacity="0.15"/>
</linearGradient>
</defs>
</svg>