<svg width="403" height="302" viewBox="0 0 403 302" fill="none" xmlns="http://www.w3.org/2000/svg">
<path fill-rule="evenodd" clip-rule="evenodd" d="M285.816 96.9919C288.011 96.7464 289.99 98.3268 290.235 100.522L293.209 127.108H382.05C384.259 127.108 386.05 128.899 386.05 131.108V141.121L389.825 140.842C391.986 140.682 393.882 142.272 394.1 144.428L402.411 226.596C402.638 228.836 400.972 230.822 398.727 230.988L386.05 231.926L386.119 267.992C386.124 270.204 384.331 272 382.119 272H313.162L313.514 275.305C313.747 277.494 312.168 279.459 309.981 279.704L112.925 301.743C110.727 301.989 108.747 300.405 108.504 298.207L105.608 272H18.9357C16.7336 272 14.9456 270.219 14.9357 268.017L14.8771 254.933L12.6056 255.101C10.4446 255.261 8.54928 253.67 8.33117 251.514L0.0206284 169.346C-0.205911 167.107 1.4601 165.121 3.7052 164.955L14.8771 164.129V131.108C14.8772 128.899 16.668 127.108 18.8771 127.108H85.6544L85.2452 123.448C84.9998 121.253 86.5811 119.274 88.7765 119.028L285.816 96.9919ZM125.98 283.001L227.606 272.001H124.606L125.98 283.001ZM234.707 154.94V169.11H201.405V181.499H225.84C225.707 183.824 225.558 186.171 225.385 188.537C225.148 192.517 224.584 196.469 223.696 200.389C222.868 204.251 221.536 207.995 219.701 211.619C217.866 215.184 215.318 218.511 212.062 221.6C208.806 224.69 204.602 227.455 199.451 229.89C201.168 231.257 202.887 232.978 204.604 235.057C206.32 237.196 207.653 239.158 208.601 240.94C214.284 237.97 218.991 234.642 222.721 230.959C226.45 227.216 229.439 223.205 231.689 218.927C233.997 214.59 235.746 210.074 236.93 205.381C237.079 204.788 237.222 204.193 237.36 203.598H259.087C258.881 206.18 258.661 208.528 258.418 210.64C257.945 215.273 257.384 218.897 256.733 221.51C256.081 224.065 255.311 225.702 254.423 226.415C253.831 226.89 253.179 227.215 252.469 227.393C251.818 227.512 250.988 227.573 249.982 227.573C248.62 227.573 246.519 227.543 243.678 227.483C240.896 227.424 237.995 227.274 234.976 227.037C236.219 228.819 237.283 230.9 238.171 233.276C239.059 235.712 239.535 237.881 239.594 239.782C242.553 239.841 245.424 239.872 248.206 239.872C250.989 239.872 253.298 239.781 255.133 239.602C257.383 239.305 259.338 238.831 260.995 238.177C262.712 237.583 264.309 236.454 265.789 234.791C267.032 233.424 268.069 231.286 268.898 228.376C269.726 225.465 270.466 221.453 271.117 216.344C271.769 211.234 272.332 204.728 272.806 196.827C272.924 196.233 272.982 195.518 272.982 194.686C273.041 193.855 273.071 193.112 273.071 192.459C273.129 191.764 273.16 191.408 273.161 191.39H239.385C239.394 191.302 239.406 191.213 239.415 191.124C239.767 187.903 240.048 184.693 240.271 181.499H282.573V169.11H248.117V154.94H234.707ZM69.6652 197.183V202.707H35.6534V212.332H57.0548C56.0537 212.726 55.0194 213.117 53.9464 213.49C50.9273 214.5 47.7002 215.391 44.2667 216.164C40.833 216.877 37.3384 217.473 33.7863 217.948C34.9703 219.077 36.2153 220.531 37.5177 222.313C38.8201 224.095 39.8268 225.67 40.5372 227.037C44.385 226.383 48.1157 225.551 51.7267 224.541C52.6256 224.275 53.5139 223.997 54.3907 223.709V227.66C50.8168 228.115 47.5906 228.504 44.7111 228.819L46.5753 239.692C49.9498 239.217 53.6502 238.682 57.6759 238.088C61.7014 237.553 65.875 236.96 70.1964 236.306C74.5774 235.712 78.8719 235.089 83.0753 234.435L82.4513 223.918C77.9524 224.512 73.4234 225.135 68.8654 225.789C68.1498 225.882 67.4379 225.971 66.7325 226.063V218.503C68.2422 217.686 69.6938 216.818 71.0851 215.897C72.7855 214.772 74.3622 213.588 75.8195 212.351C77.6559 216.56 79.7788 220.296 82.1857 223.561C85.3826 227.839 89.3796 231.346 94.1749 234.079C99.0292 236.871 104.95 238.979 111.935 240.405C112.645 238.801 113.682 236.96 115.043 234.881C116.464 232.801 117.797 231.138 119.04 229.89C112.824 228.999 107.466 227.512 102.967 225.432C102.369 225.156 101.785 224.869 101.214 224.573C101.642 224.357 102.082 224.145 102.523 223.918C104.535 222.908 106.548 221.81 108.561 220.622C110.633 219.374 112.588 218.124 114.423 216.877L108.344 212.332H117.263V202.707H82.7198V197.183H69.6652ZM330.533 156.456V169.11H319.167V181.139H330.533V188.717C330.533 190.834 330.457 192.942 330.306 195.043H317.213V207.254H328.341C327.867 208.848 327.299 210.423 326.625 211.975C325.027 215.659 322.599 219.077 319.343 222.226C316.146 225.375 311.854 228.137 306.468 230.513C307.415 231.226 308.452 232.178 309.576 233.366C310.701 234.554 311.767 235.771 312.774 237.018C313.839 238.266 314.667 239.395 315.259 240.405C321.416 237.494 326.332 234.109 330.002 230.247C333.732 226.385 336.513 222.194 338.349 217.678C338.923 216.292 339.428 214.888 339.883 213.474C340.442 215.004 341.024 216.496 341.634 217.948C343.765 222.819 346.371 227.157 349.449 230.959C352.587 234.761 356.376 237.879 360.816 240.315C361.467 239.127 362.298 237.791 363.304 236.306C364.369 234.881 365.463 233.484 366.588 232.118C367.772 230.752 368.839 229.651 369.786 228.819C363.748 226.205 358.892 222.314 355.222 217.145C353.044 214.079 351.204 210.78 349.693 207.254H368.009V195.043H362.77V169.11H342.967V156.456H330.533ZM123.331 160.288V217.322H136.651V212.778H151.66V240.049H165.425V212.778H180.165V217.322H194.195V160.288H123.331ZM295.901 156.811V175.706H287.109V187.914H295.901V209.542C295.213 209.82 294.533 210.1 293.858 210.371C290.661 211.619 287.848 212.658 286.481 213.49L290.573 226.502C294.658 224.601 299.068 222.492 303.804 220.176C308.599 217.799 313.276 215.421 317.834 213.045L314.815 201.637C312.518 202.598 310.21 203.574 307.888 204.559V187.914H315.969V175.706H307.888V156.811H295.901ZM102.517 212.332C101.899 212.794 101.252 213.273 100.568 213.76C98.7336 215.007 96.8391 216.224 94.8859 217.412C94.1814 217.819 93.4883 218.203 92.8146 218.571C92.459 218.222 92.1122 217.866 91.7765 217.502C90.3424 215.919 89.0706 214.194 87.9562 212.332H102.517ZM18.1075 203.001C14.5177 203.001 11.6075 205.911 11.6075 209.501C11.6078 213.09 14.5178 216.001 18.1075 216.001C21.6972 216.001 24.6073 213.09 24.6075 209.501C24.6075 205.911 21.6973 203.001 18.1075 203.001ZM151.66 192.725V200.389H136.651V192.725H151.66ZM180.165 192.725V200.389H165.425V192.725H180.165ZM52.7921 155.473V166.779C51.6923 165.733 50.33 164.608 48.7052 163.407C46.4559 161.744 44.3855 160.286 42.4913 159.039L35.2091 166.346C36.5113 167.238 37.8428 168.279 39.2042 169.467C40.625 170.595 41.9581 171.754 43.2013 172.942C44.5032 174.071 45.5096 175.111 46.2198 176.061L52.7921 169.162V184.65L51.3693 179.092C48.1732 180.398 45.0656 181.615 42.047 182.744C39.0277 183.873 36.3914 184.825 34.1417 185.597L38.2286 196.024C40.7147 195.014 43.3183 193.913 46.0411 192.725C48.3549 191.665 50.6066 190.651 52.7921 189.677V199.231H64.6925V155.473H52.7921ZM85.2941 155.473V164.742H67.7111V175.793H85.2941V184.259H69.5763V195.312H114.777V184.259H98.2599V175.793H116.907V164.742H98.2599V155.473H85.2941ZM350.78 181.139V195.043H342.802C342.909 192.959 342.967 190.88 342.967 188.806V181.139H350.78ZM384.292 180.001C380.702 180.001 377.792 182.911 377.792 186.501C377.792 190.09 380.702 193.001 384.292 193.001C387.882 193.001 390.792 190.09 390.792 186.501C390.792 182.911 387.882 180.001 384.292 180.001ZM151.66 172.676V180.516H136.651V172.676H151.66ZM180.165 172.676V180.516H165.425V172.676H180.165ZM181.606 127H272.606L271.606 117L181.606 127Z" fill="white"/>
<path d="M346.402 78.4408L347.084 78.1882C354.285 75.5224 362.25 75.8263 369.226 79.0331C366.02 86.0098 360.173 91.4269 352.972 94.0927L352.29 94.3452L346.402 78.4408Z" fill="#76FF33"/>
<path d="M311.869 88.9646L319.229 108.845L320.777 108.272C321.457 108.02 321.948 107.419 322.058 106.701L322.617 103.07L325.709 101.925L326.834 104.964C327.026 105.482 327.601 105.746 328.118 105.554L344.25 99.5821C346.05 98.9157 347.512 97.5614 348.314 95.8172L342.426 79.9127C340.682 79.1111 338.69 79.0351 336.89 79.7015L320.758 85.6737C320.241 85.8653 319.976 86.4402 320.168 86.9578L321.293 89.9967L318.201 91.1416L315.412 88.7491C314.861 88.2764 314.097 88.1396 313.417 88.3916L311.869 88.9646Z" fill="#76FF33"/>
<path d="M46.1579 87.1196L45.461 86.8673C38.1052 84.2042 32.1086 78.728 28.7904 71.6435C35.8749 68.3253 43.9874 67.9573 51.3432 70.6204L52.0401 70.8728L46.1579 87.1196Z" fill="#76FF33"/>
<path d="M79.9472 101.65L87.3 81.3415L85.7188 80.7691C85.0234 80.5173 84.2462 80.6623 83.6885 81.1479L80.8651 83.6059L77.706 82.4622L78.8299 79.3578C79.0213 78.8291 78.7479 78.2453 78.2192 78.0538L61.74 72.0875C59.901 71.4218 57.8729 71.5138 56.1018 72.3433L50.2196 88.5902C51.0492 90.3613 52.5483 91.7304 54.3873 92.3962L70.8664 98.3624C71.3952 98.5539 71.979 98.2804 72.1704 97.7517L73.2944 94.6473L76.4535 95.7911L77.0489 99.4868C77.1665 100.217 77.6707 100.826 78.3661 101.078L79.9472 101.65Z" fill="#76FF33"/>
<path d="M271.377 22.5477L271.603 22.267C273.988 19.3036 277.452 17.409 281.234 17C281.643 20.7818 280.533 24.5712 278.148 27.5346L277.922 27.8153L271.377 22.5477Z" fill="#76FF33"/>
<path d="M259.365 35.7979L267.547 42.3824L268.059 41.7454C268.285 41.4653 268.34 41.0849 268.205 40.7518L267.52 39.0656L268.544 37.7929L269.795 38.7994C270.008 38.9708 270.319 38.9371 270.491 38.7241L275.834 32.0853C276.43 31.3445 276.707 30.3971 276.605 29.4516L270.06 24.184C269.114 24.2863 268.248 24.7599 267.652 25.5008L262.309 32.1396C262.138 32.3526 262.171 32.6642 262.384 32.8357L263.635 33.8422L262.611 35.1149L260.817 34.8059C260.463 34.7449 260.103 34.8807 259.878 35.1609L259.365 35.7979Z" fill="#76FF33"/>
<path d="M114.005 30.5783L113.715 30.1874C110.651 26.0617 109.352 20.8878 110.103 15.804C115.186 16.5548 119.764 19.2945 122.828 23.4202L123.118 23.811L114.005 30.5783Z" fill="#76FF33"/>
<path d="M127.247 50.7883L138.637 42.3293L137.979 41.4424C137.689 41.0524 137.211 40.8501 136.729 40.9139L134.291 41.2367L132.976 39.4648L134.717 38.1718C135.013 37.9515 135.075 37.5326 134.855 37.2361L127.991 27.9932C127.225 26.9618 126.081 26.2769 124.81 26.0892L115.697 32.8564C115.509 34.1273 115.834 35.4208 116.6 36.4522L123.464 45.6951C123.685 45.9916 124.103 46.0535 124.4 45.8333L126.141 44.5402L127.457 46.3121L126.443 48.5525C126.243 48.995 126.298 49.5114 126.588 49.9014L127.247 50.7883Z" fill="#76FF33"/>
<path d="M180.8 75.2923L176.141 61.9433C181.588 56.1537 189.23 52.4783 197.761 52.2965C203.68 52.1703 209.247 53.7428 214.005 56.5719C215.837 54.3128 218.598 52.8469 221.715 52.7805C226.666 52.6751 230.877 56.1347 231.947 60.8329C229.357 62.1848 226.742 65.242 225.372 68.1766C218.183 64.7363 208.538 66.5413 203.919 72.046C212.9 66.2682 231.803 70.6871 234.209 85.9532C234.875 77.2026 231.444 71.6713 226.569 68.8119C227.832 67.5122 229.558 66.2059 232.015 65.1898L232.004 65.2513C235.028 64.0678 238.305 63.3877 241.736 63.3146C252.329 63.0889 261.709 68.7058 266.861 77.2453L292.494 61.9231L268.901 87.633L239.213 90.862L242.609 82.4194L236.912 91.1131L202.511 94.8548L193.149 65.6373L196.985 95.4568L175.292 97.8165L162.324 81.7003L166.119 90.6064L174.084 97.9473L133.09 102.407L115.827 88.9847L143.567 97.7305C143.221 96.2159 143.022 94.6434 142.986 93.0286C142.707 80.5757 152.23 70.2173 164.42 69.4933L144.244 28.7863L180.8 75.2923ZM139.848 87.5478C136.583 78.6232 143.16 65.8033 159.226 67.4036C146.044 69.118 140.057 79.8657 139.848 87.5478ZM269.391 63.0121L263.866 64.0428L276.96 50.0872L269.391 63.0121ZM239.056 59.0879L236.083 59.9023L233.299 54.5776L250.73 25.8278L239.056 59.0879ZM178.791 54.6006L174.778 57.9365L168.028 38.791L178.791 54.6006ZM205.311 49.2109L198.355 48.6062L199.191 6.04571L205.311 49.2109ZM221.892 38.199L220.147 30.3537L225.994 18.3181L221.892 38.199Z" fill="#76FF33"/>
</svg>
