<svg width="55" height="48" viewBox="0 0 55 48" fill="none" xmlns="http://www.w3.org/2000/svg">
<path fill-rule="evenodd" clip-rule="evenodd" d="M45.4742 1.38814L40.9156 9.2849C48.7824 13.5443 54.1068 21.5009 54.9862 30.8155H0.0318722C0.911264 21.501 6.23561 13.5444 14.0965 9.2849L9.53789 1.38814C9.28065 0.945448 9.43021 0.383098 9.87291 0.125854C10.3156 -0.131385 10.8779 0.0181697 11.1352 0.460867L15.7536 8.45932C19.2772 6.85005 23.2436 5.95269 27.509 5.95269C31.7745 5.95269 35.7408 6.85006 39.2644 8.45932L43.8828 0.460867C44.1341 0.0181697 44.7024 -0.131385 45.1391 0.125854C45.5759 0.383098 45.7314 0.945448 45.4742 1.38814ZM12.5889 20.795C12.5889 22.0633 13.6179 23.0982 14.8921 23.0982C16.1664 23.0982 17.2014 22.0633 17.1954 20.795C17.1954 19.5268 16.1664 18.4918 14.8921 18.4918C13.6239 18.4918 12.5889 19.5208 12.5889 20.795ZM37.8167 20.795C37.8167 22.0633 38.8457 23.0982 40.12 23.0982C41.3942 23.0982 42.4292 22.0633 42.4232 20.795C42.4232 19.5268 41.3942 18.4918 40.12 18.4918C38.8517 18.4918 37.8167 19.5208 37.8167 20.795Z" fill="white"/>
<path d="M45.7229 36.9791C45.7229 37.6298 45.1954 38.1572 44.5448 38.1572C43.8942 38.1572 43.3667 37.6298 43.3667 36.9791C43.3667 36.3285 43.8942 35.801 44.5448 35.801C45.1954 35.801 45.7229 36.3285 45.7229 36.9791Z" fill="white"/>
<path fill-rule="evenodd" clip-rule="evenodd" d="M18.6926 43.8626C18.6926 41.2105 20.6369 39.6953 22.5278 39.6953C24.2759 39.6953 25.0645 40.8881 25.0645 40.8881V35.8903H26.8461V47.8488H25.5778C25.2939 47.8488 25.0645 47.5781 25.0645 47.3354V46.822C25.0645 46.822 24.2824 47.9998 22.5278 47.9998C20.4021 47.9998 18.6926 46.2872 18.6926 43.8626ZM25.2183 43.862C25.2183 42.6944 24.4018 41.3255 22.8452 41.3255C21.5144 41.3255 20.5053 42.3962 20.5053 43.8449C20.5053 45.4497 21.6779 46.3978 22.8485 46.3978C24.2488 46.3978 25.2183 45.1626 25.2183 43.862Z" fill="white"/>
<path d="M10.6298 47.8487C10.3561 47.8487 10.1165 47.6523 10.1165 47.3353V39.8764H11.8982V40.8629C12.3019 40.2561 13.0906 39.6927 14.3013 39.6927C16.2801 39.6927 17.3338 41.2702 17.3338 42.7452V47.8487H16.0957C15.7711 47.8487 15.5522 47.5769 15.5522 47.3051V43.1378C15.5522 42.3202 15.0512 41.3272 13.8927 41.3272C12.6425 41.3272 11.8982 42.5086 11.8982 43.6209V47.8487L10.6298 47.8487Z" fill="white"/>
<path fill-rule="evenodd" clip-rule="evenodd" d="M3.83519 39.6953C1.94432 39.6953 0 41.2105 0 43.8626C0 46.2872 1.70951 47.9998 3.83519 47.9998C5.58982 47.9998 6.37184 46.822 6.37184 46.822V47.3354C6.37184 47.5781 6.60125 47.8488 6.8852 47.8488H8.15353V39.8764H6.37184V40.8881C6.37184 40.8881 5.58327 39.6953 3.83519 39.6953ZM4.15257 41.3255C5.70915 41.3255 6.52566 42.6944 6.52566 43.862C6.52566 45.1626 5.55621 46.3977 4.15587 46.3978C2.98527 46.3978 1.81267 45.4497 1.81267 43.8449C1.81267 42.3962 2.82177 41.3255 4.15257 41.3255Z" fill="white"/>
<path d="M29.3224 47.8487C29.0487 47.8487 28.8091 47.6523 28.8091 47.3353V39.8764H30.5908V41.2051C30.8974 40.4607 31.5592 39.7858 32.7348 39.7858C33.0626 39.7858 33.369 39.8462 33.369 39.8462V41.6883C33.369 41.6883 32.9864 41.5373 32.5235 41.5373C31.2733 41.5373 30.5908 42.7187 30.5908 43.831V47.8487H29.3224Z" fill="white"/>
<path d="M43.6665 47.3353C43.6665 47.6523 43.9061 47.8487 44.1799 47.8487L45.4482 47.8487V39.8764H43.6665V47.3353Z" fill="white"/>
<path fill-rule="evenodd" clip-rule="evenodd" d="M50.6724 39.6953C48.7816 39.6953 46.8372 41.2105 46.8372 43.8626C46.8372 46.2872 48.5468 47.9998 50.6724 47.9998C52.4271 47.9998 53.2091 46.822 53.2091 46.822V47.3354C53.2091 47.5781 53.4385 47.8488 53.7225 47.8488H54.9908V35.8903H53.2091V40.8881C53.2091 40.8881 52.4205 39.6953 50.6724 39.6953ZM50.9898 41.3255C52.5464 41.3255 53.3629 42.6944 53.3629 43.862C53.3629 45.1626 52.3935 46.3978 50.9931 46.3978C49.8225 46.3978 48.6499 45.4497 48.6499 43.8449C48.6499 42.3962 49.659 41.3255 50.9898 41.3255Z" fill="white"/>
<path fill-rule="evenodd" clip-rule="evenodd" d="M38.0679 39.6925C36.0877 39.6925 33.9121 41.1707 33.9121 43.8484C33.9121 46.2885 35.7652 48 38.0636 48C40.8962 48 42.2793 45.7229 42.2793 43.8638C42.2793 41.5826 40.4983 39.6925 38.0679 39.6925ZM38.0744 41.3564C39.4438 41.3564 40.4652 42.4601 40.4652 43.8534C40.4652 45.2709 39.3809 46.3647 38.0785 46.3647C36.8694 46.3647 35.6941 45.3808 35.6941 43.8772C35.6941 42.3486 36.8119 41.3564 38.0744 41.3564Z" fill="white"/>
</svg>
