<svg xmlns="http://www.w3.org/2000/svg" viewBox="0 0 160 39">
  <path d="M145.2 31.7h14.4v5h-35.4v-5h14.4v-7.2h-13.8v-5H159v5h-13.8v7.2zm-9.6-17.3l2.4-5.6h-6.6c-.9 2.2-1.1 2.4-1.3 2.8-.7 1-.7 1.1-1.5 1.1h-3.9v5h7.2c2 .1 3-1.7 3.7-3.3zm-52.9 0V2.8c0-.9.8-1.7 1.8-1.7h4.8S89.8 0 90.5 0h3c.7 0 1.2.5 1.2 1.1h11.4s.5-1.1 1.2-1.1h3c.7 0 1.2.5 1.2 1.1h5.4c1 0 1.8.7 1.8 1.7v11.7c0 .9-.8 1.7-1.8 1.7H84.5c-1-.1-1.8-.8-1.8-1.8zm28.2-2.5c0-1.1-.9-1.9-2.1-1.9-1.2 0-2.1.9-2.1 1.9 0 1.1.9 1.9 2.1 1.9 1.2.1 2.1-.8 2.1-1.9zm0-3.3c0 1.1.9 1.9 2.1 1.9 1.2 0 2.1-.9 2.1-1.9 0-1.1-.9-1.9-2.1-1.9-1.1 0-2.1.8-2.1 1.9zm-4.2-3.3c0 1.1.9 1.9 2.1 1.9 1.2 0 2.1-.9 2.1-1.9 0-1.1-.9-1.9-2.1-1.9-1.1-.1-2.1.8-2.1 1.9zm-4.2 3.3c0 1.1.9 1.9 2.1 1.9s2.1-.9 2.1-1.9c0-1.1-.9-1.9-2.1-1.9s-2.1.8-2.1 1.9zm-15 1.4h3v2.8h3V10h3V7.2h-3V4.4h-3v2.8h-3V10zm70.3-8.3h-12.6v-.6c0-.6-.5-1.1-1.2-1.1h-4.2c-.7 0-1.2.5-1.2 1.1v.6H126c-1 0-1.8.7-1.8 1.7V10h5.4V8.3 8c0-.8.7-1.4 1.5-1.4h21.6c.8 0 1.5.6 1.5 1.4v2h5.4V3.3c0-.9-.8-1.6-1.8-1.6zm-2.7 11.1c-.8 0-.8-.2-1.5-1.1-.2-.4-.3-.6-1.3-2.8h-6.6l2.4 5.6c.7 1.5 1.6 3.3 3.6 3.3h7.2v-5h-3.6-.2zM5.8 10H1v3.3c0 1.8 1.6 3.3 3.6 3.3h3v-5c-1 .1-1.8-.7-1.8-1.6zm28.3 10.6l2.4-5V11.8c0-.6-.5-1.1-1.2-1.1H24.5v5h6l-1.8 5v.6h-5.4V13c0-.6-.5-1.1-1.2-1.1h-6V7.8h7.2v-5H19l-.6-1.7h-6l.6 1.7H8.8v5H10v28.9h6v-20h1.8v20h5.4V26.1h5.4v5c0 .9-.8 1.7-1.8 1.7h-1.2v3.9h4.8c2 0 3.6-1.5 3.6-3.3v-7.2h3v-5h-3v-.6zm2.4-17.8h-6l.5-1.7h-6l-.6 1.7v5h12v-5zM103.7 30h13.2v-4.4h-13.2v-1.7h15v-5h-15v-1.7h-5.4v1.7H89c-.8 0-1.5-.6-1.5-1.4v-.3h-6v3.4c0 1.8 1.6 3.3 3.6 3.3h13.2v1.7H84.5V30h13.8v1.7H82.1v5h37.2v-5h-15.6V30zM77.3 2.8v11.7c0 .9-.8 1.7-1.8 1.7h-9s.8 2 1.8 4.4h9v5.6h-6.7c.9 2.2 1.7 4 1.9 4.4.7 1 .7 1.1 1.5 1.1h3.3v5h-7.2c-2 0-2.9-1.8-3.6-3.3l-2.8-7.2H47.3V30.3c0 .8.7 1.4 1.5 1.4H51.5v5h-6.6c-2 0-3.6-1.5-3.6-3.3V2.8c0-.9.8-1.7 1.8-1.7h32.4c1 0 1.8.8 1.8 1.7zM61.6 20.6l-1.7-4.4H47.3v4.4h14.3zm9.7-13.9h-24v3.9h24V6.7zM2.2 31.1c0 .9-.8 1.7-1.8 1.7v3.9H4c2 0 3.6-1.5 3.6-3.3V18.3H2.2v12.8zM4 8.9h3v-5c-1 0-1.8-.7-1.8-1.7H.4v3.3C.4 7.4 2 8.9 4 8.9z" fill-rule="evenodd" clip-rule="evenodd" fill="white"/>
</svg>
