<svg xmlns="http://www.w3.org/2000/svg" fill="none" viewBox="0 0 40 40" width="40" height="40">
  <path fill="white" d="M13.092 3.003a18.287 18.287 0 1 1 6.745 35.282h-6.095v-9.143h6.095a9.2 9.2 0 0 0 5.077-1.53 9.178 9.178 0 0 0 1.574-14.035 9.178 9.178 0 0 0-14.085 1.042c-1.046 1.47-1.636 3.273-1.696 5.075h-.008l-.005 6.4H1.551v-6.4h.003A18.48 18.48 0 0 1 4.812 9.577a18.3 18.3 0 0 1 8.28-6.574m-2.4 35.281H-.28l1.829-1.858v-7.284h9.143zM19.837 18.78h5.486l-8.23 8.838 1.83-6.4h-5.181l8.228-8.838z"></path>
</svg>
