<svg width="192" height="192" viewBox="0 0 192 192" fill="none" xmlns="http://www.w3.org/2000/svg">
<path fill-rule="evenodd" clip-rule="evenodd" d="M78.2008 5.81427C88.8113 -1.9381 103.189 -1.93808 113.8 5.81428L179.546 53.8511C190.145 61.5953 194.558 75.2964 190.522 87.7868L165.409 165.512C161.371 178.01 149.77 186.514 136.634 186.514H55.3667C42.2306 186.514 30.6294 178.01 26.5912 165.512L1.47823 87.7867C-2.55739 75.2964 1.85517 61.5952 12.4543 53.8511L78.2008 5.81427Z" fill="#405580"/>
<path fill-rule="evenodd" clip-rule="evenodd" d="M78.2008 5.81427C88.8113 -1.9381 103.189 -1.93808 113.8 5.81428L179.546 53.8511C190.145 61.5953 194.558 75.2964 190.522 87.7868L165.409 165.512C161.371 178.01 149.77 186.514 136.634 186.514H55.3667C42.2306 186.514 30.6294 178.01 26.5912 165.512L1.47823 87.7867C-2.55739 75.2964 1.85517 61.5952 12.4543 53.8511L78.2008 5.81427Z" fill="url(#paint0_radial_7_266)"/>
<path fill-rule="evenodd" clip-rule="evenodd" d="M103.099 81.0689C102.955 81.6455 103.199 82.2494 103.703 82.5644L111.786 87.6163C112.472 88.0449 113.378 87.79 113.739 87.0666L140.194 34.157C140.494 33.5584 140.317 32.8312 139.777 32.4364L120.69 18.4908C119.904 17.9165 118.786 18.3211 118.55 19.2655L103.099 81.0689Z" fill="url(#paint1_radial_7_266)" fill-opacity="0.75"/>
<path fill-rule="evenodd" clip-rule="evenodd" d="M120.001 109.82L120.001 109.813V104.824C120.001 104.591 119.995 104.359 119.983 104.129C119.884 102.27 119.389 100.479 118.559 98.8649C117.921 97.6247 117.085 96.488 116.077 95.5035C115.415 94.857 114.679 94.2764 113.878 93.7755L99.7599 84.9518C97.6893 83.6576 95.2966 82.9714 92.8548 82.9714H87.681L87.6565 82.972C85.0584 83.034 82.9722 85.1587 82.9722 87.7709L82.9737 96.4244C82.9737 96.9438 83.2672 97.4186 83.7318 97.6508L114.643 113.106C117.097 114.333 119.982 112.558 120.001 109.82Z" fill="url(#paint2_radial_7_266)" fill-opacity="0.75"/>
<path fill-rule="evenodd" clip-rule="evenodd" d="M24.9938 68.2818L63.45 87.5099C63.8902 87.73 64.4146 87.6974 64.8241 87.4243L73.3543 81.7368C76.1705 79.8591 79.4796 78.8571 82.8643 78.8571H92.8548C95.0428 78.8571 97.2007 79.2758 99.2154 80.0808L100.061 80.4188C100.909 80.7573 101.844 80.1896 101.935 79.2817L108.794 10.6932C108.844 10.19 108.615 9.69677 108.185 9.43047C100.195 4.48181 89.7932 4.98843 81.8428 10.7973L16.0963 58.8342C7.65728 65 4.1317 75.9228 7.35189 85.8893L32.4648 163.615C35.6857 173.583 44.928 180.343 55.3678 180.343H136.635C147.075 180.343 156.317 173.583 159.538 163.615L179.599 101.525C179.895 100.609 179.179 99.6806 178.218 99.734L147.204 101.457L183.672 87.275C184.056 87.1255 184.355 86.8112 184.473 86.4161C186.891 78.3405 185.814 69.6394 181.03 63.7067C180.615 63.1912 179.878 63.0939 179.317 63.4449L123.906 98.0767C123.387 98.4007 123.149 99.0281 123.307 99.6187C123.764 101.324 124.116 103.029 124.116 104.824V110.4C124.116 111.157 124.73 111.771 125.487 111.771H128.28C129.64 111.771 130.982 112.083 132.203 112.681L145.48 119.189C153.133 122.941 156.868 131.746 154.245 139.856L148.369 158.03C146.448 163.973 140.914 168 134.668 168H119.932C117.876 168 115.837 167.63 113.912 166.908L95.115 159.859C94.961 159.801 94.7979 159.771 94.6335 159.771H86.3768C85.9282 159.771 85.5079 159.991 85.2515 160.359L85.0469 160.653C81.9106 165.155 76.7108 168 70.9763 168H55.3409C50.2829 168 45.802 164.738 44.2478 159.925L33.8162 127.62C32.4387 123.354 34.4435 118.729 38.4985 116.818L56.129 108.508C56.6092 108.281 56.9157 107.798 56.9157 107.267V95.5612C56.9157 95.0263 56.6046 94.5402 56.1189 94.316L21.6569 78.4105C21.4141 78.2984 21.2586 78.0553 21.2586 77.7879V70.2666C21.2586 70.0068 21.4053 69.7694 21.6376 69.6532L24.3805 68.2818C24.5735 68.1853 24.8007 68.1853 24.9938 68.2818Z" fill="url(#paint3_radial_7_266)" fill-opacity="0.75"/>
<path fill-rule="evenodd" clip-rule="evenodd" d="M82.3878 112.475L62.91 104.685C62.0088 104.325 61.0286 104.989 61.0293 105.959L61.0315 109.131C61.0323 110.342 61.7267 111.446 62.8182 111.971L64.0606 112.569C65.4077 113.217 66.1796 114.663 65.9682 116.143L61.5679 146.946C61.2951 148.855 60.4103 150.625 59.0463 151.988L52.0652 158.969C50.9627 160.072 51.0273 161.65 51.755 162.677C52.5035 163.732 54.1087 163.886 55.3409 163.886H70.9763C72.9186 163.886 74.7825 163.456 76.4622 162.675C79.944 161.058 82.6368 157.932 83.6157 154.018L90.2104 127.644L90.2122 127.637C91.7352 121.346 88.4065 114.883 82.3878 112.475Z" fill="url(#paint4_radial_7_266)" fill-opacity="0.75"/>
<path fill-rule="evenodd" clip-rule="evenodd" d="M123.415 163.885L123.459 163.886H134.668C139.129 163.886 143.082 161.009 144.454 156.764L150.331 138.591C152.324 132.427 149.485 125.735 143.669 122.884C139.531 120.856 132.297 117.332 128.826 115.643C127.915 115.2 126.858 115.865 126.859 116.878L126.859 120.007C126.859 121.202 127.534 122.294 128.602 122.828L129.226 123.14C130.752 123.903 131.485 125.672 130.945 127.291L121.888 154.463C121.72 154.968 121.436 155.427 121.06 155.803L117.894 158.969C116.08 160.783 117.365 163.885 119.931 163.885H123.415Z" fill="url(#paint5_radial_7_266)" fill-opacity="0.75"/>
<path fill-rule="evenodd" clip-rule="evenodd" d="M121.308 95.4224L121.74 96.0813C122.197 96.7776 123.163 96.9097 123.79 96.3614L169.588 56.2882C170.249 55.7096 170.203 54.6671 169.494 54.1487L158.654 46.229C158.084 45.8121 157.29 45.8971 156.82 46.4253L118.129 89.9532C117.635 90.5086 117.673 91.3562 118.215 91.8646L118.702 92.3213C119.696 93.2531 120.569 94.2953 121.308 95.4224Z" fill="url(#paint6_radial_7_266)" fill-opacity="0.75"/>
<path fill-rule="evenodd" clip-rule="evenodd" d="M119.21 125.011L95.5205 115.535C94.4818 115.119 93.4094 116.055 93.6807 117.141L94.006 118.442C94.8245 121.716 94.8245 125.141 94.006 128.415L88.3072 151.21C88.0909 152.076 88.7455 152.914 89.6377 152.914H111.4C114.544 152.914 117.359 150.964 118.463 148.02L123.472 134.662C124.912 130.822 123.019 126.534 119.21 125.011Z" fill="url(#paint7_radial_7_266)" fill-opacity="0.75"/>
<path d="M138.096 33.7555L112.237 85.4722L105.217 81.0842L120.299 20.7529L138.096 33.7555Z" fill="#76FF33"/>
<path d="M138.096 33.7555L112.237 85.4722L105.217 81.0842L120.299 20.7529L138.096 33.7555Z" fill="url(#paint8_radial_7_266)" fill-opacity="0.75"/>
<path d="M112.788 95.52C113.463 95.942 114.083 96.4309 114.64 96.9752C115.489 97.804 116.193 98.7612 116.73 99.8058C117.429 101.165 117.846 102.673 117.929 104.238C117.94 104.433 117.945 104.628 117.945 104.824V109.806C117.936 111.022 116.654 111.811 115.563 111.266L85.0313 96.0004L85.03 87.7706C85.03 86.2781 86.2221 85.064 87.7061 85.0286H92.8554C94.9117 85.0286 96.9265 85.6064 98.6702 86.6962L112.788 95.52Z" fill="#76FF33"/>
<path d="M112.788 95.52C113.463 95.942 114.083 96.4309 114.64 96.9752C115.489 97.804 116.193 98.7612 116.73 99.8058C117.429 101.165 117.846 102.673 117.929 104.238C117.94 104.433 117.945 104.628 117.945 104.824V109.806C117.936 111.022 116.654 111.811 115.563 111.266L85.0313 96.0004L85.03 87.7706C85.03 86.2781 86.2221 85.064 87.7061 85.0286H92.8554C94.9117 85.0286 96.9265 85.6064 98.6702 86.6962L112.788 95.52Z" fill="url(#paint9_radial_7_266)" fill-opacity="0.75"/>
<path d="M64.0147 85.492L72.2137 80.0253C75.3679 77.9222 79.074 76.8 82.8649 76.8H92.8554C95.3059 76.8 97.7229 77.269 99.9792 78.1705L106.695 11.0133C99.2811 6.8688 90.048 7.35048 83.057 12.4584L17.3105 60.4952C9.59154 66.135 6.36162 76.1316 9.30999 85.2569L34.4229 162.982C37.3713 172.107 45.8273 178.286 55.3684 178.286H136.636C146.177 178.286 154.633 172.107 157.581 162.982L177.335 101.843L134.402 104.229L182.623 85.4759L182.694 85.2569C184.885 78.4759 183.664 71.2138 179.725 65.6159L125.435 99.5475C125.919 101.242 126.173 103.015 126.173 104.824V109.714H128.28C129.954 109.714 131.606 110.097 133.109 110.834L146.386 117.342C154.958 121.544 159.14 131.406 156.203 140.489L150.327 158.663C148.131 165.455 141.807 170.057 134.668 170.057H119.932C117.63 170.057 115.346 169.643 113.19 168.834L94.5097 161.829H86.7354C83.2241 166.869 77.401 170.057 70.9769 170.057H55.3415C49.3909 170.057 44.1193 166.22 42.2907 160.557L31.8592 128.253C30.1638 123.002 32.6312 117.309 37.622 114.957L54.8591 106.832V96L20.7954 80.2783C19.8241 79.83 19.202 78.8577 19.202 77.7879V70.2666C19.202 69.2277 19.789 68.2779 20.7182 67.8133L23.4611 66.4419C24.2333 66.0558 25.1422 66.0558 25.9144 66.4419L64.0147 85.492Z" fill="#76FF33"/>
<path d="M64.0147 85.492L72.2137 80.0253C75.3679 77.9222 79.074 76.8 82.8649 76.8H92.8554C95.3059 76.8 97.7229 77.269 99.9792 78.1705L106.695 11.0133C99.2811 6.8688 90.048 7.35048 83.057 12.4584L17.3105 60.4952C9.59154 66.135 6.36162 76.1316 9.30999 85.2569L34.4229 162.982C37.3713 172.107 45.8273 178.286 55.3684 178.286H136.636C146.177 178.286 154.633 172.107 157.581 162.982L177.335 101.843L134.402 104.229L182.623 85.4759L182.694 85.2569C184.885 78.4759 183.664 71.2138 179.725 65.6159L125.435 99.5475C125.919 101.242 126.173 103.015 126.173 104.824V109.714H128.28C129.954 109.714 131.606 110.097 133.109 110.834L146.386 117.342C154.958 121.544 159.14 131.406 156.203 140.489L150.327 158.663C148.131 165.455 141.807 170.057 134.668 170.057H119.932C117.63 170.057 115.346 169.643 113.19 168.834L94.5097 161.829H86.7354C83.2241 166.869 77.401 170.057 70.9769 170.057H55.3415C49.3909 170.057 44.1193 166.22 42.2907 160.557L31.8592 128.253C30.1638 123.002 32.6312 117.309 37.622 114.957L54.8591 106.832V96L20.7954 80.2783C19.8241 79.83 19.202 78.8577 19.202 77.7879V70.2666C19.202 69.2277 19.789 68.2779 20.7182 67.8133L23.4611 66.4419C24.2333 66.0558 25.1422 66.0558 25.9144 66.4419L64.0147 85.492Z" fill="url(#paint10_radial_7_266)" fill-opacity="0.75"/>
<path d="M63.0877 106.971L63.0892 109.13C63.0895 109.551 63.331 109.935 63.7107 110.118L64.9531 110.715C67.1085 111.752 68.3435 114.066 68.0053 116.434L63.605 147.237C63.2692 149.587 62.1802 151.765 60.5015 153.443L53.2863 160.658C52.8543 161.09 53.1602 161.829 53.7712 161.829H70.9769C72.6138 161.829 74.1824 161.466 75.596 160.81C78.53 159.446 80.7965 156.814 81.6206 153.519L88.2134 127.153C89.4959 121.855 86.6928 116.413 81.6244 114.385L63.0877 106.971Z" fill="#76FF33"/>
<path d="M63.0877 106.971L63.0892 109.13C63.0895 109.551 63.331 109.935 63.7107 110.118L64.9531 110.715C67.1085 111.752 68.3435 114.066 68.0053 116.434L63.605 147.237C63.2692 149.587 62.1802 151.765 60.5015 153.443L53.2863 160.658C52.8543 161.09 53.1602 161.829 53.7712 161.829H70.9769C72.6138 161.829 74.1824 161.466 75.596 160.81C78.53 159.446 80.7965 156.814 81.6206 153.519L88.2134 127.153C89.4959 121.855 86.6928 116.413 81.6244 114.385L63.0877 106.971Z" fill="url(#paint11_radial_7_266)" fill-opacity="0.75"/>
<path d="M134.668 161.829C138.237 161.829 141.4 159.528 142.498 156.132L148.374 137.958C150.052 132.767 147.662 127.132 142.764 124.731L129.487 118.223C129.305 118.133 129.113 118.065 128.916 118.018V120.007C128.916 120.423 129.151 120.802 129.523 120.988L130.147 121.3C132.588 122.521 133.761 125.352 132.897 127.942L123.84 155.114C123.571 155.922 123.117 156.656 122.515 157.258C121.382 158.391 120.248 159.525 119.115 160.658C118.683 161.09 118.989 161.829 119.6 161.829H134.668Z" fill="#76FF33"/>
<path d="M134.668 161.829C138.237 161.829 141.4 159.528 142.498 156.132L148.374 137.958C150.052 132.767 147.662 127.132 142.764 124.731L129.487 118.223C129.305 118.133 129.113 118.065 128.916 118.018V120.007C128.916 120.423 129.151 120.802 129.523 120.988L130.147 121.3C132.588 122.521 133.761 125.352 132.897 127.942L123.84 155.114C123.571 155.922 123.117 156.656 122.515 157.258C121.382 158.391 120.248 159.525 119.115 160.658C118.683 161.09 118.989 161.829 119.6 161.829H134.668Z" fill="url(#paint12_radial_7_266)" fill-opacity="0.75"/>
<path d="M120.11 90.821C121.223 91.8649 122.201 93.0321 123.029 94.2944L167.589 55.3043L157.944 48.2577L120.11 90.821Z" fill="#76FF33"/>
<path d="M120.11 90.821C121.223 91.8649 122.201 93.0321 123.029 94.2944L167.589 55.3043L157.944 48.2577L120.11 90.821Z" fill="url(#paint13_radial_7_266)" fill-opacity="0.75"/>
<path d="M96.0023 117.943L118.447 126.921C121.217 128.029 122.594 131.147 121.546 133.94L116.537 147.298C115.734 149.439 113.687 150.857 111.401 150.857H90.5166L96.0023 128.914C96.9027 125.312 96.9027 121.544 96.0023 117.943Z" fill="#76FF33"/>
<path d="M96.0023 117.943L118.447 126.921C121.217 128.029 122.594 131.147 121.546 133.94L116.537 147.298C115.734 149.439 113.687 150.857 111.401 150.857H90.5166L96.0023 128.914C96.9027 125.312 96.9027 121.544 96.0023 117.943Z" fill="url(#paint14_radial_7_266)" fill-opacity="0.75"/>
<path fill-rule="evenodd" clip-rule="evenodd" d="M104.509 12.199C98.0118 9.11804 90.2402 9.75779 84.2706 14.1194L18.5241 62.1562C11.5252 67.2699 8.59094 76.3404 11.2675 84.6244L36.3804 162.35C39.0563 170.632 46.726 176.229 55.3684 176.229H136.636C145.278 176.229 152.948 170.632 155.624 162.35L174.456 104.064L133.64 106.331L132.838 102.629L180.95 83.9192C182.453 78.6181 181.699 73.0502 179.084 68.4427L127.787 100.503C128.079 101.91 128.231 103.357 128.231 104.824V107.657H128.28C130.268 107.657 132.23 108.112 134.015 108.987L147.291 115.495C156.782 120.147 161.412 131.065 158.161 141.122L152.285 159.296C149.814 166.937 142.699 172.114 134.668 172.114H119.932C117.383 172.114 114.855 171.656 112.468 170.761L94.1366 163.886H87.7751C83.8425 168.952 77.7084 172.114 70.9769 172.114H55.3415C48.4983 172.114 42.436 167.701 40.3331 161.189L29.9016 128.885C27.8883 122.65 30.8183 115.89 36.7449 113.096L52.802 105.528V97.3162L19.9334 82.1461C18.2335 81.3615 17.1449 79.6601 17.1449 77.7879V70.2666C17.1449 68.4485 18.1721 66.7864 19.7982 65.9733L22.5411 64.6019C23.8924 63.9263 25.483 63.9263 26.8343 64.6019L63.8668 83.1181L71.0725 78.3137C74.5646 75.9853 78.6678 74.7428 82.8649 74.7428H92.8554C94.6629 74.7428 96.4538 74.9733 98.1866 75.4222L104.509 12.199ZM83.057 12.4584C89.8548 7.49167 98.7723 6.89896 106.076 10.6803L106.696 11.0013L99.9836 78.1714L98.7702 77.7338C96.8686 77.118 94.8734 76.8 92.8554 76.8H82.8649C79.074 76.8 75.3679 77.9222 72.2137 80.0253L64.0147 85.492L25.9144 66.4419C25.1422 66.0558 24.2333 66.0558 23.4611 66.4419L20.7182 67.8133C19.789 68.2779 19.202 69.2277 19.202 70.2666V77.7879C19.202 78.8577 19.8241 79.8299 20.7954 80.2783L54.8591 96V106.832L37.622 114.957C32.6312 117.309 30.1638 123.002 31.8592 128.253L42.2907 160.557C44.1193 166.22 49.3909 170.057 55.3415 170.057H70.9769C77.2214 170.057 82.898 167.045 86.4357 162.247L86.744 161.829H94.5097L113.19 168.834C115.346 169.643 117.63 170.057 119.932 170.057H134.668C141.807 170.057 148.131 165.455 150.327 158.663L156.203 140.489C159.14 131.406 154.958 121.544 146.386 117.342L133.109 110.834C131.606 110.097 129.954 109.714 128.28 109.714H126.173V104.824C126.173 103.268 125.985 101.738 125.624 100.262L125.447 99.5396L179.745 65.6034L180.293 66.4637C183.731 71.8624 184.749 78.6305 182.775 84.9996L182.628 85.4738L134.401 104.229L177.335 101.843L157.581 162.982C154.633 172.107 146.177 178.286 136.636 178.286H55.3684C45.8273 178.286 37.3713 172.107 34.4229 162.982L9.30999 85.2569C6.36161 76.1316 9.59155 66.1349 17.3105 60.4952L83.057 12.4584ZM120.299 20.7529L138.096 33.7555L112.237 85.4722L105.217 81.0842L120.299 20.7529ZM121.554 24.2171L107.575 80.1324L111.409 82.5286L135.478 34.3907L121.554 24.2171ZM157.944 48.2577L167.589 55.3043L123.026 94.2926L122.389 93.3779C121.898 92.7164 121.363 92.0852 120.788 91.4889L120.111 90.8229L157.944 48.2577ZM158.24 51.0214L122.915 90.7618C123.064 90.931 123.211 91.1024 123.354 91.276L164.3 55.4488L158.24 51.0214ZM87.7043 85.0286H92.8554C94.9117 85.0286 96.9265 85.6064 98.6703 86.6962L112.788 95.52C113.463 95.942 114.083 96.4309 114.64 96.9751C115.489 97.804 116.193 98.7612 116.73 99.8058C117.429 101.165 117.846 102.673 117.929 104.238C117.94 104.433 117.945 104.628 117.945 104.824V109.807L117.945 109.812C117.932 111.026 116.651 111.81 115.563 111.266L85.0313 96.0004L85.03 87.7706C85.0301 86.2842 86.2127 85.0735 87.6889 85.029L87.7043 85.0286ZM87.7388 87.0857C87.3768 87.1029 87.0873 87.4029 87.0871 87.7703L87.0883 94.7289L115.888 109.128V104.824C115.888 104.664 115.883 104.506 115.875 104.348C115.807 103.076 115.469 101.852 114.901 100.747C114.464 99.8977 113.892 99.1199 113.203 98.4467C112.75 98.0047 112.247 97.6075 111.698 97.2644L97.58 88.4407C96.1632 87.5552 94.5261 87.0857 92.8554 87.0857H87.7388ZM63.0877 106.971L81.6244 114.385C86.6914 116.412 89.4944 121.852 88.2144 127.148L88.2134 127.152L88.2116 127.16L81.6206 153.519C80.7965 156.814 78.5301 159.446 75.596 160.81C74.1824 161.466 72.6138 161.829 70.9769 161.829C66.0908 161.829 57.3909 161.829 53.7692 161.829C53.1583 161.829 52.8546 161.09 53.2866 160.658L60.5015 153.443C62.1802 151.765 63.2692 149.587 63.605 147.237L68.0053 116.434C68.3435 114.066 67.1085 111.752 64.9531 110.715L63.7107 110.117C63.3313 109.935 63.0895 109.551 63.0892 109.13L63.0877 106.971ZM68.8666 111.498C69.8607 113.002 70.3094 114.852 70.0417 116.725L65.6414 147.527C65.2427 150.318 63.9496 152.904 61.9561 154.898L57.0822 159.771H70.9769C72.3083 159.771 73.5816 159.477 74.7292 158.944C77.1153 157.835 78.9555 155.696 79.6249 153.02L86.214 126.669L86.2149 126.665C87.2543 122.362 84.9771 117.942 80.8604 116.295L68.8666 111.498ZM128.916 117.943L142.764 124.731C147.662 127.132 150.052 132.767 148.374 137.958L142.498 156.132C141.4 159.528 138.237 161.829 134.668 161.829H123.465L123.455 161.828L123.438 161.828H119.6C118.989 161.828 118.683 161.089 119.115 160.657L122.515 157.258C123.117 156.656 123.571 155.922 123.84 155.114L132.897 127.941C133.761 125.352 132.588 122.521 130.147 121.3L129.523 120.988C129.151 120.803 128.916 120.423 128.916 120.007V117.943ZM96.0861 117.976L118.447 126.921C121.217 128.029 122.594 131.147 121.546 133.94L116.537 147.297C115.734 149.439 113.687 150.857 111.401 150.857H90.5166L96.0023 128.914C96.7511 125.919 96.8772 122.808 96.3804 119.774L96.0861 117.976ZM98.6349 121.211C98.8822 123.953 98.6699 126.725 97.998 129.413L93.1513 148.8H111.401C112.83 148.8 114.109 147.913 114.611 146.575L119.62 133.218C120.275 131.472 119.414 129.523 117.683 128.831L98.6349 121.211ZM134.509 122.975C135.318 124.682 135.485 126.684 134.849 128.592L125.792 155.764C125.421 156.875 124.797 157.885 123.969 158.713L122.911 159.771L134.668 159.771C137.345 159.771 139.717 158.046 140.54 155.499L146.417 137.325C147.78 133.107 145.838 128.529 141.858 126.578L134.509 122.975Z" fill="url(#paint15_radial_7_266)"/>
<path d="M84.2706 14.1194C90.2599 9.74343 98.0588 9.25715 104.511 12.1989L106.699 10.9989L106.076 10.6803C98.7723 6.89896 89.8548 7.49167 83.057 12.4584L17.3105 60.4952C9.59155 66.1349 6.36161 76.1316 9.30999 85.2569L11.2675 84.6244C8.59094 76.3404 11.5252 67.2699 18.5241 62.1562L84.2706 14.1194Z" fill="url(#paint16_radial_7_266)"/>
<path d="M138.098 33.7577L120.299 20.7529L105.218 81.0857L107.577 80.1326L121.554 24.2171L135.478 34.3886L138.098 33.7577Z" fill="url(#paint17_radial_7_266)"/>
<path d="M167.59 55.3029L157.944 48.2577L120.111 90.8229L122.916 90.7611L158.24 51.0214L164.299 55.4469L167.59 55.3029Z" fill="url(#paint18_radial_7_266)"/>
<path d="M180.293 66.4637L179.745 65.6034L125.447 99.5396L125.624 100.262C125.985 101.738 126.173 103.268 126.173 104.824V109.714L128.231 107.657V104.824C128.231 103.357 128.079 101.91 127.787 100.503L179.084 68.4427C181.699 73.0505 182.453 78.6187 180.95 83.92L182.628 85.4743L182.775 84.9996C184.749 78.6305 183.731 71.8624 180.293 66.4637Z" fill="url(#paint19_radial_7_266)"/>
<path d="M17.1449 70.2666V77.7879C17.1449 79.6601 18.2335 81.3615 19.9334 82.1461L52.802 97.3162V105.521L54.8591 106.837V96L20.7954 80.2783C19.8241 79.8299 19.202 78.8577 19.202 77.7879V70.2666H17.1449Z" fill="url(#paint20_radial_7_266)"/>
<path d="M92.8554 85.0286H87.7043L87.6889 85.029C86.2127 85.0735 85.0301 86.2842 85.03 87.7706V96L87.0871 94.7189V87.7703C87.0873 87.4029 87.3768 87.1029 87.7388 87.0857H92.8554C94.5261 87.0857 96.1632 87.5552 97.58 88.4407L111.698 97.2644C112.247 97.6075 112.75 98.0047 113.203 98.4467C113.892 99.1199 114.464 99.8977 114.901 100.747C115.469 101.852 115.807 103.076 115.875 104.348C115.883 104.506 115.888 104.664 115.888 104.824V109.128C116.902 109.46 117.945 108.704 117.945 107.636V104.824C117.945 104.628 117.94 104.433 117.929 104.238C117.846 102.673 117.429 101.165 116.73 99.8058C116.193 98.7612 115.489 97.804 114.64 96.9751C114.083 96.4309 113.463 95.942 112.788 95.52L98.6703 86.6962C96.9266 85.6064 94.9117 85.0286 92.8554 85.0286Z" fill="url(#paint21_radial_7_266)"/>
<path d="M133.641 106.334L174.454 104.064L177.334 101.842L134.402 104.229L133.641 106.334Z" fill="url(#paint22_radial_7_266)"/>
<path d="M81.6244 114.385L63.0877 106.971L63.0887 108.41C63.089 108.851 63.3399 109.252 63.7354 109.446L80.8604 116.295C84.9772 117.942 87.2546 122.362 86.2149 126.665L86.214 126.669L88.2134 127.152L88.2144 127.148C89.4944 121.852 86.6914 116.412 81.6244 114.385Z" fill="url(#paint23_radial_7_266)"/>
<path d="M65.6414 147.527L70.0417 116.725L68.0053 116.434L63.605 147.237C63.2692 149.587 62.1802 151.765 60.5015 153.443L53.3352 160.609C53.0699 160.875 53.3623 161.312 53.7089 161.169L57.0805 159.771L61.9561 154.898C63.9496 152.904 65.2427 150.318 65.6414 147.527Z" fill="url(#paint24_radial_7_266)"/>
<path d="M142.764 124.731L128.916 117.943V120.007C128.916 120.423 129.151 120.803 129.523 120.988L130.147 121.3C132.588 122.521 133.761 125.352 132.897 127.941L123.84 155.114C123.571 155.922 123.117 156.656 122.515 157.258L119.164 160.609C118.898 160.875 119.191 161.312 119.537 161.169L122.909 159.771L123.969 158.713C124.797 157.885 125.421 156.875 125.792 155.764L134.849 128.592C135.485 126.684 135.318 124.682 134.509 122.975L141.858 126.578C145.838 128.529 147.78 133.107 146.417 137.325L148.374 137.958C150.052 132.767 147.662 127.132 142.764 124.731Z" fill="url(#paint25_radial_7_266)"/>
<path d="M118.447 126.921L96.0861 117.976L96.3804 119.774C96.8772 122.808 96.7511 125.919 96.0023 128.914L90.516 150.857L93.1491 148.8L97.998 129.413C98.6699 126.725 98.8822 123.953 98.6349 121.211L117.683 128.831C119.414 129.523 120.275 131.472 119.62 133.218L121.546 133.94C122.594 131.147 121.217 128.029 118.447 126.921Z" fill="url(#paint26_radial_7_266)"/>
<path d="M29.9016 128.885L40.3331 161.189C42.436 167.701 48.4983 172.114 55.3415 172.114H70.9769C77.7084 172.114 83.8425 168.952 87.7751 163.886H94.1366L112.468 170.761C114.855 171.656 117.383 172.114 119.932 172.114H134.668C142.699 172.114 149.814 166.937 152.285 159.296L158.161 141.122L156.203 140.489L150.327 158.663C148.131 165.455 141.807 170.057 134.668 170.057H119.932C117.63 170.057 115.346 169.643 113.19 168.834L94.5097 161.829H86.744L86.4357 162.247C82.898 167.045 77.2214 170.057 70.9769 170.057H55.3415C49.3909 170.057 44.1193 166.22 42.2907 160.557L31.8592 128.253L29.9016 128.885Z" fill="url(#paint27_radial_7_266)"/>
<defs>
<radialGradient id="paint0_radial_7_266" cx="0" cy="0" r="1" gradientUnits="userSpaceOnUse" gradientTransform="translate(96.0003) rotate(90) scale(186.514 192.001)">
<stop stop-color="#001926" stop-opacity="0"/>
<stop offset="1" stop-color="#001926"/>
</radialGradient>
<radialGradient id="paint1_radial_7_266" cx="0" cy="0" r="1" gradientUnits="userSpaceOnUse" gradientTransform="translate(95.9456 180.343) rotate(-90) scale(174.294 174.294)">
<stop stop-color="#001926"/>
<stop offset="1" stop-color="#001926" stop-opacity="0"/>
</radialGradient>
<radialGradient id="paint2_radial_7_266" cx="0" cy="0" r="1" gradientUnits="userSpaceOnUse" gradientTransform="translate(95.9456 180.343) rotate(-90) scale(174.294 174.294)">
<stop stop-color="#001926"/>
<stop offset="1" stop-color="#001926" stop-opacity="0"/>
</radialGradient>
<radialGradient id="paint3_radial_7_266" cx="0" cy="0" r="1" gradientUnits="userSpaceOnUse" gradientTransform="translate(95.9456 180.343) rotate(-90) scale(174.294 174.294)">
<stop stop-color="#001926"/>
<stop offset="1" stop-color="#001926" stop-opacity="0"/>
</radialGradient>
<radialGradient id="paint4_radial_7_266" cx="0" cy="0" r="1" gradientUnits="userSpaceOnUse" gradientTransform="translate(95.9456 180.343) rotate(-90) scale(174.294 174.294)">
<stop stop-color="#001926"/>
<stop offset="1" stop-color="#001926" stop-opacity="0"/>
</radialGradient>
<radialGradient id="paint5_radial_7_266" cx="0" cy="0" r="1" gradientUnits="userSpaceOnUse" gradientTransform="translate(95.9456 180.343) rotate(-90) scale(174.294 174.294)">
<stop stop-color="#001926"/>
<stop offset="1" stop-color="#001926" stop-opacity="0"/>
</radialGradient>
<radialGradient id="paint6_radial_7_266" cx="0" cy="0" r="1" gradientUnits="userSpaceOnUse" gradientTransform="translate(95.9456 180.343) rotate(-90) scale(174.294 174.294)">
<stop stop-color="#001926"/>
<stop offset="1" stop-color="#001926" stop-opacity="0"/>
</radialGradient>
<radialGradient id="paint7_radial_7_266" cx="0" cy="0" r="1" gradientUnits="userSpaceOnUse" gradientTransform="translate(95.9456 180.343) rotate(-90) scale(174.294 174.294)">
<stop stop-color="#001926"/>
<stop offset="1" stop-color="#001926" stop-opacity="0"/>
</radialGradient>
<radialGradient id="paint8_radial_7_266" cx="0" cy="0" r="1" gradientUnits="userSpaceOnUse" gradientTransform="translate(96.0017 8.22858) rotate(90) scale(85.0286 87.7714)">
<stop stop-color="white"/>
<stop offset="1" stop-color="white" stop-opacity="0"/>
</radialGradient>
<radialGradient id="paint9_radial_7_266" cx="0" cy="0" r="1" gradientUnits="userSpaceOnUse" gradientTransform="translate(96.0017 8.22858) rotate(90) scale(85.0286 87.7714)">
<stop stop-color="white"/>
<stop offset="1" stop-color="white" stop-opacity="0"/>
</radialGradient>
<radialGradient id="paint10_radial_7_266" cx="0" cy="0" r="1" gradientUnits="userSpaceOnUse" gradientTransform="translate(96.0017 8.22858) rotate(90) scale(85.0286 87.7714)">
<stop stop-color="white"/>
<stop offset="1" stop-color="white" stop-opacity="0"/>
</radialGradient>
<radialGradient id="paint11_radial_7_266" cx="0" cy="0" r="1" gradientUnits="userSpaceOnUse" gradientTransform="translate(96.0017 8.22858) rotate(90) scale(85.0286 87.7714)">
<stop stop-color="white"/>
<stop offset="1" stop-color="white" stop-opacity="0"/>
</radialGradient>
<radialGradient id="paint12_radial_7_266" cx="0" cy="0" r="1" gradientUnits="userSpaceOnUse" gradientTransform="translate(96.0017 8.22858) rotate(90) scale(85.0286 87.7714)">
<stop stop-color="white"/>
<stop offset="1" stop-color="white" stop-opacity="0"/>
</radialGradient>
<radialGradient id="paint13_radial_7_266" cx="0" cy="0" r="1" gradientUnits="userSpaceOnUse" gradientTransform="translate(96.0017 8.22858) rotate(90) scale(85.0286 87.7714)">
<stop stop-color="white"/>
<stop offset="1" stop-color="white" stop-opacity="0"/>
</radialGradient>
<radialGradient id="paint14_radial_7_266" cx="0" cy="0" r="1" gradientUnits="userSpaceOnUse" gradientTransform="translate(96.0017 8.22858) rotate(90) scale(85.0286 87.7714)">
<stop stop-color="white"/>
<stop offset="1" stop-color="white" stop-opacity="0"/>
</radialGradient>
<radialGradient id="paint15_radial_7_266" cx="0" cy="0" r="1" gradientUnits="userSpaceOnUse" gradientTransform="translate(96.0017 178.286) rotate(-89.9999) scale(170.057 175.543)">
<stop stop-color="#005580" stop-opacity="0.5"/>
<stop offset="1" stop-color="#007FBF"/>
</radialGradient>
<radialGradient id="paint16_radial_7_266" cx="0" cy="0" r="1" gradientUnits="userSpaceOnUse" gradientTransform="translate(96.0017 172.114) rotate(-90) scale(163.886 175.543)">
<stop stop-color="white"/>
<stop offset="1" stop-color="white"/>
</radialGradient>
<radialGradient id="paint17_radial_7_266" cx="0" cy="0" r="1" gradientUnits="userSpaceOnUse" gradientTransform="translate(96.0017 172.114) rotate(-90) scale(163.886 175.543)">
<stop stop-color="white"/>
<stop offset="1" stop-color="white"/>
</radialGradient>
<radialGradient id="paint18_radial_7_266" cx="0" cy="0" r="1" gradientUnits="userSpaceOnUse" gradientTransform="translate(96.0017 172.114) rotate(-90) scale(163.886 175.543)">
<stop stop-color="white"/>
<stop offset="1" stop-color="white"/>
</radialGradient>
<radialGradient id="paint19_radial_7_266" cx="0" cy="0" r="1" gradientUnits="userSpaceOnUse" gradientTransform="translate(96.0017 172.114) rotate(-90) scale(163.886 175.543)">
<stop stop-color="white"/>
<stop offset="1" stop-color="white"/>
</radialGradient>
<radialGradient id="paint20_radial_7_266" cx="0" cy="0" r="1" gradientUnits="userSpaceOnUse" gradientTransform="translate(96.0017 172.114) rotate(-90) scale(163.886 175.543)">
<stop stop-color="white"/>
<stop offset="1" stop-color="white"/>
</radialGradient>
<radialGradient id="paint21_radial_7_266" cx="0" cy="0" r="1" gradientUnits="userSpaceOnUse" gradientTransform="translate(96.0017 172.114) rotate(-90) scale(163.886 175.543)">
<stop stop-color="white"/>
<stop offset="1" stop-color="white"/>
</radialGradient>
<radialGradient id="paint22_radial_7_266" cx="0" cy="0" r="1" gradientUnits="userSpaceOnUse" gradientTransform="translate(96.0017 172.114) rotate(-90) scale(163.886 175.543)">
<stop stop-color="white"/>
<stop offset="1" stop-color="white"/>
</radialGradient>
<radialGradient id="paint23_radial_7_266" cx="0" cy="0" r="1" gradientUnits="userSpaceOnUse" gradientTransform="translate(96.0017 172.114) rotate(-90) scale(163.886 175.543)">
<stop stop-color="white"/>
<stop offset="1" stop-color="white"/>
</radialGradient>
<radialGradient id="paint24_radial_7_266" cx="0" cy="0" r="1" gradientUnits="userSpaceOnUse" gradientTransform="translate(96.0017 172.114) rotate(-90) scale(163.886 175.543)">
<stop stop-color="white"/>
<stop offset="1" stop-color="white"/>
</radialGradient>
<radialGradient id="paint25_radial_7_266" cx="0" cy="0" r="1" gradientUnits="userSpaceOnUse" gradientTransform="translate(96.0017 172.114) rotate(-90) scale(163.886 175.543)">
<stop stop-color="white"/>
<stop offset="1" stop-color="white"/>
</radialGradient>
<radialGradient id="paint26_radial_7_266" cx="0" cy="0" r="1" gradientUnits="userSpaceOnUse" gradientTransform="translate(96.0017 172.114) rotate(-90) scale(163.886 175.543)">
<stop stop-color="white"/>
<stop offset="1" stop-color="white"/>
</radialGradient>
<radialGradient id="paint27_radial_7_266" cx="0" cy="0" r="1" gradientUnits="userSpaceOnUse" gradientTransform="translate(96.0017 172.114) rotate(-90) scale(163.886 175.543)">
<stop stop-color="white"/>
<stop offset="1" stop-color="white"/>
</radialGradient>
</defs>
</svg>
