<svg width="40" height="48" viewBox="0 0 40 48" fill="none" xmlns="http://www.w3.org/2000/svg">
<path d="M37.8326 16.3658C37.5542 16.5818 32.6385 19.3517 32.6385 25.5107C32.6385 32.6346 38.8935 35.1549 39.0807 35.2173C39.0519 35.3709 38.087 38.6688 35.7828 42.0292C33.7282 44.9863 31.5824 47.9386 28.318 47.9386C25.0537 47.9386 24.2136 46.0424 20.4452 46.0424C16.7729 46.0424 15.4671 48.001 12.4812 48.001C9.49535 48.001 7.41194 45.2647 5.0165 41.9044C2.24182 37.9584 0 31.8282 0 26.01C0 16.6778 6.06781 11.7285 12.0396 11.7285C15.2127 11.7285 17.8578 13.812 19.85 13.812C21.7462 13.812 24.7033 11.6037 28.3132 11.6037C29.6814 11.6037 34.5971 11.7285 37.8326 16.3658ZM26.5995 7.65294C28.0924 5.88156 29.1485 3.42372 29.1485 0.965873C29.1485 0.625039 29.1197 0.279404 29.0573 0.000976562C26.6283 0.0921857 23.7384 1.61874 21.9958 3.63974C20.6277 5.1951 19.3507 7.65294 19.3507 10.1444C19.3507 10.5188 19.4131 10.8933 19.4419 11.0133C19.5956 11.0421 19.8452 11.0757 20.0948 11.0757C22.2742 11.0757 25.0153 9.61634 26.5995 7.65294Z" fill="white"/>
</svg>
