<svg xmlns="http://www.w3.org/2000/svg" viewBox="0 0 808 808">
  <path fill="white" d="M374.26,553.72a5,5,0,0,1-5.06,5H300.3a5.05,5.05,0,0,1-5.12-5V373.53a5.05,5.05,0,0,1,5.12-5h68.9a5,5,0,0,1,5.06,5Z"/>
  <path fill="white" d="M509.18,553.72a5.05,5.05,0,0,1-5.09,5H438.5a5,5,0,0,1-5.1-5V398.26c-.07-27.15-1.62-55-15.64-69.06-12-12.09-34.51-14.86-57.88-15.44H241a5,5,0,0,0-5.07,5v235a5.07,5.07,0,0,1-5.12,5H165.16a5,5,0,0,1-5.06-5V254.31a5,5,0,0,1,5.06-5H354.52c49.49,0,101.22,2.26,126.74,27.81s27.92,77.3,27.92,126.85Z"/>
  <path fill="white" d="M644.29,553.72a5.06,5.06,0,0,1-5.09,5H573.57a5,5,0,0,1-5.08-5V254.31a5,5,0,0,1,5.08-5H639.2a5.06,5.06,0,0,1,5.09,5Z"/>
</svg>
