<svg width="48" height="48" viewBox="0 0 48 48" fill="none" xmlns="http://www.w3.org/2000/svg">
<g clip-path="url(#clip0_4027_3027)">
<path d="M28.3019 48H35.6981C42.4906 48 48 42.4906 48 35.6981V12.3019C48 5.50943 42.4906 0 35.6981 0H28.2642C28.0755 0 27.9623 0.150943 27.9623 0.301886V47.6604C27.9623 47.8491 28.1132 48 28.3019 48ZM37.434 21.5472C40.1132 21.5472 42.3019 23.7358 42.3019 26.4151C42.3019 29.0943 40.1132 31.283 37.434 31.283C34.7547 31.283 32.566 29.0943 32.566 26.4151C32.6038 23.7358 34.7547 21.5472 37.434 21.5472ZM7.4717 14.4151C7.4717 16.9057 9.50943 18.9434 12 18.9434C14.4906 18.9434 16.5283 16.9057 16.5283 14.4151C16.5283 11.9245 14.4906 9.88679 12 9.88679C9.4717 9.88679 7.4717 11.8868 7.4717 14.4151ZM22.7925 0H12.3019C5.50943 0 0 5.50943 0 12.3019V35.6981C0 42.4906 5.50943 48 12.3019 48H22.7925C22.9811 48 23.1321 47.8491 23.1321 47.6604V0.339622C23.1321 0.150943 22.9811 0 22.7925 0ZM19.283 44.1509H12.3019C10.0377 44.1509 7.92453 43.283 6.33962 41.6604C4.75472 40.0755 3.84906 37.9623 3.84906 35.6981V12.3019C3.84906 10.0377 4.71698 7.92453 6.33962 6.33962C7.92453 4.75472 10.0377 3.84906 12.3019 3.84906H19.283V44.1509Z" fill="white"/>
</g>
<defs>
<clipPath id="clip0_4027_3027">
<rect width="48" height="48" fill="white"/>
</clipPath>
</defs>
</svg>
