<svg xmlns="http://www.w3.org/2000/svg" viewBox="0 0 85 22">
  <path fill="white" fill-rule="evenodd" clip-rule="evenodd" d="M10.09 13.786h-.001c-4.283-.046-7.05-2.083-7.05-5.19s2.767-5.144 7.05-5.19c4.285.046 7.052 2.083 7.052 5.19s-2.767 5.144-7.05 5.19zM10.216.898l-.13-.002-.129.002C4.094.994 0 4.16 0 8.596s4.094 7.603 9.956 7.698h.26c5.861-.095 9.955-3.26 9.955-7.698 0-4.437-4.094-7.602-9.955-7.698zM74.92 13.786h-.002c-4.283-.046-7.05-2.083-7.05-5.19s2.767-5.144 7.05-5.19c4.285.046 7.052 2.083 7.052 5.19s-2.767 5.144-7.05 5.19zM75.043.898l-.129-.002-.129.002C68.923.994 64.83 4.16 64.83 8.596s4.094 7.603 9.956 7.698h.26C80.906 16.199 85 13.034 85 8.596 85 4.16 80.906.994 75.044.898zM53.35 13.786h-.002c-4.283-.046-7.05-2.083-7.05-5.19s2.767-5.144 7.05-5.19c4.285.046 7.052 2.083 7.052 5.19s-2.767 5.144-7.05 5.19zM53.473.898l-.129-.002-.129.002c-2.793.046-5.184.788-6.923 2.033V1.618H43.26v19.486h3.034v-6.842c1.739 1.244 4.13 1.987 6.922 2.032h.259c5.862-.095 9.956-3.26 9.956-7.698 0-4.437-4.094-7.602-9.956-7.698zM31.717 13.786h-.002c-4.283-.046-7.05-2.083-7.05-5.19s2.767-5.144 7.05-5.19c4.285.046 7.053 2.083 7.053 5.19S36 13.74 31.717 13.786zm.13-12.888l-.13-.002-.128.002c-2.793.046-5.184.788-6.923 2.033V1.618h-3.034v19.486h3.034v-6.842c1.738 1.244 4.129 1.987 6.921 2.032h.26c5.862-.095 9.956-3.26 9.956-7.698 0-4.437-4.094-7.602-9.956-7.698z"></path>
</svg>
