<svg width="36" height="36" viewBox="0 0 36 36" fill="none" xmlns="http://www.w3.org/2000/svg">
  <defs>
    <mask id="cut-mask">
      <rect width="36" height="36" fill="white" />
      <path d="M18.8164 26.0288C18.5109 25.951 18.2934 25.6808 18.2827 25.3657L17.9792 16.4124C17.8914 15.2275 17.0118 14.285 16.0926 14.0075C16.041 13.9919 15.9859 14.0129 15.9554 14.0573C15.9243 14.1024 15.9363 14.1649 15.9796 14.1984C16.2066 14.3741 16.8313 14.9475 16.8313 15.9366L16.8295 25.5253L18.8164 26.0288Z" fill="black"/>
      <path d="M25.3828 23.3271C25.0776 23.2507 24.8599 22.9813 24.8492 22.6669L24.5456 13.7142C24.4579 12.5292 23.5782 11.5868 22.659 11.3092C22.6074 11.2937 22.5523 11.3147 22.5218 11.3591C22.4907 11.4042 22.5027 11.4666 22.546 11.5002C22.773 11.6759 23.3978 12.2493 23.3978 13.2383L23.3959 22.8303L25.3828 23.3271Z" fill="black"/>
    </mask>
  </defs>
  <g mask="url(#cut-mask)">
    <path d="M20.818 22.1855C19.8481 21.9432 19.168 21.0756 19.168 20.0805L19.168 8.35681C19.168 7.22652 20.236 6.39756 21.3377 6.67277L28.3144 8.41557C29.2843 8.65786 29.9644 9.5255 29.9644 10.5206L29.9644 22.2443C29.9644 23.3746 28.8963 24.2035 27.7947 23.9283L20.818 22.1855Z" fill="white"/>
    <path d="M7.68519 27.5844C6.71525 27.3421 6.03516 26.4745 6.03516 25.4794L6.03516 13.7557C6.03516 12.6254 7.1032 11.7965 8.20488 12.0717L15.1815 13.8145C16.1515 14.0568 16.8316 14.9244 16.8316 15.9195L16.8316 27.6432C16.8316 28.7735 15.7635 29.6024 14.6618 29.3272L7.68519 27.5844Z" fill="white"/>
    <path d="M14.2516 24.8852C13.2817 24.6429 12.6016 23.7753 12.6016 22.7802L12.6016 11.0565C12.6016 9.92621 13.6696 9.09724 14.7713 9.37245L21.7479 11.1153C22.7179 11.3575 23.398 12.2252 23.398 13.2203L23.398 24.944C23.398 26.0743 22.3299 26.9032 21.2283 26.628L14.2516 24.8852Z" fill="white"/>
  </g>
</svg>
