<svg width="49" height="48" viewBox="0 0 49 48" fill="none" xmlns="http://www.w3.org/2000/svg">
<path d="M24.7389 0.000976562C12.1313 0.000976562 1.80299 9.72218 0.821533 22.0763L13.6852 27.3948C14.7751 26.6494 16.0919 26.2126 17.5085 26.2126C17.6354 26.2126 17.7618 26.2181 17.8872 26.224L23.6077 17.9324V17.8152C23.6077 12.8244 27.6675 8.76406 32.6589 8.76406C37.6497 8.76406 41.7096 12.8244 41.7096 17.8152C41.7096 22.806 37.6497 26.8669 32.6589 26.8669C32.59 26.8669 32.5216 26.8669 32.4533 26.8615L24.2946 32.6829C24.3 32.7887 24.3027 32.8967 24.3027 33.0041C24.3027 36.7509 21.2552 39.7978 17.509 39.7978C14.2207 39.7978 11.4711 37.4508 10.8482 34.3426L1.64837 30.5415C4.4967 40.6154 13.7519 48.001 24.7389 48.001C37.9942 48.001 48.7393 37.2555 48.7393 24.0018C48.7393 10.7459 37.9937 0.000976562 24.7389 0.000976562Z" fill="white"/>
<path d="M15.8614 36.4173L12.9132 35.1993C13.4357 36.287 14.3395 37.198 15.5396 37.6982C18.1341 38.7789 21.1251 37.5479 22.2064 34.9513C22.7299 33.6959 22.7332 32.3097 22.214 31.051C21.6958 29.7918 20.7182 28.8098 19.4611 28.2857C18.2138 27.7665 16.8775 27.7855 15.7035 28.2287L18.7488 29.488C20.6623 30.2855 21.5673 32.4828 20.7697 34.3963C19.9738 36.3104 17.7749 37.2153 15.8614 36.4173Z" fill="white"/>
<path fill-rule="evenodd" clip-rule="evenodd" d="M32.6578 11.7845C35.9836 11.7845 38.6887 14.4901 38.6887 17.8154C38.6887 21.1406 35.9836 23.8457 32.6578 23.8457C29.3326 23.8457 26.6269 21.1411 26.6269 17.8154C26.6269 14.4901 29.3326 11.7845 32.6578 11.7845ZM32.6681 13.2748C30.1659 13.2748 28.1374 15.3029 28.1374 17.805C28.1374 20.3067 30.1659 22.3352 32.6681 22.3352C35.1703 22.3352 37.1989 20.3072 37.1989 17.805C37.1989 15.3029 35.1703 13.2748 32.6681 13.2748Z" fill="white"/>
</svg>
