<svg width="192" height="60" viewBox="0 0 192 60" fill="none" xmlns="http://www.w3.org/2000/svg">
	<path fill-rule="evenodd" clip-rule="evenodd"
		  d="M40.2857 0C40.7591 0 41.1429 0.383752 41.1429 0.857139V9.42857C41.1429 9.90196 40.7591 10.2857 40.2857 10.2857H25.7143V38.6494L50.7531 2.22928C51.7125 0.833741 53.2975 0 54.991 0H69.4286C69.902 0 70.2857 0.383752 70.2857 0.857139V40.2857C70.2857 40.7591 69.902 41.1429 69.4286 41.1429H60.8571C60.3838 41.1429 60 40.7591 60 40.2857V34.2857H41.5714L38.3898 38.9136C37.4303 40.3091 35.8454 41.1429 34.1518 41.1429H16.2857C15.8123 41.1429 15.4286 40.7591 15.4286 40.2857V10.2857H0.857143C0.383756 10.2857 0 9.90196 0 9.42857V0.857139C0 0.383752 0.383755 0 0.857142 0H40.2857ZM48.6428 24L60 7.48052V24H48.6428Z"
		  fill="white"/>
	<path
		d="M76.2857 0C75.8123 0 75.4286 0.383752 75.4286 0.857139V40.2857C75.4286 40.7591 75.8123 41.1429 76.2857 41.1429H84.8571C85.3305 41.1429 85.7143 40.7591 85.7143 40.2857V14.961L102.182 38.9136C103.141 40.3091 104.726 41.1429 106.42 41.1429H115.714C116.188 41.1429 116.571 40.7591 116.571 40.2857V0.857139C116.571 0.383752 116.188 0 115.714 0H107.143C106.669 0 106.286 0.383752 106.286 0.857139V26.1818L89.8183 2.22928C88.8589 0.833741 87.2739 0 85.5804 0H76.2857Z"
		fill="white"/>
	<path
		d="M122.571 0C122.098 0 121.714 0.383752 121.714 0.857139V40.2857C121.714 40.7591 122.098 41.1429 122.571 41.1429H131.143C131.616 41.1429 132 40.7591 132 40.2857V25.7143H139.393L148.467 38.9136C149.427 40.3091 151.012 41.1429 152.705 41.1429H162.042C162.387 41.1429 162.591 40.7558 162.396 40.4715L148.714 20.5714L162.396 0.671367C162.591 0.387011 162.387 0 162.042 0H152.705C151.012 0 149.427 0.833741 148.467 2.22928L139.393 15.4286H132V0.857139C132 0.383752 131.616 0 131.143 0H122.571Z"
		fill="white"/>
	<path
		d="M167.143 0C166.669 0 166.286 0.383752 166.286 0.857139V40.2857C166.286 40.7591 166.669 41.1429 167.143 41.1429H175.714C176.188 41.1429 176.571 40.7591 176.571 40.2857V0.857139C176.571 0.383752 176.188 0 175.714 0H167.143Z"
		fill="white"/>
	<path fill-rule="evenodd" clip-rule="evenodd"
		  d="M54 46.2857C51.1597 46.2857 48.8571 48.5882 48.8571 51.4286V54.8571C48.8571 57.6975 51.1597 60 54 60C56.8403 60 59.1428 57.6975 59.1428 54.8571V51.4286C59.1428 48.5882 56.8403 46.2857 54 46.2857ZM56.5714 54.8571V51.4286C56.5714 50.0084 55.4202 48.8571 54 48.8571C52.5798 48.8571 51.4286 50.0084 51.4286 51.4286V54.8571C51.4286 56.2773 52.5798 57.4286 54 57.4286C55.4202 57.4286 56.5714 56.2773 56.5714 54.8571Z"
		  fill="white"/>
	<path
		d="M102.857 46.7143C102.857 46.4776 103.049 46.2857 103.286 46.2857H105C105.237 46.2857 105.429 46.4776 105.429 46.7143V59.5714C105.429 59.8081 105.237 60 105 60H103.286C103.049 60 102.857 59.8081 102.857 59.5714V46.7143Z"
		fill="white"/>
	<path
		d="M87 46.2857C86.7633 46.2857 86.5714 46.4776 86.5714 46.7143V59.5714C86.5714 59.8081 86.7633 60 87 60H94.7143C94.951 60 95.1429 59.8081 95.1429 59.5714V57.8571C95.1429 57.6204 94.951 57.4286 94.7143 57.4286H89.1429V46.7143C89.1429 46.4776 88.951 46.2857 88.7143 46.2857H87Z"
		fill="white"/>
	<path
		d="M133.286 46.2857C133.049 46.2857 132.857 46.4776 132.857 46.7143V59.5714C132.857 59.8081 133.049 60 133.286 60H141C141.237 60 141.429 59.8081 141.429 59.5714V57.8571C141.429 57.6204 141.237 57.4286 141 57.4286H135.429V54.4286H141C141.237 54.4286 141.429 54.2367 141.429 54V52.2857C141.429 52.049 141.237 51.8571 141 51.8571H135.429V48.8571H141C141.237 48.8571 141.429 48.6652 141.429 48.4286V46.7143C141.429 46.4776 141.237 46.2857 141 46.2857H133.286Z"
		fill="white"/>
	<path
		d="M75.8491 59.9999H75.6712C75.5207 59.9999 75.3812 59.9209 75.3037 59.7918L70.2857 51.4284V59.5714C70.2857 59.8081 70.0938 60 69.8571 60H68.1429C67.9062 60 67.7143 59.8081 67.7143 59.5714V46.7143C67.7143 46.4776 67.9062 46.2857 68.1429 46.2857H70.0431C70.1936 46.2857 70.3331 46.3647 70.4106 46.4938L75.4286 54.857V46.7143C75.4286 46.4776 75.6204 46.2857 75.8571 46.2857H77.5714C77.8081 46.2857 78 46.4776 78 46.7143V59.5714C78 59.8081 77.8081 60 77.5714 60H75.8571L75.8491 59.9999Z"
		fill="white"/>
	<path
		d="M122.135 59.9999H121.957C121.806 59.9999 121.667 59.9209 121.589 59.7918L116.571 51.4284V59.5714C116.571 59.8081 116.38 60 116.143 60H114.429C114.192 60 114 59.8081 114 59.5714V46.7143C114 46.4776 114.192 46.2857 114.429 46.2857H116.329C116.479 46.2857 116.619 46.3647 116.696 46.4938L121.714 54.857V46.7143C121.714 46.4776 121.906 46.2857 122.143 46.2857H123.857C124.094 46.2857 124.286 46.4776 124.286 46.7143V59.5714C124.286 59.8081 124.094 60 123.857 60H122.143L122.135 59.9999Z"
		fill="white"/>
	<path
		d="M185.028 0.315784C185.608 -0.105261 186.392 -0.105261 186.972 0.315784L191.318 3.47364C191.898 3.89468 192.14 4.64101 191.919 5.32228L190.259 10.4318C190.037 11.1131 189.403 11.5743 188.686 11.5743H183.314C182.597 11.5743 181.963 11.1131 181.741 10.4318L180.081 5.32228C179.86 4.64101 180.102 3.89468 180.682 3.47364L185.028 0.315784Z"
		fill="white"/>
</svg>
