<svg xmlns="http://www.w3.org/2000/svg" viewBox="159.32 151.86 480.67 461.54" height="461.54" width="480.67" version="1.1">
  <g transform="matrix(1.3333333,0,0,-1.3333333,0,1122.6667)">
    <g transform="translate(259.46,601.8433)">
      <path style="fill:white;fill-opacity:1;fill-rule:evenodd;stroke:none" d="M 0,0 C 0.04,-0.055 0.066,-0.08 0.135,-0.021 0.269,0.094 0.159,0.042 0,0 m 1.365,15.115 c 0.119,0.156 0.162,0.224 -0.088,0.05 -0.272,-0.191 -0.151,-0.143 0.088,-0.05 m 140.117,-33.627 c 0.314,0.167 0.492,0.265 0.498,0.303 0.085,0.429 -0.109,0.127 -0.498,-0.303 M 42.192,83.16 55.643,9.036 c 0.095,-0.184 0.175,-0.352 0.245,-0.503 l 0.199,0.045 21.753,16.213 0.535,-2.945 3.212,-17.671 c 0.262,-1.445 0.44,-2.432 0.618,-2.676 0.237,-0.328 0.183,0.773 1.537,1.757 l 38.513,27.959 -2.027,-5.662 -13.307,-37.164 c -0.484,-1.354 -0.812,-2.272 -0.79,-2.325 0.075,-0.186 0.383,0.304 1.618,0.405 l 74.009,6.074 -8.069,-4.239 -55.787,-29.31 h -0.006 l -0.842,-0.441 c -1.174,-0.608 -1.836,-0.526 -1.908,-0.775 -0.195,-0.69 0.841,0.803 2.314,0.385 l 47.259,-13.426 -7.008,-1.63 -40.993,-9.533 v -0.002 c -1.894,-0.441 -3.374,-0.503 -4.223,-0.289 -0.816,0.205 -1.387,0.659 -1.678,1.34 -0.339,0.794 -0.217,1.59 0.41,2.346 0.5,0.604 1.589,1.316 3.339,2.027 l 0.066,0.022 13.688,4.998 c 2.225,0.812 3.372,0.555 3.38,0.868 0.006,0.256 -1.168,0.162 -3.589,1.163 l -15.015,6.213 c -3.648,1.511 -5.807,2.988 -6.223,4.958 -0.451,2.136 1.076,4.131 4.87,6.422 l 27.528,16.611 0.228,0.137 -33.296,-0.851 c -3.711,-0.095 -5.661,0.624 -6.618,2.377 -0.881,1.611 -0.556,3.645 0.144,6.523 l 4.566,18.701 c 0.352,1.45 0.802,2.011 0.691,2.163 -0.376,0.512 0.133,-0.935 -0.774,-1.473 L 84.461,-3.893 c -3.165,-1.879 -5.336,-2.113 -7.142,-1.007 -1.648,1.009 -2.572,2.999 -3.52,5.796 l -1.835,5.412 c -0.476,1.402 -0.79,2.074 -1.046,2.149 -0.327,0.095 -1.144,-0.3 -2.48,-1.064 H 68.431 L 57.737,1.284 57.708,1.262 C 56,0.334 54.412,-0.244 52.819,0.253 51.208,0.758 49.988,2.231 49.292,5.333 L 38.93,48.029 C 38.077,43.888 37.334,40.22 36.599,36.58 34.416,25.777 32.274,15.183 29.782,4.366 29.751,4.231 29.715,4.105 29.673,3.989 29.297,2.927 28.487,2.177 27.29,1.835 26.415,1.585 25.315,1.579 24.031,1.875 23.601,1.974 23.149,2.106 22.683,2.271 L 22.678,2.273 C 17.399,4.149 9.213,9.259 3.674,12.717 l -0.632,0.394 c 1.195,-3.36 2.305,-6.2 3.229,-8.565 2.291,-5.859 3.561,-9.109 2.208,-11.169 -1.588,-2.422 -5.422,-1.735 -13.622,0.27 3.216,-2.639 6.156,-5.503 6.093,-7.475 -0.058,-1.788 -1.279,-2.83 -4.166,-2.737 l -0.616,0.02 -0.473,0.373 -30.754,24.211 34.514,-7.743 -15.218,32.778 4.581,-2.107 0.001,0.003 c 2.147,-0.969 6.855,-3.963 12.275,-7.41 8.405,-5.345 18.566,-11.808 22.525,-12.969 0.729,4.324 1.809,11.409 3.057,19.592 2.822,18.505 6.489,42.547 9.272,53.853 2.737,11.117 4.916,6.443 6.244,-0.876"/>
    </g>
    <g transform="translate(450.9131,585.1548)">
      <path style="fill:#ffffff;fill-opacity:1;fill-rule:nonzero;stroke:none" d="m 0,0 c -0.033,-0.478 -0.104,-0.901 -0.214,-1.249 l -0.008,-0.006 -26.886,-82.753 -18.238,-56.129 -29.675,10.261 27.403,-17.254 -5.2,-16.006 -39.025,31.173 34.25,-39.262 c -1.075,-0.84 -2.285,-1.58 -3.506,-2.126 -0.564,-0.252 -1.137,-0.456 -1.703,-0.6 -0.512,-0.13 -0.958,-0.2 -1.313,-0.2 v 0.016 h -0.005 v -0.016 h -26.675 l -23.885,43.907 17.587,-43.907 h -30.89 l -9.288,50.905 1.903,-50.905 h -15.764 v 0.016 h -13.304 l 1.603,52.395 -9.66,-52.395 h -30.152 l 15.845,41.136 -22.566,-41.136 h -28.779 v -0.016 c -1.677,0 -3.785,0.938 -5.7,2.315 l 35.09,39.573 -40.305,-32.063 c -1.753,5.389 -3.501,10.764 -5.249,16.141 l 27.524,17.271 -30.184,-9.088 c -9.086,27.948 -18.117,55.754 -27.166,83.618 -5.954,18.33 -11.917,36.689 -17.909,55.129 -0.789,2.43 0.156,6.497 1.915,9.529 0.318,0.549 0.668,1.056 1.04,1.499 0.296,0.352 0.577,0.637 0.836,0.839 l 10e-4,-0.002 0.004,0.003 0.078,0.047 70.394,51.143 70.396,51.145 c 2.069,1.504 6.213,1.864 9.632,1.128 0.611,-0.132 1.193,-0.306 1.725,-0.521 0.447,-0.182 0.834,-0.384 1.137,-0.606 l 0.001,0.001 0.001,-0.002 L -74.489,61.803 -4.096,10.66 C -2.028,9.158 -0.4,5.318 -0.04,1.837 0.025,1.205 0.041,0.586 0,0 m 22.045,21.098 c -0.675,1.162 -1.414,2.278 -2.209,3.324 l -2.15,1.159 -3.285,2.423 c -0.696,0.514 -1.293,1.007 -1.79,1.48 -0.497,0.472 -1.11,1.047 -1.839,1.725 -0.729,0.68 -1.417,1.31 -2.063,1.892 -0.646,0.583 -1.517,1.278 -2.611,2.086 L 4.307,36.509 C 4.139,36.282 3.897,36.267 3.582,36.464 3.267,36.662 2.976,36.788 2.709,36.844 2.442,36.9 2.36,36.892 2.46,36.818 c 0,0 -0.1,0.074 -0.299,0.22 -0.199,0.148 -0.365,0.287 -0.497,0.42 -0.134,0.133 -0.215,0.387 -0.246,0.761 -0.829,0.542 -1.178,0.851 -1.044,0.928 0.134,0.078 -0.098,0.336 -0.695,0.777 l -0.896,0.661 c -1.194,0.882 -2.811,1.97 -4.853,3.266 -2.041,1.295 -3.527,2.146 -4.457,2.552 l -1.195,0.882 0.302,0.409 -1.044,0.771 -0.247,0.603 -3.284,2.425 c -0.299,0.22 -0.598,0.387 -0.897,0.503 -0.298,0.115 -1.029,0.531 -2.191,1.248 -0.829,0.542 -1.402,0.86 -1.719,0.952 -0.315,0.093 -0.623,0.25 -0.921,0.47 -0.199,0.147 -0.315,0.25 -0.348,0.31 -0.033,0.059 -0.299,0.168 -0.798,0.324 -0.133,0.029 -0.258,0.068 -0.374,0.118 -0.116,0.051 -0.358,0.141 -0.723,0.27 l -0.201,-0.272 -0.747,0.551 c -0.198,0.147 -0.381,0.316 -0.547,0.509 -0.165,0.192 -0.348,0.361 -0.546,0.508 l -0.448,0.331 c -0.364,0.339 -0.612,0.68 -0.744,1.023 -0.349,0.911 -5.183,4.194 -7.212,5.693 l 0.538,0.729 -4.049,2.943 c -0.498,0.143 -1.079,0.287 -1.763,0.43 l -1.986,1.466 -2.986,2.204 c -0.197,0.357 -0.338,0.583 -0.421,0.679 -0.082,0.097 -0.174,0.181 -0.273,0.255 -0.199,0.147 -0.381,0.316 -0.546,0.509 -0.102,0.117 -0.24,0.301 -0.415,0.551 l -4.801,3.489 -0.083,0.028 c -0.616,0.208 -2.002,0.934 -4.159,2.175 l -1.061,1.65 -1.141,0.828 -0.183,-0.086 c -0.432,0.458 -0.713,0.649 -0.847,0.572 -0.134,-0.077 -0.317,-0.065 -0.549,0.037 -0.398,0.293 -0.597,0.44 -0.597,0.44 -0.133,0.028 -0.234,-0.004 -0.3,-0.095 -0.034,-0.045 -0.151,0.006 -0.35,0.153 -0.199,0.147 -0.34,0.321 -0.422,0.522 -0.082,0.201 -0.238,0.457 -0.469,0.768 -0.364,0.55 -0.737,0.878 -1.12,0.984 -0.382,0.107 -0.805,0.366 -1.269,0.78 -0.199,0.146 -0.465,0.412 -0.795,0.797 -0.109,0.127 -0.209,0.246 -0.297,0.358 l -7.308,5.31 -3.445,1.855 -3.284,2.424 c -0.696,0.513 -1.294,1.007 -1.79,1.479 -0.497,0.472 -1.11,1.048 -1.839,1.726 l -0.204,0.19 -6.91,5.02 c -0.026,0.013 -0.05,0.028 -0.076,0.045 -0.316,0.197 -0.607,0.324 -0.873,0.38 -0.266,0.056 -0.349,0.047 -0.25,-0.026 0,0 -0.099,0.073 -0.298,0.22 -0.199,0.147 -0.365,0.287 -0.497,0.419 -0.11,0.11 -0.185,0.302 -0.226,0.574 l -10.474,7.611 c -0.598,0.335 -1.095,0.587 -1.492,0.761 l -1.194,0.881 0.148,0.201 -9.242,6.715 c -0.311,0.094 -0.613,0.248 -0.908,0.465 -0.198,0.147 -0.314,0.251 -0.348,0.31 -0.033,0.059 -0.298,0.168 -0.798,0.325 -0.132,0.028 -0.257,0.067 -0.374,0.118 -0.116,0.051 -0.356,0.141 -0.723,0.27 l -0.2,-0.272 -0.747,0.551 c -0.199,0.146 -0.381,0.316 -0.547,0.508 -0.165,0.193 -0.348,0.362 -0.546,0.509 l -0.448,0.331 c -0.365,0.339 -0.613,0.68 -0.744,1.023 -0.349,0.911 -5.182,4.193 -7.212,5.692 l 0.022,0.031 -5.068,3.682 c -6.409,4.657 -18.066,6.023 -27.228,4.05 -1.835,-0.395 -3.58,-0.916 -5.173,-1.563 -1.678,-0.68 -3.219,-1.509 -4.562,-2.485 l -0.002,-0.002 h -0.001 l -6.62,-4.81 c -0.349,-0.322 -0.585,-0.588 -0.653,-0.763 -0.13,-0.341 -0.379,-0.682 -0.741,-1.023 l -0.449,-0.329 c -0.2,-0.146 -0.381,-0.318 -0.547,-0.513 -0.164,-0.188 -0.347,-0.36 -0.545,-0.504 l -0.747,-0.555 -0.202,0.275 c -0.364,-0.129 -0.606,-0.22 -0.723,-0.271 -0.114,-0.051 -0.243,-0.089 -0.375,-0.115 -0.187,-0.059 -0.341,-0.111 -0.462,-0.157 l -10.733,-7.797 0.048,-0.064 -1.194,-0.881 c -0.131,-0.058 -0.274,-0.123 -0.427,-0.198 l -11.592,-8.422 c -0.042,-0.145 -0.1,-0.255 -0.172,-0.326 -0.134,-0.132 -0.295,-0.273 -0.497,-0.419 -0.2,-0.148 -0.299,-0.221 -0.299,-0.221 0.099,0.073 0.016,0.081 -0.25,0.026 -0.037,-0.007 -0.074,-0.016 -0.111,-0.026 l -8.776,-6.376 c -0.38,-0.356 -0.719,-0.675 -1.016,-0.956 -0.494,-0.475 -1.09,-0.966 -1.788,-1.483 l -3.285,-2.423 -2.327,-1.252 -8.885,-6.456 c -0.256,-0.286 -0.467,-0.489 -0.631,-0.613 -0.466,-0.412 -0.887,-0.672 -1.271,-0.779 l -0.024,-0.007 -0.8,-0.582 c -0.099,-0.115 -0.197,-0.247 -0.294,-0.395 -0.231,-0.313 -0.389,-0.566 -0.47,-0.767 -0.087,-0.203 -0.225,-0.374 -0.423,-0.521 -0.199,-0.148 -0.316,-0.2 -0.347,-0.153 -0.067,0.09 -0.168,0.121 -0.302,0.094 0,0 -0.198,-0.148 -0.597,-0.441 -0.231,-0.099 -0.415,-0.114 -0.549,-0.036 -0.016,0.008 -0.032,0.014 -0.052,0.016 l -0.763,-0.555 -0.031,-0.032 -0.008,0.004 -1.571,-1.141 -0.805,-1.257 c -1.647,-0.946 -2.844,-1.593 -3.593,-1.939 l -5.781,-4.2 c -0.031,-0.04 -0.06,-0.075 -0.086,-0.105 -0.164,-0.191 -0.347,-0.36 -0.547,-0.509 -0.1,-0.071 -0.191,-0.155 -0.273,-0.253 -0.082,-0.096 -0.222,-0.322 -0.42,-0.68 l -2.985,-2.202 -1.989,-1.467 c -0.48,-0.101 -0.909,-0.201 -1.296,-0.302 l -4.414,-3.207 0.438,-0.594 c -2.03,-1.5 -6.865,-4.782 -7.212,-5.692 -0.13,-0.342 -0.382,-0.684 -0.743,-1.023 l -0.45,-0.333 c -0.198,-0.145 -0.381,-0.315 -0.546,-0.505 -0.166,-0.194 -0.348,-0.363 -0.545,-0.51 l -0.746,-0.55 -0.202,0.271 c -0.369,-0.13 -0.605,-0.219 -0.722,-0.27 -0.118,-0.05 -0.241,-0.088 -0.378,-0.118 -0.499,-0.156 -0.763,-0.264 -0.797,-0.326 -0.032,-0.058 -0.148,-0.161 -0.348,-0.308 -0.3,-0.222 -0.603,-0.378 -0.921,-0.47 -0.315,-0.093 -0.89,-0.409 -1.718,-0.952 -1.16,-0.716 -1.892,-1.134 -2.19,-1.247 -0.302,-0.117 -0.599,-0.284 -0.899,-0.504 l -3.281,-2.424 -0.25,-0.604 -1.043,-0.772 0.302,-0.408 -1.195,-0.883 c -0.932,-0.405 -2.416,-1.256 -4.456,-2.55 -2.042,-1.296 -3.661,-2.386 -4.854,-3.267 l -0.897,-0.661 c -0.597,-0.443 -0.83,-0.701 -0.694,-0.777 0.134,-0.077 -0.215,-0.388 -1.046,-0.927 -0.03,-0.375 -0.111,-0.628 -0.244,-0.761 -0.131,-0.133 -0.297,-0.275 -0.498,-0.422 -0.198,-0.145 -0.299,-0.218 -0.299,-0.218 0.101,0.073 0.017,0.08 -0.248,0.024 -0.266,-0.055 -0.557,-0.181 -0.873,-0.379 -0.314,-0.199 -0.557,-0.182 -0.725,0.044 l -1.79,-1.323 c -1.095,-0.805 -1.967,-1.503 -2.613,-2.083 -0.646,-0.584 -1.335,-1.214 -2.063,-1.894 -0.728,-0.678 -1.342,-1.252 -1.837,-1.724 -0.498,-0.473 -1.095,-0.968 -1.792,-1.482 l -3.283,-2.423 -5.279,-2.843 -0.138,-0.102 c -4.936,-5.378 -8.545,-14.201 -9.357,-22.064 -0.193,-1.864 -0.239,-3.677 -0.119,-5.383 0.043,-0.598 0.106,-1.186 0.188,-1.763 l 1.232,-3.789 c -0.031,-0.273 -0.056,-0.53 -0.078,-0.774 l 1.845,-5.675 0.461,0.15 c 0.781,-2.399 2.369,-8.023 3.124,-8.641 0.283,-0.233 0.529,-0.576 0.735,-1.029 l 0.173,-0.529 c 0.076,-0.235 0.179,-0.462 0.31,-0.679 0.13,-0.218 0.234,-0.445 0.31,-0.68 l 0.286,-0.882 -0.321,-0.105 c 0.007,-0.388 0.016,-0.645 0.028,-0.771 0.01,-0.126 0.008,-0.257 -0.007,-0.393 -0.008,-0.523 0.011,-0.809 0.057,-0.86 0.046,-0.049 0.107,-0.192 0.183,-0.427 0.115,-0.353 0.167,-0.694 0.155,-1.023 -0.012,-0.329 0.108,-0.973 0.361,-1.931 0.061,-0.26 0.117,-0.5 0.167,-0.721 l 2.7,-8.297 0.463,0.151 0.459,-1.412 c 0.073,-0.807 0.304,-2.04 0.692,-3.699 l 3.052,-9.377 c 0.033,-0.095 0.069,-0.204 0.106,-0.327 l 0.172,-0.527 c 0.329,-0.144 0.534,-0.298 0.616,-0.461 0.084,-0.167 0.164,-0.369 0.241,-0.605 0.077,-0.235 0.115,-0.353 0.115,-0.353 -0.038,0.118 -0.073,0.042 -0.104,-0.228 -0.031,-0.271 -0.003,-0.587 0.085,-0.947 0.037,-0.154 0.043,-0.282 0.016,-0.386 l 2.048,-6.294 0.424,-1.303 0.227,-0.5 c 0.414,-0.906 0.766,-1.669 1.057,-2.289 0.291,-0.621 0.571,-1.343 0.839,-2.167 l 1.262,-3.881 0.586,-3.362 3.125,-9.602 c 0.226,-0.385 0.373,-0.686 0.444,-0.903 0.245,-0.57 0.357,-1.054 0.338,-1.45 l -10e-4,-0.046 0.299,-0.92 c 0.079,-0.131 0.172,-0.267 0.282,-0.407 0.222,-0.318 0.416,-0.547 0.581,-0.688 0.165,-0.141 0.285,-0.329 0.361,-0.565 0.078,-0.236 0.089,-0.362 0.035,-0.38 -0.107,-0.034 -0.169,-0.119 -0.185,-0.254 0,0 0.077,-0.236 0.23,-0.707 0.023,-0.252 -0.023,-0.429 -0.139,-0.532 l -0.011,-0.012 0.955,-2.937 0.849,-1.053 c 0.311,-1.528 0.525,-2.705 0.642,-3.531 l 2.721,-8.363 0.039,-0.071 c 0.065,-0.108 0.235,-0.313 0.511,-0.614 l 1.148,-3.528 0.764,-2.348 c -0.031,-0.272 -0.057,-0.529 -0.079,-0.773 l 1.845,-5.676 0.462,0.15 c 0.78,-2.4 2.369,-8.023 3.123,-8.641 0.284,-0.233 0.529,-0.576 0.736,-1.029 l 0.172,-0.529 c 0.076,-0.235 0.18,-0.462 0.31,-0.679 0.131,-0.218 0.234,-0.445 0.31,-0.68 l 0.287,-0.882 -0.322,-0.105 c 0.008,-0.388 0.017,-0.645 0.028,-0.771 0.011,-0.126 0.009,-0.257 -0.006,-0.393 -0.008,-0.523 0.01,-0.809 0.056,-0.859 0.046,-0.05 0.108,-0.193 0.184,-0.428 0.115,-0.353 0.167,-0.694 0.155,-1.024 -0.012,-0.328 0.108,-0.972 0.361,-1.93 0.067,-0.287 0.128,-0.55 0.182,-0.79 l 2.671,-8.232 0.477,0.155 0.459,-1.412 c 0.076,-0.844 0.326,-2.156 0.747,-3.936 l 2.853,-8.804 c 0.104,-0.184 0.235,-0.576 0.393,-1.178 0.346,-0.148 0.56,-0.305 0.645,-0.473 0.083,-0.167 0.164,-0.369 0.241,-0.605 0.076,-0.235 0.114,-0.352 0.114,-0.352 -0.038,0.117 -0.072,0.041 -0.104,-0.229 -0.03,-0.27 -0.002,-0.587 0.086,-0.948 0.045,-0.186 0.044,-0.334 -0.005,-0.447 l 2.298,-7.104 c 0.136,-0.303 0.277,-0.614 0.422,-0.93 0.414,-0.907 0.766,-1.67 1.057,-2.29 0.291,-0.622 0.57,-1.343 0.838,-2.166 l 1.103,-3.392 c 3.67,-6.143 10.681,-12.023 17.666,-15.144 1.089,-0.486 2.175,-0.91 3.246,-1.262 v 0.12 c 2.524,-0.005 8.362,-0.241 9.186,0.281 0.309,0.198 0.711,0.324 1.205,0.382 h 0.557 c 0.248,-0.002 0.495,0.026 0.743,0.083 0.245,0.056 0.493,0.084 0.74,0.083 h 0.929 v -0.34 c 0.369,-0.114 0.617,-0.185 0.741,-0.214 0.122,-0.027 0.248,-0.071 0.37,-0.128 0.497,-0.169 0.773,-0.24 0.835,-0.212 0.062,0.028 0.218,0.042 0.464,0.04 0.371,0.002 0.711,-0.056 1.021,-0.171 0.307,-0.112 0.959,-0.198 1.947,-0.255 1.36,-0.118 2.196,-0.216 2.506,-0.302 0.307,-0.084 0.647,-0.127 1.018,-0.128 l 4.082,-0.005 0.557,0.337 1.298,-0.002 0.003,0.509 1.483,-0.001 c 0.99,-0.228 2.69,-0.428 5.1,-0.601 2.414,-0.173 4.36,-0.261 5.844,-0.263 l 1.114,-10e-4 c 0.742,-0.002 1.082,0.068 1.02,0.21 -0.06,0.142 0.402,0.184 1.392,0.125 0.25,0.283 0.466,0.438 0.65,0.466 0.186,0.028 0.403,0.041 0.649,0.041 0.249,-0.001 0.372,0 0.372,0 -0.123,-0.001 -0.062,-0.056 0.185,-0.172 0.247,-0.112 0.557,-0.183 0.928,-0.21 0.372,-0.03 0.556,-0.187 0.556,-0.468 l 2.225,-0.004 c 1.36,-0.001 2.475,0.038 3.341,0.123 0.865,0.082 1.794,0.181 2.785,0.292 0.988,0.111 1.823,0.209 2.503,0.292 0.681,0.086 1.453,0.125 2.32,0.125 l 4.082,-0.006 5.935,-0.855 6.308,-0.01 c 0.246,0.112 0.617,0.224 1.113,0.337 0.495,0.114 0.866,0.168 1.113,0.169 0.62,0.054 1.113,0.012 1.486,-0.129 0.369,-0.142 0.866,-0.102 1.484,0.125 0.371,0.114 0.649,0.224 0.834,0.337 0.189,0.112 0.403,0.17 0.65,0.168 0.248,0.001 0.372,-0.027 0.371,-0.084 -0.001,-0.112 0.06,-0.199 0.186,-0.254 0,0 0.248,0 0.743,-0.002 0.244,-0.057 0.4,-0.156 0.461,-0.297 0.062,-0.142 0.403,-0.156 1.02,-0.044 l 0.186,-0.34 0.928,-0.002 2.227,0.845 c 2.473,-0.286 4.021,-0.527 4.639,-0.727 0.616,-0.198 1.234,-0.298 1.854,-0.298 l 3.525,-0.006 c 0.619,0.225 1.051,0.366 1.299,0.423 0.247,0.054 0.495,0.083 0.742,0.083 0.125,-0.001 0.248,0.013 0.371,0.041 0.124,0.029 0.371,0.126 0.743,0.296 l 3.709,-0.005 2.47,-0.004 c 1.13,-0.519 2.001,-0.843 2.693,-1.036 h 2.908 c 0.32,0.093 0.646,0.178 1.078,0.177 v 1.019 c 2.525,-0.004 8.364,-0.24 9.184,0.285 0.31,0.196 0.713,0.322 1.206,0.379 h 0.56 c 0.245,-0.002 0.492,0.027 0.74,0.083 0.248,0.056 0.494,0.084 0.741,0.083 h 0.929 v -0.338 c 0.371,-0.115 0.616,-0.188 0.74,-0.216 0.123,-0.028 0.248,-0.07 0.373,-0.127 0.494,-0.171 0.771,-0.241 0.834,-0.213 0.062,0.029 0.216,0.041 0.463,0.041 0.372,-0.001 0.712,-0.056 1.021,-0.171 0.31,-0.113 0.958,-0.199 1.947,-0.256 1.36,-0.115 2.195,-0.216 2.503,-0.3 0.31,-0.086 0.65,-0.13 1.022,-0.13 l 4.08,-0.004 0.559,0.336 1.298,-0.001 v 0.51 l 1.486,-0.003 c 0.989,-0.229 2.688,-0.428 5.1,-0.601 2.412,-0.174 4.359,-0.261 5.843,-0.262 l 1.115,-0.003 c 0.744,10e-4 1.082,0.069 1.02,0.212 -0.061,0.141 0.401,0.182 1.391,0.125 0.248,0.282 0.465,0.437 0.65,0.463 0.185,0.031 0.402,0.044 0.649,0.042 0.248,-0.001 0.373,0 0.373,0 -0.125,-0.001 -0.063,-0.056 0.184,-0.17 0.246,-0.113 0.557,-0.184 0.928,-0.212 0.37,-0.029 0.556,-0.185 0.555,-0.468 l 2.226,-0.002 c 1.361,-0.003 2.476,0.037 3.342,0.121 0.865,0.083 1.792,0.182 2.782,0.294 0.989,0.111 1.825,0.209 2.504,0.292 0.682,0.085 1.455,0.126 2.32,0.125 l 4.082,-0.006 5.936,-0.856 6.222,-0.01 0.129,0.02 c 0.247,0.106 0.606,0.211 1.071,0.319 0.493,0.111 0.865,0.168 1.113,0.168 l 0.132,0.01 c 6.774,1.787 14.154,6.536 19.08,12.044 0.709,0.795 1.369,1.6 1.97,2.407 0.105,0.578 0.234,1.238 0.385,1.982 l 1.498,1.854 0.286,0.882 -0.268,0.283 c 0.301,0.553 0.394,0.881 0.277,0.983 -0.114,0.102 -0.162,0.28 -0.139,0.531 0.153,0.472 0.229,0.707 0.229,0.707 -0.013,0.135 -0.076,0.22 -0.182,0.255 -0.056,0.018 -0.043,0.145 0.033,0.38 0.076,0.235 0.197,0.423 0.361,0.564 0.167,0.142 0.36,0.372 0.581,0.69 0.407,0.517 0.601,0.975 0.58,1.373 -0.019,0.395 0.094,0.88 0.339,1.449 0.077,0.236 0.245,0.573 0.505,1.007 0.26,0.436 0.483,0.753 0.669,0.953 l 1.951,5.999 1.029,5.907 1.263,3.883 c 0.268,0.821 0.547,1.545 0.839,2.165 0.291,0.621 0.643,1.384 1.057,2.29 0.414,0.906 0.795,1.758 1.142,2.555 0.35,0.797 0.735,1.842 1.156,3.137 l 0.689,2.115 c -0.27,0.09 -0.361,0.312 -0.272,0.676 0.087,0.361 0.115,0.677 0.084,0.946 -0.03,0.27 -0.067,0.347 -0.104,0.229 0,0 0.037,0.118 0.115,0.353 0.077,0.235 0.157,0.437 0.24,0.604 0.085,0.168 0.301,0.327 0.645,0.474 0.254,0.958 0.437,1.387 0.553,1.284 0.116,-0.103 0.288,0.199 0.518,0.905 l 0.344,1.058 c 0.459,1.412 0.98,3.29 1.564,5.636 0.587,2.347 0.924,4.024 1.015,5.036 l 0.458,1.411 0.485,-0.158 0.401,1.235 0.495,0.426 1.265,3.88 c 0.114,0.353 0.178,0.689 0.193,1.01 0.016,0.321 0.179,1.145 0.492,2.473 0.253,0.959 0.373,1.602 0.36,1.932 -0.009,0.329 0.041,0.669 0.156,1.023 0.076,0.235 0.138,0.378 0.184,0.427 0.045,0.05 0.064,0.337 0.056,0.86 -0.015,0.135 -0.017,0.267 -0.004,0.392 0.01,0.127 0.018,0.383 0.027,0.772 l -0.324,0.105 0.288,0.882 c 0.075,0.235 0.18,0.461 0.31,0.68 0.129,0.217 0.233,0.444 0.31,0.678 l 0.171,0.53 c 0.207,0.452 0.453,0.797 0.738,1.028 0.753,0.619 2.341,6.243 3.122,8.643 l 0.969,-0.316 c 0.541,1.667 1.876,1.229 1.26,6.614 l 0.762,2.348 1.148,3.528 c 0.277,0.301 0.447,0.505 0.513,0.615 0.067,0.108 0.116,0.222 0.155,0.339 0.076,0.235 0.18,0.462 0.309,0.679 0.131,0.218 0.398,0.585 0.806,1.104 l 1.09,3.352 c 0.193,0.588 0.29,1.207 0.291,1.857 0.004,0.649 0.254,2.194 0.75,4.634 l 1.497,1.854 0.287,0.883 -0.267,0.281 c 0.299,0.552 0.392,0.881 0.276,0.983 -0.115,0.102 -0.163,0.281 -0.139,0.533 0.153,0.47 0.229,0.707 0.229,0.707 -0.014,0.133 -0.076,0.218 -0.182,0.254 -0.056,0.018 -0.043,0.143 0.033,0.379 0.075,0.235 0.196,0.422 0.361,0.564 0.166,0.143 0.359,0.372 0.581,0.689 0.407,0.519 0.601,0.976 0.581,1.373 -0.019,0.396 0.093,0.881 0.338,1.451 0.076,0.234 0.244,0.57 0.505,1.006 0.26,0.436 0.483,0.753 0.668,0.953 l 1.951,5.999 1.029,5.908 1.262,3.881 c 0.269,0.824 0.548,1.545 0.84,2.167 0.29,0.62 0.643,1.384 1.058,2.29 0.413,0.907 0.795,1.757 1.143,2.555 0.349,0.796 0.734,1.841 1.154,3.135 l 0.689,2.117 c -0.27,0.088 -0.36,0.313 -0.271,0.676 0.086,0.36 0.115,0.675 0.084,0.946 -0.03,0.27 -0.067,0.346 -0.105,0.227 0,0 0.038,0.119 0.116,0.355 0.076,0.235 0.157,0.437 0.242,0.604 0.082,0.168 0.297,0.326 0.644,0.474 0.253,0.958 0.437,1.385 0.552,1.282 0.115,-0.103 0.288,0.2 0.517,0.905 l 0.345,1.059 c 0.459,1.411 0.98,3.29 1.565,5.636 0.585,2.347 0.922,4.025 1.013,5.036 l 0.459,1.411 0.485,-0.157 0.401,1.235 0.496,0.424 1.263,3.881 c 0.114,0.355 0.178,0.689 0.193,1.01 0.016,0.321 0.181,1.146 0.494,2.474 0.251,0.958 0.371,1.601 0.361,1.932 -0.011,0.328 0.038,0.668 0.153,1.022 0.077,0.234 0.139,0.377 0.184,0.428 0.045,0.051 0.065,0.335 0.057,0.859 -0.014,0.135 -0.017,0.266 -0.006,0.393 0.012,0.127 0.02,0.383 0.028,0.77 l -0.324,0.106 0.288,0.882 c 0.077,0.235 0.18,0.461 0.311,0.679 0.129,0.218 0.232,0.445 0.31,0.68 l 0.171,0.528 c 0.206,0.454 0.453,0.798 0.738,1.03 0.022,0.019 0.046,0.042 0.07,0.07 -0.306,6.267 -2.388,13.224 -5.538,18.653"/>
    </g>
    <g transform="translate(253.0347,511.8311)">
      <path style="fill:#ffffff;fill-opacity:1;fill-rule:evenodd;stroke:none" d="m 0,0 -9.283,-13.356 c -1.343,-1.598 -2.625,-3.353 -3.717,0.335 l -4.352,9.965 c -1.047,2.397 -1.092,3.854 1.009,4.188 L -1.724,3.471 C 4.107,4.387 0.57,1.067 0,0 m -9.043,-49.728 c -15.096,-1.355 -27.487,2.614 -23.739,2.437 3.558,-0.171 7.186,-0.344 10.88,-0.514 3.754,-0.173 7.629,-0.363 11.544,-0.54 3.845,-0.051 7.579,-1.417 2.63,-1.382 -0.439,0.003 -0.88,0.002 -1.315,-0.001 m -24.805,4.173 c -2.333,0.068 -8.776,2.192 -2.015,2.104 3.528,-0.05 4.539,-0.207 8.225,-0.256 3.746,-0.049 7.59,-0.089 11.512,-0.137 1.976,-0.028 9.179,-2.507 3.573,-2.341 -0.385,0.012 -0.772,0.024 -1.155,0.034 -6.713,0.195 -13.426,0.399 -20.14,0.596 m -6.072,4.303 c -5.556,-0.202 -6.348,2.617 -0.408,2.71 3.494,0.039 4.054,-0.138 7.701,-0.1 3.727,0.042 7.544,0.094 11.434,0.141 3.08,0.033 8.732,-3.091 3.773,-2.749 -7.5,0 -15,-0.002 -22.5,-0.002 m -5.987,4.69 c -4.679,-0.076 -7.337,3.266 -0.099,3.591 5.348,0.189 12.366,0.029 17.715,0.223 5.027,0.186 9.684,-3.19 3.413,-3.328 -6.98,-0.167 -14.056,-0.634 -21.029,-0.486 m -4.535,5.906 c -4.284,-0.109 -6.845,3.573 -0.847,3.825 6.831,0.229 13.451,0.146 20.283,0.396 4.107,0.147 9.116,-3.625 1.831,-3.816 -7.572,-0.312 -13.714,-0.086 -21.267,-0.405 m -4.039,6.07 c -4.783,-0.168 -8.063,4.433 -1.477,4.543 7.791,0.13 14.836,0.088 22.632,0.239 5.335,0.096 8.086,-4.461 1.732,-4.663 -7.465,-0.254 -14.175,0.154 -21.641,-0.055 -0.618,-0.023 -0.633,-0.043 -1.246,-0.064 m -3.859,7.07 c -5.919,-0.057 -3.087,6.145 1.644,6.077 4.084,-0.054 5.578,-0.011 9.844,-0.068 4.373,-0.057 8.856,-0.119 13.431,-0.178 5.409,-0.07 6.958,-5.535 1.322,-5.591 -8.747,-0.099 -17.495,-0.164 -26.241,-0.24 m 1.097,8.901 c -4.313,-0.13 -2.788,2.37 2.682,2.228 6.583,-0.154 13.278,-0.149 19.865,-0.311 6.787,-0.162 6.915,-2.384 1.368,-2.295 -0.262,0.004 -0.525,0.008 -0.787,0.012 -7.354,0.088 -14.709,0.239 -22.063,0.349 -0.355,0.006 -0.711,0.012 -1.065,0.017 m -1.081,80.886 70.586,-16.655 c 4.421,-1.75 3.486,-7.834 -1.447,-5.883 l -70.751,16.721 c -3.147,1.243 -1.557,7.071 1.612,5.817 M 104.408,33.532 c 0.476,-2.609 -0.372,-3.149 -2.909,-3.242 -6.265,-0.648 -48.913,3.489 -52.894,12.094 -3.942,8.522 -7.444,21.894 -2.23,22.613 9.633,-0.499 42.084,-5.977 52.042,-15.13 3.35,-3.079 5.201,-12.013 5.991,-16.335 M 97.413,0.056 c -0.571,1.067 -4.107,4.386 1.723,3.47 l 14.619,-2.339 c 2.101,-0.334 2.057,-1.791 1.009,-4.187 l -4.351,-9.965 c -1.092,-3.689 -2.373,-1.934 -3.717,-0.335 z m 9.044,-49.728 c -0.437,0.002 -0.877,0.004 -1.317,10e-4 -4.948,-0.036 -1.215,1.33 2.631,1.381 3.915,0.177 7.79,0.367 11.544,0.54 3.694,0.17 7.321,0.344 10.88,0.515 3.748,0.177 -8.643,-3.793 -23.738,-2.437 m 24.803,4.173 c -6.713,-0.198 -13.426,-0.402 -20.139,-0.597 -0.383,-0.009 -0.77,-0.022 -1.156,-0.033 -5.605,-0.166 1.598,2.313 3.574,2.34 3.922,0.048 7.765,0.089 11.511,0.138 3.687,0.048 4.699,0.206 8.226,0.255 6.762,0.089 0.318,-2.036 -2.016,-2.103 m 6.073,4.303 c -7.5,0 -15,0.002 -22.5,0.002 -4.959,-0.343 0.693,2.781 3.773,2.749 3.89,-0.048 7.707,-0.099 11.435,-0.141 3.646,-0.039 4.207,0.138 7.7,0.099 5.939,-0.092 5.147,-2.911 -0.408,-2.709 m 5.987,4.689 c -6.973,-0.148 -14.049,0.319 -21.029,0.486 -6.271,0.139 -1.615,3.515 3.413,3.328 5.348,-0.194 12.367,-0.034 17.714,-0.223 7.239,-0.324 4.581,-3.667 -0.098,-3.591 m 4.535,5.906 c -7.553,0.319 -13.695,0.093 -21.267,0.406 -7.286,0.191 -2.276,3.963 1.831,3.816 6.832,-0.25 13.453,-0.167 20.283,-0.397 5.998,-0.251 3.437,-3.934 -0.847,-3.825 m 4.039,6.07 c -0.613,0.021 -0.628,0.042 -1.246,0.064 -7.467,0.21 -14.177,-0.199 -21.641,0.055 -6.354,0.202 -3.604,4.759 1.732,4.663 7.796,-0.15 14.841,-0.108 22.632,-0.239 6.586,-0.11 3.306,-4.711 -1.477,-4.543 m 3.858,7.071 c -8.746,0.075 -17.494,0.14 -26.24,0.239 -5.637,0.056 -4.087,5.521 1.321,5.591 4.576,0.059 9.059,0.121 13.431,0.178 4.267,0.057 5.761,0.014 9.845,0.068 4.731,0.069 7.563,-6.133 1.643,-6.076 m -1.096,8.901 c -0.354,-0.005 -0.71,-0.011 -1.065,-0.018 -7.354,-0.11 -14.71,-0.26 -22.063,-0.348 -0.262,-0.005 -0.525,-0.009 -0.787,-0.013 -5.547,-0.089 -5.419,2.133 1.368,2.295 6.587,0.163 13.282,0.157 19.865,0.311 5.47,0.142 6.994,-2.357 2.682,-2.227 M -1.094,-24.416 c -7.805,1.635 -4.788,5.067 -2.261,8.957 l 10.331,15.9 c 3.282,5.578 10.356,7.504 6.796,1.758 L 10.84,-2.535 c -1.048,-1.693 -2.374,-3.493 0.936,-3.895 25.385,-3.091 48.541,-3.028 73.86,0.056 3.311,0.401 1.986,2.202 0.937,3.895 L 83.641,2.255 C 80.081,8 87.156,6.074 90.437,0.496 l 10.331,-15.9 c 2.526,-3.89 5.544,-7.322 -2.262,-8.956 -31.56,-6.61 -67.893,-6.696 -99.6,-0.056 M -1.38,17.407 c -3.283,-3.67 -2.374,-3.33 -7.724,-3.878 l -23.258,-2.057 c -8.922,-0.789 -17.102,-1.195 -25.545,-4.52 -8.663,-3.41 -12.974,-10.272 -1.671,-10.091 -0.349,-0.203 -0.671,-0.432 -0.956,-0.689 -1.188,-1.075 -2.185,-3.48 -2.366,-4.834 -0.051,-0.378 0.854,-0.163 0.75,-0.436 -1.079,-2.833 -4.831,-3.833 -2.205,-8.612 0.219,-0.401 1.153,-0.207 1.258,-0.727 0.195,-0.957 -1.347,-3.546 2.167,-7.472 0.37,-0.413 1.279,0.37 1.545,-0.041 1.539,-2.385 -0.197,-4.42 3.289,-6.61 0.512,-0.322 1.382,0.118 1.666,-0.202 1.712,-1.929 0.82,-4.054 4.158,-5.666 0.398,-0.191 1.164,0.505 1.417,0.274 1.831,-1.666 1.308,-3.981 4.431,-5.278 0.353,-0.148 0.97,0.44 1.275,0.211 0.733,-0.552 0.903,-2.002 1.64,-2.527 0.893,-0.634 2.911,-0.636 3.821,-1.236 0.885,-0.583 0.687,-1.702 1.644,-2.15 4.291,-2.007 9.373,-2.821 14.401,-3.182 5.162,-0.371 10.31,-0.283 14.368,-0.501 4.48,-0.24 7.757,1.027 12.269,3.508 4.576,2.516 11.92,7.843 22.317,13.013 15.83,-1.129 26.035,-1.14 42.791,0.056 10.397,-5.171 17.74,-10.498 22.317,-13.014 4.511,-2.481 7.789,-3.748 12.269,-3.508 4.057,0.218 9.206,0.131 14.367,0.501 5.029,0.361 10.111,1.176 14.403,3.183 0.956,0.448 0.758,1.566 1.642,2.149 0.91,0.6 2.929,0.602 3.821,1.237 0.738,0.525 0.908,1.974 1.641,2.526 0.305,0.229 0.921,-0.358 1.275,-0.21 3.122,1.296 2.6,3.611 4.431,5.277 0.253,0.231 1.019,-0.464 1.417,-0.273 3.338,1.611 2.446,3.736 4.158,5.665 0.283,0.32 1.154,-0.12 1.665,0.203 3.487,2.189 1.751,4.224 3.29,6.609 0.266,0.411 1.174,-0.372 1.545,0.042 3.514,3.925 1.973,6.514 2.166,7.472 0.106,0.519 1.04,0.325 1.259,0.727 2.626,4.778 -1.126,5.779 -2.206,8.612 -0.104,0.272 0.802,0.058 0.751,0.436 -0.182,1.354 -1.178,3.759 -2.366,4.833 -0.285,0.257 -0.608,0.486 -0.956,0.689 11.303,-0.181 6.992,6.681 -1.671,10.091 -14.266,5.619 -34.029,5.214 -48.818,6.522 -5.349,0.548 -4.441,0.208 -7.723,3.878 -0.935,0.977 -1.575,1.957 -2.28,2.999 4.788,0.863 9.221,1.818 13.172,2.841 1.694,0.438 2.788,2.097 2.62,4.25 -0.834,10.625 -2.304,14.718 -5.707,23.354 -2.041,5.183 -3.193,4.995 -8.001,7.734 -8.676,4.942 -24.673,10.029 -34.188,12.125 -0.056,1.497 -0.11,2.536 -0.11,2.933 0,1.821 -10.223,3.309 -22.759,3.309 -12.535,0 -22.759,-1.488 -22.759,-3.309 0,-0.455 -0.004,-1.903 -0.094,-3.396 C 10.325,69.213 3.756,67.729 1.232,66.006 0.394,65.433 -0.391,64.797 -1.127,64.11 L -63.818,77.943 C -71.217,80.281 -76.546,62.12 -69.169,59 l 58.062,-14.595 c -2.52,-7.1 -1.982,-9.026 -4.19,-17.378 4.596,-2.617 10.16,-4.703 16.391,-6.325 -0.939,-0.971 -1.448,-2.221 -2.474,-3.295"/>
    </g>
  </g>
</svg>
