<svg width="24" height="8" viewBox="0 0 24 8" fill="none" xmlns="http://www.w3.org/2000/svg">
<path fill-rule="evenodd" clip-rule="evenodd" d="M20.75 0C20.6119 0 20.5 0.111929 20.5 0.25V1H18.25C18.1119 1 18 1.11193 18 1.25V1.75C18 1.88807 18.1119 2 18.25 2H20.5V3H18.25C18.1119 3 18 3.11193 18 3.25V5.75C18 5.88807 18.1119 6 18.25 6H19.5V6.5C19.5 6.77614 19.2761 7 19 7H18.25C18.1119 7 18 7.11193 18 7.25V7.75C18 7.88807 18.1119 8 18.25 8H19C19.8284 8 20.5 7.32843 20.5 6.5V6H21.5V7.75C21.5 7.88807 21.6119 8 21.75 8H23.75C23.8881 8 24 7.88807 24 7.75V7.25C24 7.11193 23.8881 7 23.75 7H22.5V6H23.75C23.8881 6 24 5.88807 24 5.75V3.25C24 3.11193 23.8881 3 23.75 3H21.5V2H23.75C23.8881 2 24 1.88807 24 1.75V1.25C24 1.11193 23.8881 1 23.75 1H21.5V0.25C21.5 0.111929 21.3881 0 21.25 0H20.75ZM23 5V4H19V5H23Z" fill="white"/>
<path fill-rule="evenodd" clip-rule="evenodd" d="M5.25 1C5.11193 1 5 1.11193 5 1.25V7.75C5 7.88807 5.11193 8 5.25 8H7.5C8.32843 8 9 7.32843 9 6.5V2.5C9 1.67157 8.32843 1 7.5 1H5.25ZM7.5 2H6V7H7.5C7.77614 7 8 6.77614 8 6.5V2.5C8 2.22386 7.77614 2 7.5 2Z" fill="white"/>
<path fill-rule="evenodd" clip-rule="evenodd" d="M13.25 1C13.1119 1 13 1.11193 13 1.25V5.75C13 5.88807 13.1119 6 13.25 6H16.75C16.8881 6 17 5.88807 17 5.75V1.25C17 1.11193 16.8881 1 16.75 1H13.25ZM14 5V4H16V5H14ZM14 3H16V2H14V3Z" fill="white"/>
<path d="M10.75 1C10.6119 1 10.5 1.11193 10.5 1.25V2H10.25C10.1119 2 10 2.11193 10 2.25V2.75C10 2.88807 10.1119 3 10.25 3H10.5V7H10.25C10.1119 7 10 7.11193 10 7.25V7.75C10 7.88807 10.1119 8 10.25 8H11.75C11.8881 8 12 7.88807 12 7.75V7.25C12 7.11193 11.8881 7 11.75 7H11.5V3H11.75C11.8881 3 12 2.88807 12 2.75V2.25C12 2.11193 11.8881 2 11.75 2H11.5V1.25C11.5 1.11193 11.3881 1 11.25 1H10.75Z" fill="white"/>
<path d="M1.5 1C0.671573 1 0 1.67157 0 2.5V2.75C0 2.88807 0.111929 3 0.25 3H0.75C0.888071 3 1 2.88807 1 2.75V2.5C1 2.22386 1.22386 2 1.5 2H2.5C2.77614 2 3 2.22386 3 2.5V4H1.75C1.61193 4 1.5 4.11193 1.5 4.25V4.75C1.5 4.88807 1.61193 5 1.75 5H3V6.5C3 6.77614 2.77614 7 2.5 7H1.5C1.22386 7 1 6.77614 1 6.5V6.25C1 6.11193 0.888071 6 0.75 6H0.25C0.111929 6 0 6.11193 0 6.25V6.5C0 7.32843 0.671573 8 1.5 8H2.5C3.32843 8 4 7.32843 4 6.5V2.5C4 1.67157 3.32843 1 2.5 1H1.5Z" fill="white"/>
<path d="M13 7.25C13 7.11193 13.1119 7 13.25 7H16.75C16.8881 7 17 7.11193 17 7.25V7.75C17 7.88807 16.8881 8 16.75 8H13.25C13.1119 8 13 7.88807 13 7.75V7.25Z" fill="white"/>
</svg>
