<svg xmlns="http://www.w3.org/2000/svg" viewBox="0 0 80 72" width="100" height="90">
  <path fill="white" d="
    M33.79 25.607V22.44c0-.686-.608-1.226-1.305-1.168l-12.862 1.27s-.668.059-1.32.102c-1.172.073-2.048.103-2.7-.175-.386-.16-.89-.525-1.143-1.094-.089-.19-.34-.234-.475-.073-.756.773-1.498 1.956-1.794 3.05-.312 1.182-.401 2.759.578 3.941.712.861 1.973 1.591 4.658 1.314.638-.059 1.32-.132 1.706-.175a.294.294 0 0 1 .327.292v15.894c0 .686.608 1.227 1.305 1.168l4.006-.394c1.513-.146 2.67-1.401 2.67-2.905v-14.61a.3.3 0 0 1 .267-.292l3.694-.365c1.35-.146 2.389-1.27 2.389-2.613 
    M50.197 44.028c-.386-.38-.564-1.124-.564-2.452v-11.02c0-1.211-.92-2.029-2.834-2.481a18.6 18.6 0 0 0-4.302-.511c-2.3 0-4.896.467-7.477 1.854-2.581 1.4-4.48 3.75-5.207 6.48-.312 1.139-1.083 5.109 1.706 8.232 1.483 1.664 3.753 2.628 6.068 2.584 2.447-.044 4.524-1.226 5.444-2.146.83.847 2.018 1.197 3.56 1.197 1.588 0 2.997-.525 3.783-1.138.164-.132.134-.365-.044-.482-.03-.03-.089-.073-.133-.117m-8.145-5.736c0 1.65-.786 2.423-1.454 2.773-.356.19-.742.263-1.068.263-.4 0-.757-.102-.95-.19-.786-.365-1.201-1.021-1.335-2.072-.104-.803-.178-2.876 1.246-4.744.846-1.11 2.107-1.854 3.057-1.81a.55.55 0 0 1 .519.54z 
    M64.574 26.98c-2.433.146-4.525 1.24-5.445 2.146-.83-.847-2.017-1.197-3.56-1.197-1.588 0-2.997.525-3.783 1.138-.163.132-.134.365.044.482.06.03.104.073.164.131.385.38.563 1.124.563 2.452v20.026c0 .686.609 1.226 1.306 1.168l3.62-.365c1.513-.146 2.67-1.401 2.67-2.905v-4.583c1.87.628 5.133.453 7.7-1.036 2.195-1.27 3.976-3.401 4.673-6.35.282-1.153.934-5.634-1.855-8.757-1.513-1.679-3.679-2.51-6.097-2.35m-.875 12.363c-.846 1.11-2.092 1.853-3.056 1.81a.547.547 0 0 1-.52-.54v-5.24c0-1.65.787-2.423 1.454-2.773.356-.19.742-.263 1.068-.263.4 0 .757.102.95.19.786.364 1.201 1.021 1.335 2.072.119.818.193 2.876-1.231 4.744
  "/>
</svg>
