<svg width="36" height="36" viewBox="0 0 36 36" fill="none" xmlns="http://www.w3.org/2000/svg">
  <path fill-rule="evenodd" clip-rule="evenodd" d="M25.0373 16.5811C24.1462 16.5811 23.4239 17.3195 23.4239 18.2304C23.4239 19.1412 24.1462 19.8796 25.0373 19.8796C25.9284 19.8796 26.6507 19.1412 26.6507 18.2304C26.6507 17.3195 25.9284 16.5811 25.0373 16.5811ZM19.845 18.2304C19.845 15.299 22.1697 12.9227 25.0373 12.9227C27.9049 12.9227 30.2296 15.299 30.2296 18.2304C30.2296 21.1617 27.9049 23.5381 25.0373 23.5381C22.1697 23.5381 19.845 21.1617 19.845 18.2304Z" fill="white"/>
  <path fill-rule="evenodd" clip-rule="evenodd" d="M11.1827 15.8495L8.48861 13.1555L5.93991 15.7042L8.63398 18.3982L5.94007 21.0921L8.48877 23.6408L11.1827 20.9469L13.8765 23.6408L16.4252 21.0921L13.7314 18.3982L16.4254 15.7042L13.8767 13.1555L11.1827 15.8495Z" fill="white"/>
</svg>
