<svg xmlns="http://www.w3.org/2000/svg" viewBox="0 0 35.45 35.45">
  <path fill="white" d="M14.55,13.5l-3.7,4.41-3.7-4.41c-.47-.55-1.29-.63-1.85-.16-.55.47-.63,1.29-.16,1.85l4,4.76-1.03,1.23c-.47.55-.39,1.38.16,1.85.25.21.54.31.84.31.37,0,.75-.16,1-.47l6.45-7.68c.47-.55.39-1.38-.16-1.85-.55-.47-1.38-.39-1.85.16Z"/>
  <path fill="white" d="M30.15,13.33c-.56-.46-1.38-.39-1.85.16l-3.69,4.42-3.71-4.42c-.47-.55-1.29-.63-1.85-.16-.55.47-.63,1.29-.16,1.85l4.01,4.77-1.02,1.22c-.46.56-.39,1.38.16,1.85.25.21.54.31.84.31.37,0,.75-.16,1.01-.47l6.42-7.68c.46-.56.39-1.38-.16-1.85Z"/>
</svg>
